<?xml version="1.0" encoding="utf-8" standalone="no"?>
<!DOCTYPE svg PUBLIC "-//W3C//DTD SVG 1.1//EN"
  "http://www.w3.org/Graphics/SVG/1.1/DTD/svg11.dtd">
<svg xmlns:xlink="http://www.w3.org/1999/xlink" width="792pt" height="360pt" viewBox="0 0 792 360" xmlns="http://www.w3.org/2000/svg" version="1.1">
 <metadata>
  <rdf:RDF xmlns:dc="http://purl.org/dc/elements/1.1/" xmlns:cc="http://creativecommons.org/ns#" xmlns:rdf="http://www.w3.org/1999/02/22-rdf-syntax-ns#">
   <cc:Work>
    <dc:type rdf:resource="http://purl.org/dc/dcmitype/StillImage"/>
    <dc:date>2026-03-10T06:00:19.756343</dc:date>
    <dc:format>image/svg+xml</dc:format>
    <dc:creator>
     <cc:Agent>
      <dc:title>Matplotlib v3.10.8, https://matplotlib.org/</dc:title>
     </cc:Agent>
    </dc:creator>
   </cc:Work>
  </rdf:RDF>
 </metadata>
 <defs>
  <style type="text/css">*{stroke-linejoin: round; stroke-linecap: butt}</style>
 </defs>
 <g id="figure_1">
  <g id="patch_1">
   <path d="M 0 360 
L 792 360 
L 792 0 
L 0 0 
z
" style="fill: #ffffff"/>
  </g>
  <g id="axes_1">
   <g id="patch_2">
    <path d="M 52.85 318.04 
L 781.2 318.04 
L 781.2 26.88 
L 52.85 26.88 
z
" style="fill: #ffffff"/>
   </g>
   <g id="patch_3">
    <path d="M 350.811364 167.807675 
L 483.238636 167.807675 
L 483.238636 136.044766 
L 350.811364 136.044766 
L 350.811364 167.807675 
z
" clip-path="url(#p9f8328d551)" style="fill: none; stroke: #595959; stroke-width: 0.9; stroke-linejoin: miter"/>
   </g>
   <g id="matplotlib.axis_1">
    <g id="xtick_1">
     <g id="line2d_1">
      <path d="M 85.956818 318.04 
L 85.956818 26.88 
" clip-path="url(#p9f8328d551)" style="fill: none; stroke-dasharray: 0.8,1.32; stroke-dashoffset: 0; stroke: #b0b0b0; stroke-opacity: 0.5; stroke-width: 0.8"/>
     </g>
     <g id="line2d_2">
      <defs>
       <path id="m443c31036e" d="M 0 0 
L 0 3.5 
" style="stroke: #000000; stroke-width: 0.8"/>
      </defs>
      <g>
       <use xlink:href="#m443c31036e" x="85.956818" y="318.04" style="stroke: #000000; stroke-width: 0.8"/>
      </g>
     </g>
     <g id="text_1">
      <!-- 0 -->
      <g transform="translate(82.775568 332.638438) scale(0.1 -0.1)">
       <defs>
        <path id="DejaVuSans-30" d="M 2034 4250 
Q 1547 4250 1301 3770 
Q 1056 3291 1056 2328 
Q 1056 1369 1301 889 
Q 1547 409 2034 409 
Q 2525 409 2770 889 
Q 3016 1369 3016 2328 
Q 3016 3291 2770 3770 
Q 2525 4250 2034 4250 
z
M 2034 4750 
Q 2819 4750 3233 4129 
Q 3647 3509 3647 2328 
Q 3647 1150 3233 529 
Q 2819 -91 2034 -91 
Q 1250 -91 836 529 
Q 422 1150 422 2328 
Q 422 3509 836 4129 
Q 1250 4750 2034 4750 
z
" transform="scale(0.015625)"/>
       </defs>
       <use xlink:href="#DejaVuSans-30"/>
      </g>
     </g>
    </g>
    <g id="xtick_2">
     <g id="line2d_3">
      <path d="M 207.853628 318.04 
L 207.853628 26.88 
" clip-path="url(#p9f8328d551)" style="fill: none; stroke-dasharray: 0.8,1.32; stroke-dashoffset: 0; stroke: #b0b0b0; stroke-opacity: 0.5; stroke-width: 0.8"/>
     </g>
     <g id="line2d_4">
      <g>
       <use xlink:href="#m443c31036e" x="207.853628" y="318.04" style="stroke: #000000; stroke-width: 0.8"/>
      </g>
     </g>
     <g id="text_2">
      <!-- 20 -->
      <g transform="translate(201.491128 332.638438) scale(0.1 -0.1)">
       <defs>
        <path id="DejaVuSans-32" d="M 1228 531 
L 3431 531 
L 3431 0 
L 469 0 
L 469 531 
Q 828 903 1448 1529 
Q 2069 2156 2228 2338 
Q 2531 2678 2651 2914 
Q 2772 3150 2772 3378 
Q 2772 3750 2511 3984 
Q 2250 4219 1831 4219 
Q 1534 4219 1204 4116 
Q 875 4013 500 3803 
L 500 4441 
Q 881 4594 1212 4672 
Q 1544 4750 1819 4750 
Q 2544 4750 2975 4387 
Q 3406 4025 3406 3419 
Q 3406 3131 3298 2873 
Q 3191 2616 2906 2266 
Q 2828 2175 2409 1742 
Q 1991 1309 1228 531 
z
" transform="scale(0.015625)"/>
       </defs>
       <use xlink:href="#DejaVuSans-32"/>
       <use xlink:href="#DejaVuSans-30" transform="translate(63.623047 0)"/>
      </g>
     </g>
    </g>
    <g id="xtick_3">
     <g id="line2d_5">
      <path d="M 329.750438 318.04 
L 329.750438 26.88 
" clip-path="url(#p9f8328d551)" style="fill: none; stroke-dasharray: 0.8,1.32; stroke-dashoffset: 0; stroke: #b0b0b0; stroke-opacity: 0.5; stroke-width: 0.8"/>
     </g>
     <g id="line2d_6">
      <g>
       <use xlink:href="#m443c31036e" x="329.750438" y="318.04" style="stroke: #000000; stroke-width: 0.8"/>
      </g>
     </g>
     <g id="text_3">
      <!-- 40 -->
      <g transform="translate(323.387938 332.638438) scale(0.1 -0.1)">
       <defs>
        <path id="DejaVuSans-34" d="M 2419 4116 
L 825 1625 
L 2419 1625 
L 2419 4116 
z
M 2253 4666 
L 3047 4666 
L 3047 1625 
L 3713 1625 
L 3713 1100 
L 3047 1100 
L 3047 0 
L 2419 0 
L 2419 1100 
L 313 1100 
L 313 1709 
L 2253 4666 
z
" transform="scale(0.015625)"/>
       </defs>
       <use xlink:href="#DejaVuSans-34"/>
       <use xlink:href="#DejaVuSans-30" transform="translate(63.623047 0)"/>
      </g>
     </g>
    </g>
    <g id="xtick_4">
     <g id="line2d_7">
      <path d="M 451.647247 318.04 
L 451.647247 26.88 
" clip-path="url(#p9f8328d551)" style="fill: none; stroke-dasharray: 0.8,1.32; stroke-dashoffset: 0; stroke: #b0b0b0; stroke-opacity: 0.5; stroke-width: 0.8"/>
     </g>
     <g id="line2d_8">
      <g>
       <use xlink:href="#m443c31036e" x="451.647247" y="318.04" style="stroke: #000000; stroke-width: 0.8"/>
      </g>
     </g>
     <g id="text_4">
      <!-- 60 -->
      <g transform="translate(445.284747 332.638438) scale(0.1 -0.1)">
       <defs>
        <path id="DejaVuSans-36" d="M 2113 2584 
Q 1688 2584 1439 2293 
Q 1191 2003 1191 1497 
Q 1191 994 1439 701 
Q 1688 409 2113 409 
Q 2538 409 2786 701 
Q 3034 994 3034 1497 
Q 3034 2003 2786 2293 
Q 2538 2584 2113 2584 
z
M 3366 4563 
L 3366 3988 
Q 3128 4100 2886 4159 
Q 2644 4219 2406 4219 
Q 1781 4219 1451 3797 
Q 1122 3375 1075 2522 
Q 1259 2794 1537 2939 
Q 1816 3084 2150 3084 
Q 2853 3084 3261 2657 
Q 3669 2231 3669 1497 
Q 3669 778 3244 343 
Q 2819 -91 2113 -91 
Q 1303 -91 875 529 
Q 447 1150 447 2328 
Q 447 3434 972 4092 
Q 1497 4750 2381 4750 
Q 2619 4750 2861 4703 
Q 3103 4656 3366 4563 
z
" transform="scale(0.015625)"/>
       </defs>
       <use xlink:href="#DejaVuSans-36"/>
       <use xlink:href="#DejaVuSans-30" transform="translate(63.623047 0)"/>
      </g>
     </g>
    </g>
    <g id="xtick_5">
     <g id="line2d_9">
      <path d="M 573.544057 318.04 
L 573.544057 26.88 
" clip-path="url(#p9f8328d551)" style="fill: none; stroke-dasharray: 0.8,1.32; stroke-dashoffset: 0; stroke: #b0b0b0; stroke-opacity: 0.5; stroke-width: 0.8"/>
     </g>
     <g id="line2d_10">
      <g>
       <use xlink:href="#m443c31036e" x="573.544057" y="318.04" style="stroke: #000000; stroke-width: 0.8"/>
      </g>
     </g>
     <g id="text_5">
      <!-- 80 -->
      <g transform="translate(567.181557 332.638438) scale(0.1 -0.1)">
       <defs>
        <path id="DejaVuSans-38" d="M 2034 2216 
Q 1584 2216 1326 1975 
Q 1069 1734 1069 1313 
Q 1069 891 1326 650 
Q 1584 409 2034 409 
Q 2484 409 2743 651 
Q 3003 894 3003 1313 
Q 3003 1734 2745 1975 
Q 2488 2216 2034 2216 
z
M 1403 2484 
Q 997 2584 770 2862 
Q 544 3141 544 3541 
Q 544 4100 942 4425 
Q 1341 4750 2034 4750 
Q 2731 4750 3128 4425 
Q 3525 4100 3525 3541 
Q 3525 3141 3298 2862 
Q 3072 2584 2669 2484 
Q 3125 2378 3379 2068 
Q 3634 1759 3634 1313 
Q 3634 634 3220 271 
Q 2806 -91 2034 -91 
Q 1263 -91 848 271 
Q 434 634 434 1313 
Q 434 1759 690 2068 
Q 947 2378 1403 2484 
z
M 1172 3481 
Q 1172 3119 1398 2916 
Q 1625 2713 2034 2713 
Q 2441 2713 2670 2916 
Q 2900 3119 2900 3481 
Q 2900 3844 2670 4047 
Q 2441 4250 2034 4250 
Q 1625 4250 1398 4047 
Q 1172 3844 1172 3481 
z
" transform="scale(0.015625)"/>
       </defs>
       <use xlink:href="#DejaVuSans-38"/>
       <use xlink:href="#DejaVuSans-30" transform="translate(63.623047 0)"/>
      </g>
     </g>
    </g>
    <g id="xtick_6">
     <g id="line2d_11">
      <path d="M 695.440867 318.04 
L 695.440867 26.88 
" clip-path="url(#p9f8328d551)" style="fill: none; stroke-dasharray: 0.8,1.32; stroke-dashoffset: 0; stroke: #b0b0b0; stroke-opacity: 0.5; stroke-width: 0.8"/>
     </g>
     <g id="line2d_12">
      <g>
       <use xlink:href="#m443c31036e" x="695.440867" y="318.04" style="stroke: #000000; stroke-width: 0.8"/>
      </g>
     </g>
     <g id="text_6">
      <!-- 100 -->
      <g transform="translate(685.897117 332.638438) scale(0.1 -0.1)">
       <defs>
        <path id="DejaVuSans-31" d="M 794 531 
L 1825 531 
L 1825 4091 
L 703 3866 
L 703 4441 
L 1819 4666 
L 2450 4666 
L 2450 531 
L 3481 531 
L 3481 0 
L 794 0 
L 794 531 
z
" transform="scale(0.015625)"/>
       </defs>
       <use xlink:href="#DejaVuSans-31"/>
       <use xlink:href="#DejaVuSans-30" transform="translate(63.623047 0)"/>
       <use xlink:href="#DejaVuSans-30" transform="translate(127.246094 0)"/>
      </g>
     </g>
    </g>
    <g id="text_7">
     <!-- Wall time since first sample (s) -->
     <g transform="translate(339.873437 346.316563) scale(0.1 -0.1)">
      <defs>
       <path id="DejaVuSans-57" d="M 213 4666 
L 850 4666 
L 1831 722 
L 2809 4666 
L 3519 4666 
L 4500 722 
L 5478 4666 
L 6119 4666 
L 4947 0 
L 4153 0 
L 3169 4050 
L 2175 0 
L 1381 0 
L 213 4666 
z
" transform="scale(0.015625)"/>
       <path id="DejaVuSans-61" d="M 2194 1759 
Q 1497 1759 1228 1600 
Q 959 1441 959 1056 
Q 959 750 1161 570 
Q 1363 391 1709 391 
Q 2188 391 2477 730 
Q 2766 1069 2766 1631 
L 2766 1759 
L 2194 1759 
z
M 3341 1997 
L 3341 0 
L 2766 0 
L 2766 531 
Q 2569 213 2275 61 
Q 1981 -91 1556 -91 
Q 1019 -91 701 211 
Q 384 513 384 1019 
Q 384 1609 779 1909 
Q 1175 2209 1959 2209 
L 2766 2209 
L 2766 2266 
Q 2766 2663 2505 2880 
Q 2244 3097 1772 3097 
Q 1472 3097 1187 3025 
Q 903 2953 641 2809 
L 641 3341 
Q 956 3463 1253 3523 
Q 1550 3584 1831 3584 
Q 2591 3584 2966 3190 
Q 3341 2797 3341 1997 
z
" transform="scale(0.015625)"/>
       <path id="DejaVuSans-6c" d="M 603 4863 
L 1178 4863 
L 1178 0 
L 603 0 
L 603 4863 
z
" transform="scale(0.015625)"/>
       <path id="DejaVuSans-20" transform="scale(0.015625)"/>
       <path id="DejaVuSans-74" d="M 1172 4494 
L 1172 3500 
L 2356 3500 
L 2356 3053 
L 1172 3053 
L 1172 1153 
Q 1172 725 1289 603 
Q 1406 481 1766 481 
L 2356 481 
L 2356 0 
L 1766 0 
Q 1100 0 847 248 
Q 594 497 594 1153 
L 594 3053 
L 172 3053 
L 172 3500 
L 594 3500 
L 594 4494 
L 1172 4494 
z
" transform="scale(0.015625)"/>
       <path id="DejaVuSans-69" d="M 603 3500 
L 1178 3500 
L 1178 0 
L 603 0 
L 603 3500 
z
M 603 4863 
L 1178 4863 
L 1178 4134 
L 603 4134 
L 603 4863 
z
" transform="scale(0.015625)"/>
       <path id="DejaVuSans-6d" d="M 3328 2828 
Q 3544 3216 3844 3400 
Q 4144 3584 4550 3584 
Q 5097 3584 5394 3201 
Q 5691 2819 5691 2113 
L 5691 0 
L 5113 0 
L 5113 2094 
Q 5113 2597 4934 2840 
Q 4756 3084 4391 3084 
Q 3944 3084 3684 2787 
Q 3425 2491 3425 1978 
L 3425 0 
L 2847 0 
L 2847 2094 
Q 2847 2600 2669 2842 
Q 2491 3084 2119 3084 
Q 1678 3084 1418 2786 
Q 1159 2488 1159 1978 
L 1159 0 
L 581 0 
L 581 3500 
L 1159 3500 
L 1159 2956 
Q 1356 3278 1631 3431 
Q 1906 3584 2284 3584 
Q 2666 3584 2933 3390 
Q 3200 3197 3328 2828 
z
" transform="scale(0.015625)"/>
       <path id="DejaVuSans-65" d="M 3597 1894 
L 3597 1613 
L 953 1613 
Q 991 1019 1311 708 
Q 1631 397 2203 397 
Q 2534 397 2845 478 
Q 3156 559 3463 722 
L 3463 178 
Q 3153 47 2828 -22 
Q 2503 -91 2169 -91 
Q 1331 -91 842 396 
Q 353 884 353 1716 
Q 353 2575 817 3079 
Q 1281 3584 2069 3584 
Q 2775 3584 3186 3129 
Q 3597 2675 3597 1894 
z
M 3022 2063 
Q 3016 2534 2758 2815 
Q 2500 3097 2075 3097 
Q 1594 3097 1305 2825 
Q 1016 2553 972 2059 
L 3022 2063 
z
" transform="scale(0.015625)"/>
       <path id="DejaVuSans-73" d="M 2834 3397 
L 2834 2853 
Q 2591 2978 2328 3040 
Q 2066 3103 1784 3103 
Q 1356 3103 1142 2972 
Q 928 2841 928 2578 
Q 928 2378 1081 2264 
Q 1234 2150 1697 2047 
L 1894 2003 
Q 2506 1872 2764 1633 
Q 3022 1394 3022 966 
Q 3022 478 2636 193 
Q 2250 -91 1575 -91 
Q 1294 -91 989 -36 
Q 684 19 347 128 
L 347 722 
Q 666 556 975 473 
Q 1284 391 1588 391 
Q 1994 391 2212 530 
Q 2431 669 2431 922 
Q 2431 1156 2273 1281 
Q 2116 1406 1581 1522 
L 1381 1569 
Q 847 1681 609 1914 
Q 372 2147 372 2553 
Q 372 3047 722 3315 
Q 1072 3584 1716 3584 
Q 2034 3584 2315 3537 
Q 2597 3491 2834 3397 
z
" transform="scale(0.015625)"/>
       <path id="DejaVuSans-6e" d="M 3513 2113 
L 3513 0 
L 2938 0 
L 2938 2094 
Q 2938 2591 2744 2837 
Q 2550 3084 2163 3084 
Q 1697 3084 1428 2787 
Q 1159 2491 1159 1978 
L 1159 0 
L 581 0 
L 581 3500 
L 1159 3500 
L 1159 2956 
Q 1366 3272 1645 3428 
Q 1925 3584 2291 3584 
Q 2894 3584 3203 3211 
Q 3513 2838 3513 2113 
z
" transform="scale(0.015625)"/>
       <path id="DejaVuSans-63" d="M 3122 3366 
L 3122 2828 
Q 2878 2963 2633 3030 
Q 2388 3097 2138 3097 
Q 1578 3097 1268 2742 
Q 959 2388 959 1747 
Q 959 1106 1268 751 
Q 1578 397 2138 397 
Q 2388 397 2633 464 
Q 2878 531 3122 666 
L 3122 134 
Q 2881 22 2623 -34 
Q 2366 -91 2075 -91 
Q 1284 -91 818 406 
Q 353 903 353 1747 
Q 353 2603 823 3093 
Q 1294 3584 2113 3584 
Q 2378 3584 2631 3529 
Q 2884 3475 3122 3366 
z
" transform="scale(0.015625)"/>
       <path id="DejaVuSans-66" d="M 2375 4863 
L 2375 4384 
L 1825 4384 
Q 1516 4384 1395 4259 
Q 1275 4134 1275 3809 
L 1275 3500 
L 2222 3500 
L 2222 3053 
L 1275 3053 
L 1275 0 
L 697 0 
L 697 3053 
L 147 3053 
L 147 3500 
L 697 3500 
L 697 3744 
Q 697 4328 969 4595 
Q 1241 4863 1831 4863 
L 2375 4863 
z
" transform="scale(0.015625)"/>
       <path id="DejaVuSans-72" d="M 2631 2963 
Q 2534 3019 2420 3045 
Q 2306 3072 2169 3072 
Q 1681 3072 1420 2755 
Q 1159 2438 1159 1844 
L 1159 0 
L 581 0 
L 581 3500 
L 1159 3500 
L 1159 2956 
Q 1341 3275 1631 3429 
Q 1922 3584 2338 3584 
Q 2397 3584 2469 3576 
Q 2541 3569 2628 3553 
L 2631 2963 
z
" transform="scale(0.015625)"/>
       <path id="DejaVuSans-70" d="M 1159 525 
L 1159 -1331 
L 581 -1331 
L 581 3500 
L 1159 3500 
L 1159 2969 
Q 1341 3281 1617 3432 
Q 1894 3584 2278 3584 
Q 2916 3584 3314 3078 
Q 3713 2572 3713 1747 
Q 3713 922 3314 415 
Q 2916 -91 2278 -91 
Q 1894 -91 1617 61 
Q 1341 213 1159 525 
z
M 3116 1747 
Q 3116 2381 2855 2742 
Q 2594 3103 2138 3103 
Q 1681 3103 1420 2742 
Q 1159 2381 1159 1747 
Q 1159 1113 1420 752 
Q 1681 391 2138 391 
Q 2594 391 2855 752 
Q 3116 1113 3116 1747 
z
" transform="scale(0.015625)"/>
       <path id="DejaVuSans-28" d="M 1984 4856 
Q 1566 4138 1362 3434 
Q 1159 2731 1159 2009 
Q 1159 1288 1364 580 
Q 1569 -128 1984 -844 
L 1484 -844 
Q 1016 -109 783 600 
Q 550 1309 550 2009 
Q 550 2706 781 3412 
Q 1013 4119 1484 4856 
L 1984 4856 
z
" transform="scale(0.015625)"/>
       <path id="DejaVuSans-29" d="M 513 4856 
L 1013 4856 
Q 1481 4119 1714 3412 
Q 1947 2706 1947 2009 
Q 1947 1309 1714 600 
Q 1481 -109 1013 -844 
L 513 -844 
Q 928 -128 1133 580 
Q 1338 1288 1338 2009 
Q 1338 2731 1133 3434 
Q 928 4138 513 4856 
z
" transform="scale(0.015625)"/>
      </defs>
      <use xlink:href="#DejaVuSans-57"/>
      <use xlink:href="#DejaVuSans-61" transform="translate(92.501953 0)"/>
      <use xlink:href="#DejaVuSans-6c" transform="translate(153.78125 0)"/>
      <use xlink:href="#DejaVuSans-6c" transform="translate(181.564453 0)"/>
      <use xlink:href="#DejaVuSans-20" transform="translate(209.347656 0)"/>
      <use xlink:href="#DejaVuSans-74" transform="translate(241.134766 0)"/>
      <use xlink:href="#DejaVuSans-69" transform="translate(280.34375 0)"/>
      <use xlink:href="#DejaVuSans-6d" transform="translate(308.126953 0)"/>
      <use xlink:href="#DejaVuSans-65" transform="translate(405.539062 0)"/>
      <use xlink:href="#DejaVuSans-20" transform="translate(467.0625 0)"/>
      <use xlink:href="#DejaVuSans-73" transform="translate(498.849609 0)"/>
      <use xlink:href="#DejaVuSans-69" transform="translate(550.949219 0)"/>
      <use xlink:href="#DejaVuSans-6e" transform="translate(578.732422 0)"/>
      <use xlink:href="#DejaVuSans-63" transform="translate(642.111328 0)"/>
      <use xlink:href="#DejaVuSans-65" transform="translate(697.091797 0)"/>
      <use xlink:href="#DejaVuSans-20" transform="translate(758.615234 0)"/>
      <use xlink:href="#DejaVuSans-66" transform="translate(790.402344 0)"/>
      <use xlink:href="#DejaVuSans-69" transform="translate(825.607422 0)"/>
      <use xlink:href="#DejaVuSans-72" transform="translate(853.390625 0)"/>
      <use xlink:href="#DejaVuSans-73" transform="translate(894.503906 0)"/>
      <use xlink:href="#DejaVuSans-74" transform="translate(946.603516 0)"/>
      <use xlink:href="#DejaVuSans-20" transform="translate(985.8125 0)"/>
      <use xlink:href="#DejaVuSans-73" transform="translate(1017.599609 0)"/>
      <use xlink:href="#DejaVuSans-61" transform="translate(1069.699219 0)"/>
      <use xlink:href="#DejaVuSans-6d" transform="translate(1130.978516 0)"/>
      <use xlink:href="#DejaVuSans-70" transform="translate(1228.390625 0)"/>
      <use xlink:href="#DejaVuSans-6c" transform="translate(1291.867188 0)"/>
      <use xlink:href="#DejaVuSans-65" transform="translate(1319.650391 0)"/>
      <use xlink:href="#DejaVuSans-20" transform="translate(1381.173828 0)"/>
      <use xlink:href="#DejaVuSans-28" transform="translate(1412.960938 0)"/>
      <use xlink:href="#DejaVuSans-73" transform="translate(1451.974609 0)"/>
      <use xlink:href="#DejaVuSans-29" transform="translate(1504.074219 0)"/>
     </g>
    </g>
   </g>
   <g id="matplotlib.axis_2">
    <g id="ytick_1">
     <g id="line2d_13">
      <path d="M 52.85 271.831502 
L 781.2 271.831502 
" clip-path="url(#p9f8328d551)" style="fill: none; stroke-dasharray: 0.8,1.32; stroke-dashoffset: 0; stroke: #b0b0b0; stroke-opacity: 0.5; stroke-width: 0.8"/>
     </g>
     <g id="line2d_14">
      <defs>
       <path id="m7442d490f0" d="M 0 0 
L -3.5 0 
" style="stroke: #000000; stroke-width: 0.8"/>
      </defs>
      <g>
       <use xlink:href="#m7442d490f0" x="52.85" y="271.831502" style="stroke: #000000; stroke-width: 0.8"/>
      </g>
     </g>
     <g id="text_8">
      <!-- −40 -->
      <g transform="translate(24.745313 275.630721) scale(0.1 -0.1)">
       <defs>
        <path id="DejaVuSans-2212" d="M 678 2272 
L 4684 2272 
L 4684 1741 
L 678 1741 
L 678 2272 
z
" transform="scale(0.015625)"/>
       </defs>
       <use xlink:href="#DejaVuSans-2212"/>
       <use xlink:href="#DejaVuSans-34" transform="translate(83.789062 0)"/>
       <use xlink:href="#DejaVuSans-30" transform="translate(147.412109 0)"/>
      </g>
     </g>
    </g>
    <g id="ytick_2">
     <g id="line2d_15">
      <path d="M 52.85 211.878861 
L 781.2 211.878861 
" clip-path="url(#p9f8328d551)" style="fill: none; stroke-dasharray: 0.8,1.32; stroke-dashoffset: 0; stroke: #b0b0b0; stroke-opacity: 0.5; stroke-width: 0.8"/>
     </g>
     <g id="line2d_16">
      <g>
       <use xlink:href="#m7442d490f0" x="52.85" y="211.878861" style="stroke: #000000; stroke-width: 0.8"/>
      </g>
     </g>
     <g id="text_9">
      <!-- −20 -->
      <g transform="translate(24.745313 215.67808) scale(0.1 -0.1)">
       <use xlink:href="#DejaVuSans-2212"/>
       <use xlink:href="#DejaVuSans-32" transform="translate(83.789062 0)"/>
       <use xlink:href="#DejaVuSans-30" transform="translate(147.412109 0)"/>
      </g>
     </g>
    </g>
    <g id="ytick_3">
     <g id="line2d_17">
      <path d="M 52.85 151.926221 
L 781.2 151.926221 
" clip-path="url(#p9f8328d551)" style="fill: none; stroke-dasharray: 0.8,1.32; stroke-dashoffset: 0; stroke: #b0b0b0; stroke-opacity: 0.5; stroke-width: 0.8"/>
     </g>
     <g id="line2d_18">
      <g>
       <use xlink:href="#m7442d490f0" x="52.85" y="151.926221" style="stroke: #000000; stroke-width: 0.8"/>
      </g>
     </g>
     <g id="text_10">
      <!-- 0 -->
      <g transform="translate(39.4875 155.725439) scale(0.1 -0.1)">
       <use xlink:href="#DejaVuSans-30"/>
      </g>
     </g>
    </g>
    <g id="ytick_4">
     <g id="line2d_19">
      <path d="M 52.85 91.97358 
L 781.2 91.97358 
" clip-path="url(#p9f8328d551)" style="fill: none; stroke-dasharray: 0.8,1.32; stroke-dashoffset: 0; stroke: #b0b0b0; stroke-opacity: 0.5; stroke-width: 0.8"/>
     </g>
     <g id="line2d_20">
      <g>
       <use xlink:href="#m7442d490f0" x="52.85" y="91.97358" style="stroke: #000000; stroke-width: 0.8"/>
      </g>
     </g>
     <g id="text_11">
      <!-- 20 -->
      <g transform="translate(33.125 95.772798) scale(0.1 -0.1)">
       <use xlink:href="#DejaVuSans-32"/>
       <use xlink:href="#DejaVuSans-30" transform="translate(63.623047 0)"/>
      </g>
     </g>
    </g>
    <g id="ytick_5">
     <g id="line2d_21">
      <path d="M 52.85 32.020939 
L 781.2 32.020939 
" clip-path="url(#p9f8328d551)" style="fill: none; stroke-dasharray: 0.8,1.32; stroke-dashoffset: 0; stroke: #b0b0b0; stroke-opacity: 0.5; stroke-width: 0.8"/>
     </g>
     <g id="line2d_22">
      <g>
       <use xlink:href="#m7442d490f0" x="52.85" y="32.020939" style="stroke: #000000; stroke-width: 0.8"/>
      </g>
     </g>
     <g id="text_12">
      <!-- 40 -->
      <g transform="translate(33.125 35.820158) scale(0.1 -0.1)">
       <use xlink:href="#DejaVuSans-34"/>
       <use xlink:href="#DejaVuSans-30" transform="translate(63.623047 0)"/>
      </g>
     </g>
    </g>
    <g id="text_13">
     <!-- Offset (ms) -->
     <g transform="translate(18.665625 200.523281) rotate(-90) scale(0.1 -0.1)">
      <defs>
       <path id="DejaVuSans-4f" d="M 2522 4238 
Q 1834 4238 1429 3725 
Q 1025 3213 1025 2328 
Q 1025 1447 1429 934 
Q 1834 422 2522 422 
Q 3209 422 3611 934 
Q 4013 1447 4013 2328 
Q 4013 3213 3611 3725 
Q 3209 4238 2522 4238 
z
M 2522 4750 
Q 3503 4750 4090 4092 
Q 4678 3434 4678 2328 
Q 4678 1225 4090 567 
Q 3503 -91 2522 -91 
Q 1538 -91 948 565 
Q 359 1222 359 2328 
Q 359 3434 948 4092 
Q 1538 4750 2522 4750 
z
" transform="scale(0.015625)"/>
      </defs>
      <use xlink:href="#DejaVuSans-4f"/>
      <use xlink:href="#DejaVuSans-66" transform="translate(78.710938 0)"/>
      <use xlink:href="#DejaVuSans-66" transform="translate(113.916016 0)"/>
      <use xlink:href="#DejaVuSans-73" transform="translate(149.121094 0)"/>
      <use xlink:href="#DejaVuSans-65" transform="translate(201.220703 0)"/>
      <use xlink:href="#DejaVuSans-74" transform="translate(262.744141 0)"/>
      <use xlink:href="#DejaVuSans-20" transform="translate(301.953125 0)"/>
      <use xlink:href="#DejaVuSans-28" transform="translate(333.740234 0)"/>
      <use xlink:href="#DejaVuSans-6d" transform="translate(372.753906 0)"/>
      <use xlink:href="#DejaVuSans-73" transform="translate(470.166016 0)"/>
      <use xlink:href="#DejaVuSans-29" transform="translate(522.265625 0)"/>
     </g>
    </g>
   </g>
   <g id="line2d_23">
    <path d="M 86.173485 157.022195 
L 92.308087 153.7248 
L 98.424333 154.923853 
L 104.550458 153.125273 
L 110.669489 150.427405 
L 116.809487 154.624089 
L 122.940549 155.223616 
L 129.048237 146.830246 
L 135.176635 153.125273 
L 141.283964 150.427405 
L 147.416958 149.827878 
L 153.535441 150.427405 
L 159.617543 154.024563 
L 165.772429 154.624089 
L 171.899353 152.225984 
L 178.036535 150.127641 
L 184.150422 151.326694 
L 190.256745 150.427405 
L 196.388551 153.7248 
L 202.502121 155.523379 
L 208.625771 152.225984 
L 214.731613 149.528115 
L 220.848402 149.228352 
L 226.982986 150.127641 
L 233.069001 154.024563 
L 239.229374 150.127641 
L 245.331521 155.223616 
L 251.468935 156.122905 
L 257.594882 153.425037 
L 263.711043 147.729536 
L 269.815014 148.628825 
L 275.927944 153.125273 
L 282.08288 151.026931 
L 288.19403 158.221248 
L 294.329054 148.029299 
L 300.43595 150.427405 
L 306.54593 151.626457 
L 312.674554 147.729536 
L 318.763129 155.223616 
L 324.901463 150.727168 
L 331.018975 157.022195 
L 337.134533 151.626457 
L 343.269501 151.326694 
L 349.391415 148.628825 
L 355.492252 154.624089 
L 361.614929 155.823142 
L 367.736842 148.928588 
L 373.874194 150.727168 
L 380.005451 153.125273 
L 386.142761 151.926221 
L 392.259786 150.127641 
L 398.362581 154.624089 
L 404.496013 149.228352 
L 410.617007 155.823142 
L 416.744448 146.23072 
L 422.868184 152.525747 
L 428.967579 152.82551 
L 435.103992 155.523379 
L 441.248023 150.727168 
L 447.371442 149.528115 
L 453.487603 151.626457 
L 459.606561 153.7248 
L 465.721173 152.225984 
L 471.8514 150.427405 
L 477.964409 153.125273 
L 484.105137 150.727168 
L 490.245165 154.624089 
L 496.35453 150.727168 
L 502.472336 151.326694 
L 508.597804 154.624089 
L 514.749569 150.427405 
L 520.861633 148.029299 
L 526.962117 152.82551 
L 533.099976 157.321958 
L 539.236639 149.528115 
L 545.352641 149.228352 
L 551.456946 150.127641 
L 557.584595 153.7248 
L 563.708697 156.122905 
L 569.845421 147.729536 
L 575.959046 155.523379 
L 582.086397 149.528115 
L 588.192299 149.827878 
L 594.3236 157.921485 
L 600.449097 146.830246 
L 606.574321 152.225984 
L 612.68146 151.026931 
L 618.794731 155.223616 
L 624.943578 149.528115 
L 631.072154 150.127641 
L 637.186552 155.223616 
L 643.333406 152.82551 
L 649.446787 151.926221 
L 655.573558 150.127641 
L 661.678748 156.122905 
L 667.822359 146.23072 
L 673.922832 155.223616 
L 680.069655 154.324326 
L 686.181073 150.127641 
L 692.315408 149.528115 
L 698.426467 152.82551 
L 704.545846 150.727168 
L 710.674366 150.427405 
L 716.783932 152.225984 
L 722.902999 157.321958 
L 729.059446 148.329062 
L 735.178538 151.026931 
L 741.288129 155.223616 
L 747.407043 154.024563 
" clip-path="url(#p9f8328d551)" style="fill: none; stroke: #1f77b4; stroke-width: 1.5; stroke-linecap: square"/>
   </g>
   <g id="line2d_24">
    <path d="M 86.681575 263.737896 
L 93.01696 149.827878 
L 99.191008 118.352742 
L 105.323174 118.952268 
L 111.441851 132.741375 
L 117.543433 133.640665 
L 123.646959 151.926221 
L 129.788901 147.729536 
L 135.883533 147.130009 
L 141.996317 158.521011 
L 148.133863 144.43214 
L 154.229723 157.621721 
L 160.382123 150.127641 
L 166.503908 149.528115 
L 172.622384 155.523379 
L 178.728915 153.425037 
L 184.844087 148.928588 
L 190.969098 151.926221 
L 197.106377 149.228352 
L 203.238036 151.926221 
L 209.343829 160.919117 
L 215.470709 149.528115 
L 221.5899 147.130009 
L 227.708662 154.624089 
L 233.82615 150.727168 
L 239.943139 150.727168 
L 252.211 151.026931 
L 258.327111 160.919117 
L 264.444923 151.926221 
L 270.594478 145.631193 
L 276.689141 150.427405 
L 282.814443 147.729536 
L 288.947072 153.425037 
L 295.056046 164.516275 
L 301.203065 146.23072 
L 307.325234 149.528115 
L 313.430132 150.127641 
L 319.53153 145.031667 
L 325.644503 159.420301 
L 331.774089 148.928588 
L 337.906243 158.521011 
L 344.032331 151.626457 
L 350.164624 151.926221 
L 356.270753 144.132377 
L 362.38317 159.120537 
L 368.516208 152.525747 
L 374.659392 148.029299 
L 380.754843 150.427405 
L 386.880736 156.422669 
L 393.022812 150.127641 
L 399.126514 151.926221 
L 405.263615 154.024563 
L 411.388419 150.427405 
L 417.504744 155.523379 
L 423.632953 147.729536 
L 429.752613 147.429772 
L 435.878951 155.523379 
L 441.99686 156.422669 
L 448.145804 151.626457 
L 454.248647 149.228352 
L 460.38589 150.427405 
L 466.482247 151.626457 
L 472.618612 154.024563 
L 478.756061 149.827878 
L 484.851274 155.223616 
L 490.96944 150.127641 
L 497.078499 156.422669 
L 503.221416 149.827878 
L 509.328495 145.631193 
L 515.435579 157.921485 
L 521.555829 149.228352 
L 527.68891 149.228352 
L 533.815424 151.326694 
L 539.919614 157.022195 
L 546.063251 154.624089 
L 552.194617 147.429772 
L 558.289482 147.130009 
L 564.415059 151.626457 
L 570.546286 159.420301 
L 576.660136 149.528115 
L 582.782427 153.7248 
L 588.929616 148.628825 
L 595.030101 152.82551 
L 601.17278 155.223616 
L 607.318336 147.130009 
L 613.418667 153.7248 
L 619.53192 151.626457 
L 625.651359 149.827878 
L 631.764673 154.624089 
L 637.889056 148.029299 
L 644.00112 152.525747 
L 650.117359 158.820774 
L 656.262227 150.127641 
L 662.384957 149.827878 
L 668.486886 157.621721 
L 674.638811 146.530483 
L 680.737582 155.823142 
L 686.87516 149.827878 
L 693.016272 154.324326 
L 699.144982 146.530483 
L 705.260393 152.525747 
L 711.365045 151.026931 
L 717.495133 148.928588 
L 723.604205 155.223616 
L 729.742476 154.324326 
L 735.873808 148.029299 
L 741.973884 153.425037 
L 748.093182 154.024563 
" clip-path="url(#p9f8328d551)" style="fill: none; stroke: #ff7f0e; stroke-width: 1.5; stroke-linecap: square"/>
   </g>
   <g id="line2d_25">
    <path d="M 86.441346 148.029299 
L 92.489092 292.2154 
L 98.796368 231.962996 
L 105.107356 146.23072 
L 111.302487 115.055346 
L 117.397394 120.750847 
L 123.498434 126.746111 
L 129.567573 144.731904 
L 135.669988 153.7248 
L 141.789824 152.225984 
L 147.890442 161.21888 
L 154.045336 148.628825 
L 160.139804 157.022195 
L 166.261504 157.621721 
L 172.399247 150.127641 
L 178.512164 151.926221 
L 184.63145 151.626457 
L 190.76286 152.225984 
L 196.888895 149.827878 
L 203.000526 148.628825 
L 209.105441 149.528115 
L 215.234023 157.621721 
L 221.347763 156.422669 
L 227.49146 152.82551 
L 233.598997 149.528115 
L 239.724 148.029299 
L 245.843269 151.326694 
L 251.976659 152.525747 
L 258.082769 148.029299 
L 264.224259 158.521011 
L 270.331314 158.820774 
L 276.452344 146.23072 
L 282.587124 146.23072 
L 288.711567 146.830246 
L 294.804927 154.024563 
L 300.935696 165.415565 
L 307.087396 154.923853 
L 313.206304 148.029299 
L 319.33087 147.130009 
L 325.425978 141.434508 
L 331.540236 154.324326 
L 337.640124 153.425037 
L 343.765548 159.120537 
L 349.924622 157.621721 
L 356.029068 146.23072 
L 362.166419 145.930956 
L 368.272286 156.422669 
L 374.39278 153.425037 
L 380.524232 150.427405 
L 386.667831 150.727168 
L 392.771339 152.225984 
L 398.888126 152.82551 
L 405.014922 150.427405 
L 411.148246 158.221248 
L 417.283147 145.631193 
L 423.37878 156.722432 
L 429.519892 149.827878 
L 435.630342 146.23072 
L 441.748684 148.928588 
L 447.849254 163.317222 
L 453.981187 154.024563 
L 460.094069 148.928588 
L 466.219439 145.631193 
L 472.344691 150.427405 
L 478.464473 156.122905 
L 484.590257 154.923853 
L 490.727724 153.425037 
L 496.866881 150.427405 
L 502.960672 155.223616 
L 509.093179 149.528115 
L 515.211284 145.33143 
L 521.312066 152.525747 
L 527.457117 156.122905 
L 533.550763 150.427405 
L 539.682245 150.127641 
L 545.795468 158.820774 
L 551.933105 150.127641 
L 558.05238 150.727168 
L 564.178396 147.729536 
L 570.298024 148.029299 
L 576.411771 155.223616 
L 582.519416 157.321958 
L 588.673896 151.626457 
L 594.775319 147.130009 
L 600.882148 153.125273 
L 607.032012 157.621721 
L 613.132947 145.930956 
L 619.234096 155.823142 
L 625.372618 149.528115 
L 631.479228 150.727168 
L 637.616757 152.225984 
L 643.718258 150.427405 
L 649.818682 150.127641 
L 655.941784 159.720064 
L 662.063753 153.125273 
L 668.181845 146.23072 
L 674.302052 160.019827 
L 680.415599 145.031667 
L 686.555547 151.626457 
L 692.666971 154.624089 
L 698.806085 157.621721 
L 704.930954 146.23072 
L 711.036911 149.528115 
L 717.155388 148.928588 
L 723.269288 145.631193 
L 729.370009 154.624089 
L 735.500803 157.022195 
L 741.603542 155.523379 
L 747.749677 151.626457 
" clip-path="url(#p9f8328d551)" style="fill: none; stroke: #2ca02c; stroke-width: 1.5; stroke-linecap: square"/>
   </g>
   <g id="line2d_26">
    <path d="M 85.956818 40.114545 
L 91.88349 96.470028 
L 97.938928 255.344526 
L 104.030744 302.407349 
L 110.439445 193.593306 
L 116.719118 118.652505 
L 122.865741 91.07429 
L 128.907908 103.964108 
L 134.979442 127.045875 
L 141.058461 153.425037 
L 147.144196 155.523379 
L 153.246454 166.614618 
L 159.409361 155.823142 
L 165.533543 155.823142 
L 171.659515 160.919117 
L 177.813007 153.425037 
L 183.943215 149.228352 
L 190.05712 154.923853 
L 196.186927 151.626457 
L 202.307921 147.130009 
L 208.425691 149.827878 
L 214.555515 145.031667 
L 220.668749 154.923853 
L 226.774024 160.31959 
L 232.917611 152.82551 
L 239.018973 148.628825 
L 245.143259 150.727168 
L 251.276411 150.427405 
L 257.396149 153.425037 
L 263.530806 147.429772 
L 269.638318 151.326694 
L 275.742313 165.115802 
L 281.879171 150.427405 
L 288.016621 146.23072 
L 294.111529 144.132377 
L 300.224648 150.427405 
L 306.347945 164.216512 
L 312.505959 156.122905 
L 318.625251 150.427405 
L 324.776183 149.827878 
L 330.883218 139.336166 
L 336.996551 150.427405 
L 343.090934 155.523379 
L 349.2103 155.223616 
L 355.329325 162.717696 
L 361.485328 150.427405 
L 367.616701 145.33143 
L 373.723841 150.427405 
L 379.844449 151.926221 
L 385.946628 153.125273 
L 392.095103 151.326694 
L 398.216359 156.122905 
L 404.333269 148.329062 
L 410.458711 152.525747 
L 416.565522 155.523379 
L 422.698901 150.127641 
L 428.833254 151.026931 
L 434.95663 147.729536 
L 441.089874 152.82551 
L 447.188958 143.832614 
L 453.299169 161.21888 
L 459.425691 160.619353 
L 465.544922 150.127641 
L 471.664277 144.731904 
L 477.777371 148.628825 
L 483.908878 153.125273 
L 490.028214 156.122905 
L 496.135299 159.720064 
L 502.273528 145.631193 
L 508.368826 155.523379 
L 514.524304 148.329062 
L 520.64498 146.530483 
L 526.750663 148.628825 
L 532.857719 158.820774 
L 538.977164 154.923853 
L 545.11457 151.326694 
L 551.239892 153.125273 
L 557.371422 150.127641 
L 563.472961 150.427405 
L 569.586573 148.029299 
L 575.711967 147.130009 
L 581.818528 155.223616 
L 587.950243 158.521011 
L 594.093976 151.326694 
L 600.219266 147.729536 
L 606.314217 152.82551 
L 612.433595 157.321958 
L 618.552937 149.228352 
L 624.678672 151.626457 
L 630.795155 153.7248 
L 636.923913 147.429772 
L 643.052879 154.024563 
L 649.162066 149.528115 
L 655.269292 151.026931 
L 661.388451 158.221248 
L 667.519995 155.823142 
L 673.633576 144.731904 
L 679.758453 157.621721 
L 685.877239 148.928588 
L 692.018687 149.528115 
L 698.122822 151.926221 
L 704.238477 161.21888 
L 710.374823 150.127641 
L 716.487284 144.132377 
L 722.606571 145.33143 
L 728.717343 148.628825 
L 734.826635 153.125273 
L 740.928094 156.422669 
L 747.047314 156.422669 
" clip-path="url(#p9f8328d551)" style="fill: none; stroke: #d62728; stroke-width: 1.5; stroke-linecap: square"/>
   </g>
   <g id="line2d_27">
    <path d="M 86.173485 153.125273 
L 92.308087 236.459444 
L 98.424333 304.805455 
L 104.550458 264.936948 
L 110.669489 136.038771 
L 116.809487 71.889445 
L 122.940549 69.191576 
L 129.048237 87.477132 
L 135.176635 125.247295 
L 141.283964 158.820774 
L 147.416958 155.223616 
L 153.535441 167.513907 
L 159.617543 161.21888 
L 165.772429 161.818406 
L 171.899353 163.017459 
L 178.036535 153.125273 
L 184.150422 145.33143 
L 190.256745 153.7248 
L 196.388551 148.628825 
L 202.502121 147.429772 
L 208.625771 156.722432 
L 214.731613 145.930956 
L 220.848402 151.926221 
L 226.982986 162.118169 
L 233.069001 151.326694 
L 239.229374 141.734272 
L 245.331521 152.525747 
L 251.468935 164.216512 
L 257.594882 151.026931 
L 263.711043 143.532851 
L 269.815014 153.425037 
L 275.927944 156.422669 
L 282.08288 145.33143 
L 288.19403 160.019827 
L 294.329054 136.638297 
L 300.43595 160.019827 
L 306.54593 165.115802 
L 312.674554 141.134745 
L 318.763129 156.422669 
L 324.901463 135.139481 
L 331.018975 153.425037 
L 337.134533 151.326694 
L 343.269501 162.118169 
L 349.391415 149.827878 
L 355.492252 166.914381 
L 361.614929 148.928588 
L 367.736842 142.933324 
L 373.874194 149.228352 
L 380.005451 156.122905 
L 386.142761 150.127641 
L 392.259786 149.827878 
L 398.362581 161.818406 
L 404.496013 142.633561 
L 410.617007 166.314854 
L 416.744448 139.336166 
L 422.868184 151.026931 
L 428.967579 153.425037 
L 435.103992 150.127641 
L 441.248023 148.329062 
L 447.371442 150.127641 
L 453.487603 161.518643 
L 459.606561 159.120537 
L 465.721173 146.23072 
L 471.8514 139.635929 
L 477.964409 157.321958 
L 484.105137 153.125273 
L 490.245165 164.816038 
L 496.35453 154.923853 
L 502.472336 142.034035 
L 508.597804 161.818406 
L 514.749569 137.537587 
L 520.861633 140.535219 
L 526.962117 153.125273 
L 533.099976 167.81367 
L 539.236639 153.425037 
L 545.352641 151.026931 
L 551.456946 144.731904 
L 557.584595 150.427405 
L 563.708697 157.921485 
L 569.845421 137.537587 
L 575.959046 155.823142 
L 582.086397 154.923853 
L 588.192299 157.022195 
L 594.3236 155.823142 
L 600.449097 139.036403 
L 606.574321 160.619353 
L 612.68146 150.127641 
L 618.794731 154.324326 
L 624.943578 149.528115 
L 631.072154 146.830246 
L 637.186552 151.626457 
L 643.333406 160.31959 
L 649.446787 145.930956 
L 655.573558 154.923853 
L 661.678748 169.312486 
L 667.822359 139.036403 
L 673.922832 160.019827 
L 680.069655 151.026931 
L 686.181073 149.228352 
L 692.315408 144.43214 
L 698.426467 159.120537 
L 704.545846 153.425037 
L 710.674366 143.233088 
L 716.783932 144.731904 
L 722.902999 146.830246 
L 729.059446 143.832614 
L 735.178538 158.820774 
L 741.288129 165.415565 
" clip-path="url(#p9f8328d551)" style="fill: none; stroke-dasharray: 3.7,1.6; stroke-dashoffset: 0; stroke: #000000"/>
   </g>
   <g id="line2d_28">
    <path d="M 52.85 151.926221 
L 781.2 151.926221 
" clip-path="url(#p9f8328d551)" style="fill: none; stroke-dasharray: 3.7,1.6; stroke-dashoffset: 0; stroke: #000000"/>
   </g>
   <g id="patch_4">
    <path d="M 52.85 318.04 
L 52.85 26.88 
" style="fill: none; stroke: #000000; stroke-width: 0.8; stroke-linejoin: miter; stroke-linecap: square"/>
   </g>
   <g id="patch_5">
    <path d="M 781.2 318.04 
L 781.2 26.88 
" style="fill: none; stroke: #000000; stroke-width: 0.8; stroke-linejoin: miter; stroke-linecap: square"/>
   </g>
   <g id="patch_6">
    <path d="M 52.85 318.04 
L 781.2 318.04 
" style="fill: none; stroke: #000000; stroke-width: 0.8; stroke-linejoin: miter; stroke-linecap: square"/>
   </g>
   <g id="patch_7">
    <path d="M 52.85 26.88 
L 781.2 26.88 
" style="fill: none; stroke: #000000; stroke-width: 0.8; stroke-linejoin: miter; stroke-linecap: square"/>
   </g>
   <g id="text_14">
    <!-- Clock sync error per neighboring pair + total -->
    <g transform="translate(282.742188 20.88) scale(0.12 -0.12)">
     <defs>
      <path id="DejaVuSans-43" d="M 4122 4306 
L 4122 3641 
Q 3803 3938 3442 4084 
Q 3081 4231 2675 4231 
Q 1875 4231 1450 3742 
Q 1025 3253 1025 2328 
Q 1025 1406 1450 917 
Q 1875 428 2675 428 
Q 3081 428 3442 575 
Q 3803 722 4122 1019 
L 4122 359 
Q 3791 134 3420 21 
Q 3050 -91 2638 -91 
Q 1578 -91 968 557 
Q 359 1206 359 2328 
Q 359 3453 968 4101 
Q 1578 4750 2638 4750 
Q 3056 4750 3426 4639 
Q 3797 4528 4122 4306 
z
" transform="scale(0.015625)"/>
      <path id="DejaVuSans-6f" d="M 1959 3097 
Q 1497 3097 1228 2736 
Q 959 2375 959 1747 
Q 959 1119 1226 758 
Q 1494 397 1959 397 
Q 2419 397 2687 759 
Q 2956 1122 2956 1747 
Q 2956 2369 2687 2733 
Q 2419 3097 1959 3097 
z
M 1959 3584 
Q 2709 3584 3137 3096 
Q 3566 2609 3566 1747 
Q 3566 888 3137 398 
Q 2709 -91 1959 -91 
Q 1206 -91 779 398 
Q 353 888 353 1747 
Q 353 2609 779 3096 
Q 1206 3584 1959 3584 
z
" transform="scale(0.015625)"/>
      <path id="DejaVuSans-6b" d="M 581 4863 
L 1159 4863 
L 1159 1991 
L 2875 3500 
L 3609 3500 
L 1753 1863 
L 3688 0 
L 2938 0 
L 1159 1709 
L 1159 0 
L 581 0 
L 581 4863 
z
" transform="scale(0.015625)"/>
      <path id="DejaVuSans-79" d="M 2059 -325 
Q 1816 -950 1584 -1140 
Q 1353 -1331 966 -1331 
L 506 -1331 
L 506 -850 
L 844 -850 
Q 1081 -850 1212 -737 
Q 1344 -625 1503 -206 
L 1606 56 
L 191 3500 
L 800 3500 
L 1894 763 
L 2988 3500 
L 3597 3500 
L 2059 -325 
z
" transform="scale(0.015625)"/>
      <path id="DejaVuSans-67" d="M 2906 1791 
Q 2906 2416 2648 2759 
Q 2391 3103 1925 3103 
Q 1463 3103 1205 2759 
Q 947 2416 947 1791 
Q 947 1169 1205 825 
Q 1463 481 1925 481 
Q 2391 481 2648 825 
Q 2906 1169 2906 1791 
z
M 3481 434 
Q 3481 -459 3084 -895 
Q 2688 -1331 1869 -1331 
Q 1566 -1331 1297 -1286 
Q 1028 -1241 775 -1147 
L 775 -588 
Q 1028 -725 1275 -790 
Q 1522 -856 1778 -856 
Q 2344 -856 2625 -561 
Q 2906 -266 2906 331 
L 2906 616 
Q 2728 306 2450 153 
Q 2172 0 1784 0 
Q 1141 0 747 490 
Q 353 981 353 1791 
Q 353 2603 747 3093 
Q 1141 3584 1784 3584 
Q 2172 3584 2450 3431 
Q 2728 3278 2906 2969 
L 2906 3500 
L 3481 3500 
L 3481 434 
z
" transform="scale(0.015625)"/>
      <path id="DejaVuSans-68" d="M 3513 2113 
L 3513 0 
L 2938 0 
L 2938 2094 
Q 2938 2591 2744 2837 
Q 2550 3084 2163 3084 
Q 1697 3084 1428 2787 
Q 1159 2491 1159 1978 
L 1159 0 
L 581 0 
L 581 4863 
L 1159 4863 
L 1159 2956 
Q 1366 3272 1645 3428 
Q 1925 3584 2291 3584 
Q 2894 3584 3203 3211 
Q 3513 2838 3513 2113 
z
" transform="scale(0.015625)"/>
      <path id="DejaVuSans-62" d="M 3116 1747 
Q 3116 2381 2855 2742 
Q 2594 3103 2138 3103 
Q 1681 3103 1420 2742 
Q 1159 2381 1159 1747 
Q 1159 1113 1420 752 
Q 1681 391 2138 391 
Q 2594 391 2855 752 
Q 3116 1113 3116 1747 
z
M 1159 2969 
Q 1341 3281 1617 3432 
Q 1894 3584 2278 3584 
Q 2916 3584 3314 3078 
Q 3713 2572 3713 1747 
Q 3713 922 3314 415 
Q 2916 -91 2278 -91 
Q 1894 -91 1617 61 
Q 1341 213 1159 525 
L 1159 0 
L 581 0 
L 581 4863 
L 1159 4863 
L 1159 2969 
z
" transform="scale(0.015625)"/>
      <path id="DejaVuSans-2b" d="M 2944 4013 
L 2944 2272 
L 4684 2272 
L 4684 1741 
L 2944 1741 
L 2944 0 
L 2419 0 
L 2419 1741 
L 678 1741 
L 678 2272 
L 2419 2272 
L 2419 4013 
L 2944 4013 
z
" transform="scale(0.015625)"/>
     </defs>
     <use xlink:href="#DejaVuSans-43"/>
     <use xlink:href="#DejaVuSans-6c" transform="translate(69.824219 0)"/>
     <use xlink:href="#DejaVuSans-6f" transform="translate(97.607422 0)"/>
     <use xlink:href="#DejaVuSans-63" transform="translate(158.789062 0)"/>
     <use xlink:href="#DejaVuSans-6b" transform="translate(213.769531 0)"/>
     <use xlink:href="#DejaVuSans-20" transform="translate(271.679688 0)"/>
     <use xlink:href="#DejaVuSans-73" transform="translate(303.466797 0)"/>
     <use xlink:href="#DejaVuSans-79" transform="translate(355.566406 0)"/>
     <use xlink:href="#DejaVuSans-6e" transform="translate(414.746094 0)"/>
     <use xlink:href="#DejaVuSans-63" transform="translate(478.125 0)"/>
     <use xlink:href="#DejaVuSans-20" transform="translate(533.105469 0)"/>
     <use xlink:href="#DejaVuSans-65" transform="translate(564.892578 0)"/>
     <use xlink:href="#DejaVuSans-72" transform="translate(626.416016 0)"/>
     <use xlink:href="#DejaVuSans-72" transform="translate(665.779297 0)"/>
     <use xlink:href="#DejaVuSans-6f" transform="translate(704.642578 0)"/>
     <use xlink:href="#DejaVuSans-72" transform="translate(765.824219 0)"/>
     <use xlink:href="#DejaVuSans-20" transform="translate(806.9375 0)"/>
     <use xlink:href="#DejaVuSans-70" transform="translate(838.724609 0)"/>
     <use xlink:href="#DejaVuSans-65" transform="translate(902.201172 0)"/>
     <use xlink:href="#DejaVuSans-72" transform="translate(963.724609 0)"/>
     <use xlink:href="#DejaVuSans-20" transform="translate(1004.837891 0)"/>
     <use xlink:href="#DejaVuSans-6e" transform="translate(1036.625 0)"/>
     <use xlink:href="#DejaVuSans-65" transform="translate(1100.003906 0)"/>
     <use xlink:href="#DejaVuSans-69" transform="translate(1161.527344 0)"/>
     <use xlink:href="#DejaVuSans-67" transform="translate(1189.310547 0)"/>
     <use xlink:href="#DejaVuSans-68" transform="translate(1252.787109 0)"/>
     <use xlink:href="#DejaVuSans-62" transform="translate(1316.166016 0)"/>
     <use xlink:href="#DejaVuSans-6f" transform="translate(1379.642578 0)"/>
     <use xlink:href="#DejaVuSans-72" transform="translate(1440.824219 0)"/>
     <use xlink:href="#DejaVuSans-69" transform="translate(1481.9375 0)"/>
     <use xlink:href="#DejaVuSans-6e" transform="translate(1509.720703 0)"/>
     <use xlink:href="#DejaVuSans-67" transform="translate(1573.099609 0)"/>
     <use xlink:href="#DejaVuSans-20" transform="translate(1636.576172 0)"/>
     <use xlink:href="#DejaVuSans-70" transform="translate(1668.363281 0)"/>
     <use xlink:href="#DejaVuSans-61" transform="translate(1731.839844 0)"/>
     <use xlink:href="#DejaVuSans-69" transform="translate(1793.119141 0)"/>
     <use xlink:href="#DejaVuSans-72" transform="translate(1820.902344 0)"/>
     <use xlink:href="#DejaVuSans-20" transform="translate(1862.015625 0)"/>
     <use xlink:href="#DejaVuSans-2b" transform="translate(1893.802734 0)"/>
     <use xlink:href="#DejaVuSans-20" transform="translate(1977.591797 0)"/>
     <use xlink:href="#DejaVuSans-74" transform="translate(2009.378906 0)"/>
     <use xlink:href="#DejaVuSans-6f" transform="translate(2048.587891 0)"/>
     <use xlink:href="#DejaVuSans-74" transform="translate(2109.769531 0)"/>
     <use xlink:href="#DejaVuSans-61" transform="translate(2148.978516 0)"/>
     <use xlink:href="#DejaVuSans-6c" transform="translate(2210.257812 0)"/>
    </g>
   </g>
   <g id="legend_1">
    <g id="patch_8">
     <path d="M 683.640625 122.94875 
L 774.2 122.94875 
Q 776.2 122.94875 776.2 120.94875 
L 776.2 33.88 
Q 776.2 31.88 774.2 31.88 
L 683.640625 31.88 
Q 681.640625 31.88 681.640625 33.88 
L 681.640625 120.94875 
Q 681.640625 122.94875 683.640625 122.94875 
z
" style="fill: #ffffff; opacity: 0.8; stroke: #cccccc; stroke-linejoin: miter"/>
    </g>
    <g id="text_15">
     <!-- Series -->
     <g transform="translate(713.54375 43.478437) scale(0.1 -0.1)">
      <defs>
       <path id="DejaVuSans-53" d="M 3425 4513 
L 3425 3897 
Q 3066 4069 2747 4153 
Q 2428 4238 2131 4238 
Q 1616 4238 1336 4038 
Q 1056 3838 1056 3469 
Q 1056 3159 1242 3001 
Q 1428 2844 1947 2747 
L 2328 2669 
Q 3034 2534 3370 2195 
Q 3706 1856 3706 1288 
Q 3706 609 3251 259 
Q 2797 -91 1919 -91 
Q 1588 -91 1214 -16 
Q 841 59 441 206 
L 441 856 
Q 825 641 1194 531 
Q 1563 422 1919 422 
Q 2459 422 2753 634 
Q 3047 847 3047 1241 
Q 3047 1584 2836 1778 
Q 2625 1972 2144 2069 
L 1759 2144 
Q 1053 2284 737 2584 
Q 422 2884 422 3419 
Q 422 4038 858 4394 
Q 1294 4750 2059 4750 
Q 2388 4750 2728 4690 
Q 3069 4631 3425 4513 
z
" transform="scale(0.015625)"/>
      </defs>
      <use xlink:href="#DejaVuSans-53"/>
      <use xlink:href="#DejaVuSans-65" transform="translate(63.476562 0)"/>
      <use xlink:href="#DejaVuSans-72" transform="translate(125 0)"/>
      <use xlink:href="#DejaVuSans-69" transform="translate(166.113281 0)"/>
      <use xlink:href="#DejaVuSans-65" transform="translate(193.896484 0)"/>
      <use xlink:href="#DejaVuSans-73" transform="translate(255.419922 0)"/>
     </g>
    </g>
    <g id="line2d_29">
     <path d="M 685.640625 54.656563 
L 695.640625 54.656563 
L 705.640625 54.656563 
" style="fill: none; stroke: #1f77b4; stroke-width: 1.5; stroke-linecap: square"/>
    </g>
    <g id="text_16">
     <!-- 0-&gt;1 -->
     <g transform="translate(713.640625 58.156563) scale(0.1 -0.1)">
      <defs>
       <path id="DejaVuSans-2d" d="M 313 2009 
L 1997 2009 
L 1997 1497 
L 313 1497 
L 313 2009 
z
" transform="scale(0.015625)"/>
       <path id="DejaVuSans-3e" d="M 678 3150 
L 678 3719 
L 4684 2266 
L 4684 1747 
L 678 294 
L 678 863 
L 3897 2003 
L 678 3150 
z
" transform="scale(0.015625)"/>
      </defs>
      <use xlink:href="#DejaVuSans-30"/>
      <use xlink:href="#DejaVuSans-2d" transform="translate(63.623047 0)"/>
      <use xlink:href="#DejaVuSans-3e" transform="translate(99.707031 0)"/>
      <use xlink:href="#DejaVuSans-31" transform="translate(183.496094 0)"/>
     </g>
    </g>
    <g id="line2d_30">
     <path d="M 685.640625 69.334688 
L 695.640625 69.334688 
L 705.640625 69.334688 
" style="fill: none; stroke: #ff7f0e; stroke-width: 1.5; stroke-linecap: square"/>
    </g>
    <g id="text_17">
     <!-- 1-&gt;2 -->
     <g transform="translate(713.640625 72.834688) scale(0.1 -0.1)">
      <use xlink:href="#DejaVuSans-31"/>
      <use xlink:href="#DejaVuSans-2d" transform="translate(63.623047 0)"/>
      <use xlink:href="#DejaVuSans-3e" transform="translate(99.707031 0)"/>
      <use xlink:href="#DejaVuSans-32" transform="translate(183.496094 0)"/>
     </g>
    </g>
    <g id="line2d_31">
     <path d="M 685.640625 84.012812 
L 695.640625 84.012812 
L 705.640625 84.012812 
" style="fill: none; stroke: #2ca02c; stroke-width: 1.5; stroke-linecap: square"/>
    </g>
    <g id="text_18">
     <!-- 2-&gt;3 -->
     <g transform="translate(713.640625 87.512812) scale(0.1 -0.1)">
      <defs>
       <path id="DejaVuSans-33" d="M 2597 2516 
Q 3050 2419 3304 2112 
Q 3559 1806 3559 1356 
Q 3559 666 3084 287 
Q 2609 -91 1734 -91 
Q 1441 -91 1130 -33 
Q 819 25 488 141 
L 488 750 
Q 750 597 1062 519 
Q 1375 441 1716 441 
Q 2309 441 2620 675 
Q 2931 909 2931 1356 
Q 2931 1769 2642 2001 
Q 2353 2234 1838 2234 
L 1294 2234 
L 1294 2753 
L 1863 2753 
Q 2328 2753 2575 2939 
Q 2822 3125 2822 3475 
Q 2822 3834 2567 4026 
Q 2313 4219 1838 4219 
Q 1578 4219 1281 4162 
Q 984 4106 628 3988 
L 628 4550 
Q 988 4650 1302 4700 
Q 1616 4750 1894 4750 
Q 2613 4750 3031 4423 
Q 3450 4097 3450 3541 
Q 3450 3153 3228 2886 
Q 3006 2619 2597 2516 
z
" transform="scale(0.015625)"/>
      </defs>
      <use xlink:href="#DejaVuSans-32"/>
      <use xlink:href="#DejaVuSans-2d" transform="translate(63.623047 0)"/>
      <use xlink:href="#DejaVuSans-3e" transform="translate(99.707031 0)"/>
      <use xlink:href="#DejaVuSans-33" transform="translate(183.496094 0)"/>
     </g>
    </g>
    <g id="line2d_32">
     <path d="M 685.640625 98.690938 
L 695.640625 98.690938 
L 705.640625 98.690938 
" style="fill: none; stroke: #d62728; stroke-width: 1.5; stroke-linecap: square"/>
    </g>
    <g id="text_19">
     <!-- 3-&gt;4 -->
     <g transform="translate(713.640625 102.190938) scale(0.1 -0.1)">
      <use xlink:href="#DejaVuSans-33"/>
      <use xlink:href="#DejaVuSans-2d" transform="translate(63.623047 0)"/>
      <use xlink:href="#DejaVuSans-3e" transform="translate(99.707031 0)"/>
      <use xlink:href="#DejaVuSans-34" transform="translate(183.496094 0)"/>
     </g>
    </g>
    <g id="line2d_33">
     <path d="M 685.640625 113.369063 
L 695.640625 113.369063 
L 705.640625 113.369063 
" style="fill: none; stroke-dasharray: 3.7,1.6; stroke-dashoffset: 0; stroke: #000000"/>
    </g>
    <g id="text_20">
     <!-- 0-&gt;4 (total) -->
     <g transform="translate(713.640625 116.869063) scale(0.1 -0.1)">
      <use xlink:href="#DejaVuSans-30"/>
      <use xlink:href="#DejaVuSans-2d" transform="translate(63.623047 0)"/>
      <use xlink:href="#DejaVuSans-3e" transform="translate(99.707031 0)"/>
      <use xlink:href="#DejaVuSans-34" transform="translate(183.496094 0)"/>
      <use xlink:href="#DejaVuSans-20" transform="translate(247.119141 0)"/>
      <use xlink:href="#DejaVuSans-28" transform="translate(278.90625 0)"/>
      <use xlink:href="#DejaVuSans-74" transform="translate(317.919922 0)"/>
      <use xlink:href="#DejaVuSans-6f" transform="translate(357.128906 0)"/>
      <use xlink:href="#DejaVuSans-74" transform="translate(418.310547 0)"/>
      <use xlink:href="#DejaVuSans-61" transform="translate(457.519531 0)"/>
      <use xlink:href="#DejaVuSans-6c" transform="translate(518.798828 0)"/>
      <use xlink:href="#DejaVuSans-29" transform="translate(546.582031 0)"/>
     </g>
    </g>
   </g>
  </g>
  <g id="axes_2">
   <g id="patch_9">
    <path d="M 457.08425 287.4682 
L 668.30575 287.4682 
L 668.30575 203.0318 
L 457.08425 203.0318 
z
" style="fill: #ffffff"/>
   </g>
   <g id="patch_10">
    <path d="M 668.30575 203.0318 
L 483.238636 136.044766 
" style="fill: none; stroke: #595959; stroke-width: 0.9; stroke-linejoin: miter"/>
   </g>
   <g id="patch_11">
    <path d="M 457.08425 287.4682 
L 350.811364 167.807675 
" style="fill: none; stroke: #595959; stroke-width: 0.9; stroke-linejoin: miter"/>
   </g>
   <g id="matplotlib.axis_3">
    <g id="xtick_7">
     <g id="line2d_34">
      <path d="M 472.098426 287.4682 
L 472.098426 203.0318 
" clip-path="url(#p2eb7eada50)" style="fill: none; stroke-dasharray: 0.8,1.32; stroke-dashoffset: 0; stroke: #b0b0b0; stroke-opacity: 0.4; stroke-width: 0.8"/>
     </g>
     <g id="line2d_35">
      <g>
       <use xlink:href="#m443c31036e" x="472.098426" y="287.4682" style="stroke: #000000; stroke-width: 0.8"/>
      </g>
     </g>
     <g id="text_21">
      <!-- 45 -->
      <g transform="translate(467.008426 300.54695) scale(0.08 -0.08)">
       <defs>
        <path id="DejaVuSans-35" d="M 691 4666 
L 3169 4666 
L 3169 4134 
L 1269 4134 
L 1269 2991 
Q 1406 3038 1543 3061 
Q 1681 3084 1819 3084 
Q 2600 3084 3056 2656 
Q 3513 2228 3513 1497 
Q 3513 744 3044 326 
Q 2575 -91 1722 -91 
Q 1428 -91 1123 -41 
Q 819 9 494 109 
L 494 744 
Q 775 591 1075 516 
Q 1375 441 1709 441 
Q 2250 441 2565 725 
Q 2881 1009 2881 1497 
Q 2881 1984 2565 2268 
Q 2250 2553 1709 2553 
Q 1456 2553 1204 2497 
Q 953 2441 691 2322 
L 691 4666 
z
" transform="scale(0.015625)"/>
       </defs>
       <use xlink:href="#DejaVuSans-34"/>
       <use xlink:href="#DejaVuSans-35" transform="translate(63.623047 0)"/>
      </g>
     </g>
    </g>
    <g id="xtick_8">
     <g id="line2d_36">
      <path d="M 520.704779 287.4682 
L 520.704779 203.0318 
" clip-path="url(#p2eb7eada50)" style="fill: none; stroke-dasharray: 0.8,1.32; stroke-dashoffset: 0; stroke: #b0b0b0; stroke-opacity: 0.4; stroke-width: 0.8"/>
     </g>
     <g id="line2d_37">
      <g>
       <use xlink:href="#m443c31036e" x="520.704779" y="287.4682" style="stroke: #000000; stroke-width: 0.8"/>
      </g>
     </g>
     <g id="text_22">
      <!-- 50 -->
      <g transform="translate(515.614779 300.54695) scale(0.08 -0.08)">
       <use xlink:href="#DejaVuSans-35"/>
       <use xlink:href="#DejaVuSans-30" transform="translate(63.623047 0)"/>
      </g>
     </g>
    </g>
    <g id="xtick_9">
     <g id="line2d_38">
      <path d="M 569.311131 287.4682 
L 569.311131 203.0318 
" clip-path="url(#p2eb7eada50)" style="fill: none; stroke-dasharray: 0.8,1.32; stroke-dashoffset: 0; stroke: #b0b0b0; stroke-opacity: 0.4; stroke-width: 0.8"/>
     </g>
     <g id="line2d_39">
      <g>
       <use xlink:href="#m443c31036e" x="569.311131" y="287.4682" style="stroke: #000000; stroke-width: 0.8"/>
      </g>
     </g>
     <g id="text_23">
      <!-- 55 -->
      <g transform="translate(564.221131 300.54695) scale(0.08 -0.08)">
       <use xlink:href="#DejaVuSans-35"/>
       <use xlink:href="#DejaVuSans-35" transform="translate(63.623047 0)"/>
      </g>
     </g>
    </g>
    <g id="xtick_10">
     <g id="line2d_40">
      <path d="M 617.917484 287.4682 
L 617.917484 203.0318 
" clip-path="url(#p2eb7eada50)" style="fill: none; stroke-dasharray: 0.8,1.32; stroke-dashoffset: 0; stroke: #b0b0b0; stroke-opacity: 0.4; stroke-width: 0.8"/>
     </g>
     <g id="line2d_41">
      <g>
       <use xlink:href="#m443c31036e" x="617.917484" y="287.4682" style="stroke: #000000; stroke-width: 0.8"/>
      </g>
     </g>
     <g id="text_24">
      <!-- 60 -->
      <g transform="translate(612.827484 300.54695) scale(0.08 -0.08)">
       <use xlink:href="#DejaVuSans-36"/>
       <use xlink:href="#DejaVuSans-30" transform="translate(63.623047 0)"/>
      </g>
     </g>
    </g>
    <g id="xtick_11">
     <g id="line2d_42">
      <path d="M 666.523837 287.4682 
L 666.523837 203.0318 
" clip-path="url(#p2eb7eada50)" style="fill: none; stroke-dasharray: 0.8,1.32; stroke-dashoffset: 0; stroke: #b0b0b0; stroke-opacity: 0.4; stroke-width: 0.8"/>
     </g>
     <g id="line2d_43">
      <g>
       <use xlink:href="#m443c31036e" x="666.523837" y="287.4682" style="stroke: #000000; stroke-width: 0.8"/>
      </g>
     </g>
     <g id="text_25">
      <!-- 65 -->
      <g transform="translate(661.433837 300.54695) scale(0.08 -0.08)">
       <use xlink:href="#DejaVuSans-36"/>
       <use xlink:href="#DejaVuSans-35" transform="translate(63.623047 0)"/>
      </g>
     </g>
    </g>
   </g>
   <g id="matplotlib.axis_4">
    <g id="ytick_6">
     <g id="line2d_44">
      <path d="M 457.08425 285.093526 
L 668.30575 285.093526 
" clip-path="url(#p2eb7eada50)" style="fill: none; stroke-dasharray: 0.8,1.32; stroke-dashoffset: 0; stroke: #b0b0b0; stroke-opacity: 0.4; stroke-width: 0.8"/>
     </g>
     <g id="line2d_45">
      <g>
       <use xlink:href="#m7442d490f0" x="457.08425" y="285.093526" style="stroke: #000000; stroke-width: 0.8"/>
      </g>
     </g>
     <g id="text_26">
      <!-- −5.0 -->
      <g transform="translate(430.658 288.132901) scale(0.08 -0.08)">
       <defs>
        <path id="DejaVuSans-2e" d="M 684 794 
L 1344 794 
L 1344 0 
L 684 0 
L 684 794 
z
" transform="scale(0.015625)"/>
       </defs>
       <use xlink:href="#DejaVuSans-2212"/>
       <use xlink:href="#DejaVuSans-35" transform="translate(83.789062 0)"/>
       <use xlink:href="#DejaVuSans-2e" transform="translate(147.412109 0)"/>
       <use xlink:href="#DejaVuSans-30" transform="translate(179.199219 0)"/>
      </g>
     </g>
    </g>
    <g id="ytick_7">
     <g id="line2d_46">
      <path d="M 457.08425 265.171763 
L 668.30575 265.171763 
" clip-path="url(#p2eb7eada50)" style="fill: none; stroke-dasharray: 0.8,1.32; stroke-dashoffset: 0; stroke: #b0b0b0; stroke-opacity: 0.4; stroke-width: 0.8"/>
     </g>
     <g id="line2d_47">
      <g>
       <use xlink:href="#m7442d490f0" x="457.08425" y="265.171763" style="stroke: #000000; stroke-width: 0.8"/>
      </g>
     </g>
     <g id="text_27">
      <!-- −2.5 -->
      <g transform="translate(430.658 268.211138) scale(0.08 -0.08)">
       <use xlink:href="#DejaVuSans-2212"/>
       <use xlink:href="#DejaVuSans-32" transform="translate(83.789062 0)"/>
       <use xlink:href="#DejaVuSans-2e" transform="translate(147.412109 0)"/>
       <use xlink:href="#DejaVuSans-35" transform="translate(179.199219 0)"/>
      </g>
     </g>
    </g>
    <g id="ytick_8">
     <g id="line2d_48">
      <path d="M 457.08425 245.25 
L 668.30575 245.25 
" clip-path="url(#p2eb7eada50)" style="fill: none; stroke-dasharray: 0.8,1.32; stroke-dashoffset: 0; stroke: #b0b0b0; stroke-opacity: 0.4; stroke-width: 0.8"/>
     </g>
     <g id="line2d_49">
      <g>
       <use xlink:href="#m7442d490f0" x="457.08425" y="245.25" style="stroke: #000000; stroke-width: 0.8"/>
      </g>
     </g>
     <g id="text_28">
      <!-- 0.0 -->
      <g transform="translate(437.36175 248.289375) scale(0.08 -0.08)">
       <use xlink:href="#DejaVuSans-30"/>
       <use xlink:href="#DejaVuSans-2e" transform="translate(63.623047 0)"/>
       <use xlink:href="#DejaVuSans-30" transform="translate(95.410156 0)"/>
      </g>
     </g>
    </g>
    <g id="ytick_9">
     <g id="line2d_50">
      <path d="M 457.08425 225.328237 
L 668.30575 225.328237 
" clip-path="url(#p2eb7eada50)" style="fill: none; stroke-dasharray: 0.8,1.32; stroke-dashoffset: 0; stroke: #b0b0b0; stroke-opacity: 0.4; stroke-width: 0.8"/>
     </g>
     <g id="line2d_51">
      <g>
       <use xlink:href="#m7442d490f0" x="457.08425" y="225.328237" style="stroke: #000000; stroke-width: 0.8"/>
      </g>
     </g>
     <g id="text_29">
      <!-- 2.5 -->
      <g transform="translate(437.36175 228.367612) scale(0.08 -0.08)">
       <use xlink:href="#DejaVuSans-32"/>
       <use xlink:href="#DejaVuSans-2e" transform="translate(63.623047 0)"/>
       <use xlink:href="#DejaVuSans-35" transform="translate(95.410156 0)"/>
      </g>
     </g>
    </g>
    <g id="ytick_10">
     <g id="line2d_52">
      <path d="M 457.08425 205.406474 
L 668.30575 205.406474 
" clip-path="url(#p2eb7eada50)" style="fill: none; stroke-dasharray: 0.8,1.32; stroke-dashoffset: 0; stroke: #b0b0b0; stroke-opacity: 0.4; stroke-width: 0.8"/>
     </g>
     <g id="line2d_53">
      <g>
       <use xlink:href="#m7442d490f0" x="457.08425" y="205.406474" style="stroke: #000000; stroke-width: 0.8"/>
      </g>
     </g>
     <g id="text_30">
      <!-- 5.0 -->
      <g transform="translate(437.36175 208.445849) scale(0.08 -0.08)">
       <use xlink:href="#DejaVuSans-35"/>
       <use xlink:href="#DejaVuSans-2e" transform="translate(63.623047 0)"/>
       <use xlink:href="#DejaVuSans-30" transform="translate(95.410156 0)"/>
      </g>
     </g>
    </g>
   </g>
   <g id="line2d_54">
    <path d="M 34.986833 258.796799 
L 44.771524 250.031223 
L 54.526937 253.218705 
L 64.298106 248.437482 
L 74.05796 241.265647 
L 83.851256 252.421835 
L 93.630301 254.015576 
L 103.372062 231.703201 
L 113.146859 248.437482 
L 122.888048 241.265647 
L 132.670173 239.671906 
L 142.429153 241.265647 
L 152.130106 250.828094 
L 161.94715 252.421835 
L 171.719594 246.046871 
L 181.508398 240.468777 
L 191.260047 243.656259 
L 200.999633 241.265647 
L 210.779864 250.031223 
L 220.531008 254.812446 
L 230.29823 246.046871 
L 240.037048 238.875036 
L 249.793326 238.078165 
L 259.577988 240.468777 
L 269.285181 250.828094 
L 279.110977 240.468777 
L 288.843901 254.015576 
L 298.633076 256.406187 
L 308.403963 249.234353 
L 318.159239 234.093813 
L 327.895072 236.484424 
L 337.645196 248.437482 
L 347.462318 242.859388 
L 357.209603 261.984281 
L 366.994966 234.890683 
L 376.735464 241.265647 
L 386.480883 244.453129 
L 396.256039 234.093813 
L 405.967316 254.015576 
L 415.757958 242.062518 
L 425.51539 258.796799 
L 435.269704 244.453129 
L 445.054979 243.656259 
L 454.819431 236.484424 
L 464.550267 252.421835 
L 474.315936 255.609317 
L 484.080388 237.281295 
L 493.869464 242.062518 
L 503.64882 248.437482 
L 513.437828 245.25 
L 523.194484 240.468777 
L 532.928441 252.421835 
L 542.711266 238.078165 
L 552.474251 255.609317 
L 562.24752 230.10946 
L 572.014879 246.843741 
L 581.743413 247.640612 
L 591.530992 254.812446 
L 601.330722 242.062518 
L 611.097576 238.875036 
L 620.852852 244.453129 
L 630.61259 250.031223 
L 640.365396 246.046871 
L 650.143107 241.265647 
L 659.893357 248.437482 
L 669.687819 242.062518 
L 679.481164 252.421835 
L 689.2256 242.062518 
L 698.9835 243.656259 
L 708.753622 252.421835 
L 718.565687 241.265647 
L 728.31443 234.890683 
L 738.044702 247.640612 
L 747.834587 259.593669 
L 757.622564 238.875036 
L 767.377588 238.078165 
L 777.113954 240.468777 
L 786.887554 250.031223 
L 793 254.020459 
" clip-path="url(#p2eb7eada50)" style="fill: none; stroke: #1f77b4; stroke-linecap: square"/>
   </g>
   <g id="line2d_55">
    <path d="M 41.8534 361 
L 45.902176 239.671906 
L 55.749784 156.000502 
L 65.530587 157.594243 
L 75.289878 194.250287 
L 85.021901 196.640898 
L 94.757024 245.25 
L 104.553422 234.093813 
L 114.274361 232.500072 
L 124.024251 262.781151 
L 133.813637 225.328237 
L 143.536532 260.39054 
L 153.349611 240.468777 
L 163.113859 238.875036 
L 172.872827 254.812446 
L 182.612744 249.234353 
L 192.366444 237.281295 
L 202.135836 245.25 
L 211.924796 238.078165 
L 221.704793 245.25 
L 231.443532 269.156116 
L 241.215906 238.875036 
L 250.976015 232.500072 
L 260.73544 252.421835 
L 270.492835 242.062518 
L 280.249432 242.062518 
L 299.81667 242.859388 
L 309.571867 269.156116 
L 319.329777 245.25 
L 329.138317 228.515719 
L 338.859305 241.265647 
L 348.629162 234.093813 
L 358.410705 249.234353 
L 368.154518 278.718562 
L 377.959013 230.10946 
L 387.723874 238.875036 
L 397.461185 240.468777 
L 407.192916 226.921978 
L 416.943107 265.171763 
L 426.719797 237.281295 
L 436.500582 262.781151 
L 446.271693 244.453129 
L 456.052701 245.25 
L 465.791976 224.531367 
L 475.541282 264.374892 
L 485.323476 246.843741 
L 495.121855 234.890683 
L 504.844099 241.265647 
L 514.6149 257.203058 
L 524.41151 240.468777 
L 534.146915 245.25 
L 543.935592 250.828094 
L 553.704654 241.265647 
L 563.460192 254.812446 
L 573.234685 234.093813 
L 582.995542 233.296942 
L 592.767052 254.812446 
L 602.525116 257.203058 
L 612.332683 244.453129 
L 622.066717 238.078165 
L 631.855619 241.265647 
L 641.57931 244.453129 
L 651.366812 250.828094 
L 661.156043 239.671906 
L 670.877907 254.015576 
L 680.636382 240.468777 
L 690.380331 257.203058 
L 700.178284 239.671906 
L 709.919074 228.515719 
L 719.659874 261.18741 
L 729.421673 238.078165 
L 739.203937 238.078165 
L 748.975727 243.656259 
L 758.71191 258.796799 
L 768.51101 252.421835 
L 778.290539 233.296942 
L 788.011849 232.500072 
L 793 238.602616 
" clip-path="url(#p2eb7eada50)" style="fill: none; stroke: #ff7f0e; stroke-linecap: square"/>
   </g>
   <g id="line2d_56">
    <path d="M 35.414072 234.890683 
L 38.587792 361 
M 59.405231 361 
L 65.186358 230.10946 
L 75.067591 147.234926 
L 84.788968 162.375466 
L 94.520127 178.312877 
L 104.200403 226.125108 
L 113.933756 250.031223 
L 123.694894 246.046871 
L 133.42538 269.952986 
L 143.242435 236.484424 
L 152.963113 258.796799 
L 162.727224 260.39054 
L 172.516924 240.468777 
L 182.267027 245.25 
L 192.027288 244.453129 
L 201.806887 246.046871 
L 211.577912 239.671906 
L 221.325964 236.484424 
L 231.063304 238.875036 
L 240.838392 260.39054 
L 250.589807 257.203058 
L 260.389004 247.640612 
L 270.130525 238.875036 
L 279.899905 234.890683 
L 289.660139 243.656259 
L 299.442896 246.843741 
L 309.182141 234.890683 
L 318.977818 262.781151 
L 328.718571 263.578022 
L 338.481614 230.10946 
L 348.266587 230.10946 
L 358.035075 231.703201 
L 367.753984 250.828094 
L 377.53256 281.109173 
L 387.344521 253.218705 
L 397.10418 234.890683 
L 406.872862 232.500072 
L 416.59456 217.359532 
L 426.346802 251.624964 
L 436.076122 249.234353 
L 445.846174 264.374892 
L 455.669897 260.39054 
L 465.406488 230.10946 
L 475.195564 229.31259 
L 484.934422 257.203058 
L 494.696609 249.234353 
L 504.476275 241.265647 
L 514.275315 242.062518 
L 524.010411 246.046871 
L 533.766686 247.640612 
L 543.538926 241.265647 
L 553.321577 261.984281 
L 563.106745 228.515719 
L 572.829279 257.999928 
L 582.624353 239.671906 
L 592.37052 230.10946 
L 602.129276 237.281295 
L 611.859685 275.53108 
L 621.640118 250.828094 
L 631.390166 237.281295 
L 641.160129 228.515719 
L 650.929908 241.265647 
L 660.69096 256.406187 
L 670.461584 253.218705 
L 680.250845 249.234353 
L 690.0428 241.265647 
L 699.762397 254.015576 
L 709.543746 238.875036 
L 719.302123 227.718849 
L 729.032871 246.843741 
L 738.834226 256.406187 
L 748.553591 241.265647 
L 758.333306 240.468777 
L 768.083896 263.578022 
L 777.873428 240.468777 
L 787.633671 242.062518 
L 793 237.686025 
" clip-path="url(#p2eb7eada50)" style="fill: none; stroke: #2ca02c; stroke-linecap: square"/>
   </g>
   <g id="line2d_57">
    <path d="M 37.858233 -1 
L 44.094292 97.828954 
L 50.112687 361 
M 73.514882 361 
L 73.69104 356.015002 
L 83.707119 156.797373 
L 93.510982 83.485285 
L 103.148239 117.750717 
L 112.832335 179.109747 
L 122.528371 249.234353 
L 132.235118 254.812446 
L 141.968219 284.296655 
L 151.798056 255.609317 
L 161.566126 255.609317 
L 171.337052 269.156116 
L 181.151871 249.234353 
L 190.929553 238.078165 
L 200.681232 253.218705 
L 210.458274 244.453129 
L 220.221259 232.500072 
L 229.979101 239.671906 
L 239.756171 226.921978 
L 249.50678 253.218705 
L 259.244694 267.562374 
L 269.043715 247.640612 
L 278.775388 236.484424 
L 288.543622 242.062518 
L 298.326 241.265647 
L 308.086983 249.234353 
L 317.871761 233.296942 
L 327.613243 243.656259 
L 337.349115 280.312303 
L 347.137403 241.265647 
L 356.926636 230.10946 
L 366.648013 224.531367 
L 376.398439 241.265647 
L 386.165097 277.921691 
L 395.987129 256.406187 
L 405.7474 241.265647 
L 415.558137 239.671906 
L 425.298858 211.781438 
L 435.049624 241.265647 
L 444.770165 254.812446 
L 454.530554 254.015576 
L 464.290399 273.937339 
L 474.109222 241.265647 
L 483.888763 227.718849 
L 493.629651 241.265647 
L 503.392022 245.25 
L 513.124997 248.437482 
L 522.931815 243.656259 
L 532.695217 256.406187 
L 542.45169 235.687554 
L 552.221769 246.843741 
L 561.962133 254.812446 
L 571.744872 240.468777 
L 581.529164 242.859388 
L 591.295951 234.093813 
L 601.078474 247.640612 
L 610.806513 223.734496 
L 620.5523 269.952986 
L 630.324102 268.359245 
L 640.084276 240.468777 
L 649.844646 226.125108 
L 659.595032 236.484424 
L 669.374786 248.437482 
L 679.135127 256.406187 
L 688.875926 265.968633 
L 698.666402 228.515719 
L 708.388403 254.812446 
L 718.20639 235.687554 
L 727.968867 230.906331 
L 737.707433 236.484424 
L 747.448186 263.578022 
L 757.208701 253.218705 
L 766.997865 243.656259 
L 776.767752 248.437482 
L 786.547543 240.468777 
L 793 240.997116 
" clip-path="url(#p2eb7eada50)" style="fill: none; stroke: #d62728; stroke-linecap: square"/>
   </g>
   <g id="line2d_58">
    <path d="M 34.986833 248.437482 
L 39.958572 361 
M 69.558083 361 
L 74.05796 203.015863 
L 83.851256 32.485572 
L 93.630301 25.313737 
L 103.372062 73.922839 
L 113.146859 174.328524 
L 122.888048 263.578022 
L 132.670173 254.015576 
L 142.429153 286.687267 
L 152.130106 269.952986 
L 161.94715 271.546727 
L 171.719594 274.734209 
L 181.508398 248.437482 
L 191.260047 227.718849 
L 200.999633 250.031223 
L 210.779864 236.484424 
L 220.531008 233.296942 
L 230.29823 257.999928 
L 240.037048 229.31259 
L 249.793326 245.25 
L 259.577988 272.343598 
L 269.285181 243.656259 
L 279.110977 218.156402 
L 288.843901 246.843741 
L 298.633076 277.921691 
L 308.403963 242.859388 
L 318.159239 222.937626 
L 327.895072 249.234353 
L 337.645196 257.203058 
L 347.462318 227.718849 
L 357.209603 266.765504 
L 366.994966 204.609604 
L 376.735464 266.765504 
L 386.480883 280.312303 
L 396.256039 216.562661 
L 405.967316 257.203058 
L 415.757958 200.625251 
L 425.51539 249.234353 
L 435.269704 243.656259 
L 445.054979 272.343598 
L 454.819431 239.671906 
L 464.550267 285.093526 
L 474.315936 237.281295 
L 484.080388 221.343884 
L 493.869464 238.078165 
L 503.64882 256.406187 
L 513.437828 240.468777 
L 523.194484 239.671906 
L 532.928441 271.546727 
L 542.711266 220.547014 
L 552.474251 283.499785 
L 562.24752 211.781438 
L 572.014879 242.859388 
L 581.743413 249.234353 
L 591.530992 240.468777 
L 601.330722 235.687554 
L 611.097576 240.468777 
L 620.852852 270.749857 
L 630.61259 264.374892 
L 640.365396 230.10946 
L 650.143107 212.578309 
L 659.893357 259.593669 
L 669.687819 248.437482 
L 679.481164 279.515432 
L 689.2256 253.218705 
L 698.9835 218.953273 
L 708.753622 271.546727 
L 718.565687 207.000215 
L 728.31443 214.96892 
L 738.044702 248.437482 
L 747.834587 287.484137 
L 757.622564 249.234353 
L 767.377588 242.859388 
L 777.113954 226.125108 
L 786.887554 241.265647 
L 793 253.732008 
" clip-path="url(#p2eb7eada50)" style="fill: none; stroke-dasharray: 3.7,1.6; stroke-dashoffset: 0; stroke: #000000"/>
   </g>
   <g id="patch_12">
    <path d="M 457.08425 287.4682 
L 457.08425 203.0318 
" style="fill: none; stroke: #000000; stroke-width: 0.8; stroke-linejoin: miter; stroke-linecap: square"/>
   </g>
   <g id="patch_13">
    <path d="M 668.30575 287.4682 
L 668.30575 203.0318 
" style="fill: none; stroke: #000000; stroke-width: 0.8; stroke-linejoin: miter; stroke-linecap: square"/>
   </g>
   <g id="patch_14">
    <path d="M 457.08425 287.4682 
L 668.30575 287.4682 
" style="fill: none; stroke: #000000; stroke-width: 0.8; stroke-linejoin: miter; stroke-linecap: square"/>
   </g>
   <g id="patch_15">
    <path d="M 457.08425 203.0318 
L 668.30575 203.0318 
" style="fill: none; stroke: #000000; stroke-width: 0.8; stroke-linejoin: miter; stroke-linecap: square"/>
   </g>
   <g id="text_31">
    <!-- Zoom -->
    <g transform="translate(549.722344 197.0318) scale(0.09 -0.09)">
     <defs>
      <path id="DejaVuSans-5a" d="M 359 4666 
L 4025 4666 
L 4025 4184 
L 1075 531 
L 4097 531 
L 4097 0 
L 288 0 
L 288 481 
L 3238 4134 
L 359 4134 
L 359 4666 
z
" transform="scale(0.015625)"/>
     </defs>
     <use xlink:href="#DejaVuSans-5a"/>
     <use xlink:href="#DejaVuSans-6f" transform="translate(68.505859 0)"/>
     <use xlink:href="#DejaVuSans-6f" transform="translate(129.6875 0)"/>
     <use xlink:href="#DejaVuSans-6d" transform="translate(190.869141 0)"/>
    </g>
   </g>
  </g>
 </g>
 <defs>
  <clipPath id="p9f8328d551">
   <rect x="52.85" y="26.88" width="728.35" height="291.16"/>
  </clipPath>
  <clipPath id="p2eb7eada50">
   <rect x="457.08425" y="203.0318" width="211.2215" height="84.4364"/>
  </clipPath>
 </defs>
</svg>
