<?xml version="1.0" encoding="utf-8" standalone="no"?>
<!DOCTYPE svg PUBLIC "-//W3C//DTD SVG 1.1//EN"
  "http://www.w3.org/Graphics/SVG/1.1/DTD/svg11.dtd">
<svg xmlns:xlink="http://www.w3.org/1999/xlink" width="2293.55263pt" height="1324.476283pt" viewBox="0 0 2293.55263 1324.476283" xmlns="http://www.w3.org/2000/svg" version="1.1">
 <metadata>
  <rdf:RDF xmlns:dc="http://purl.org/dc/elements/1.1/" xmlns:cc="http://creativecommons.org/ns#" xmlns:rdf="http://www.w3.org/1999/02/22-rdf-syntax-ns#">
   <cc:Work>
    <dc:type rdf:resource="http://purl.org/dc/dcmitype/StillImage"/>
    <dc:date>2026-03-09T04:41:05.340228</dc:date>
    <dc:format>image/svg+xml</dc:format>
    <dc:creator>
     <cc:Agent>
      <dc:title>Matplotlib v3.10.8, https://matplotlib.org/</dc:title>
     </cc:Agent>
    </dc:creator>
   </cc:Work>
  </rdf:RDF>
 </metadata>
 <defs>
  <style type="text/css">*{stroke-linejoin: round; stroke-linecap: butt}</style>
 </defs>
 <g id="figure_1">
  <g id="patch_1">
   <path d="M 0 1324.476283 
L 2293.55263 1324.476283 
L 2293.55263 0 
L 0 0 
z
" style="fill: #ffffff"/>
  </g>
  <g id="axes_1">
   <g id="patch_2">
    <path d="M 124.650665 578.170689 
L 2267.088561 578.170689 
L 2267.088561 61.808893 
L 124.650665 61.808893 
z
" style="fill: #ffffff"/>
   </g>
   <g id="matplotlib.axis_1">
    <g id="xtick_1">
     <g id="line2d_1">
      <path d="M 456.581573 578.170689 
L 456.581573 61.808893 
" clip-path="url(#p962de882b5)" style="fill: none; stroke: #b0b0b0; stroke-opacity: 0.3; stroke-width: 0.8; stroke-linecap: square"/>
     </g>
     <g id="line2d_2">
      <defs>
       <path id="m8c1c168835" d="M 0 0 
L 0 3.5 
" style="stroke: #000000; stroke-width: 0.8"/>
      </defs>
      <g>
       <use xlink:href="#m8c1c168835" x="456.581573" y="578.170689" style="stroke: #000000; stroke-width: 0.8"/>
      </g>
     </g>
     <g id="text_1">
      <!-- −0.5 -->
      <g transform="translate(444.440166 592.769126) scale(0.1 -0.1)">
       <defs>
        <path id="DejaVuSans-2212" d="M 678 2272 
L 4684 2272 
L 4684 1741 
L 678 1741 
L 678 2272 
z
" transform="scale(0.015625)"/>
        <path id="DejaVuSans-30" d="M 2034 4250 
Q 1547 4250 1301 3770 
Q 1056 3291 1056 2328 
Q 1056 1369 1301 889 
Q 1547 409 2034 409 
Q 2525 409 2770 889 
Q 3016 1369 3016 2328 
Q 3016 3291 2770 3770 
Q 2525 4250 2034 4250 
z
M 2034 4750 
Q 2819 4750 3233 4129 
Q 3647 3509 3647 2328 
Q 3647 1150 3233 529 
Q 2819 -91 2034 -91 
Q 1250 -91 836 529 
Q 422 1150 422 2328 
Q 422 3509 836 4129 
Q 1250 4750 2034 4750 
z
" transform="scale(0.015625)"/>
        <path id="DejaVuSans-2e" d="M 684 794 
L 1344 794 
L 1344 0 
L 684 0 
L 684 794 
z
" transform="scale(0.015625)"/>
        <path id="DejaVuSans-35" d="M 691 4666 
L 3169 4666 
L 3169 4134 
L 1269 4134 
L 1269 2991 
Q 1406 3038 1543 3061 
Q 1681 3084 1819 3084 
Q 2600 3084 3056 2656 
Q 3513 2228 3513 1497 
Q 3513 744 3044 326 
Q 2575 -91 1722 -91 
Q 1428 -91 1123 -41 
Q 819 9 494 109 
L 494 744 
Q 775 591 1075 516 
Q 1375 441 1709 441 
Q 2250 441 2565 725 
Q 2881 1009 2881 1497 
Q 2881 1984 2565 2268 
Q 2250 2553 1709 2553 
Q 1456 2553 1204 2497 
Q 953 2441 691 2322 
L 691 4666 
z
" transform="scale(0.015625)"/>
       </defs>
       <use xlink:href="#DejaVuSans-2212"/>
       <use xlink:href="#DejaVuSans-30" transform="translate(83.789062 0)"/>
       <use xlink:href="#DejaVuSans-2e" transform="translate(147.412109 0)"/>
       <use xlink:href="#DejaVuSans-35" transform="translate(179.199219 0)"/>
      </g>
     </g>
    </g>
    <g id="xtick_2">
     <g id="line2d_3">
      <path d="M 875.06318 578.170689 
L 875.06318 61.808893 
" clip-path="url(#p962de882b5)" style="fill: none; stroke: #b0b0b0; stroke-opacity: 0.3; stroke-width: 0.8; stroke-linecap: square"/>
     </g>
     <g id="line2d_4">
      <g>
       <use xlink:href="#m8c1c168835" x="875.06318" y="578.170689" style="stroke: #000000; stroke-width: 0.8"/>
      </g>
     </g>
     <g id="text_2">
      <!-- −0.4 -->
      <g transform="translate(862.921773 592.769126) scale(0.1 -0.1)">
       <defs>
        <path id="DejaVuSans-34" d="M 2419 4116 
L 825 1625 
L 2419 1625 
L 2419 4116 
z
M 2253 4666 
L 3047 4666 
L 3047 1625 
L 3713 1625 
L 3713 1100 
L 3047 1100 
L 3047 0 
L 2419 0 
L 2419 1100 
L 313 1100 
L 313 1709 
L 2253 4666 
z
" transform="scale(0.015625)"/>
       </defs>
       <use xlink:href="#DejaVuSans-2212"/>
       <use xlink:href="#DejaVuSans-30" transform="translate(83.789062 0)"/>
       <use xlink:href="#DejaVuSans-2e" transform="translate(147.412109 0)"/>
       <use xlink:href="#DejaVuSans-34" transform="translate(179.199219 0)"/>
      </g>
     </g>
    </g>
    <g id="xtick_3">
     <g id="line2d_5">
      <path d="M 1293.544786 578.170689 
L 1293.544786 61.808893 
" clip-path="url(#p962de882b5)" style="fill: none; stroke: #b0b0b0; stroke-opacity: 0.3; stroke-width: 0.8; stroke-linecap: square"/>
     </g>
     <g id="line2d_6">
      <g>
       <use xlink:href="#m8c1c168835" x="1293.544786" y="578.170689" style="stroke: #000000; stroke-width: 0.8"/>
      </g>
     </g>
     <g id="text_3">
      <!-- −0.3 -->
      <g transform="translate(1281.40338 592.769126) scale(0.1 -0.1)">
       <defs>
        <path id="DejaVuSans-33" d="M 2597 2516 
Q 3050 2419 3304 2112 
Q 3559 1806 3559 1356 
Q 3559 666 3084 287 
Q 2609 -91 1734 -91 
Q 1441 -91 1130 -33 
Q 819 25 488 141 
L 488 750 
Q 750 597 1062 519 
Q 1375 441 1716 441 
Q 2309 441 2620 675 
Q 2931 909 2931 1356 
Q 2931 1769 2642 2001 
Q 2353 2234 1838 2234 
L 1294 2234 
L 1294 2753 
L 1863 2753 
Q 2328 2753 2575 2939 
Q 2822 3125 2822 3475 
Q 2822 3834 2567 4026 
Q 2313 4219 1838 4219 
Q 1578 4219 1281 4162 
Q 984 4106 628 3988 
L 628 4550 
Q 988 4650 1302 4700 
Q 1616 4750 1894 4750 
Q 2613 4750 3031 4423 
Q 3450 4097 3450 3541 
Q 3450 3153 3228 2886 
Q 3006 2619 2597 2516 
z
" transform="scale(0.015625)"/>
       </defs>
       <use xlink:href="#DejaVuSans-2212"/>
       <use xlink:href="#DejaVuSans-30" transform="translate(83.789062 0)"/>
       <use xlink:href="#DejaVuSans-2e" transform="translate(147.412109 0)"/>
       <use xlink:href="#DejaVuSans-33" transform="translate(179.199219 0)"/>
      </g>
     </g>
    </g>
    <g id="xtick_4">
     <g id="line2d_7">
      <path d="M 1712.026393 578.170689 
L 1712.026393 61.808893 
" clip-path="url(#p962de882b5)" style="fill: none; stroke: #b0b0b0; stroke-opacity: 0.3; stroke-width: 0.8; stroke-linecap: square"/>
     </g>
     <g id="line2d_8">
      <g>
       <use xlink:href="#m8c1c168835" x="1712.026393" y="578.170689" style="stroke: #000000; stroke-width: 0.8"/>
      </g>
     </g>
     <g id="text_4">
      <!-- −0.2 -->
      <g transform="translate(1699.884987 592.769126) scale(0.1 -0.1)">
       <defs>
        <path id="DejaVuSans-32" d="M 1228 531 
L 3431 531 
L 3431 0 
L 469 0 
L 469 531 
Q 828 903 1448 1529 
Q 2069 2156 2228 2338 
Q 2531 2678 2651 2914 
Q 2772 3150 2772 3378 
Q 2772 3750 2511 3984 
Q 2250 4219 1831 4219 
Q 1534 4219 1204 4116 
Q 875 4013 500 3803 
L 500 4441 
Q 881 4594 1212 4672 
Q 1544 4750 1819 4750 
Q 2544 4750 2975 4387 
Q 3406 4025 3406 3419 
Q 3406 3131 3298 2873 
Q 3191 2616 2906 2266 
Q 2828 2175 2409 1742 
Q 1991 1309 1228 531 
z
" transform="scale(0.015625)"/>
       </defs>
       <use xlink:href="#DejaVuSans-2212"/>
       <use xlink:href="#DejaVuSans-30" transform="translate(83.789062 0)"/>
       <use xlink:href="#DejaVuSans-2e" transform="translate(147.412109 0)"/>
       <use xlink:href="#DejaVuSans-32" transform="translate(179.199219 0)"/>
      </g>
     </g>
    </g>
    <g id="xtick_5">
     <g id="line2d_9">
      <path d="M 2130.508 578.170689 
L 2130.508 61.808893 
" clip-path="url(#p962de882b5)" style="fill: none; stroke: #b0b0b0; stroke-opacity: 0.3; stroke-width: 0.8; stroke-linecap: square"/>
     </g>
     <g id="line2d_10">
      <g>
       <use xlink:href="#m8c1c168835" x="2130.508" y="578.170689" style="stroke: #000000; stroke-width: 0.8"/>
      </g>
     </g>
     <g id="text_5">
      <!-- −0.1 -->
      <g transform="translate(2118.366594 592.769126) scale(0.1 -0.1)">
       <defs>
        <path id="DejaVuSans-31" d="M 794 531 
L 1825 531 
L 1825 4091 
L 703 3866 
L 703 4441 
L 1819 4666 
L 2450 4666 
L 2450 531 
L 3481 531 
L 3481 0 
L 794 0 
L 794 531 
z
" transform="scale(0.015625)"/>
       </defs>
       <use xlink:href="#DejaVuSans-2212"/>
       <use xlink:href="#DejaVuSans-30" transform="translate(83.789062 0)"/>
       <use xlink:href="#DejaVuSans-2e" transform="translate(147.412109 0)"/>
       <use xlink:href="#DejaVuSans-31" transform="translate(179.199219 0)"/>
      </g>
     </g>
    </g>
    <g id="text_6">
     <!-- Time (s) -->
     <g transform="translate(1175.540707 606.447251) scale(0.1 -0.1)">
      <defs>
       <path id="DejaVuSans-54" d="M -19 4666 
L 3928 4666 
L 3928 4134 
L 2272 4134 
L 2272 0 
L 1638 0 
L 1638 4134 
L -19 4134 
L -19 4666 
z
" transform="scale(0.015625)"/>
       <path id="DejaVuSans-69" d="M 603 3500 
L 1178 3500 
L 1178 0 
L 603 0 
L 603 3500 
z
M 603 4863 
L 1178 4863 
L 1178 4134 
L 603 4134 
L 603 4863 
z
" transform="scale(0.015625)"/>
       <path id="DejaVuSans-6d" d="M 3328 2828 
Q 3544 3216 3844 3400 
Q 4144 3584 4550 3584 
Q 5097 3584 5394 3201 
Q 5691 2819 5691 2113 
L 5691 0 
L 5113 0 
L 5113 2094 
Q 5113 2597 4934 2840 
Q 4756 3084 4391 3084 
Q 3944 3084 3684 2787 
Q 3425 2491 3425 1978 
L 3425 0 
L 2847 0 
L 2847 2094 
Q 2847 2600 2669 2842 
Q 2491 3084 2119 3084 
Q 1678 3084 1418 2786 
Q 1159 2488 1159 1978 
L 1159 0 
L 581 0 
L 581 3500 
L 1159 3500 
L 1159 2956 
Q 1356 3278 1631 3431 
Q 1906 3584 2284 3584 
Q 2666 3584 2933 3390 
Q 3200 3197 3328 2828 
z
" transform="scale(0.015625)"/>
       <path id="DejaVuSans-65" d="M 3597 1894 
L 3597 1613 
L 953 1613 
Q 991 1019 1311 708 
Q 1631 397 2203 397 
Q 2534 397 2845 478 
Q 3156 559 3463 722 
L 3463 178 
Q 3153 47 2828 -22 
Q 2503 -91 2169 -91 
Q 1331 -91 842 396 
Q 353 884 353 1716 
Q 353 2575 817 3079 
Q 1281 3584 2069 3584 
Q 2775 3584 3186 3129 
Q 3597 2675 3597 1894 
z
M 3022 2063 
Q 3016 2534 2758 2815 
Q 2500 3097 2075 3097 
Q 1594 3097 1305 2825 
Q 1016 2553 972 2059 
L 3022 2063 
z
" transform="scale(0.015625)"/>
       <path id="DejaVuSans-20" transform="scale(0.015625)"/>
       <path id="DejaVuSans-28" d="M 1984 4856 
Q 1566 4138 1362 3434 
Q 1159 2731 1159 2009 
Q 1159 1288 1364 580 
Q 1569 -128 1984 -844 
L 1484 -844 
Q 1016 -109 783 600 
Q 550 1309 550 2009 
Q 550 2706 781 3412 
Q 1013 4119 1484 4856 
L 1984 4856 
z
" transform="scale(0.015625)"/>
       <path id="DejaVuSans-73" d="M 2834 3397 
L 2834 2853 
Q 2591 2978 2328 3040 
Q 2066 3103 1784 3103 
Q 1356 3103 1142 2972 
Q 928 2841 928 2578 
Q 928 2378 1081 2264 
Q 1234 2150 1697 2047 
L 1894 2003 
Q 2506 1872 2764 1633 
Q 3022 1394 3022 966 
Q 3022 478 2636 193 
Q 2250 -91 1575 -91 
Q 1294 -91 989 -36 
Q 684 19 347 128 
L 347 722 
Q 666 556 975 473 
Q 1284 391 1588 391 
Q 1994 391 2212 530 
Q 2431 669 2431 922 
Q 2431 1156 2273 1281 
Q 2116 1406 1581 1522 
L 1381 1569 
Q 847 1681 609 1914 
Q 372 2147 372 2553 
Q 372 3047 722 3315 
Q 1072 3584 1716 3584 
Q 2034 3584 2315 3537 
Q 2597 3491 2834 3397 
z
" transform="scale(0.015625)"/>
       <path id="DejaVuSans-29" d="M 513 4856 
L 1013 4856 
Q 1481 4119 1714 3412 
Q 1947 2706 1947 2009 
Q 1947 1309 1714 600 
Q 1481 -109 1013 -844 
L 513 -844 
Q 928 -128 1133 580 
Q 1338 1288 1338 2009 
Q 1338 2731 1133 3434 
Q 928 4138 513 4856 
z
" transform="scale(0.015625)"/>
      </defs>
      <use xlink:href="#DejaVuSans-54"/>
      <use xlink:href="#DejaVuSans-69" transform="translate(57.958984 0)"/>
      <use xlink:href="#DejaVuSans-6d" transform="translate(85.742188 0)"/>
      <use xlink:href="#DejaVuSans-65" transform="translate(183.154297 0)"/>
      <use xlink:href="#DejaVuSans-20" transform="translate(244.677734 0)"/>
      <use xlink:href="#DejaVuSans-28" transform="translate(276.464844 0)"/>
      <use xlink:href="#DejaVuSans-73" transform="translate(315.478516 0)"/>
      <use xlink:href="#DejaVuSans-29" transform="translate(367.578125 0)"/>
     </g>
    </g>
   </g>
   <g id="matplotlib.axis_2">
    <g id="ytick_1">
     <g id="line2d_11">
      <path d="M 124.650665 527.498695 
L 2267.088561 527.498695 
" clip-path="url(#p962de882b5)" style="fill: none; stroke: #b0b0b0; stroke-opacity: 0.3; stroke-width: 0.8; stroke-linecap: square"/>
     </g>
     <g id="line2d_12">
      <defs>
       <path id="mbc7d868e42" d="M 0 0 
L -3.5 0 
" style="stroke: #000000; stroke-width: 0.8"/>
      </defs>
      <g>
       <use xlink:href="#mbc7d868e42" x="124.650665" y="527.498695" style="stroke: #000000; stroke-width: 0.8"/>
      </g>
     </g>
     <g id="text_7">
      <!-- 0.0 -->
      <g transform="translate(101.74754 531.297914) scale(0.1 -0.1)">
       <use xlink:href="#DejaVuSans-30"/>
       <use xlink:href="#DejaVuSans-2e" transform="translate(63.623047 0)"/>
       <use xlink:href="#DejaVuSans-30" transform="translate(95.410156 0)"/>
      </g>
     </g>
    </g>
    <g id="ytick_2">
     <g id="line2d_13">
      <path d="M 124.650665 455.539948 
L 2267.088561 455.539948 
" clip-path="url(#p962de882b5)" style="fill: none; stroke: #b0b0b0; stroke-opacity: 0.3; stroke-width: 0.8; stroke-linecap: square"/>
     </g>
     <g id="line2d_14">
      <g>
       <use xlink:href="#mbc7d868e42" x="124.650665" y="455.539948" style="stroke: #000000; stroke-width: 0.8"/>
      </g>
     </g>
     <g id="text_8">
      <!-- 0.5 -->
      <g transform="translate(101.74754 459.339167) scale(0.1 -0.1)">
       <use xlink:href="#DejaVuSans-30"/>
       <use xlink:href="#DejaVuSans-2e" transform="translate(63.623047 0)"/>
       <use xlink:href="#DejaVuSans-35" transform="translate(95.410156 0)"/>
      </g>
     </g>
    </g>
    <g id="ytick_3">
     <g id="line2d_15">
      <path d="M 124.650665 383.581201 
L 2267.088561 383.581201 
" clip-path="url(#p962de882b5)" style="fill: none; stroke: #b0b0b0; stroke-opacity: 0.3; stroke-width: 0.8; stroke-linecap: square"/>
     </g>
     <g id="line2d_16">
      <g>
       <use xlink:href="#mbc7d868e42" x="124.650665" y="383.581201" style="stroke: #000000; stroke-width: 0.8"/>
      </g>
     </g>
     <g id="text_9">
      <!-- 1.0 -->
      <g transform="translate(101.74754 387.380419) scale(0.1 -0.1)">
       <use xlink:href="#DejaVuSans-31"/>
       <use xlink:href="#DejaVuSans-2e" transform="translate(63.623047 0)"/>
       <use xlink:href="#DejaVuSans-30" transform="translate(95.410156 0)"/>
      </g>
     </g>
    </g>
    <g id="ytick_4">
     <g id="line2d_17">
      <path d="M 124.650665 311.622454 
L 2267.088561 311.622454 
" clip-path="url(#p962de882b5)" style="fill: none; stroke: #b0b0b0; stroke-opacity: 0.3; stroke-width: 0.8; stroke-linecap: square"/>
     </g>
     <g id="line2d_18">
      <g>
       <use xlink:href="#mbc7d868e42" x="124.650665" y="311.622454" style="stroke: #000000; stroke-width: 0.8"/>
      </g>
     </g>
     <g id="text_10">
      <!-- 1.5 -->
      <g transform="translate(101.74754 315.421672) scale(0.1 -0.1)">
       <use xlink:href="#DejaVuSans-31"/>
       <use xlink:href="#DejaVuSans-2e" transform="translate(63.623047 0)"/>
       <use xlink:href="#DejaVuSans-35" transform="translate(95.410156 0)"/>
      </g>
     </g>
    </g>
    <g id="ytick_5">
     <g id="line2d_19">
      <path d="M 124.650665 239.663706 
L 2267.088561 239.663706 
" clip-path="url(#p962de882b5)" style="fill: none; stroke: #b0b0b0; stroke-opacity: 0.3; stroke-width: 0.8; stroke-linecap: square"/>
     </g>
     <g id="line2d_20">
      <g>
       <use xlink:href="#mbc7d868e42" x="124.650665" y="239.663706" style="stroke: #000000; stroke-width: 0.8"/>
      </g>
     </g>
     <g id="text_11">
      <!-- 2.0 -->
      <g transform="translate(101.74754 243.462925) scale(0.1 -0.1)">
       <use xlink:href="#DejaVuSans-32"/>
       <use xlink:href="#DejaVuSans-2e" transform="translate(63.623047 0)"/>
       <use xlink:href="#DejaVuSans-30" transform="translate(95.410156 0)"/>
      </g>
     </g>
    </g>
    <g id="ytick_6">
     <g id="line2d_21">
      <path d="M 124.650665 167.704959 
L 2267.088561 167.704959 
" clip-path="url(#p962de882b5)" style="fill: none; stroke: #b0b0b0; stroke-opacity: 0.3; stroke-width: 0.8; stroke-linecap: square"/>
     </g>
     <g id="line2d_22">
      <g>
       <use xlink:href="#mbc7d868e42" x="124.650665" y="167.704959" style="stroke: #000000; stroke-width: 0.8"/>
      </g>
     </g>
     <g id="text_12">
      <!-- 2.5 -->
      <g transform="translate(101.74754 171.504178) scale(0.1 -0.1)">
       <use xlink:href="#DejaVuSans-32"/>
       <use xlink:href="#DejaVuSans-2e" transform="translate(63.623047 0)"/>
       <use xlink:href="#DejaVuSans-35" transform="translate(95.410156 0)"/>
      </g>
     </g>
    </g>
    <g id="ytick_7">
     <g id="line2d_23">
      <path d="M 124.650665 95.746212 
L 2267.088561 95.746212 
" clip-path="url(#p962de882b5)" style="fill: none; stroke: #b0b0b0; stroke-opacity: 0.3; stroke-width: 0.8; stroke-linecap: square"/>
     </g>
     <g id="line2d_24">
      <g>
       <use xlink:href="#mbc7d868e42" x="124.650665" y="95.746212" style="stroke: #000000; stroke-width: 0.8"/>
      </g>
     </g>
     <g id="text_13">
      <!-- 3.0 -->
      <g transform="translate(101.74754 99.545431) scale(0.1 -0.1)">
       <use xlink:href="#DejaVuSans-33"/>
       <use xlink:href="#DejaVuSans-2e" transform="translate(63.623047 0)"/>
       <use xlink:href="#DejaVuSans-30" transform="translate(95.410156 0)"/>
      </g>
     </g>
    </g>
    <g id="text_14">
     <!-- Voltage (V) -->
     <g transform="translate(95.667852 347.656978) rotate(-90) scale(0.1 -0.1)">
      <defs>
       <path id="DejaVuSans-56" d="M 1831 0 
L 50 4666 
L 709 4666 
L 2188 738 
L 3669 4666 
L 4325 4666 
L 2547 0 
L 1831 0 
z
" transform="scale(0.015625)"/>
       <path id="DejaVuSans-6f" d="M 1959 3097 
Q 1497 3097 1228 2736 
Q 959 2375 959 1747 
Q 959 1119 1226 758 
Q 1494 397 1959 397 
Q 2419 397 2687 759 
Q 2956 1122 2956 1747 
Q 2956 2369 2687 2733 
Q 2419 3097 1959 3097 
z
M 1959 3584 
Q 2709 3584 3137 3096 
Q 3566 2609 3566 1747 
Q 3566 888 3137 398 
Q 2709 -91 1959 -91 
Q 1206 -91 779 398 
Q 353 888 353 1747 
Q 353 2609 779 3096 
Q 1206 3584 1959 3584 
z
" transform="scale(0.015625)"/>
       <path id="DejaVuSans-6c" d="M 603 4863 
L 1178 4863 
L 1178 0 
L 603 0 
L 603 4863 
z
" transform="scale(0.015625)"/>
       <path id="DejaVuSans-74" d="M 1172 4494 
L 1172 3500 
L 2356 3500 
L 2356 3053 
L 1172 3053 
L 1172 1153 
Q 1172 725 1289 603 
Q 1406 481 1766 481 
L 2356 481 
L 2356 0 
L 1766 0 
Q 1100 0 847 248 
Q 594 497 594 1153 
L 594 3053 
L 172 3053 
L 172 3500 
L 594 3500 
L 594 4494 
L 1172 4494 
z
" transform="scale(0.015625)"/>
       <path id="DejaVuSans-61" d="M 2194 1759 
Q 1497 1759 1228 1600 
Q 959 1441 959 1056 
Q 959 750 1161 570 
Q 1363 391 1709 391 
Q 2188 391 2477 730 
Q 2766 1069 2766 1631 
L 2766 1759 
L 2194 1759 
z
M 3341 1997 
L 3341 0 
L 2766 0 
L 2766 531 
Q 2569 213 2275 61 
Q 1981 -91 1556 -91 
Q 1019 -91 701 211 
Q 384 513 384 1019 
Q 384 1609 779 1909 
Q 1175 2209 1959 2209 
L 2766 2209 
L 2766 2266 
Q 2766 2663 2505 2880 
Q 2244 3097 1772 3097 
Q 1472 3097 1187 3025 
Q 903 2953 641 2809 
L 641 3341 
Q 956 3463 1253 3523 
Q 1550 3584 1831 3584 
Q 2591 3584 2966 3190 
Q 3341 2797 3341 1997 
z
" transform="scale(0.015625)"/>
       <path id="DejaVuSans-67" d="M 2906 1791 
Q 2906 2416 2648 2759 
Q 2391 3103 1925 3103 
Q 1463 3103 1205 2759 
Q 947 2416 947 1791 
Q 947 1169 1205 825 
Q 1463 481 1925 481 
Q 2391 481 2648 825 
Q 2906 1169 2906 1791 
z
M 3481 434 
Q 3481 -459 3084 -895 
Q 2688 -1331 1869 -1331 
Q 1566 -1331 1297 -1286 
Q 1028 -1241 775 -1147 
L 775 -588 
Q 1028 -725 1275 -790 
Q 1522 -856 1778 -856 
Q 2344 -856 2625 -561 
Q 2906 -266 2906 331 
L 2906 616 
Q 2728 306 2450 153 
Q 2172 0 1784 0 
Q 1141 0 747 490 
Q 353 981 353 1791 
Q 353 2603 747 3093 
Q 1141 3584 1784 3584 
Q 2172 3584 2450 3431 
Q 2728 3278 2906 2969 
L 2906 3500 
L 3481 3500 
L 3481 434 
z
" transform="scale(0.015625)"/>
      </defs>
      <use xlink:href="#DejaVuSans-56"/>
      <use xlink:href="#DejaVuSans-6f" transform="translate(60.658203 0)"/>
      <use xlink:href="#DejaVuSans-6c" transform="translate(121.839844 0)"/>
      <use xlink:href="#DejaVuSans-74" transform="translate(149.623047 0)"/>
      <use xlink:href="#DejaVuSans-61" transform="translate(188.832031 0)"/>
      <use xlink:href="#DejaVuSans-67" transform="translate(250.111328 0)"/>
      <use xlink:href="#DejaVuSans-65" transform="translate(313.587891 0)"/>
      <use xlink:href="#DejaVuSans-20" transform="translate(375.111328 0)"/>
      <use xlink:href="#DejaVuSans-28" transform="translate(406.898438 0)"/>
      <use xlink:href="#DejaVuSans-56" transform="translate(445.912109 0)"/>
      <use xlink:href="#DejaVuSans-29" transform="translate(514.320312 0)"/>
     </g>
    </g>
   </g>
   <g id="line2d_25">
    <path d="M 124.307177 527.498695 
L 208.840461 527.498695 
L 209.677425 233.907007 
L 210.514388 262.690505 
L 216.37313 262.690505 
L 217.210093 268.447205 
L 218.047057 268.447205 
L 218.88402 262.690505 
L 223.905799 262.690505 
L 224.742762 268.447205 
L 225.579726 262.690505 
L 243.155953 262.690505 
L 243.992916 256.933806 
L 244.82988 262.690505 
L 248.177732 262.690505 
L 249.014696 268.447205 
L 249.851659 268.447205 
L 250.688622 262.690505 
L 252.362548 262.690505 
L 253.199512 256.933806 
L 254.873438 268.447205 
L 255.710401 268.447205 
L 256.547365 262.690505 
L 257.384328 262.690505 
L 258.221291 268.447205 
L 259.058254 262.690505 
L 259.895217 268.447205 
L 260.732181 268.447205 
L 261.569144 262.690505 
L 262.406107 262.690505 
L 263.24307 268.447205 
L 264.916997 268.447205 
L 265.75396 262.690505 
L 266.590923 268.447205 
L 267.427886 256.933806 
L 268.26485 262.690505 
L 270.775739 262.690505 
L 271.612702 268.447205 
L 273.286629 268.447205 
L 274.123592 262.690505 
L 278.308408 262.690505 
L 279.145371 268.447205 
L 279.982335 262.690505 
L 280.819298 268.447205 
L 281.656261 268.447205 
L 282.493224 262.690505 
L 283.330187 262.690505 
L 284.167151 268.447205 
L 285.004114 262.690505 
L 285.841077 262.690505 
L 286.67804 268.447205 
L 287.515003 268.447205 
L 288.351967 262.690505 
L 290.025893 262.690505 
L 290.862856 268.447205 
L 291.69982 262.690505 
L 297.558562 262.690505 
L 298.395525 268.447205 
L 299.232488 262.690505 
L 300.069452 262.690505 
L 300.906415 268.447205 
L 301.743378 262.690505 
L 305.091231 262.690505 
L 305.928194 256.933806 
L 306.765157 268.447205 
L 307.602121 268.447205 
L 308.439084 262.690505 
L 309.276047 262.690505 
L 310.11301 268.447205 
L 310.949973 262.690505 
L 312.6239 262.690505 
L 313.460863 268.447205 
L 314.297826 262.690505 
L 326.015311 262.690505 
L 326.852275 268.447205 
L 327.689238 262.690505 
L 328.526201 268.447205 
L 329.363164 262.690505 
L 334.384943 262.690505 
L 335.221907 268.447205 
L 336.05887 262.690505 
L 336.895833 268.447205 
L 337.732796 262.690505 
L 339.406723 262.690505 
L 340.243686 268.447205 
L 341.080649 262.690505 
L 341.917612 268.447205 
L 342.754576 262.690505 
L 346.939392 262.690505 
L 347.776355 268.447205 
L 348.613318 262.690505 
L 349.450281 268.447205 
L 351.124208 268.447205 
L 351.961171 262.690505 
L 360.330803 262.690505 
L 361.167766 268.447205 
L 362.004729 268.447205 
L 362.841693 262.690505 
L 366.189546 262.690505 
L 367.026509 268.447205 
L 367.863472 262.690505 
L 368.700435 262.690505 
L 369.537398 268.447205 
L 370.374362 262.690505 
L 373.722214 262.690505 
L 374.559178 268.447205 
L 375.396141 562.038894 
L 376.233104 527.498695 
L 389.624516 527.498695 
L 390.461479 521.741995 
L 391.298442 527.498695 
L 392.135405 527.498695 
L 392.972368 521.741995 
L 393.809332 521.741995 
L 394.646295 527.498695 
L 395.483258 521.741995 
L 396.320221 527.498695 
L 397.157184 521.741995 
L 397.994148 527.498695 
L 399.668074 527.498695 
L 400.505037 521.741995 
L 401.342001 527.498695 
L 412.222522 527.498695 
L 413.059486 521.741995 
L 413.896449 527.498695 
L 541.95182 527.498695 
L 542.788784 245.420406 
L 543.625747 268.447205 
L 544.46271 262.690505 
L 545.299673 268.447205 
L 546.9736 268.447205 
L 547.810563 256.933806 
L 549.484489 268.447205 
L 550.321453 268.447205 
L 551.158416 262.690505 
L 551.995379 268.447205 
L 552.832342 262.690505 
L 557.017158 262.690505 
L 557.854122 268.447205 
L 558.691085 262.690505 
L 559.528048 268.447205 
L 560.365011 268.447205 
L 561.201974 262.690505 
L 562.038938 268.447205 
L 563.712864 268.447205 
L 564.549827 262.690505 
L 567.060717 262.690505 
L 567.89768 268.447205 
L 568.734643 268.447205 
L 569.571607 262.690505 
L 580.452128 262.690505 
L 581.289092 268.447205 
L 582.126055 262.690505 
L 582.963018 262.690505 
L 583.799981 268.447205 
L 584.636944 262.690505 
L 586.310871 262.690505 
L 587.147834 268.447205 
L 587.984797 262.690505 
L 589.658724 262.690505 
L 590.495687 268.447205 
L 591.33265 268.447205 
L 592.169613 262.690505 
L 593.006577 268.447205 
L 593.84354 262.690505 
L 598.028356 262.690505 
L 598.865319 268.447205 
L 600.539245 268.447205 
L 601.376209 262.690505 
L 603.050135 262.690505 
L 603.887098 268.447205 
L 604.724061 256.933806 
L 605.561025 262.690505 
L 606.397988 256.933806 
L 607.234951 262.690505 
L 608.908878 262.690505 
L 609.745841 256.933806 
L 611.419767 268.447205 
L 612.25673 262.690505 
L 623.137252 262.690505 
L 623.974215 268.447205 
L 624.811179 262.690505 
L 625.648142 274.203905 
L 626.485105 262.690505 
L 627.322068 262.690505 
L 628.159031 268.447205 
L 630.669921 268.447205 
L 631.506884 262.690505 
L 634.017774 262.690505 
L 634.854737 256.933806 
L 635.6917 268.447205 
L 636.528664 262.690505 
L 637.365627 262.690505 
L 638.20259 268.447205 
L 639.039553 262.690505 
L 644.898296 262.690505 
L 645.735259 268.447205 
L 646.572222 262.690505 
L 650.757038 262.690505 
L 651.594001 268.447205 
L 652.430965 262.690505 
L 654.104891 262.690505 
L 654.941854 268.447205 
L 655.778818 268.447205 
L 656.615781 262.690505 
L 658.289707 262.690505 
L 659.12667 268.447205 
L 659.963634 262.690505 
L 661.63756 262.690505 
L 662.474523 268.447205 
L 663.311486 262.690505 
L 667.496303 262.690505 
L 668.333266 268.447205 
L 669.170229 262.690505 
L 670.844155 262.690505 
L 671.681119 268.447205 
L 672.518082 262.690505 
L 680.050751 262.690505 
L 680.887714 268.447205 
L 681.724677 268.447205 
L 682.56164 262.690505 
L 683.398604 268.447205 
L 684.235567 262.690505 
L 685.07253 268.447205 
L 685.909493 262.690505 
L 693.442162 262.690505 
L 694.279125 268.447205 
L 695.116089 262.690505 
L 695.953052 262.690505 
L 696.790015 268.447205 
L 697.626978 268.447205 
L 698.463941 262.690505 
L 700.974831 262.690505 
L 701.811794 268.447205 
L 702.648758 262.690505 
L 703.485721 262.690505 
L 704.322684 268.447205 
L 705.159647 262.690505 
L 705.99661 262.690505 
L 706.833574 268.447205 
L 707.670537 262.690505 
L 708.5075 544.768794 
L 709.344463 527.498695 
L 723.572838 527.498695 
L 724.409801 521.741995 
L 730.268544 521.741995 
L 731.105507 527.498695 
L 878.411032 527.498695 
L 879.247996 256.933806 
L 880.084959 268.447205 
L 881.758885 268.447205 
L 882.595848 262.690505 
L 884.269775 262.690505 
L 885.106738 268.447205 
L 885.943701 262.690505 
L 886.780665 262.690505 
L 887.617628 268.447205 
L 888.454591 262.690505 
L 889.291554 268.447205 
L 890.128517 262.690505 
L 890.965481 268.447205 
L 891.802444 256.933806 
L 893.47637 268.447205 
L 895.98726 268.447205 
L 896.824223 262.690505 
L 898.49815 262.690505 
L 899.335113 268.447205 
L 900.172076 268.447205 
L 901.009039 262.690505 
L 901.846002 262.690505 
L 902.682966 268.447205 
L 903.519929 256.933806 
L 904.356892 268.447205 
L 905.193855 262.690505 
L 906.030818 268.447205 
L 906.867782 262.690505 
L 907.704745 268.447205 
L 908.541708 268.447205 
L 909.378671 262.690505 
L 917.748303 262.690505 
L 918.585267 268.447205 
L 920.259193 268.447205 
L 921.096156 262.690505 
L 921.93312 268.447205 
L 922.770083 256.933806 
L 923.607046 262.690505 
L 925.280972 262.690505 
L 926.117936 268.447205 
L 926.954899 262.690505 
L 928.628825 262.690505 
L 929.465788 268.447205 
L 930.302752 262.690505 
L 931.139715 268.447205 
L 931.976678 262.690505 
L 935.324531 262.690505 
L 936.161494 268.447205 
L 936.998457 268.447205 
L 937.835421 262.690505 
L 940.34631 262.690505 
L 941.183273 268.447205 
L 942.8572 268.447205 
L 943.694163 262.690505 
L 944.531126 262.690505 
L 945.36809 268.447205 
L 946.205053 262.690505 
L 947.878979 262.690505 
L 948.715942 268.447205 
L 949.552906 262.690505 
L 952.900758 262.690505 
L 953.737722 268.447205 
L 954.574685 262.690505 
L 955.411648 262.690505 
L 956.248611 268.447205 
L 957.085575 262.690505 
L 957.922538 268.447205 
L 958.759501 262.690505 
L 959.596464 262.690505 
L 960.433427 256.933806 
L 961.270391 268.447205 
L 962.107354 262.690505 
L 962.944317 262.690505 
L 963.78128 268.447205 
L 964.618243 262.690505 
L 972.150912 262.690505 
L 972.987876 268.447205 
L 973.824839 262.690505 
L 974.661802 262.690505 
L 975.498765 268.447205 
L 976.335728 262.690505 
L 977.172692 268.447205 
L 978.009655 268.447205 
L 978.846618 262.690505 
L 983.868397 262.690505 
L 984.705361 268.447205 
L 985.542324 268.447205 
L 986.379287 262.690505 
L 987.21625 268.447205 
L 988.053213 268.447205 
L 988.890177 262.690505 
L 991.401066 262.690505 
L 992.23803 268.447205 
L 993.074993 262.690505 
L 993.911956 262.690505 
L 994.748919 256.933806 
L 996.422846 268.447205 
L 998.096772 256.933806 
L 998.933735 268.447205 
L 999.770698 268.447205 
L 1000.607662 262.690505 
L 1003.118551 262.690505 
L 1003.955514 256.933806 
L 1004.792478 262.690505 
L 1007.303367 262.690505 
L 1008.140331 268.447205 
L 1008.977294 262.690505 
L 1009.814257 268.447205 
L 1010.65122 262.690505 
L 1011.488183 268.447205 
L 1012.325147 262.690505 
L 1013.16211 262.690505 
L 1013.999073 268.447205 
L 1014.836036 262.690505 
L 1021.531742 262.690505 
L 1022.368705 268.447205 
L 1023.205668 262.690505 
L 1029.064411 262.690505 
L 1029.901374 268.447205 
L 1030.738337 262.690505 
L 1034.923153 262.690505 
L 1035.760117 268.447205 
L 1036.59708 262.690505 
L 1037.434043 268.447205 
L 1038.271006 262.690505 
L 1041.618859 262.690505 
L 1042.455822 268.447205 
L 1043.292786 262.690505 
L 1044.129749 262.690505 
L 1044.966712 556.282194 
L 1045.803675 527.498695 
L 1056.684197 527.498695 
L 1057.52116 521.741995 
L 1059.195087 521.741995 
L 1060.03205 527.498695 
L 1060.869013 521.741995 
L 1061.705976 521.741995 
L 1062.542939 527.498695 
L 1063.379903 521.741995 
L 1064.216866 527.498695 
L 1065.053829 521.741995 
L 1067.564719 521.741995 
L 1068.401682 527.498695 
L 1210.685428 527.498695 
L 1211.522392 239.663706 
L 1212.359355 262.690505 
L 1213.196318 268.447205 
L 1214.033281 268.447205 
L 1214.870244 262.690505 
L 1215.707208 262.690505 
L 1216.544171 268.447205 
L 1217.381134 262.690505 
L 1219.05506 262.690505 
L 1219.892024 268.447205 
L 1220.728987 262.690505 
L 1221.56595 262.690505 
L 1222.402913 268.447205 
L 1223.239877 268.447205 
L 1224.07684 262.690505 
L 1227.424693 262.690505 
L 1228.261656 268.447205 
L 1229.098619 262.690505 
L 1240.816104 262.690505 
L 1241.653067 268.447205 
L 1242.49003 262.690505 
L 1245.00092 262.690505 
L 1245.837883 268.447205 
L 1246.674847 262.690505 
L 1247.51181 262.690505 
L 1248.348773 268.447205 
L 1249.185736 262.690505 
L 1251.696626 262.690505 
L 1252.533589 268.447205 
L 1253.370552 262.690505 
L 1258.392332 262.690505 
L 1259.229295 268.447205 
L 1260.066258 262.690505 
L 1262.577148 262.690505 
L 1263.414111 268.447205 
L 1264.251074 268.447205 
L 1265.088037 262.690505 
L 1270.94678 262.690505 
L 1271.783743 268.447205 
L 1272.620706 262.690505 
L 1273.457669 262.690505 
L 1274.294633 268.447205 
L 1275.131596 262.690505 
L 1275.968559 268.447205 
L 1277.642485 268.447205 
L 1278.479449 262.690505 
L 1282.664265 262.690505 
L 1283.501228 268.447205 
L 1284.338191 268.447205 
L 1285.175154 262.690505 
L 1287.686044 262.690505 
L 1288.523007 268.447205 
L 1289.35997 262.690505 
L 1290.196934 268.447205 
L 1291.033897 262.690505 
L 1292.707823 262.690505 
L 1293.544786 268.447205 
L 1294.38175 268.447205 
L 1295.218713 262.690505 
L 1299.403529 262.690505 
L 1300.240492 268.447205 
L 1301.077455 262.690505 
L 1301.914419 262.690505 
L 1302.751382 268.447205 
L 1303.588345 262.690505 
L 1310.284051 262.690505 
L 1311.121014 268.447205 
L 1311.957977 268.447205 
L 1312.79494 262.690505 
L 1313.631904 268.447205 
L 1314.468867 262.690505 
L 1317.81672 262.690505 
L 1318.653683 268.447205 
L 1320.327609 268.447205 
L 1321.164573 262.690505 
L 1322.001536 268.447205 
L 1322.838499 262.690505 
L 1323.675462 268.447205 
L 1324.512425 262.690505 
L 1325.349389 262.690505 
L 1326.186352 256.933806 
L 1327.023315 262.690505 
L 1329.534205 262.690505 
L 1330.371168 268.447205 
L 1331.208131 262.690505 
L 1332.882058 262.690505 
L 1333.719021 268.447205 
L 1334.555984 262.690505 
L 1335.392947 268.447205 
L 1336.22991 268.447205 
L 1337.066874 262.690505 
L 1338.7408 262.690505 
L 1339.577763 268.447205 
L 1340.414726 262.690505 
L 1341.25169 268.447205 
L 1342.088653 262.690505 
L 1342.925616 262.690505 
L 1343.762579 268.447205 
L 1344.599543 262.690505 
L 1346.273469 262.690505 
L 1347.110432 268.447205 
L 1347.947395 262.690505 
L 1367.197549 262.690505 
L 1368.034513 268.447205 
L 1369.708439 268.447205 
L 1370.545402 262.690505 
L 1371.382365 262.690505 
L 1372.219329 268.447205 
L 1373.056292 262.690505 
L 1373.893255 268.447205 
L 1374.730218 262.690505 
L 1375.567181 268.447205 
L 1376.404145 262.690505 
L 1380.588961 262.690505 
L 1381.425924 556.282194 
L 1382.262887 527.498695 
L 1395.654299 527.498695 
L 1396.491262 515.985294 
L 1397.328225 527.498695 
L 1398.165188 521.741995 
L 1401.513041 521.741995 
L 1402.350004 527.498695 
L 1403.186967 521.741995 
L 1404.023931 521.741995 
L 1404.860894 527.498695 
L 1405.697857 527.498695 
L 1406.53482 521.741995 
L 1407.371784 521.741995 
L 1408.208747 527.498695 
L 1545.470714 527.498695 
L 1546.307677 256.933806 
L 1547.14464 262.690505 
L 1551.329456 262.690505 
L 1552.16642 268.447205 
L 1553.003383 262.690505 
L 1553.840346 268.447205 
L 1555.514272 268.447205 
L 1556.351236 262.690505 
L 1567.231757 262.690505 
L 1568.068721 268.447205 
L 1568.905684 262.690505 
L 1571.416573 262.690505 
L 1572.253537 268.447205 
L 1573.0905 268.447205 
L 1573.927463 262.690505 
L 1574.764426 268.447205 
L 1575.60139 262.690505 
L 1576.438353 262.690505 
L 1577.275316 268.447205 
L 1578.112279 268.447205 
L 1578.949242 262.690505 
L 1580.623169 262.690505 
L 1581.460132 256.933806 
L 1582.297095 268.447205 
L 1583.134058 262.690505 
L 1584.807985 262.690505 
L 1585.644948 268.447205 
L 1586.481911 262.690505 
L 1587.318875 268.447205 
L 1588.155838 262.690505 
L 1589.829764 262.690505 
L 1590.666727 268.447205 
L 1591.503691 262.690505 
L 1592.340654 268.447205 
L 1593.177617 256.933806 
L 1594.01458 262.690505 
L 1594.851543 262.690505 
L 1595.688507 268.447205 
L 1596.52547 256.933806 
L 1597.362433 262.690505 
L 1598.199396 262.690505 
L 1599.03636 268.447205 
L 1599.873323 262.690505 
L 1608.242955 262.690505 
L 1609.079918 268.447205 
L 1609.916881 262.690505 
L 1612.427771 262.690505 
L 1613.264734 268.447205 
L 1614.101697 262.690505 
L 1616.612587 262.690505 
L 1617.44955 268.447205 
L 1618.286513 262.690505 
L 1622.47133 262.690505 
L 1623.308293 268.447205 
L 1624.145256 262.690505 
L 1624.982219 262.690505 
L 1625.819182 268.447205 
L 1626.656146 262.690505 
L 1628.330072 262.690505 
L 1629.167035 268.447205 
L 1630.003998 262.690505 
L 1630.840962 268.447205 
L 1631.677925 262.690505 
L 1638.373631 262.690505 
L 1639.210594 268.447205 
L 1640.047557 262.690505 
L 1642.558447 262.690505 
L 1643.39541 268.447205 
L 1644.232373 262.690505 
L 1645.069336 262.690505 
L 1645.9063 268.447205 
L 1646.743263 262.690505 
L 1653.438968 262.690505 
L 1654.275932 268.447205 
L 1655.112895 262.690505 
L 1655.949858 262.690505 
L 1656.786821 268.447205 
L 1657.623785 262.690505 
L 1658.460748 262.690505 
L 1659.297711 268.447205 
L 1660.134674 262.690505 
L 1660.971637 268.447205 
L 1662.645564 268.447205 
L 1663.482527 262.690505 
L 1665.156453 262.690505 
L 1665.993417 268.447205 
L 1666.83038 262.690505 
L 1667.667343 268.447205 
L 1668.504306 262.690505 
L 1671.015196 262.690505 
L 1671.852159 268.447205 
L 1672.689122 262.690505 
L 1674.363049 262.690505 
L 1675.200012 268.447205 
L 1676.036975 262.690505 
L 1676.873938 268.447205 
L 1677.710902 262.690505 
L 1678.547865 268.447205 
L 1679.384828 262.690505 
L 1681.058754 262.690505 
L 1681.895718 268.447205 
L 1682.732681 262.690505 
L 1686.917497 262.690505 
L 1687.75446 256.933806 
L 1688.591423 262.690505 
L 1691.102313 262.690505 
L 1691.939276 268.447205 
L 1692.776239 268.447205 
L 1693.613203 262.690505 
L 1698.634982 262.690505 
L 1699.471945 268.447205 
L 1700.308908 268.447205 
L 1701.145872 262.690505 
L 1710.352467 262.690505 
L 1711.18943 268.447205 
L 1712.026393 256.933806 
L 1712.863357 550.525494 
L 1713.70032 527.498695 
L 1727.928694 527.498695 
L 1728.765658 521.741995 
L 1729.602621 521.741995 
L 1730.439584 527.498695 
L 1731.276547 527.498695 
L 1732.113511 521.741995 
L 1736.298327 521.741995 
L 1737.13529 527.498695 
L 1881.929926 527.498695 
L 1882.766889 256.933806 
L 1884.440815 268.447205 
L 1885.277779 256.933806 
L 1886.114742 262.690505 
L 1886.951705 262.690505 
L 1887.788668 268.447205 
L 1888.625632 256.933806 
L 1889.462595 268.447205 
L 1890.299558 262.690505 
L 1891.136521 262.690505 
L 1891.973484 268.447205 
L 1892.810448 262.690505 
L 1893.647411 268.447205 
L 1894.484374 262.690505 
L 1896.995264 262.690505 
L 1897.832227 268.447205 
L 1898.66919 262.690505 
L 1900.343117 262.690505 
L 1901.18008 268.447205 
L 1902.017043 268.447205 
L 1902.854006 262.690505 
L 1903.690969 268.447205 
L 1904.527933 262.690505 
L 1914.571491 262.690505 
L 1915.408454 268.447205 
L 1916.245418 262.690505 
L 1922.10416 262.690505 
L 1922.941123 256.933806 
L 1923.778087 262.690505 
L 1926.288976 262.690505 
L 1927.125939 268.447205 
L 1927.962903 262.690505 
L 1932.147719 262.690505 
L 1932.984682 268.447205 
L 1933.821645 262.690505 
L 1936.332535 262.690505 
L 1937.169498 268.447205 
L 1938.006461 262.690505 
L 1938.843424 268.447205 
L 1939.680388 262.690505 
L 1941.354314 262.690505 
L 1942.191277 268.447205 
L 1943.02824 262.690505 
L 1946.376093 262.690505 
L 1947.213056 268.447205 
L 1948.05002 268.447205 
L 1948.886983 262.690505 
L 1949.723946 268.447205 
L 1950.560909 262.690505 
L 1951.397873 268.447205 
L 1952.234836 262.690505 
L 1955.582689 262.690505 
L 1956.419652 256.933806 
L 1957.256615 262.690505 
L 1958.093578 262.690505 
L 1958.930541 268.447205 
L 1963.115358 268.447205 
L 1963.952321 262.690505 
L 1966.46321 262.690505 
L 1967.300174 268.447205 
L 1968.137137 268.447205 
L 1968.9741 262.690505 
L 1970.648026 262.690505 
L 1971.48499 268.447205 
L 1972.321953 262.690505 
L 1973.158916 268.447205 
L 1973.995879 262.690505 
L 1975.669806 262.690505 
L 1976.506769 256.933806 
L 1978.180695 268.447205 
L 1979.017659 262.690505 
L 1979.854622 262.690505 
L 1980.691585 256.933806 
L 1981.528548 268.447205 
L 1982.365511 262.690505 
L 1983.202475 268.447205 
L 1984.876401 268.447205 
L 1985.713364 262.690505 
L 1995.756923 262.690505 
L 1996.593886 268.447205 
L 1997.430849 262.690505 
L 1999.941739 262.690505 
L 2000.778702 268.447205 
L 2001.615665 262.690505 
L 2006.637445 262.690505 
L 2007.474408 268.447205 
L 2008.311371 262.690505 
L 2009.148334 268.447205 
L 2011.659224 268.447205 
L 2012.496187 262.690505 
L 2020.865819 262.690505 
L 2021.702783 268.447205 
L 2022.539746 268.447205 
L 2023.376709 262.690505 
L 2024.213672 268.447205 
L 2025.050635 268.447205 
L 2025.887599 262.690505 
L 2029.235451 262.690505 
L 2030.072415 268.447205 
L 2030.909378 262.690505 
L 2033.420268 262.690505 
L 2034.257231 268.447205 
L 2035.094194 262.690505 
L 2036.76812 262.690505 
L 2037.605084 268.447205 
L 2038.442047 262.690505 
L 2047.648642 262.690505 
L 2048.485605 533.255395 
L 2049.322569 527.498695 
L 2061.040054 527.498695 
L 2061.877017 521.741995 
L 2063.550943 521.741995 
L 2064.387906 527.498695 
L 2065.22487 521.741995 
L 2068.572722 521.741995 
L 2069.409686 527.498695 
L 2070.246649 521.741995 
L 2071.083612 521.741995 
L 2071.920575 527.498695 
L 2072.757539 527.498695 
L 2073.594502 521.741995 
L 2074.431465 527.498695 
L 2075.268428 521.741995 
L 2076.105391 527.498695 
L 2214.204322 527.498695 
L 2215.041285 239.663706 
L 2215.878248 256.933806 
L 2216.715211 268.447205 
L 2217.552175 262.690505 
L 2219.226101 262.690505 
L 2220.063064 268.447205 
L 2220.900027 262.690505 
L 2224.24788 262.690505 
L 2225.084843 256.933806 
L 2225.921807 262.690505 
L 2229.26966 262.690505 
L 2230.106623 268.447205 
L 2230.943586 262.690505 
L 2231.780549 268.447205 
L 2232.617512 262.690505 
L 2235.128402 262.690505 
L 2235.965365 268.447205 
L 2236.802328 262.690505 
L 2237.639292 268.447205 
L 2238.476255 262.690505 
L 2241.824108 262.690505 
L 2242.661071 268.447205 
L 2243.498034 268.447205 
L 2244.334997 262.690505 
L 2245.171961 268.447205 
L 2246.008924 262.690505 
L 2246.845887 268.447205 
L 2247.68285 262.690505 
L 2248.519813 262.690505 
L 2249.356777 268.447205 
L 2250.19374 268.447205 
L 2251.030703 262.690505 
L 2258.563372 262.690505 
L 2259.400335 268.447205 
L 2260.237298 262.690505 
L 2264.422115 262.690505 
L 2265.259078 268.447205 
L 2266.096041 268.447205 
L 2266.933004 262.690505 
L 2267.769967 262.690505 
L 2267.769967 262.690505 
" clip-path="url(#p962de882b5)" style="fill: none; stroke: #1f77b4; stroke-linecap: square"/>
   </g>
   <g id="line2d_26">
    <path d="M 124.307177 521.741995 
L 136.024662 521.741995 
L 136.861625 515.985294 
L 137.698588 521.741995 
L 167.829264 521.741995 
L 168.666227 515.985294 
L 169.50319 521.741995 
L 198.796903 521.741995 
L 199.633866 515.985294 
L 200.470829 521.741995 
L 235.623284 521.741995 
L 236.460247 515.985294 
L 237.297211 521.741995 
L 265.75396 521.741995 
L 266.590923 107.259612 
L 268.26485 118.773011 
L 272.449666 118.773011 
L 273.286629 124.529711 
L 274.123592 118.773011 
L 274.960555 124.529711 
L 275.797518 118.773011 
L 276.634482 124.529711 
L 277.471445 118.773011 
L 282.493224 118.773011 
L 283.330187 124.529711 
L 284.167151 118.773011 
L 285.004114 118.773011 
L 285.841077 113.016311 
L 286.67804 118.773011 
L 288.351967 118.773011 
L 289.18893 113.016311 
L 290.862856 113.016311 
L 291.69982 118.773011 
L 292.536783 113.016311 
L 293.373746 118.773011 
L 294.210709 113.016311 
L 295.047672 118.773011 
L 295.884636 118.773011 
L 296.721599 113.016311 
L 299.232488 113.016311 
L 300.069452 118.773011 
L 300.906415 113.016311 
L 301.743378 113.016311 
L 302.580341 124.529711 
L 303.417305 113.016311 
L 305.928194 113.016311 
L 306.765157 118.773011 
L 307.602121 113.016311 
L 308.439084 118.773011 
L 309.276047 113.016311 
L 310.949973 113.016311 
L 311.786937 118.773011 
L 312.6239 113.016311 
L 314.297826 113.016311 
L 315.13479 118.773011 
L 318.482642 118.773011 
L 319.319606 113.016311 
L 320.993532 113.016311 
L 321.830495 118.773011 
L 325.178348 118.773011 
L 326.015311 113.016311 
L 327.689238 113.016311 
L 328.526201 118.773011 
L 329.363164 118.773011 
L 330.200127 113.016311 
L 331.037091 118.773011 
L 331.874054 113.016311 
L 332.711017 118.773011 
L 333.54798 113.016311 
L 334.384943 118.773011 
L 335.221907 113.016311 
L 336.05887 118.773011 
L 337.732796 118.773011 
L 338.569759 113.016311 
L 339.406723 118.773011 
L 342.754576 118.773011 
L 343.591539 113.016311 
L 344.428502 118.773011 
L 346.102428 118.773011 
L 346.939392 113.016311 
L 347.776355 113.016311 
L 348.613318 118.773011 
L 356.98295 118.773011 
L 357.819913 113.016311 
L 359.49384 113.016311 
L 360.330803 118.773011 
L 363.678656 118.773011 
L 364.515619 113.016311 
L 365.352582 118.773011 
L 366.189546 118.773011 
L 367.026509 113.016311 
L 368.700435 113.016311 
L 369.537398 118.773011 
L 370.374362 113.016311 
L 371.211325 113.016311 
L 372.048288 118.773011 
L 372.885251 113.016311 
L 373.722214 118.773011 
L 374.559178 118.773011 
L 375.396141 113.016311 
L 376.233104 113.016311 
L 377.070067 118.773011 
L 379.580957 118.773011 
L 380.41792 113.016311 
L 381.254883 118.773011 
L 385.439699 118.773011 
L 386.276663 113.016311 
L 387.113626 118.773011 
L 387.950589 113.016311 
L 388.787552 118.773011 
L 389.624516 113.016311 
L 390.461479 118.773011 
L 392.972368 118.773011 
L 393.809332 113.016311 
L 394.646295 124.529711 
L 395.483258 118.773011 
L 397.157184 118.773011 
L 397.994148 113.016311 
L 398.831111 118.773011 
L 399.668074 113.016311 
L 400.505037 113.016311 
L 401.342001 118.773011 
L 402.178964 113.016311 
L 403.85289 113.016311 
L 404.689853 118.773011 
L 408.037706 118.773011 
L 408.874669 113.016311 
L 409.711633 118.773011 
L 412.222522 118.773011 
L 413.059486 113.016311 
L 413.896449 118.773011 
L 420.592154 118.773011 
L 421.429118 113.016311 
L 422.266081 118.773011 
L 423.103044 118.773011 
L 423.940007 544.768794 
L 424.776971 521.741995 
L 490.060101 521.741995 
L 490.897064 515.985294 
L 491.734028 521.741995 
L 505.125439 521.741995 
L 505.962402 527.498695 
L 506.799365 521.741995 
L 537.767004 521.741995 
L 538.603968 515.985294 
L 539.440931 521.741995 
L 548.647526 521.741995 
L 549.484489 527.498695 
L 550.321453 521.741995 
L 555.343232 521.741995 
L 556.180195 515.985294 
L 557.017158 521.741995 
L 583.799981 521.741995 
L 584.636944 515.985294 
L 585.473908 521.741995 
L 593.84354 521.741995 
L 594.680503 515.985294 
L 595.517466 521.741995 
L 604.724061 521.741995 
L 605.561025 72.719413 
L 606.397988 113.016311 
L 607.234951 118.773011 
L 608.908878 118.773011 
L 609.745841 124.529711 
L 610.582804 118.773011 
L 611.419767 118.773011 
L 612.25673 124.529711 
L 613.093694 118.773011 
L 613.930657 118.773011 
L 614.76762 124.529711 
L 615.604583 124.529711 
L 616.441546 118.773011 
L 619.789399 118.773011 
L 620.626363 124.529711 
L 621.463326 118.773011 
L 622.300289 124.529711 
L 623.137252 118.773011 
L 624.811179 118.773011 
L 625.648142 130.286411 
L 626.485105 118.773011 
L 628.159031 118.773011 
L 628.995995 113.016311 
L 629.832958 118.773011 
L 630.669921 113.016311 
L 631.506884 118.773011 
L 632.343848 118.773011 
L 633.180811 113.016311 
L 634.017774 118.773011 
L 634.854737 113.016311 
L 635.6917 118.773011 
L 636.528664 113.016311 
L 637.365627 113.016311 
L 638.20259 118.773011 
L 639.039553 118.773011 
L 639.876516 113.016311 
L 648.246149 113.016311 
L 649.083112 118.773011 
L 649.920075 113.016311 
L 650.757038 118.773011 
L 651.594001 113.016311 
L 652.430965 113.016311 
L 653.267928 118.773011 
L 654.104891 113.016311 
L 654.941854 118.773011 
L 655.778818 113.016311 
L 656.615781 118.773011 
L 657.452744 113.016311 
L 658.289707 113.016311 
L 659.12667 118.773011 
L 659.963634 113.016311 
L 660.800597 113.016311 
L 661.63756 118.773011 
L 662.474523 113.016311 
L 663.311486 118.773011 
L 664.14845 118.773011 
L 664.985413 113.016311 
L 665.822376 118.773011 
L 666.659339 113.016311 
L 670.007192 113.016311 
L 670.844155 118.773011 
L 671.681119 118.773011 
L 672.518082 113.016311 
L 674.192008 124.529711 
L 675.028971 113.016311 
L 675.865935 113.016311 
L 676.702898 118.773011 
L 678.376824 118.773011 
L 679.213788 113.016311 
L 680.050751 118.773011 
L 681.724677 118.773011 
L 682.56164 113.016311 
L 683.398604 113.016311 
L 684.235567 118.773011 
L 685.07253 118.773011 
L 685.909493 113.016311 
L 686.746456 118.773011 
L 688.420383 118.773011 
L 689.257346 113.016311 
L 690.094309 118.773011 
L 690.931273 113.016311 
L 691.768236 118.773011 
L 692.605199 118.773011 
L 693.442162 113.016311 
L 694.279125 118.773011 
L 695.116089 113.016311 
L 695.953052 113.016311 
L 696.790015 118.773011 
L 698.463941 118.773011 
L 699.300905 113.016311 
L 700.974831 113.016311 
L 701.811794 118.773011 
L 702.648758 113.016311 
L 703.485721 113.016311 
L 704.322684 118.773011 
L 705.159647 118.773011 
L 705.99661 113.016311 
L 706.833574 118.773011 
L 708.5075 118.773011 
L 709.344463 113.016311 
L 710.181426 118.773011 
L 715.203206 118.773011 
L 716.040169 113.016311 
L 720.224985 113.016311 
L 721.061948 118.773011 
L 722.735875 118.773011 
L 723.572838 113.016311 
L 724.409801 113.016311 
L 725.246764 118.773011 
L 726.083728 113.016311 
L 726.920691 118.773011 
L 730.268544 118.773011 
L 731.105507 113.016311 
L 731.94247 118.773011 
L 732.779433 118.773011 
L 733.616396 113.016311 
L 734.45336 118.773011 
L 735.290323 118.773011 
L 736.127286 113.016311 
L 736.964249 113.016311 
L 737.801212 118.773011 
L 742.822992 118.773011 
L 743.659955 113.016311 
L 744.496918 113.016311 
L 745.333881 118.773011 
L 746.170845 118.773011 
L 747.007808 113.016311 
L 747.844771 113.016311 
L 748.681734 118.773011 
L 756.214403 118.773011 
L 757.051366 113.016311 
L 757.88833 118.773011 
L 758.725293 113.016311 
L 759.562256 118.773011 
L 760.399219 118.773011 
L 761.236182 124.529711 
L 762.073146 118.773011 
L 769.605815 118.773011 
L 770.442778 124.529711 
L 771.279741 118.773011 
L 772.953667 118.773011 
L 773.790631 567.795593 
L 774.627594 527.498695 
L 775.464557 521.741995 
L 994.748919 521.741995 
L 995.585882 515.985294 
L 996.422846 521.741995 
L 998.096772 521.741995 
L 998.933735 515.985294 
L 999.770698 521.741995 
L 1009.814257 521.741995 
L 1010.65122 527.498695 
L 1011.488183 521.741995 
L 1042.455822 521.741995 
L 1043.292786 515.985294 
L 1044.129749 521.741995 
L 1060.869013 521.741995 
L 1061.705976 515.985294 
L 1062.542939 521.741995 
L 1065.890792 521.741995 
L 1066.727756 515.985294 
L 1067.564719 521.741995 
L 1080.95613 521.741995 
L 1081.793093 515.985294 
L 1082.630057 521.741995 
L 1083.46702 521.741995 
L 1084.303983 515.985294 
L 1085.140946 521.741995 
L 1088.488799 521.741995 
L 1089.325762 515.985294 
L 1090.162726 521.741995 
L 1113.597696 521.741995 
L 1114.434659 515.985294 
L 1115.271622 521.741995 
L 1119.456438 521.741995 
L 1120.293401 515.985294 
L 1121.130364 521.741995 
L 1201.478833 521.741995 
L 1202.315796 515.985294 
L 1203.152759 521.741995 
L 1203.989723 521.741995 
L 1204.826686 515.985294 
L 1205.663649 521.741995 
L 1232.446472 521.741995 
L 1233.283435 527.498695 
L 1234.120398 521.741995 
L 1302.751382 521.741995 
L 1303.588345 95.746212 
L 1304.425308 113.016311 
L 1305.262271 124.529711 
L 1306.936198 124.529711 
L 1307.773161 118.773011 
L 1308.610124 118.773011 
L 1309.447088 544.768794 
L 1310.284051 527.498695 
L 1311.121014 521.741995 
L 1339.577763 521.741995 
L 1340.414726 515.985294 
L 1341.25169 521.741995 
L 1348.784359 521.741995 
L 1349.621322 107.259612 
L 1350.458285 118.773011 
L 1351.295248 118.773011 
L 1352.132211 124.529711 
L 1352.969175 124.529711 
L 1353.806138 118.773011 
L 1354.643101 124.529711 
L 1355.480064 118.773011 
L 1357.153991 118.773011 
L 1357.990954 124.529711 
L 1358.827917 118.773011 
L 1359.66488 118.773011 
L 1360.501844 124.529711 
L 1361.338807 118.773011 
L 1365.523623 118.773011 
L 1366.360586 124.529711 
L 1367.197549 118.773011 
L 1372.219329 118.773011 
L 1373.056292 113.016311 
L 1373.893255 118.773011 
L 1374.730218 118.773011 
L 1375.567181 113.016311 
L 1377.241108 113.016311 
L 1378.078071 118.773011 
L 1379.751998 118.773011 
L 1380.588961 113.016311 
L 1381.425924 118.773011 
L 1382.262887 113.016311 
L 1384.773777 113.016311 
L 1385.61074 118.773011 
L 1386.447703 118.773011 
L 1387.284666 113.016311 
L 1388.12163 118.773011 
L 1388.958593 118.773011 
L 1389.795556 113.016311 
L 1391.469483 113.016311 
L 1392.306446 118.773011 
L 1393.143409 113.016311 
L 1393.980372 113.016311 
L 1394.817335 118.773011 
L 1395.654299 113.016311 
L 1398.165188 113.016311 
L 1399.002151 118.773011 
L 1399.839115 113.016311 
L 1400.676078 118.773011 
L 1401.513041 113.016311 
L 1402.350004 118.773011 
L 1404.023931 118.773011 
L 1404.860894 113.016311 
L 1407.371784 113.016311 
L 1408.208747 118.773011 
L 1409.04571 118.773011 
L 1409.882673 113.016311 
L 1414.067489 113.016311 
L 1414.904452 118.773011 
L 1415.741416 113.016311 
L 1416.578379 118.773011 
L 1417.415342 118.773011 
L 1418.252305 113.016311 
L 1419.089269 118.773011 
L 1423.274085 118.773011 
L 1424.111048 124.529711 
L 1424.948011 124.529711 
L 1425.784974 118.773011 
L 1433.317643 118.773011 
L 1434.154606 533.255395 
L 1434.99157 521.741995 
L 1439.176386 521.741995 
L 1440.013349 515.985294 
L 1440.850312 521.741995 
L 1448.382981 521.741995 
L 1449.219944 515.985294 
L 1450.056907 521.741995 
L 1482.698473 521.741995 
L 1483.535436 515.985294 
L 1484.372399 521.741995 
L 1491.905068 521.741995 
L 1492.742031 515.985294 
L 1493.578995 521.741995 
L 1575.60139 521.741995 
L 1576.438353 515.985294 
L 1577.275316 521.741995 
L 1588.992801 521.741995 
L 1589.829764 515.985294 
L 1590.666727 521.741995 
L 1596.52547 521.741995 
L 1597.362433 515.985294 
L 1598.199396 515.985294 
L 1599.03636 521.741995 
L 1599.873323 521.741995 
L 1600.710286 78.476113 
L 1601.547249 113.016311 
L 1603.221176 124.529711 
L 1604.058139 118.773011 
L 1612.427771 118.773011 
L 1613.264734 124.529711 
L 1614.101697 118.773011 
L 1618.286513 118.773011 
L 1619.123477 124.529711 
L 1619.96044 113.016311 
L 1620.797403 118.773011 
L 1624.982219 118.773011 
L 1625.819182 113.016311 
L 1629.167035 113.016311 
L 1630.003998 118.773011 
L 1631.677925 118.773011 
L 1632.514888 113.016311 
L 1633.351851 118.773011 
L 1636.699704 118.773011 
L 1637.536667 113.016311 
L 1638.373631 113.016311 
L 1639.210594 118.773011 
L 1640.047557 113.016311 
L 1641.721483 113.016311 
L 1642.558447 118.773011 
L 1643.39541 113.016311 
L 1644.232373 113.016311 
L 1645.069336 118.773011 
L 1645.9063 113.016311 
L 1648.417189 113.016311 
L 1649.254152 118.773011 
L 1650.091116 113.016311 
L 1655.949858 113.016311 
L 1656.786821 118.773011 
L 1657.623785 118.773011 
L 1658.460748 113.016311 
L 1660.134674 113.016311 
L 1660.971637 118.773011 
L 1662.645564 118.773011 
L 1663.482527 113.016311 
L 1664.31949 118.773011 
L 1665.156453 113.016311 
L 1665.993417 118.773011 
L 1666.83038 113.016311 
L 1667.667343 113.016311 
L 1668.504306 118.773011 
L 1669.341269 113.016311 
L 1670.178233 118.773011 
L 1671.015196 118.773011 
L 1671.852159 113.016311 
L 1674.363049 113.016311 
L 1675.200012 118.773011 
L 1676.036975 113.016311 
L 1676.873938 118.773011 
L 1677.710902 113.016311 
L 1678.547865 118.773011 
L 1679.384828 113.016311 
L 1680.221791 118.773011 
L 1682.732681 118.773011 
L 1683.569644 113.016311 
L 1684.406607 113.016311 
L 1685.243571 118.773011 
L 1686.080534 113.016311 
L 1686.917497 118.773011 
L 1687.75446 113.016311 
L 1688.591423 113.016311 
L 1689.428387 118.773011 
L 1690.26535 113.016311 
L 1691.102313 113.016311 
L 1691.939276 118.773011 
L 1693.613203 118.773011 
L 1694.450166 113.016311 
L 1695.287129 113.016311 
L 1696.124092 118.773011 
L 1697.798019 118.773011 
L 1698.634982 113.016311 
L 1699.471945 113.016311 
L 1700.308908 118.773011 
L 1701.145872 113.016311 
L 1701.982835 113.016311 
L 1702.819798 118.773011 
L 1705.330688 118.773011 
L 1706.167651 113.016311 
L 1707.004614 113.016311 
L 1707.841577 118.773011 
L 1712.863357 118.773011 
L 1713.70032 113.016311 
L 1717.885136 113.016311 
L 1718.722099 118.773011 
L 1719.559062 113.016311 
L 1720.396026 118.773011 
L 1721.232989 118.773011 
L 1722.069952 113.016311 
L 1722.906915 113.016311 
L 1723.743878 118.773011 
L 1724.580842 113.016311 
L 1725.417805 118.773011 
L 1728.765658 118.773011 
L 1729.602621 113.016311 
L 1730.439584 118.773011 
L 1734.6244 118.773011 
L 1735.461363 113.016311 
L 1736.298327 118.773011 
L 1737.13529 118.773011 
L 1737.972253 113.016311 
L 1739.646179 113.016311 
L 1740.483143 118.773011 
L 1741.320106 118.773011 
L 1742.157069 113.016311 
L 1743.830996 113.016311 
L 1744.667959 118.773011 
L 1746.341885 118.773011 
L 1747.178848 113.016311 
L 1748.015812 113.016311 
L 1748.852775 118.773011 
L 1749.689738 113.016311 
L 1750.526701 118.773011 
L 1751.363664 113.016311 
L 1752.200628 118.773011 
L 1753.037591 113.016311 
L 1753.874554 113.016311 
L 1754.711517 118.773011 
L 1755.548481 113.016311 
L 1757.222407 113.016311 
L 1758.05937 118.773011 
L 1758.896333 113.016311 
L 1760.57026 113.016311 
L 1761.407223 118.773011 
L 1763.081149 118.773011 
L 1763.918113 124.529711 
L 1764.755076 118.773011 
L 1767.265966 118.773011 
L 1768.102929 113.016311 
L 1768.939892 118.773011 
L 1770.613818 118.773011 
L 1771.450782 124.529711 
L 1772.287745 118.773011 
L 1773.961671 118.773011 
L 1774.798634 113.016311 
L 1775.635598 124.529711 
L 1776.472561 527.498695 
L 1777.309524 521.741995 
L 1816.646795 521.741995 
L 1817.483758 515.985294 
L 1818.320722 521.741995 
L 1819.157685 521.741995 
L 1819.994648 515.985294 
L 1820.831611 521.741995 
L 1828.36428 521.741995 
L 1829.201243 515.985294 
L 1830.038207 521.741995 
L 1899.506153 521.741995 
L 1900.343117 515.985294 
L 1901.18008 521.741995 
L 1921.267197 521.741995 
L 1922.10416 515.985294 
L 1922.941123 521.741995 
L 1943.865204 521.741995 
L 1944.702167 107.259612 
L 1945.53913 118.773011 
L 1946.376093 124.529711 
L 1947.213056 118.773011 
L 1951.397873 118.773011 
L 1952.234836 124.529711 
L 1953.071799 124.529711 
L 1953.908762 118.773011 
L 1958.093578 118.773011 
L 1958.930541 124.529711 
L 1959.767505 118.773011 
L 1962.278394 118.773011 
L 1963.115358 124.529711 
L 1963.952321 118.773011 
L 1967.300174 118.773011 
L 1968.137137 113.016311 
L 1969.811063 113.016311 
L 1970.648026 118.773011 
L 1972.321953 118.773011 
L 1973.158916 113.016311 
L 1973.995879 113.016311 
L 1974.832843 118.773011 
L 1975.669806 118.773011 
L 1976.506769 113.016311 
L 1977.343732 118.773011 
L 1978.180695 118.773011 
L 1979.017659 113.016311 
L 1980.691585 113.016311 
L 1981.528548 118.773011 
L 1982.365511 113.016311 
L 1983.202475 113.016311 
L 1984.039438 118.773011 
L 1984.876401 113.016311 
L 1996.593886 113.016311 
L 1997.430849 118.773011 
L 1998.267813 118.773011 
L 1999.104776 113.016311 
L 1999.941739 118.773011 
L 2000.778702 113.016311 
L 2001.615665 118.773011 
L 2002.452629 113.016311 
L 2004.126555 113.016311 
L 2004.963518 118.773011 
L 2005.800481 113.016311 
L 2008.311371 113.016311 
L 2009.148334 118.773011 
L 2011.659224 118.773011 
L 2012.496187 113.016311 
L 2015.007077 113.016311 
L 2015.84404 118.773011 
L 2016.681003 118.773011 
L 2017.517966 113.016311 
L 2018.35493 118.773011 
L 2019.191893 113.016311 
L 2020.028856 113.016311 
L 2020.865819 118.773011 
L 2023.376709 118.773011 
L 2024.213672 113.016311 
L 2025.887599 113.016311 
L 2026.724562 118.773011 
L 2027.561525 113.016311 
L 2028.398488 118.773011 
L 2030.909378 118.773011 
L 2031.746341 113.016311 
L 2032.583304 118.773011 
L 2033.420268 113.016311 
L 2036.76812 113.016311 
L 2037.605084 118.773011 
L 2038.442047 118.773011 
L 2039.27901 113.016311 
L 2043.463826 113.016311 
L 2044.300789 118.773011 
L 2045.137753 113.016311 
L 2051.833458 113.016311 
L 2052.670421 118.773011 
L 2053.507385 118.773011 
L 2054.344348 113.016311 
L 2055.181311 118.773011 
L 2056.855238 118.773011 
L 2057.692201 113.016311 
L 2058.529164 118.773011 
L 2060.20309 118.773011 
L 2061.040054 113.016311 
L 2061.877017 118.773011 
L 2062.71398 113.016311 
L 2063.550943 118.773011 
L 2064.387906 113.016311 
L 2065.22487 118.773011 
L 2066.061833 118.773011 
L 2066.898796 113.016311 
L 2069.409686 113.016311 
L 2070.246649 118.773011 
L 2074.431465 118.773011 
L 2075.268428 113.016311 
L 2076.105391 118.773011 
L 2076.942355 118.773011 
L 2077.779318 113.016311 
L 2078.616281 118.773011 
L 2079.453244 118.773011 
L 2080.290207 113.016311 
L 2081.127171 113.016311 
L 2081.964134 118.773011 
L 2082.801097 113.016311 
L 2083.63806 118.773011 
L 2085.311987 118.773011 
L 2086.14895 113.016311 
L 2086.985913 118.773011 
L 2087.822876 113.016311 
L 2090.333766 113.016311 
L 2091.170729 118.773011 
L 2092.007692 118.773011 
L 2092.844656 113.016311 
L 2094.518582 124.529711 
L 2095.355545 118.773011 
L 2096.192509 118.773011 
L 2097.029472 113.016311 
L 2097.866435 118.773011 
L 2098.703398 113.016311 
L 2099.540361 124.529711 
L 2100.377325 118.773011 
L 2101.214288 118.773011 
L 2102.051251 113.016311 
L 2102.888214 118.773011 
L 2104.562141 118.773011 
L 2105.399104 113.016311 
L 2106.236067 118.773011 
L 2107.07303 562.038894 
L 2107.909994 527.498695 
L 2108.746957 521.741995 
L 2131.344964 521.741995 
L 2132.181927 515.985294 
L 2133.01889 521.741995 
L 2154.779934 521.741995 
L 2155.616897 515.985294 
L 2156.45386 515.985294 
L 2157.290823 521.741995 
L 2159.801713 521.741995 
L 2160.638676 515.985294 
L 2161.475639 521.741995 
L 2215.041285 521.741995 
L 2215.878248 515.985294 
L 2216.715211 521.741995 
L 2237.639292 521.741995 
L 2238.476255 515.985294 
L 2239.313218 521.741995 
L 2256.889446 521.741995 
L 2257.726409 515.985294 
L 2258.563372 521.741995 
L 2267.769967 521.741995 
L 2267.769967 521.741995 
" clip-path="url(#p962de882b5)" style="fill: none; stroke: #ff7f0e; stroke-linecap: square"/>
   </g>
   <g id="patch_3">
    <path d="M 124.650665 578.170689 
L 124.650665 61.808893 
" style="fill: none; stroke: #000000; stroke-width: 0.8; stroke-linejoin: miter; stroke-linecap: square"/>
   </g>
   <g id="patch_4">
    <path d="M 2267.088561 578.170689 
L 2267.088561 61.808893 
" style="fill: none; stroke: #000000; stroke-width: 0.8; stroke-linejoin: miter; stroke-linecap: square"/>
   </g>
   <g id="patch_5">
    <path d="M 124.650665 578.170689 
L 2267.088561 578.170689 
" style="fill: none; stroke: #000000; stroke-width: 0.8; stroke-linejoin: miter; stroke-linecap: square"/>
   </g>
   <g id="patch_6">
    <path d="M 124.650665 61.808893 
L 2267.088561 61.808893 
" style="fill: none; stroke: #000000; stroke-width: 0.8; stroke-linejoin: miter; stroke-linecap: square"/>
   </g>
   <g id="text_15">
    <!-- Siglent SDS CSV Plot + CH1→CH2 Edge Delays -->
    <g transform="translate(1055.54555 55.808893) scale(0.12 -0.12)">
     <defs>
      <path id="DejaVuSans-53" d="M 3425 4513 
L 3425 3897 
Q 3066 4069 2747 4153 
Q 2428 4238 2131 4238 
Q 1616 4238 1336 4038 
Q 1056 3838 1056 3469 
Q 1056 3159 1242 3001 
Q 1428 2844 1947 2747 
L 2328 2669 
Q 3034 2534 3370 2195 
Q 3706 1856 3706 1288 
Q 3706 609 3251 259 
Q 2797 -91 1919 -91 
Q 1588 -91 1214 -16 
Q 841 59 441 206 
L 441 856 
Q 825 641 1194 531 
Q 1563 422 1919 422 
Q 2459 422 2753 634 
Q 3047 847 3047 1241 
Q 3047 1584 2836 1778 
Q 2625 1972 2144 2069 
L 1759 2144 
Q 1053 2284 737 2584 
Q 422 2884 422 3419 
Q 422 4038 858 4394 
Q 1294 4750 2059 4750 
Q 2388 4750 2728 4690 
Q 3069 4631 3425 4513 
z
" transform="scale(0.015625)"/>
      <path id="DejaVuSans-6e" d="M 3513 2113 
L 3513 0 
L 2938 0 
L 2938 2094 
Q 2938 2591 2744 2837 
Q 2550 3084 2163 3084 
Q 1697 3084 1428 2787 
Q 1159 2491 1159 1978 
L 1159 0 
L 581 0 
L 581 3500 
L 1159 3500 
L 1159 2956 
Q 1366 3272 1645 3428 
Q 1925 3584 2291 3584 
Q 2894 3584 3203 3211 
Q 3513 2838 3513 2113 
z
" transform="scale(0.015625)"/>
      <path id="DejaVuSans-44" d="M 1259 4147 
L 1259 519 
L 2022 519 
Q 2988 519 3436 956 
Q 3884 1394 3884 2338 
Q 3884 3275 3436 3711 
Q 2988 4147 2022 4147 
L 1259 4147 
z
M 628 4666 
L 1925 4666 
Q 3281 4666 3915 4102 
Q 4550 3538 4550 2338 
Q 4550 1131 3912 565 
Q 3275 0 1925 0 
L 628 0 
L 628 4666 
z
" transform="scale(0.015625)"/>
      <path id="DejaVuSans-43" d="M 4122 4306 
L 4122 3641 
Q 3803 3938 3442 4084 
Q 3081 4231 2675 4231 
Q 1875 4231 1450 3742 
Q 1025 3253 1025 2328 
Q 1025 1406 1450 917 
Q 1875 428 2675 428 
Q 3081 428 3442 575 
Q 3803 722 4122 1019 
L 4122 359 
Q 3791 134 3420 21 
Q 3050 -91 2638 -91 
Q 1578 -91 968 557 
Q 359 1206 359 2328 
Q 359 3453 968 4101 
Q 1578 4750 2638 4750 
Q 3056 4750 3426 4639 
Q 3797 4528 4122 4306 
z
" transform="scale(0.015625)"/>
      <path id="DejaVuSans-50" d="M 1259 4147 
L 1259 2394 
L 2053 2394 
Q 2494 2394 2734 2622 
Q 2975 2850 2975 3272 
Q 2975 3691 2734 3919 
Q 2494 4147 2053 4147 
L 1259 4147 
z
M 628 4666 
L 2053 4666 
Q 2838 4666 3239 4311 
Q 3641 3956 3641 3272 
Q 3641 2581 3239 2228 
Q 2838 1875 2053 1875 
L 1259 1875 
L 1259 0 
L 628 0 
L 628 4666 
z
" transform="scale(0.015625)"/>
      <path id="DejaVuSans-2b" d="M 2944 4013 
L 2944 2272 
L 4684 2272 
L 4684 1741 
L 2944 1741 
L 2944 0 
L 2419 0 
L 2419 1741 
L 678 1741 
L 678 2272 
L 2419 2272 
L 2419 4013 
L 2944 4013 
z
" transform="scale(0.015625)"/>
      <path id="DejaVuSans-48" d="M 628 4666 
L 1259 4666 
L 1259 2753 
L 3553 2753 
L 3553 4666 
L 4184 4666 
L 4184 0 
L 3553 0 
L 3553 2222 
L 1259 2222 
L 1259 0 
L 628 0 
L 628 4666 
z
" transform="scale(0.015625)"/>
      <path id="DejaVuSans-2192" d="M 5050 2147 
L 5050 1866 
L 3822 638 
L 3447 1013 
L 4175 1741 
L 366 1741 
L 366 2272 
L 4175 2272 
L 3447 3000 
L 3822 3375 
L 5050 2147 
z
" transform="scale(0.015625)"/>
      <path id="DejaVuSans-45" d="M 628 4666 
L 3578 4666 
L 3578 4134 
L 1259 4134 
L 1259 2753 
L 3481 2753 
L 3481 2222 
L 1259 2222 
L 1259 531 
L 3634 531 
L 3634 0 
L 628 0 
L 628 4666 
z
" transform="scale(0.015625)"/>
      <path id="DejaVuSans-64" d="M 2906 2969 
L 2906 4863 
L 3481 4863 
L 3481 0 
L 2906 0 
L 2906 525 
Q 2725 213 2448 61 
Q 2172 -91 1784 -91 
Q 1150 -91 751 415 
Q 353 922 353 1747 
Q 353 2572 751 3078 
Q 1150 3584 1784 3584 
Q 2172 3584 2448 3432 
Q 2725 3281 2906 2969 
z
M 947 1747 
Q 947 1113 1208 752 
Q 1469 391 1925 391 
Q 2381 391 2643 752 
Q 2906 1113 2906 1747 
Q 2906 2381 2643 2742 
Q 2381 3103 1925 3103 
Q 1469 3103 1208 2742 
Q 947 2381 947 1747 
z
" transform="scale(0.015625)"/>
      <path id="DejaVuSans-79" d="M 2059 -325 
Q 1816 -950 1584 -1140 
Q 1353 -1331 966 -1331 
L 506 -1331 
L 506 -850 
L 844 -850 
Q 1081 -850 1212 -737 
Q 1344 -625 1503 -206 
L 1606 56 
L 191 3500 
L 800 3500 
L 1894 763 
L 2988 3500 
L 3597 3500 
L 2059 -325 
z
" transform="scale(0.015625)"/>
     </defs>
     <use xlink:href="#DejaVuSans-53"/>
     <use xlink:href="#DejaVuSans-69" transform="translate(63.476562 0)"/>
     <use xlink:href="#DejaVuSans-67" transform="translate(91.259766 0)"/>
     <use xlink:href="#DejaVuSans-6c" transform="translate(154.736328 0)"/>
     <use xlink:href="#DejaVuSans-65" transform="translate(182.519531 0)"/>
     <use xlink:href="#DejaVuSans-6e" transform="translate(244.042969 0)"/>
     <use xlink:href="#DejaVuSans-74" transform="translate(307.421875 0)"/>
     <use xlink:href="#DejaVuSans-20" transform="translate(346.630859 0)"/>
     <use xlink:href="#DejaVuSans-53" transform="translate(378.417969 0)"/>
     <use xlink:href="#DejaVuSans-44" transform="translate(441.894531 0)"/>
     <use xlink:href="#DejaVuSans-53" transform="translate(518.896484 0)"/>
     <use xlink:href="#DejaVuSans-20" transform="translate(582.373047 0)"/>
     <use xlink:href="#DejaVuSans-43" transform="translate(614.160156 0)"/>
     <use xlink:href="#DejaVuSans-53" transform="translate(683.984375 0)"/>
     <use xlink:href="#DejaVuSans-56" transform="translate(747.460938 0)"/>
     <use xlink:href="#DejaVuSans-20" transform="translate(815.869141 0)"/>
     <use xlink:href="#DejaVuSans-50" transform="translate(847.65625 0)"/>
     <use xlink:href="#DejaVuSans-6c" transform="translate(907.958984 0)"/>
     <use xlink:href="#DejaVuSans-6f" transform="translate(935.742188 0)"/>
     <use xlink:href="#DejaVuSans-74" transform="translate(996.923828 0)"/>
     <use xlink:href="#DejaVuSans-20" transform="translate(1036.132812 0)"/>
     <use xlink:href="#DejaVuSans-2b" transform="translate(1067.919922 0)"/>
     <use xlink:href="#DejaVuSans-20" transform="translate(1151.708984 0)"/>
     <use xlink:href="#DejaVuSans-43" transform="translate(1183.496094 0)"/>
     <use xlink:href="#DejaVuSans-48" transform="translate(1253.320312 0)"/>
     <use xlink:href="#DejaVuSans-31" transform="translate(1328.515625 0)"/>
     <use xlink:href="#DejaVuSans-2192" transform="translate(1392.138672 0)"/>
     <use xlink:href="#DejaVuSans-43" transform="translate(1475.927734 0)"/>
     <use xlink:href="#DejaVuSans-48" transform="translate(1545.751953 0)"/>
     <use xlink:href="#DejaVuSans-32" transform="translate(1620.947266 0)"/>
     <use xlink:href="#DejaVuSans-20" transform="translate(1684.570312 0)"/>
     <use xlink:href="#DejaVuSans-45" transform="translate(1716.357422 0)"/>
     <use xlink:href="#DejaVuSans-64" transform="translate(1779.541016 0)"/>
     <use xlink:href="#DejaVuSans-67" transform="translate(1843.017578 0)"/>
     <use xlink:href="#DejaVuSans-65" transform="translate(1906.494141 0)"/>
     <use xlink:href="#DejaVuSans-20" transform="translate(1968.017578 0)"/>
     <use xlink:href="#DejaVuSans-44" transform="translate(1999.804688 0)"/>
     <use xlink:href="#DejaVuSans-65" transform="translate(2076.806641 0)"/>
     <use xlink:href="#DejaVuSans-6c" transform="translate(2138.330078 0)"/>
     <use xlink:href="#DejaVuSans-61" transform="translate(2166.113281 0)"/>
     <use xlink:href="#DejaVuSans-79" transform="translate(2227.392578 0)"/>
     <use xlink:href="#DejaVuSans-73" transform="translate(2286.572266 0)"/>
    </g>
   </g>
   <g id="legend_1">
    <g id="patch_7">
     <path d="M 2207.222936 99.165143 
L 2260.088561 99.165143 
Q 2262.088561 99.165143 2262.088561 97.165143 
L 2262.088561 68.808893 
Q 2262.088561 66.808893 2260.088561 66.808893 
L 2207.222936 66.808893 
Q 2205.222936 66.808893 2205.222936 68.808893 
L 2205.222936 97.165143 
Q 2205.222936 99.165143 2207.222936 99.165143 
z
" style="fill: #ffffff; opacity: 0.8; stroke: #cccccc; stroke-linejoin: miter"/>
    </g>
    <g id="line2d_27">
     <path d="M 2209.222936 74.907331 
L 2219.222936 74.907331 
L 2229.222936 74.907331 
" style="fill: none; stroke: #1f77b4; stroke-linecap: square"/>
    </g>
    <g id="text_16">
     <!-- CH1 -->
     <g transform="translate(2237.222936 78.407331) scale(0.1 -0.1)">
      <use xlink:href="#DejaVuSans-43"/>
      <use xlink:href="#DejaVuSans-48" transform="translate(69.824219 0)"/>
      <use xlink:href="#DejaVuSans-31" transform="translate(145.019531 0)"/>
     </g>
    </g>
    <g id="line2d_28">
     <path d="M 2209.222936 89.585456 
L 2219.222936 89.585456 
L 2229.222936 89.585456 
" style="fill: none; stroke: #ff7f0e; stroke-linecap: square"/>
    </g>
    <g id="text_17">
     <!-- CH2 -->
     <g transform="translate(2237.222936 93.085456) scale(0.1 -0.1)">
      <use xlink:href="#DejaVuSans-43"/>
      <use xlink:href="#DejaVuSans-48" transform="translate(69.824219 0)"/>
      <use xlink:href="#DejaVuSans-32" transform="translate(145.019531 0)"/>
     </g>
    </g>
   </g>
  </g>
  <g id="axes_2">
   <g id="patch_8">
    <path d="M 124.650665 1227.991865 
L 2267.088561 1227.991865 
L 2267.088561 711.63007 
L 124.650665 711.63007 
z
" style="fill: #ffffff"/>
   </g>
   <g id="patch_9">
    <path d="M 222.034206 1227.991865 
L 330.23814 1227.991865 
L 330.23814 736.218727 
L 222.034206 736.218727 
z
" clip-path="url(#p2aad08489b)" style="fill: #9467bd; opacity: 0.75; stroke: #000000; stroke-linejoin: miter"/>
   </g>
   <g id="patch_10">
    <path d="M 330.23814 1227.991865 
L 438.442074 1227.991865 
L 438.442074 1220.781115 
L 330.23814 1220.781115 
z
" clip-path="url(#p2aad08489b)" style="fill: #9467bd; opacity: 0.75; stroke: #000000; stroke-linejoin: miter"/>
   </g>
   <g id="patch_11">
    <path d="M 438.442074 1227.991865 
L 546.646008 1227.991865 
L 546.646008 1227.991865 
L 438.442074 1227.991865 
z
" clip-path="url(#p2aad08489b)" style="fill: #9467bd; opacity: 0.75; stroke: #000000; stroke-linejoin: miter"/>
   </g>
   <g id="patch_12">
    <path d="M 546.646008 1227.991865 
L 654.849942 1227.991865 
L 654.849942 1227.991865 
L 546.646008 1227.991865 
z
" clip-path="url(#p2aad08489b)" style="fill: #9467bd; opacity: 0.75; stroke: #000000; stroke-linejoin: miter"/>
   </g>
   <g id="patch_13">
    <path d="M 654.849942 1227.991865 
L 763.053876 1227.991865 
L 763.053876 1226.549715 
L 654.849942 1226.549715 
z
" clip-path="url(#p2aad08489b)" style="fill: #9467bd; opacity: 0.75; stroke: #000000; stroke-linejoin: miter"/>
   </g>
   <g id="patch_14">
    <path d="M 763.053876 1227.991865 
L 871.257811 1227.991865 
L 871.257811 1227.991865 
L 763.053876 1227.991865 
z
" clip-path="url(#p2aad08489b)" style="fill: #9467bd; opacity: 0.75; stroke: #000000; stroke-linejoin: miter"/>
   </g>
   <g id="patch_15">
    <path d="M 871.257811 1227.991865 
L 979.461745 1227.991865 
L 979.461745 1227.991865 
L 871.257811 1227.991865 
z
" clip-path="url(#p2aad08489b)" style="fill: #9467bd; opacity: 0.75; stroke: #000000; stroke-linejoin: miter"/>
   </g>
   <g id="patch_16">
    <path d="M 979.461745 1227.991865 
L 1087.665679 1227.991865 
L 1087.665679 1227.991865 
L 979.461745 1227.991865 
z
" clip-path="url(#p2aad08489b)" style="fill: #9467bd; opacity: 0.75; stroke: #000000; stroke-linejoin: miter"/>
   </g>
   <g id="patch_17">
    <path d="M 1087.665679 1227.991865 
L 1195.869613 1227.991865 
L 1195.869613 1227.991865 
L 1087.665679 1227.991865 
z
" clip-path="url(#p2aad08489b)" style="fill: #9467bd; opacity: 0.75; stroke: #000000; stroke-linejoin: miter"/>
   </g>
   <g id="patch_18">
    <path d="M 1195.869613 1227.991865 
L 1304.073547 1227.991865 
L 1304.073547 1227.991865 
L 1195.869613 1227.991865 
z
" clip-path="url(#p2aad08489b)" style="fill: #9467bd; opacity: 0.75; stroke: #000000; stroke-linejoin: miter"/>
   </g>
   <g id="patch_19">
    <path d="M 1304.073547 1227.991865 
L 1412.277481 1227.991865 
L 1412.277481 1226.549715 
L 1304.073547 1226.549715 
z
" clip-path="url(#p2aad08489b)" style="fill: #9467bd; opacity: 0.75; stroke: #000000; stroke-linejoin: miter"/>
   </g>
   <g id="patch_20">
    <path d="M 1412.277481 1227.991865 
L 1520.481415 1227.991865 
L 1520.481415 1227.991865 
L 1412.277481 1227.991865 
z
" clip-path="url(#p2aad08489b)" style="fill: #9467bd; opacity: 0.75; stroke: #000000; stroke-linejoin: miter"/>
   </g>
   <g id="patch_21">
    <path d="M 1520.481415 1227.991865 
L 1628.68535 1227.991865 
L 1628.68535 1227.991865 
L 1520.481415 1227.991865 
z
" clip-path="url(#p2aad08489b)" style="fill: #9467bd; opacity: 0.75; stroke: #000000; stroke-linejoin: miter"/>
   </g>
   <g id="patch_22">
    <path d="M 1628.68535 1227.991865 
L 1736.889284 1227.991865 
L 1736.889284 1227.991865 
L 1628.68535 1227.991865 
z
" clip-path="url(#p2aad08489b)" style="fill: #9467bd; opacity: 0.75; stroke: #000000; stroke-linejoin: miter"/>
   </g>
   <g id="patch_23">
    <path d="M 1736.889284 1227.991865 
L 1845.093218 1227.991865 
L 1845.093218 1227.991865 
L 1736.889284 1227.991865 
z
" clip-path="url(#p2aad08489b)" style="fill: #9467bd; opacity: 0.75; stroke: #000000; stroke-linejoin: miter"/>
   </g>
   <g id="patch_24">
    <path d="M 1845.093218 1227.991865 
L 1953.297152 1227.991865 
L 1953.297152 1227.991865 
L 1845.093218 1227.991865 
z
" clip-path="url(#p2aad08489b)" style="fill: #9467bd; opacity: 0.75; stroke: #000000; stroke-linejoin: miter"/>
   </g>
   <g id="patch_25">
    <path d="M 1953.297152 1227.991865 
L 2061.501086 1227.991865 
L 2061.501086 1227.991865 
L 1953.297152 1227.991865 
z
" clip-path="url(#p2aad08489b)" style="fill: #9467bd; opacity: 0.75; stroke: #000000; stroke-linejoin: miter"/>
   </g>
   <g id="patch_26">
    <path d="M 2061.501086 1227.991865 
L 2169.70502 1227.991865 
L 2169.70502 1226.549715 
L 2061.501086 1226.549715 
z
" clip-path="url(#p2aad08489b)" style="fill: #9467bd; opacity: 0.75; stroke: #000000; stroke-linejoin: miter"/>
   </g>
   <g id="matplotlib.axis_3">
    <g id="xtick_6">
     <g id="line2d_29">
      <path d="M 412.068381 1227.991865 
L 412.068381 711.63007 
" clip-path="url(#p2aad08489b)" style="fill: none; stroke: #b0b0b0; stroke-opacity: 0.3; stroke-width: 0.8; stroke-linecap: square"/>
     </g>
     <g id="line2d_30">
      <g>
       <use xlink:href="#m8c1c168835" x="412.068381" y="1227.991865" style="stroke: #000000; stroke-width: 0.8"/>
      </g>
     </g>
     <g id="text_18">
      <!-- 20 -->
      <g transform="translate(405.705881 1242.590303) scale(0.1 -0.1)">
       <use xlink:href="#DejaVuSans-32"/>
       <use xlink:href="#DejaVuSans-30" transform="translate(63.623047 0)"/>
      </g>
     </g>
    </g>
    <g id="xtick_7">
     <g id="line2d_31">
      <path d="M 843.937525 1227.991865 
L 843.937525 711.63007 
" clip-path="url(#p2aad08489b)" style="fill: none; stroke: #b0b0b0; stroke-opacity: 0.3; stroke-width: 0.8; stroke-linecap: square"/>
     </g>
     <g id="line2d_32">
      <g>
       <use xlink:href="#m8c1c168835" x="843.937525" y="1227.991865" style="stroke: #000000; stroke-width: 0.8"/>
      </g>
     </g>
     <g id="text_19">
      <!-- 40 -->
      <g transform="translate(837.575025 1242.590303) scale(0.1 -0.1)">
       <use xlink:href="#DejaVuSans-34"/>
       <use xlink:href="#DejaVuSans-30" transform="translate(63.623047 0)"/>
      </g>
     </g>
    </g>
    <g id="xtick_8">
     <g id="line2d_33">
      <path d="M 1275.806669 1227.991865 
L 1275.806669 711.63007 
" clip-path="url(#p2aad08489b)" style="fill: none; stroke: #b0b0b0; stroke-opacity: 0.3; stroke-width: 0.8; stroke-linecap: square"/>
     </g>
     <g id="line2d_34">
      <g>
       <use xlink:href="#m8c1c168835" x="1275.806669" y="1227.991865" style="stroke: #000000; stroke-width: 0.8"/>
      </g>
     </g>
     <g id="text_20">
      <!-- 60 -->
      <g transform="translate(1269.444169 1242.590303) scale(0.1 -0.1)">
       <defs>
        <path id="DejaVuSans-36" d="M 2113 2584 
Q 1688 2584 1439 2293 
Q 1191 2003 1191 1497 
Q 1191 994 1439 701 
Q 1688 409 2113 409 
Q 2538 409 2786 701 
Q 3034 994 3034 1497 
Q 3034 2003 2786 2293 
Q 2538 2584 2113 2584 
z
M 3366 4563 
L 3366 3988 
Q 3128 4100 2886 4159 
Q 2644 4219 2406 4219 
Q 1781 4219 1451 3797 
Q 1122 3375 1075 2522 
Q 1259 2794 1537 2939 
Q 1816 3084 2150 3084 
Q 2853 3084 3261 2657 
Q 3669 2231 3669 1497 
Q 3669 778 3244 343 
Q 2819 -91 2113 -91 
Q 1303 -91 875 529 
Q 447 1150 447 2328 
Q 447 3434 972 4092 
Q 1497 4750 2381 4750 
Q 2619 4750 2861 4703 
Q 3103 4656 3366 4563 
z
" transform="scale(0.015625)"/>
       </defs>
       <use xlink:href="#DejaVuSans-36"/>
       <use xlink:href="#DejaVuSans-30" transform="translate(63.623047 0)"/>
      </g>
     </g>
    </g>
    <g id="xtick_9">
     <g id="line2d_35">
      <path d="M 1707.675814 1227.991865 
L 1707.675814 711.63007 
" clip-path="url(#p2aad08489b)" style="fill: none; stroke: #b0b0b0; stroke-opacity: 0.3; stroke-width: 0.8; stroke-linecap: square"/>
     </g>
     <g id="line2d_36">
      <g>
       <use xlink:href="#m8c1c168835" x="1707.675814" y="1227.991865" style="stroke: #000000; stroke-width: 0.8"/>
      </g>
     </g>
     <g id="text_21">
      <!-- 80 -->
      <g transform="translate(1701.313314 1242.590303) scale(0.1 -0.1)">
       <defs>
        <path id="DejaVuSans-38" d="M 2034 2216 
Q 1584 2216 1326 1975 
Q 1069 1734 1069 1313 
Q 1069 891 1326 650 
Q 1584 409 2034 409 
Q 2484 409 2743 651 
Q 3003 894 3003 1313 
Q 3003 1734 2745 1975 
Q 2488 2216 2034 2216 
z
M 1403 2484 
Q 997 2584 770 2862 
Q 544 3141 544 3541 
Q 544 4100 942 4425 
Q 1341 4750 2034 4750 
Q 2731 4750 3128 4425 
Q 3525 4100 3525 3541 
Q 3525 3141 3298 2862 
Q 3072 2584 2669 2484 
Q 3125 2378 3379 2068 
Q 3634 1759 3634 1313 
Q 3634 634 3220 271 
Q 2806 -91 2034 -91 
Q 1263 -91 848 271 
Q 434 634 434 1313 
Q 434 1759 690 2068 
Q 947 2378 1403 2484 
z
M 1172 3481 
Q 1172 3119 1398 2916 
Q 1625 2713 2034 2713 
Q 2441 2713 2670 2916 
Q 2900 3119 2900 3481 
Q 2900 3844 2670 4047 
Q 2441 4250 2034 4250 
Q 1625 4250 1398 4047 
Q 1172 3844 1172 3481 
z
" transform="scale(0.015625)"/>
       </defs>
       <use xlink:href="#DejaVuSans-38"/>
       <use xlink:href="#DejaVuSans-30" transform="translate(63.623047 0)"/>
      </g>
     </g>
    </g>
    <g id="xtick_10">
     <g id="line2d_37">
      <path d="M 2139.544958 1227.991865 
L 2139.544958 711.63007 
" clip-path="url(#p2aad08489b)" style="fill: none; stroke: #b0b0b0; stroke-opacity: 0.3; stroke-width: 0.8; stroke-linecap: square"/>
     </g>
     <g id="line2d_38">
      <g>
       <use xlink:href="#m8c1c168835" x="2139.544958" y="1227.991865" style="stroke: #000000; stroke-width: 0.8"/>
      </g>
     </g>
     <g id="text_22">
      <!-- 100 -->
      <g transform="translate(2130.001208 1242.590303) scale(0.1 -0.1)">
       <use xlink:href="#DejaVuSans-31"/>
       <use xlink:href="#DejaVuSans-30" transform="translate(63.623047 0)"/>
       <use xlink:href="#DejaVuSans-30" transform="translate(127.246094 0)"/>
      </g>
     </g>
    </g>
    <g id="text_23">
     <!-- Delay (ms) -->
     <g transform="translate(1168.564925 1256.268428) scale(0.1 -0.1)">
      <use xlink:href="#DejaVuSans-44"/>
      <use xlink:href="#DejaVuSans-65" transform="translate(77.001953 0)"/>
      <use xlink:href="#DejaVuSans-6c" transform="translate(138.525391 0)"/>
      <use xlink:href="#DejaVuSans-61" transform="translate(166.308594 0)"/>
      <use xlink:href="#DejaVuSans-79" transform="translate(227.587891 0)"/>
      <use xlink:href="#DejaVuSans-20" transform="translate(286.767578 0)"/>
      <use xlink:href="#DejaVuSans-28" transform="translate(318.554688 0)"/>
      <use xlink:href="#DejaVuSans-6d" transform="translate(357.568359 0)"/>
      <use xlink:href="#DejaVuSans-73" transform="translate(454.980469 0)"/>
      <use xlink:href="#DejaVuSans-29" transform="translate(507.080078 0)"/>
     </g>
    </g>
   </g>
   <g id="matplotlib.axis_4">
    <g id="ytick_8">
     <g id="line2d_39">
      <path d="M 124.650665 1227.991865 
L 2267.088561 1227.991865 
" clip-path="url(#p2aad08489b)" style="fill: none; stroke: #b0b0b0; stroke-opacity: 0.3; stroke-width: 0.8; stroke-linecap: square"/>
     </g>
     <g id="line2d_40">
      <g>
       <use xlink:href="#mbc7d868e42" x="124.650665" y="1227.991865" style="stroke: #000000; stroke-width: 0.8"/>
      </g>
     </g>
     <g id="text_24">
      <!-- 0 -->
      <g transform="translate(111.288165 1231.791084) scale(0.1 -0.1)">
       <use xlink:href="#DejaVuSans-30"/>
      </g>
     </g>
    </g>
    <g id="ytick_9">
     <g id="line2d_41">
      <path d="M 124.650665 1155.884367 
L 2267.088561 1155.884367 
" clip-path="url(#p2aad08489b)" style="fill: none; stroke: #b0b0b0; stroke-opacity: 0.3; stroke-width: 0.8; stroke-linecap: square"/>
     </g>
     <g id="line2d_42">
      <g>
       <use xlink:href="#mbc7d868e42" x="124.650665" y="1155.884367" style="stroke: #000000; stroke-width: 0.8"/>
      </g>
     </g>
     <g id="text_25">
      <!-- 50 -->
      <g transform="translate(104.925665 1159.683586) scale(0.1 -0.1)">
       <use xlink:href="#DejaVuSans-35"/>
       <use xlink:href="#DejaVuSans-30" transform="translate(63.623047 0)"/>
      </g>
     </g>
    </g>
    <g id="ytick_10">
     <g id="line2d_43">
      <path d="M 124.650665 1083.776869 
L 2267.088561 1083.776869 
" clip-path="url(#p2aad08489b)" style="fill: none; stroke: #b0b0b0; stroke-opacity: 0.3; stroke-width: 0.8; stroke-linecap: square"/>
     </g>
     <g id="line2d_44">
      <g>
       <use xlink:href="#mbc7d868e42" x="124.650665" y="1083.776869" style="stroke: #000000; stroke-width: 0.8"/>
      </g>
     </g>
     <g id="text_26">
      <!-- 100 -->
      <g transform="translate(98.563165 1087.576087) scale(0.1 -0.1)">
       <use xlink:href="#DejaVuSans-31"/>
       <use xlink:href="#DejaVuSans-30" transform="translate(63.623047 0)"/>
       <use xlink:href="#DejaVuSans-30" transform="translate(127.246094 0)"/>
      </g>
     </g>
    </g>
    <g id="ytick_11">
     <g id="line2d_45">
      <path d="M 124.650665 1011.66937 
L 2267.088561 1011.66937 
" clip-path="url(#p2aad08489b)" style="fill: none; stroke: #b0b0b0; stroke-opacity: 0.3; stroke-width: 0.8; stroke-linecap: square"/>
     </g>
     <g id="line2d_46">
      <g>
       <use xlink:href="#mbc7d868e42" x="124.650665" y="1011.66937" style="stroke: #000000; stroke-width: 0.8"/>
      </g>
     </g>
     <g id="text_27">
      <!-- 150 -->
      <g transform="translate(98.563165 1015.468589) scale(0.1 -0.1)">
       <use xlink:href="#DejaVuSans-31"/>
       <use xlink:href="#DejaVuSans-35" transform="translate(63.623047 0)"/>
       <use xlink:href="#DejaVuSans-30" transform="translate(127.246094 0)"/>
      </g>
     </g>
    </g>
    <g id="ytick_12">
     <g id="line2d_47">
      <path d="M 124.650665 939.561872 
L 2267.088561 939.561872 
" clip-path="url(#p2aad08489b)" style="fill: none; stroke: #b0b0b0; stroke-opacity: 0.3; stroke-width: 0.8; stroke-linecap: square"/>
     </g>
     <g id="line2d_48">
      <g>
       <use xlink:href="#mbc7d868e42" x="124.650665" y="939.561872" style="stroke: #000000; stroke-width: 0.8"/>
      </g>
     </g>
     <g id="text_28">
      <!-- 200 -->
      <g transform="translate(98.563165 943.361091) scale(0.1 -0.1)">
       <use xlink:href="#DejaVuSans-32"/>
       <use xlink:href="#DejaVuSans-30" transform="translate(63.623047 0)"/>
       <use xlink:href="#DejaVuSans-30" transform="translate(127.246094 0)"/>
      </g>
     </g>
    </g>
    <g id="ytick_13">
     <g id="line2d_49">
      <path d="M 124.650665 867.454374 
L 2267.088561 867.454374 
" clip-path="url(#p2aad08489b)" style="fill: none; stroke: #b0b0b0; stroke-opacity: 0.3; stroke-width: 0.8; stroke-linecap: square"/>
     </g>
     <g id="line2d_50">
      <g>
       <use xlink:href="#mbc7d868e42" x="124.650665" y="867.454374" style="stroke: #000000; stroke-width: 0.8"/>
      </g>
     </g>
     <g id="text_29">
      <!-- 250 -->
      <g transform="translate(98.563165 871.253592) scale(0.1 -0.1)">
       <use xlink:href="#DejaVuSans-32"/>
       <use xlink:href="#DejaVuSans-35" transform="translate(63.623047 0)"/>
       <use xlink:href="#DejaVuSans-30" transform="translate(127.246094 0)"/>
      </g>
     </g>
    </g>
    <g id="ytick_14">
     <g id="line2d_51">
      <path d="M 124.650665 795.346875 
L 2267.088561 795.346875 
" clip-path="url(#p2aad08489b)" style="fill: none; stroke: #b0b0b0; stroke-opacity: 0.3; stroke-width: 0.8; stroke-linecap: square"/>
     </g>
     <g id="line2d_52">
      <g>
       <use xlink:href="#mbc7d868e42" x="124.650665" y="795.346875" style="stroke: #000000; stroke-width: 0.8"/>
      </g>
     </g>
     <g id="text_30">
      <!-- 300 -->
      <g transform="translate(98.563165 799.146094) scale(0.1 -0.1)">
       <use xlink:href="#DejaVuSans-33"/>
       <use xlink:href="#DejaVuSans-30" transform="translate(63.623047 0)"/>
       <use xlink:href="#DejaVuSans-30" transform="translate(127.246094 0)"/>
      </g>
     </g>
    </g>
    <g id="ytick_15">
     <g id="line2d_53">
      <path d="M 124.650665 723.239377 
L 2267.088561 723.239377 
" clip-path="url(#p2aad08489b)" style="fill: none; stroke: #b0b0b0; stroke-opacity: 0.3; stroke-width: 0.8; stroke-linecap: square"/>
     </g>
     <g id="line2d_54">
      <g>
       <use xlink:href="#mbc7d868e42" x="124.650665" y="723.239377" style="stroke: #000000; stroke-width: 0.8"/>
      </g>
     </g>
     <g id="text_31">
      <!-- 350 -->
      <g transform="translate(98.563165 727.038596) scale(0.1 -0.1)">
       <use xlink:href="#DejaVuSans-33"/>
       <use xlink:href="#DejaVuSans-35" transform="translate(63.623047 0)"/>
       <use xlink:href="#DejaVuSans-30" transform="translate(127.246094 0)"/>
      </g>
     </g>
    </g>
    <g id="text_32">
     <!-- Count -->
     <g transform="translate(92.483477 984.659405) rotate(-90) scale(0.1 -0.1)">
      <defs>
       <path id="DejaVuSans-75" d="M 544 1381 
L 544 3500 
L 1119 3500 
L 1119 1403 
Q 1119 906 1312 657 
Q 1506 409 1894 409 
Q 2359 409 2629 706 
Q 2900 1003 2900 1516 
L 2900 3500 
L 3475 3500 
L 3475 0 
L 2900 0 
L 2900 538 
Q 2691 219 2414 64 
Q 2138 -91 1772 -91 
Q 1169 -91 856 284 
Q 544 659 544 1381 
z
M 1991 3584 
L 1991 3584 
z
" transform="scale(0.015625)"/>
      </defs>
      <use xlink:href="#DejaVuSans-43"/>
      <use xlink:href="#DejaVuSans-6f" transform="translate(69.824219 0)"/>
      <use xlink:href="#DejaVuSans-75" transform="translate(131.005859 0)"/>
      <use xlink:href="#DejaVuSans-6e" transform="translate(194.384766 0)"/>
      <use xlink:href="#DejaVuSans-74" transform="translate(257.763672 0)"/>
     </g>
    </g>
   </g>
   <g id="line2d_55">
    <path d="M 284.834852 1227.991865 
L 284.834852 711.63007 
" clip-path="url(#p2aad08489b)" style="fill: none; stroke-dasharray: 4.44,1.92; stroke-dashoffset: 0; stroke: #000000; stroke-width: 1.2"/>
   </g>
   <g id="patch_27">
    <path d="M 124.650665 1227.991865 
L 124.650665 711.63007 
" style="fill: none; stroke: #000000; stroke-width: 0.8; stroke-linejoin: miter; stroke-linecap: square"/>
   </g>
   <g id="patch_28">
    <path d="M 2267.088561 1227.991865 
L 2267.088561 711.63007 
" style="fill: none; stroke: #000000; stroke-width: 0.8; stroke-linejoin: miter; stroke-linecap: square"/>
   </g>
   <g id="patch_29">
    <path d="M 124.650665 1227.991865 
L 2267.088561 1227.991865 
" style="fill: none; stroke: #000000; stroke-width: 0.8; stroke-linejoin: miter; stroke-linecap: square"/>
   </g>
   <g id="patch_30">
    <path d="M 124.650665 711.63007 
L 2267.088561 711.63007 
" style="fill: none; stroke: #000000; stroke-width: 0.8; stroke-linejoin: miter; stroke-linecap: square"/>
   </g>
   <g id="text_33">
    <!-- Delay distribution (all edges) -->
    <g transform="translate(1108.93055 705.63007) scale(0.12 -0.12)">
     <defs>
      <path id="DejaVuSans-72" d="M 2631 2963 
Q 2534 3019 2420 3045 
Q 2306 3072 2169 3072 
Q 1681 3072 1420 2755 
Q 1159 2438 1159 1844 
L 1159 0 
L 581 0 
L 581 3500 
L 1159 3500 
L 1159 2956 
Q 1341 3275 1631 3429 
Q 1922 3584 2338 3584 
Q 2397 3584 2469 3576 
Q 2541 3569 2628 3553 
L 2631 2963 
z
" transform="scale(0.015625)"/>
      <path id="DejaVuSans-62" d="M 3116 1747 
Q 3116 2381 2855 2742 
Q 2594 3103 2138 3103 
Q 1681 3103 1420 2742 
Q 1159 2381 1159 1747 
Q 1159 1113 1420 752 
Q 1681 391 2138 391 
Q 2594 391 2855 752 
Q 3116 1113 3116 1747 
z
M 1159 2969 
Q 1341 3281 1617 3432 
Q 1894 3584 2278 3584 
Q 2916 3584 3314 3078 
Q 3713 2572 3713 1747 
Q 3713 922 3314 415 
Q 2916 -91 2278 -91 
Q 1894 -91 1617 61 
Q 1341 213 1159 525 
L 1159 0 
L 581 0 
L 581 4863 
L 1159 4863 
L 1159 2969 
z
" transform="scale(0.015625)"/>
     </defs>
     <use xlink:href="#DejaVuSans-44"/>
     <use xlink:href="#DejaVuSans-65" transform="translate(77.001953 0)"/>
     <use xlink:href="#DejaVuSans-6c" transform="translate(138.525391 0)"/>
     <use xlink:href="#DejaVuSans-61" transform="translate(166.308594 0)"/>
     <use xlink:href="#DejaVuSans-79" transform="translate(227.587891 0)"/>
     <use xlink:href="#DejaVuSans-20" transform="translate(286.767578 0)"/>
     <use xlink:href="#DejaVuSans-64" transform="translate(318.554688 0)"/>
     <use xlink:href="#DejaVuSans-69" transform="translate(382.03125 0)"/>
     <use xlink:href="#DejaVuSans-73" transform="translate(409.814453 0)"/>
     <use xlink:href="#DejaVuSans-74" transform="translate(461.914062 0)"/>
     <use xlink:href="#DejaVuSans-72" transform="translate(501.123047 0)"/>
     <use xlink:href="#DejaVuSans-69" transform="translate(542.236328 0)"/>
     <use xlink:href="#DejaVuSans-62" transform="translate(570.019531 0)"/>
     <use xlink:href="#DejaVuSans-75" transform="translate(633.496094 0)"/>
     <use xlink:href="#DejaVuSans-74" transform="translate(696.875 0)"/>
     <use xlink:href="#DejaVuSans-69" transform="translate(736.083984 0)"/>
     <use xlink:href="#DejaVuSans-6f" transform="translate(763.867188 0)"/>
     <use xlink:href="#DejaVuSans-6e" transform="translate(825.048828 0)"/>
     <use xlink:href="#DejaVuSans-20" transform="translate(888.427734 0)"/>
     <use xlink:href="#DejaVuSans-28" transform="translate(920.214844 0)"/>
     <use xlink:href="#DejaVuSans-61" transform="translate(959.228516 0)"/>
     <use xlink:href="#DejaVuSans-6c" transform="translate(1020.507812 0)"/>
     <use xlink:href="#DejaVuSans-6c" transform="translate(1048.291016 0)"/>
     <use xlink:href="#DejaVuSans-20" transform="translate(1076.074219 0)"/>
     <use xlink:href="#DejaVuSans-65" transform="translate(1107.861328 0)"/>
     <use xlink:href="#DejaVuSans-64" transform="translate(1169.384766 0)"/>
     <use xlink:href="#DejaVuSans-67" transform="translate(1232.861328 0)"/>
     <use xlink:href="#DejaVuSans-65" transform="translate(1296.337891 0)"/>
     <use xlink:href="#DejaVuSans-73" transform="translate(1357.861328 0)"/>
     <use xlink:href="#DejaVuSans-29" transform="translate(1409.960938 0)"/>
    </g>
   </g>
   <g id="legend_2">
    <g id="patch_31">
     <path d="M 2148.194811 734.308195 
L 2260.088561 734.308195 
Q 2262.088561 734.308195 2262.088561 732.308195 
L 2262.088561 718.63007 
Q 2262.088561 716.63007 2260.088561 716.63007 
L 2148.194811 716.63007 
Q 2146.194811 716.63007 2146.194811 718.63007 
L 2146.194811 732.308195 
Q 2146.194811 734.308195 2148.194811 734.308195 
z
" style="fill: #ffffff; opacity: 0.8; stroke: #cccccc; stroke-linejoin: miter"/>
    </g>
    <g id="line2d_56">
     <path d="M 2150.194811 724.728507 
L 2160.194811 724.728507 
L 2170.194811 724.728507 
" style="fill: none; stroke-dasharray: 4.44,1.92; stroke-dashoffset: 0; stroke: #000000; stroke-width: 1.2"/>
    </g>
    <g id="text_34">
     <!-- avg=14.108 ms -->
     <g transform="translate(2178.194811 728.228507) scale(0.1 -0.1)">
      <defs>
       <path id="DejaVuSans-76" d="M 191 3500 
L 800 3500 
L 1894 563 
L 2988 3500 
L 3597 3500 
L 2284 0 
L 1503 0 
L 191 3500 
z
" transform="scale(0.015625)"/>
       <path id="DejaVuSans-3d" d="M 678 2906 
L 4684 2906 
L 4684 2381 
L 678 2381 
L 678 2906 
z
M 678 1631 
L 4684 1631 
L 4684 1100 
L 678 1100 
L 678 1631 
z
" transform="scale(0.015625)"/>
      </defs>
      <use xlink:href="#DejaVuSans-61"/>
      <use xlink:href="#DejaVuSans-76" transform="translate(61.279297 0)"/>
      <use xlink:href="#DejaVuSans-67" transform="translate(120.458984 0)"/>
      <use xlink:href="#DejaVuSans-3d" transform="translate(183.935547 0)"/>
      <use xlink:href="#DejaVuSans-31" transform="translate(267.724609 0)"/>
      <use xlink:href="#DejaVuSans-34" transform="translate(331.347656 0)"/>
      <use xlink:href="#DejaVuSans-2e" transform="translate(394.970703 0)"/>
      <use xlink:href="#DejaVuSans-31" transform="translate(426.757812 0)"/>
      <use xlink:href="#DejaVuSans-30" transform="translate(490.380859 0)"/>
      <use xlink:href="#DejaVuSans-38" transform="translate(554.003906 0)"/>
      <use xlink:href="#DejaVuSans-20" transform="translate(617.626953 0)"/>
      <use xlink:href="#DejaVuSans-6d" transform="translate(649.414062 0)"/>
      <use xlink:href="#DejaVuSans-73" transform="translate(746.826172 0)"/>
     </g>
    </g>
   </g>
  </g>
 </g>
 <defs>
  <clipPath id="p962de882b5">
   <rect x="124.650665" y="61.808893" width="2142.437896" height="516.361796"/>
  </clipPath>
  <clipPath id="p2aad08489b">
   <rect x="124.650665" y="711.63007" width="2142.437896" height="516.361796"/>
  </clipPath>
 </defs>
</svg>
