<?xml version="1.0" encoding="utf-8" standalone="no"?>
<!DOCTYPE svg PUBLIC "-//W3C//DTD SVG 1.1//EN"
  "http://www.w3.org/Graphics/SVG/1.1/DTD/svg11.dtd">
<svg xmlns:xlink="http://www.w3.org/1999/xlink" width="792pt" height="360pt" viewBox="0 0 792 360" xmlns="http://www.w3.org/2000/svg" version="1.1">
 <metadata>
  <rdf:RDF xmlns:dc="http://purl.org/dc/elements/1.1/" xmlns:cc="http://creativecommons.org/ns#" xmlns:rdf="http://www.w3.org/1999/02/22-rdf-syntax-ns#">
   <cc:Work>
    <dc:type rdf:resource="http://purl.org/dc/dcmitype/StillImage"/>
    <dc:date>2026-03-09T00:02:15.630997</dc:date>
    <dc:format>image/svg+xml</dc:format>
    <dc:creator>
     <cc:Agent>
      <dc:title>Matplotlib v3.10.8, https://matplotlib.org/</dc:title>
     </cc:Agent>
    </dc:creator>
   </cc:Work>
  </rdf:RDF>
 </metadata>
 <defs>
  <style type="text/css">*{stroke-linejoin: round; stroke-linecap: butt}</style>
 </defs>
 <g id="figure_1">
  <g id="patch_1">
   <path d="M 0 360 
L 792 360 
L 792 0 
L 0 0 
z
" style="fill: #ffffff"/>
  </g>
  <g id="axes_1">
   <g id="patch_2">
    <path d="M 52.94 318.04 
L 781.2 318.04 
L 781.2 26.88 
L 52.94 26.88 
z
" style="fill: #ffffff"/>
   </g>
   <g id="patch_3">
    <path d="M 377.346727 181.988873 
L 456.793273 181.988873 
L 456.793273 162.931127 
L 377.346727 162.931127 
L 377.346727 181.988873 
z
" clip-path="url(#pfba0d63afc)" style="fill: none; stroke: #595959; stroke-width: 0.9; stroke-linejoin: miter"/>
   </g>
   <g id="matplotlib.axis_1">
    <g id="xtick_1">
     <g id="line2d_1">
      <path d="M 86.042727 318.04 
L 86.042727 26.88 
" clip-path="url(#pfba0d63afc)" style="fill: none; stroke-dasharray: 0.8,1.32; stroke-dashoffset: 0; stroke: #b0b0b0; stroke-opacity: 0.5; stroke-width: 0.8"/>
     </g>
     <g id="line2d_2">
      <defs>
       <path id="m1e2e776076" d="M 0 0 
L 0 3.5 
" style="stroke: #000000; stroke-width: 0.8"/>
      </defs>
      <g>
       <use xlink:href="#m1e2e776076" x="86.042727" y="318.04" style="stroke: #000000; stroke-width: 0.8"/>
      </g>
     </g>
     <g id="text_1">
      <!-- 0 -->
      <g transform="translate(82.861477 332.638438) scale(0.1 -0.1)">
       <defs>
        <path id="DejaVuSans-30" d="M 2034 4250 
Q 1547 4250 1301 3770 
Q 1056 3291 1056 2328 
Q 1056 1369 1301 889 
Q 1547 409 2034 409 
Q 2525 409 2770 889 
Q 3016 1369 3016 2328 
Q 3016 3291 2770 3770 
Q 2525 4250 2034 4250 
z
M 2034 4750 
Q 2819 4750 3233 4129 
Q 3647 3509 3647 2328 
Q 3647 1150 3233 529 
Q 2819 -91 2034 -91 
Q 1250 -91 836 529 
Q 422 1150 422 2328 
Q 422 3509 836 4129 
Q 1250 4750 2034 4750 
z
" transform="scale(0.015625)"/>
       </defs>
       <use xlink:href="#DejaVuSans-30"/>
      </g>
     </g>
    </g>
    <g id="xtick_2">
     <g id="line2d_3">
      <path d="M 170.915569 318.04 
L 170.915569 26.88 
" clip-path="url(#pfba0d63afc)" style="fill: none; stroke-dasharray: 0.8,1.32; stroke-dashoffset: 0; stroke: #b0b0b0; stroke-opacity: 0.5; stroke-width: 0.8"/>
     </g>
     <g id="line2d_4">
      <g>
       <use xlink:href="#m1e2e776076" x="170.915569" y="318.04" style="stroke: #000000; stroke-width: 0.8"/>
      </g>
     </g>
     <g id="text_2">
      <!-- 25 -->
      <g transform="translate(164.553069 332.638438) scale(0.1 -0.1)">
       <defs>
        <path id="DejaVuSans-32" d="M 1228 531 
L 3431 531 
L 3431 0 
L 469 0 
L 469 531 
Q 828 903 1448 1529 
Q 2069 2156 2228 2338 
Q 2531 2678 2651 2914 
Q 2772 3150 2772 3378 
Q 2772 3750 2511 3984 
Q 2250 4219 1831 4219 
Q 1534 4219 1204 4116 
Q 875 4013 500 3803 
L 500 4441 
Q 881 4594 1212 4672 
Q 1544 4750 1819 4750 
Q 2544 4750 2975 4387 
Q 3406 4025 3406 3419 
Q 3406 3131 3298 2873 
Q 3191 2616 2906 2266 
Q 2828 2175 2409 1742 
Q 1991 1309 1228 531 
z
" transform="scale(0.015625)"/>
        <path id="DejaVuSans-35" d="M 691 4666 
L 3169 4666 
L 3169 4134 
L 1269 4134 
L 1269 2991 
Q 1406 3038 1543 3061 
Q 1681 3084 1819 3084 
Q 2600 3084 3056 2656 
Q 3513 2228 3513 1497 
Q 3513 744 3044 326 
Q 2575 -91 1722 -91 
Q 1428 -91 1123 -41 
Q 819 9 494 109 
L 494 744 
Q 775 591 1075 516 
Q 1375 441 1709 441 
Q 2250 441 2565 725 
Q 2881 1009 2881 1497 
Q 2881 1984 2565 2268 
Q 2250 2553 1709 2553 
Q 1456 2553 1204 2497 
Q 953 2441 691 2322 
L 691 4666 
z
" transform="scale(0.015625)"/>
       </defs>
       <use xlink:href="#DejaVuSans-32"/>
       <use xlink:href="#DejaVuSans-35" transform="translate(63.623047 0)"/>
      </g>
     </g>
    </g>
    <g id="xtick_3">
     <g id="line2d_5">
      <path d="M 255.788411 318.04 
L 255.788411 26.88 
" clip-path="url(#pfba0d63afc)" style="fill: none; stroke-dasharray: 0.8,1.32; stroke-dashoffset: 0; stroke: #b0b0b0; stroke-opacity: 0.5; stroke-width: 0.8"/>
     </g>
     <g id="line2d_6">
      <g>
       <use xlink:href="#m1e2e776076" x="255.788411" y="318.04" style="stroke: #000000; stroke-width: 0.8"/>
      </g>
     </g>
     <g id="text_3">
      <!-- 50 -->
      <g transform="translate(249.425911 332.638438) scale(0.1 -0.1)">
       <use xlink:href="#DejaVuSans-35"/>
       <use xlink:href="#DejaVuSans-30" transform="translate(63.623047 0)"/>
      </g>
     </g>
    </g>
    <g id="xtick_4">
     <g id="line2d_7">
      <path d="M 340.661252 318.04 
L 340.661252 26.88 
" clip-path="url(#pfba0d63afc)" style="fill: none; stroke-dasharray: 0.8,1.32; stroke-dashoffset: 0; stroke: #b0b0b0; stroke-opacity: 0.5; stroke-width: 0.8"/>
     </g>
     <g id="line2d_8">
      <g>
       <use xlink:href="#m1e2e776076" x="340.661252" y="318.04" style="stroke: #000000; stroke-width: 0.8"/>
      </g>
     </g>
     <g id="text_4">
      <!-- 75 -->
      <g transform="translate(334.298752 332.638438) scale(0.1 -0.1)">
       <defs>
        <path id="DejaVuSans-37" d="M 525 4666 
L 3525 4666 
L 3525 4397 
L 1831 0 
L 1172 0 
L 2766 4134 
L 525 4134 
L 525 4666 
z
" transform="scale(0.015625)"/>
       </defs>
       <use xlink:href="#DejaVuSans-37"/>
       <use xlink:href="#DejaVuSans-35" transform="translate(63.623047 0)"/>
      </g>
     </g>
    </g>
    <g id="xtick_5">
     <g id="line2d_9">
      <path d="M 425.534094 318.04 
L 425.534094 26.88 
" clip-path="url(#pfba0d63afc)" style="fill: none; stroke-dasharray: 0.8,1.32; stroke-dashoffset: 0; stroke: #b0b0b0; stroke-opacity: 0.5; stroke-width: 0.8"/>
     </g>
     <g id="line2d_10">
      <g>
       <use xlink:href="#m1e2e776076" x="425.534094" y="318.04" style="stroke: #000000; stroke-width: 0.8"/>
      </g>
     </g>
     <g id="text_5">
      <!-- 100 -->
      <g transform="translate(415.990344 332.638438) scale(0.1 -0.1)">
       <defs>
        <path id="DejaVuSans-31" d="M 794 531 
L 1825 531 
L 1825 4091 
L 703 3866 
L 703 4441 
L 1819 4666 
L 2450 4666 
L 2450 531 
L 3481 531 
L 3481 0 
L 794 0 
L 794 531 
z
" transform="scale(0.015625)"/>
       </defs>
       <use xlink:href="#DejaVuSans-31"/>
       <use xlink:href="#DejaVuSans-30" transform="translate(63.623047 0)"/>
       <use xlink:href="#DejaVuSans-30" transform="translate(127.246094 0)"/>
      </g>
     </g>
    </g>
    <g id="xtick_6">
     <g id="line2d_11">
      <path d="M 510.406935 318.04 
L 510.406935 26.88 
" clip-path="url(#pfba0d63afc)" style="fill: none; stroke-dasharray: 0.8,1.32; stroke-dashoffset: 0; stroke: #b0b0b0; stroke-opacity: 0.5; stroke-width: 0.8"/>
     </g>
     <g id="line2d_12">
      <g>
       <use xlink:href="#m1e2e776076" x="510.406935" y="318.04" style="stroke: #000000; stroke-width: 0.8"/>
      </g>
     </g>
     <g id="text_6">
      <!-- 125 -->
      <g transform="translate(500.863185 332.638438) scale(0.1 -0.1)">
       <use xlink:href="#DejaVuSans-31"/>
       <use xlink:href="#DejaVuSans-32" transform="translate(63.623047 0)"/>
       <use xlink:href="#DejaVuSans-35" transform="translate(127.246094 0)"/>
      </g>
     </g>
    </g>
    <g id="xtick_7">
     <g id="line2d_13">
      <path d="M 595.279777 318.04 
L 595.279777 26.88 
" clip-path="url(#pfba0d63afc)" style="fill: none; stroke-dasharray: 0.8,1.32; stroke-dashoffset: 0; stroke: #b0b0b0; stroke-opacity: 0.5; stroke-width: 0.8"/>
     </g>
     <g id="line2d_14">
      <g>
       <use xlink:href="#m1e2e776076" x="595.279777" y="318.04" style="stroke: #000000; stroke-width: 0.8"/>
      </g>
     </g>
     <g id="text_7">
      <!-- 150 -->
      <g transform="translate(585.736027 332.638438) scale(0.1 -0.1)">
       <use xlink:href="#DejaVuSans-31"/>
       <use xlink:href="#DejaVuSans-35" transform="translate(63.623047 0)"/>
       <use xlink:href="#DejaVuSans-30" transform="translate(127.246094 0)"/>
      </g>
     </g>
    </g>
    <g id="xtick_8">
     <g id="line2d_15">
      <path d="M 680.152619 318.04 
L 680.152619 26.88 
" clip-path="url(#pfba0d63afc)" style="fill: none; stroke-dasharray: 0.8,1.32; stroke-dashoffset: 0; stroke: #b0b0b0; stroke-opacity: 0.5; stroke-width: 0.8"/>
     </g>
     <g id="line2d_16">
      <g>
       <use xlink:href="#m1e2e776076" x="680.152619" y="318.04" style="stroke: #000000; stroke-width: 0.8"/>
      </g>
     </g>
     <g id="text_8">
      <!-- 175 -->
      <g transform="translate(670.608869 332.638438) scale(0.1 -0.1)">
       <use xlink:href="#DejaVuSans-31"/>
       <use xlink:href="#DejaVuSans-37" transform="translate(63.623047 0)"/>
       <use xlink:href="#DejaVuSans-35" transform="translate(127.246094 0)"/>
      </g>
     </g>
    </g>
    <g id="xtick_9">
     <g id="line2d_17">
      <path d="M 765.02546 318.04 
L 765.02546 26.88 
" clip-path="url(#pfba0d63afc)" style="fill: none; stroke-dasharray: 0.8,1.32; stroke-dashoffset: 0; stroke: #b0b0b0; stroke-opacity: 0.5; stroke-width: 0.8"/>
     </g>
     <g id="line2d_18">
      <g>
       <use xlink:href="#m1e2e776076" x="765.02546" y="318.04" style="stroke: #000000; stroke-width: 0.8"/>
      </g>
     </g>
     <g id="text_9">
      <!-- 200 -->
      <g transform="translate(755.48171 332.638438) scale(0.1 -0.1)">
       <use xlink:href="#DejaVuSans-32"/>
       <use xlink:href="#DejaVuSans-30" transform="translate(63.623047 0)"/>
       <use xlink:href="#DejaVuSans-30" transform="translate(127.246094 0)"/>
      </g>
     </g>
    </g>
    <g id="text_10">
     <!-- Wall time since first sample (s) -->
     <g transform="translate(339.918437 346.316563) scale(0.1 -0.1)">
      <defs>
       <path id="DejaVuSans-57" d="M 213 4666 
L 850 4666 
L 1831 722 
L 2809 4666 
L 3519 4666 
L 4500 722 
L 5478 4666 
L 6119 4666 
L 4947 0 
L 4153 0 
L 3169 4050 
L 2175 0 
L 1381 0 
L 213 4666 
z
" transform="scale(0.015625)"/>
       <path id="DejaVuSans-61" d="M 2194 1759 
Q 1497 1759 1228 1600 
Q 959 1441 959 1056 
Q 959 750 1161 570 
Q 1363 391 1709 391 
Q 2188 391 2477 730 
Q 2766 1069 2766 1631 
L 2766 1759 
L 2194 1759 
z
M 3341 1997 
L 3341 0 
L 2766 0 
L 2766 531 
Q 2569 213 2275 61 
Q 1981 -91 1556 -91 
Q 1019 -91 701 211 
Q 384 513 384 1019 
Q 384 1609 779 1909 
Q 1175 2209 1959 2209 
L 2766 2209 
L 2766 2266 
Q 2766 2663 2505 2880 
Q 2244 3097 1772 3097 
Q 1472 3097 1187 3025 
Q 903 2953 641 2809 
L 641 3341 
Q 956 3463 1253 3523 
Q 1550 3584 1831 3584 
Q 2591 3584 2966 3190 
Q 3341 2797 3341 1997 
z
" transform="scale(0.015625)"/>
       <path id="DejaVuSans-6c" d="M 603 4863 
L 1178 4863 
L 1178 0 
L 603 0 
L 603 4863 
z
" transform="scale(0.015625)"/>
       <path id="DejaVuSans-20" transform="scale(0.015625)"/>
       <path id="DejaVuSans-74" d="M 1172 4494 
L 1172 3500 
L 2356 3500 
L 2356 3053 
L 1172 3053 
L 1172 1153 
Q 1172 725 1289 603 
Q 1406 481 1766 481 
L 2356 481 
L 2356 0 
L 1766 0 
Q 1100 0 847 248 
Q 594 497 594 1153 
L 594 3053 
L 172 3053 
L 172 3500 
L 594 3500 
L 594 4494 
L 1172 4494 
z
" transform="scale(0.015625)"/>
       <path id="DejaVuSans-69" d="M 603 3500 
L 1178 3500 
L 1178 0 
L 603 0 
L 603 3500 
z
M 603 4863 
L 1178 4863 
L 1178 4134 
L 603 4134 
L 603 4863 
z
" transform="scale(0.015625)"/>
       <path id="DejaVuSans-6d" d="M 3328 2828 
Q 3544 3216 3844 3400 
Q 4144 3584 4550 3584 
Q 5097 3584 5394 3201 
Q 5691 2819 5691 2113 
L 5691 0 
L 5113 0 
L 5113 2094 
Q 5113 2597 4934 2840 
Q 4756 3084 4391 3084 
Q 3944 3084 3684 2787 
Q 3425 2491 3425 1978 
L 3425 0 
L 2847 0 
L 2847 2094 
Q 2847 2600 2669 2842 
Q 2491 3084 2119 3084 
Q 1678 3084 1418 2786 
Q 1159 2488 1159 1978 
L 1159 0 
L 581 0 
L 581 3500 
L 1159 3500 
L 1159 2956 
Q 1356 3278 1631 3431 
Q 1906 3584 2284 3584 
Q 2666 3584 2933 3390 
Q 3200 3197 3328 2828 
z
" transform="scale(0.015625)"/>
       <path id="DejaVuSans-65" d="M 3597 1894 
L 3597 1613 
L 953 1613 
Q 991 1019 1311 708 
Q 1631 397 2203 397 
Q 2534 397 2845 478 
Q 3156 559 3463 722 
L 3463 178 
Q 3153 47 2828 -22 
Q 2503 -91 2169 -91 
Q 1331 -91 842 396 
Q 353 884 353 1716 
Q 353 2575 817 3079 
Q 1281 3584 2069 3584 
Q 2775 3584 3186 3129 
Q 3597 2675 3597 1894 
z
M 3022 2063 
Q 3016 2534 2758 2815 
Q 2500 3097 2075 3097 
Q 1594 3097 1305 2825 
Q 1016 2553 972 2059 
L 3022 2063 
z
" transform="scale(0.015625)"/>
       <path id="DejaVuSans-73" d="M 2834 3397 
L 2834 2853 
Q 2591 2978 2328 3040 
Q 2066 3103 1784 3103 
Q 1356 3103 1142 2972 
Q 928 2841 928 2578 
Q 928 2378 1081 2264 
Q 1234 2150 1697 2047 
L 1894 2003 
Q 2506 1872 2764 1633 
Q 3022 1394 3022 966 
Q 3022 478 2636 193 
Q 2250 -91 1575 -91 
Q 1294 -91 989 -36 
Q 684 19 347 128 
L 347 722 
Q 666 556 975 473 
Q 1284 391 1588 391 
Q 1994 391 2212 530 
Q 2431 669 2431 922 
Q 2431 1156 2273 1281 
Q 2116 1406 1581 1522 
L 1381 1569 
Q 847 1681 609 1914 
Q 372 2147 372 2553 
Q 372 3047 722 3315 
Q 1072 3584 1716 3584 
Q 2034 3584 2315 3537 
Q 2597 3491 2834 3397 
z
" transform="scale(0.015625)"/>
       <path id="DejaVuSans-6e" d="M 3513 2113 
L 3513 0 
L 2938 0 
L 2938 2094 
Q 2938 2591 2744 2837 
Q 2550 3084 2163 3084 
Q 1697 3084 1428 2787 
Q 1159 2491 1159 1978 
L 1159 0 
L 581 0 
L 581 3500 
L 1159 3500 
L 1159 2956 
Q 1366 3272 1645 3428 
Q 1925 3584 2291 3584 
Q 2894 3584 3203 3211 
Q 3513 2838 3513 2113 
z
" transform="scale(0.015625)"/>
       <path id="DejaVuSans-63" d="M 3122 3366 
L 3122 2828 
Q 2878 2963 2633 3030 
Q 2388 3097 2138 3097 
Q 1578 3097 1268 2742 
Q 959 2388 959 1747 
Q 959 1106 1268 751 
Q 1578 397 2138 397 
Q 2388 397 2633 464 
Q 2878 531 3122 666 
L 3122 134 
Q 2881 22 2623 -34 
Q 2366 -91 2075 -91 
Q 1284 -91 818 406 
Q 353 903 353 1747 
Q 353 2603 823 3093 
Q 1294 3584 2113 3584 
Q 2378 3584 2631 3529 
Q 2884 3475 3122 3366 
z
" transform="scale(0.015625)"/>
       <path id="DejaVuSans-66" d="M 2375 4863 
L 2375 4384 
L 1825 4384 
Q 1516 4384 1395 4259 
Q 1275 4134 1275 3809 
L 1275 3500 
L 2222 3500 
L 2222 3053 
L 1275 3053 
L 1275 0 
L 697 0 
L 697 3053 
L 147 3053 
L 147 3500 
L 697 3500 
L 697 3744 
Q 697 4328 969 4595 
Q 1241 4863 1831 4863 
L 2375 4863 
z
" transform="scale(0.015625)"/>
       <path id="DejaVuSans-72" d="M 2631 2963 
Q 2534 3019 2420 3045 
Q 2306 3072 2169 3072 
Q 1681 3072 1420 2755 
Q 1159 2438 1159 1844 
L 1159 0 
L 581 0 
L 581 3500 
L 1159 3500 
L 1159 2956 
Q 1341 3275 1631 3429 
Q 1922 3584 2338 3584 
Q 2397 3584 2469 3576 
Q 2541 3569 2628 3553 
L 2631 2963 
z
" transform="scale(0.015625)"/>
       <path id="DejaVuSans-70" d="M 1159 525 
L 1159 -1331 
L 581 -1331 
L 581 3500 
L 1159 3500 
L 1159 2969 
Q 1341 3281 1617 3432 
Q 1894 3584 2278 3584 
Q 2916 3584 3314 3078 
Q 3713 2572 3713 1747 
Q 3713 922 3314 415 
Q 2916 -91 2278 -91 
Q 1894 -91 1617 61 
Q 1341 213 1159 525 
z
M 3116 1747 
Q 3116 2381 2855 2742 
Q 2594 3103 2138 3103 
Q 1681 3103 1420 2742 
Q 1159 2381 1159 1747 
Q 1159 1113 1420 752 
Q 1681 391 2138 391 
Q 2594 391 2855 752 
Q 3116 1113 3116 1747 
z
" transform="scale(0.015625)"/>
       <path id="DejaVuSans-28" d="M 1984 4856 
Q 1566 4138 1362 3434 
Q 1159 2731 1159 2009 
Q 1159 1288 1364 580 
Q 1569 -128 1984 -844 
L 1484 -844 
Q 1016 -109 783 600 
Q 550 1309 550 2009 
Q 550 2706 781 3412 
Q 1013 4119 1484 4856 
L 1984 4856 
z
" transform="scale(0.015625)"/>
       <path id="DejaVuSans-29" d="M 513 4856 
L 1013 4856 
Q 1481 4119 1714 3412 
Q 1947 2706 1947 2009 
Q 1947 1309 1714 600 
Q 1481 -109 1013 -844 
L 513 -844 
Q 928 -128 1133 580 
Q 1338 1288 1338 2009 
Q 1338 2731 1133 3434 
Q 928 4138 513 4856 
z
" transform="scale(0.015625)"/>
      </defs>
      <use xlink:href="#DejaVuSans-57"/>
      <use xlink:href="#DejaVuSans-61" transform="translate(92.501953 0)"/>
      <use xlink:href="#DejaVuSans-6c" transform="translate(153.78125 0)"/>
      <use xlink:href="#DejaVuSans-6c" transform="translate(181.564453 0)"/>
      <use xlink:href="#DejaVuSans-20" transform="translate(209.347656 0)"/>
      <use xlink:href="#DejaVuSans-74" transform="translate(241.134766 0)"/>
      <use xlink:href="#DejaVuSans-69" transform="translate(280.34375 0)"/>
      <use xlink:href="#DejaVuSans-6d" transform="translate(308.126953 0)"/>
      <use xlink:href="#DejaVuSans-65" transform="translate(405.539062 0)"/>
      <use xlink:href="#DejaVuSans-20" transform="translate(467.0625 0)"/>
      <use xlink:href="#DejaVuSans-73" transform="translate(498.849609 0)"/>
      <use xlink:href="#DejaVuSans-69" transform="translate(550.949219 0)"/>
      <use xlink:href="#DejaVuSans-6e" transform="translate(578.732422 0)"/>
      <use xlink:href="#DejaVuSans-63" transform="translate(642.111328 0)"/>
      <use xlink:href="#DejaVuSans-65" transform="translate(697.091797 0)"/>
      <use xlink:href="#DejaVuSans-20" transform="translate(758.615234 0)"/>
      <use xlink:href="#DejaVuSans-66" transform="translate(790.402344 0)"/>
      <use xlink:href="#DejaVuSans-69" transform="translate(825.607422 0)"/>
      <use xlink:href="#DejaVuSans-72" transform="translate(853.390625 0)"/>
      <use xlink:href="#DejaVuSans-73" transform="translate(894.503906 0)"/>
      <use xlink:href="#DejaVuSans-74" transform="translate(946.603516 0)"/>
      <use xlink:href="#DejaVuSans-20" transform="translate(985.8125 0)"/>
      <use xlink:href="#DejaVuSans-73" transform="translate(1017.599609 0)"/>
      <use xlink:href="#DejaVuSans-61" transform="translate(1069.699219 0)"/>
      <use xlink:href="#DejaVuSans-6d" transform="translate(1130.978516 0)"/>
      <use xlink:href="#DejaVuSans-70" transform="translate(1228.390625 0)"/>
      <use xlink:href="#DejaVuSans-6c" transform="translate(1291.867188 0)"/>
      <use xlink:href="#DejaVuSans-65" transform="translate(1319.650391 0)"/>
      <use xlink:href="#DejaVuSans-20" transform="translate(1381.173828 0)"/>
      <use xlink:href="#DejaVuSans-28" transform="translate(1412.960938 0)"/>
      <use xlink:href="#DejaVuSans-73" transform="translate(1451.974609 0)"/>
      <use xlink:href="#DejaVuSans-29" transform="translate(1504.074219 0)"/>
     </g>
    </g>
   </g>
   <g id="matplotlib.axis_2">
    <g id="ytick_1">
     <g id="line2d_19">
      <path d="M 52.94 290.315076 
L 781.2 290.315076 
" clip-path="url(#pfba0d63afc)" style="fill: none; stroke-dasharray: 0.8,1.32; stroke-dashoffset: 0; stroke: #b0b0b0; stroke-opacity: 0.5; stroke-width: 0.8"/>
     </g>
     <g id="line2d_20">
      <defs>
       <path id="m2047aef329" d="M 0 0 
L -3.5 0 
" style="stroke: #000000; stroke-width: 0.8"/>
      </defs>
      <g>
       <use xlink:href="#m2047aef329" x="52.94" y="290.315076" style="stroke: #000000; stroke-width: 0.8"/>
      </g>
     </g>
     <g id="text_11">
      <!-- −60 -->
      <g transform="translate(24.835313 294.114295) scale(0.1 -0.1)">
       <defs>
        <path id="DejaVuSans-2212" d="M 678 2272 
L 4684 2272 
L 4684 1741 
L 678 1741 
L 678 2272 
z
" transform="scale(0.015625)"/>
        <path id="DejaVuSans-36" d="M 2113 2584 
Q 1688 2584 1439 2293 
Q 1191 2003 1191 1497 
Q 1191 994 1439 701 
Q 1688 409 2113 409 
Q 2538 409 2786 701 
Q 3034 994 3034 1497 
Q 3034 2003 2786 2293 
Q 2538 2584 2113 2584 
z
M 3366 4563 
L 3366 3988 
Q 3128 4100 2886 4159 
Q 2644 4219 2406 4219 
Q 1781 4219 1451 3797 
Q 1122 3375 1075 2522 
Q 1259 2794 1537 2939 
Q 1816 3084 2150 3084 
Q 2853 3084 3261 2657 
Q 3669 2231 3669 1497 
Q 3669 778 3244 343 
Q 2819 -91 2113 -91 
Q 1303 -91 875 529 
Q 447 1150 447 2328 
Q 447 3434 972 4092 
Q 1497 4750 2381 4750 
Q 2619 4750 2861 4703 
Q 3103 4656 3366 4563 
z
" transform="scale(0.015625)"/>
       </defs>
       <use xlink:href="#DejaVuSans-2212"/>
       <use xlink:href="#DejaVuSans-36" transform="translate(83.789062 0)"/>
       <use xlink:href="#DejaVuSans-30" transform="translate(147.412109 0)"/>
      </g>
     </g>
    </g>
    <g id="ytick_2">
     <g id="line2d_21">
      <path d="M 52.94 251.674068 
L 781.2 251.674068 
" clip-path="url(#pfba0d63afc)" style="fill: none; stroke-dasharray: 0.8,1.32; stroke-dashoffset: 0; stroke: #b0b0b0; stroke-opacity: 0.5; stroke-width: 0.8"/>
     </g>
     <g id="line2d_22">
      <g>
       <use xlink:href="#m2047aef329" x="52.94" y="251.674068" style="stroke: #000000; stroke-width: 0.8"/>
      </g>
     </g>
     <g id="text_12">
      <!-- −40 -->
      <g transform="translate(24.835313 255.473286) scale(0.1 -0.1)">
       <defs>
        <path id="DejaVuSans-34" d="M 2419 4116 
L 825 1625 
L 2419 1625 
L 2419 4116 
z
M 2253 4666 
L 3047 4666 
L 3047 1625 
L 3713 1625 
L 3713 1100 
L 3047 1100 
L 3047 0 
L 2419 0 
L 2419 1100 
L 313 1100 
L 313 1709 
L 2253 4666 
z
" transform="scale(0.015625)"/>
       </defs>
       <use xlink:href="#DejaVuSans-2212"/>
       <use xlink:href="#DejaVuSans-34" transform="translate(83.789062 0)"/>
       <use xlink:href="#DejaVuSans-30" transform="translate(147.412109 0)"/>
      </g>
     </g>
    </g>
    <g id="ytick_3">
     <g id="line2d_23">
      <path d="M 52.94 213.033059 
L 781.2 213.033059 
" clip-path="url(#pfba0d63afc)" style="fill: none; stroke-dasharray: 0.8,1.32; stroke-dashoffset: 0; stroke: #b0b0b0; stroke-opacity: 0.5; stroke-width: 0.8"/>
     </g>
     <g id="line2d_24">
      <g>
       <use xlink:href="#m2047aef329" x="52.94" y="213.033059" style="stroke: #000000; stroke-width: 0.8"/>
      </g>
     </g>
     <g id="text_13">
      <!-- −20 -->
      <g transform="translate(24.835313 216.832278) scale(0.1 -0.1)">
       <use xlink:href="#DejaVuSans-2212"/>
       <use xlink:href="#DejaVuSans-32" transform="translate(83.789062 0)"/>
       <use xlink:href="#DejaVuSans-30" transform="translate(147.412109 0)"/>
      </g>
     </g>
    </g>
    <g id="ytick_4">
     <g id="line2d_25">
      <path d="M 52.94 174.39205 
L 781.2 174.39205 
" clip-path="url(#pfba0d63afc)" style="fill: none; stroke-dasharray: 0.8,1.32; stroke-dashoffset: 0; stroke: #b0b0b0; stroke-opacity: 0.5; stroke-width: 0.8"/>
     </g>
     <g id="line2d_26">
      <g>
       <use xlink:href="#m2047aef329" x="52.94" y="174.39205" style="stroke: #000000; stroke-width: 0.8"/>
      </g>
     </g>
     <g id="text_14">
      <!-- 0 -->
      <g transform="translate(39.5775 178.191269) scale(0.1 -0.1)">
       <use xlink:href="#DejaVuSans-30"/>
      </g>
     </g>
    </g>
    <g id="ytick_5">
     <g id="line2d_27">
      <path d="M 52.94 135.751042 
L 781.2 135.751042 
" clip-path="url(#pfba0d63afc)" style="fill: none; stroke-dasharray: 0.8,1.32; stroke-dashoffset: 0; stroke: #b0b0b0; stroke-opacity: 0.5; stroke-width: 0.8"/>
     </g>
     <g id="line2d_28">
      <g>
       <use xlink:href="#m2047aef329" x="52.94" y="135.751042" style="stroke: #000000; stroke-width: 0.8"/>
      </g>
     </g>
     <g id="text_15">
      <!-- 20 -->
      <g transform="translate(33.215 139.550261) scale(0.1 -0.1)">
       <use xlink:href="#DejaVuSans-32"/>
       <use xlink:href="#DejaVuSans-30" transform="translate(63.623047 0)"/>
      </g>
     </g>
    </g>
    <g id="ytick_6">
     <g id="line2d_29">
      <path d="M 52.94 97.110033 
L 781.2 97.110033 
" clip-path="url(#pfba0d63afc)" style="fill: none; stroke-dasharray: 0.8,1.32; stroke-dashoffset: 0; stroke: #b0b0b0; stroke-opacity: 0.5; stroke-width: 0.8"/>
     </g>
     <g id="line2d_30">
      <g>
       <use xlink:href="#m2047aef329" x="52.94" y="97.110033" style="stroke: #000000; stroke-width: 0.8"/>
      </g>
     </g>
     <g id="text_16">
      <!-- 40 -->
      <g transform="translate(33.215 100.909252) scale(0.1 -0.1)">
       <use xlink:href="#DejaVuSans-34"/>
       <use xlink:href="#DejaVuSans-30" transform="translate(63.623047 0)"/>
      </g>
     </g>
    </g>
    <g id="ytick_7">
     <g id="line2d_31">
      <path d="M 52.94 58.469025 
L 781.2 58.469025 
" clip-path="url(#pfba0d63afc)" style="fill: none; stroke-dasharray: 0.8,1.32; stroke-dashoffset: 0; stroke: #b0b0b0; stroke-opacity: 0.5; stroke-width: 0.8"/>
     </g>
     <g id="line2d_32">
      <g>
       <use xlink:href="#m2047aef329" x="52.94" y="58.469025" style="stroke: #000000; stroke-width: 0.8"/>
      </g>
     </g>
     <g id="text_17">
      <!-- 60 -->
      <g transform="translate(33.215 62.268243) scale(0.1 -0.1)">
       <use xlink:href="#DejaVuSans-36"/>
       <use xlink:href="#DejaVuSans-30" transform="translate(63.623047 0)"/>
      </g>
     </g>
    </g>
    <g id="text_18">
     <!-- Offset (ms) -->
     <g transform="translate(18.755625 200.523281) rotate(-90) scale(0.1 -0.1)">
      <defs>
       <path id="DejaVuSans-4f" d="M 2522 4238 
Q 1834 4238 1429 3725 
Q 1025 3213 1025 2328 
Q 1025 1447 1429 934 
Q 1834 422 2522 422 
Q 3209 422 3611 934 
Q 4013 1447 4013 2328 
Q 4013 3213 3611 3725 
Q 3209 4238 2522 4238 
z
M 2522 4750 
Q 3503 4750 4090 4092 
Q 4678 3434 4678 2328 
Q 4678 1225 4090 567 
Q 3503 -91 2522 -91 
Q 1538 -91 948 565 
Q 359 1222 359 2328 
Q 359 3434 948 4092 
Q 1538 4750 2522 4750 
z
" transform="scale(0.015625)"/>
      </defs>
      <use xlink:href="#DejaVuSans-4f"/>
      <use xlink:href="#DejaVuSans-66" transform="translate(78.710938 0)"/>
      <use xlink:href="#DejaVuSans-66" transform="translate(113.916016 0)"/>
      <use xlink:href="#DejaVuSans-73" transform="translate(149.121094 0)"/>
      <use xlink:href="#DejaVuSans-65" transform="translate(201.220703 0)"/>
      <use xlink:href="#DejaVuSans-74" transform="translate(262.744141 0)"/>
      <use xlink:href="#DejaVuSans-20" transform="translate(301.953125 0)"/>
      <use xlink:href="#DejaVuSans-28" transform="translate(333.740234 0)"/>
      <use xlink:href="#DejaVuSans-6d" transform="translate(372.753906 0)"/>
      <use xlink:href="#DejaVuSans-73" transform="translate(470.166016 0)"/>
      <use xlink:href="#DejaVuSans-29" transform="translate(522.265625 0)"/>
     </g>
    </g>
   </g>
   <g id="line2d_33">
    <path d="M 86.309024 304.805455 
L 89.940061 166.277439 
L 93.426141 134.012196 
L 96.821968 138.069502 
L 100.220881 148.69578 
L 103.600885 161.640518 
L 107.009656 166.663849 
L 110.411383 174.198845 
L 113.807187 173.61923 
L 117.222412 175.551281 
L 120.627493 174.778461 
L 124.060094 172.46 
L 127.457785 172.46 
L 130.859763 175.937691 
L 134.275087 176.517306 
L 137.680497 174.198845 
L 141.092148 176.324101 
L 144.494174 173.61923 
L 147.903089 172.84641 
L 151.308717 176.130896 
L 154.726719 173.61923 
L 158.136268 174.971666 
L 161.537194 172.46 
L 164.944035 174.971666 
L 168.35157 175.744486 
L 171.76541 175.551281 
L 175.189473 172.266795 
L 178.584268 172.84641 
L 181.986979 175.358076 
L 185.393008 174.971666 
L 188.801026 173.61923 
L 192.21101 176.324101 
L 195.62667 175.744486 
L 199.036776 173.039615 
L 202.450436 172.653205 
L 205.860654 175.937691 
L 209.264014 172.653205 
L 212.685096 175.937691 
L 216.101245 174.585255 
L 219.506792 175.164871 
L 222.911934 172.07359 
L 229.739234 175.551281 
L 233.150301 173.812435 
L 236.555959 174.39205 
L 239.967641 177.483331 
L 243.37722 171.68718 
L 246.778683 174.585255 
L 250.187084 176.324101 
L 253.595194 172.46 
L 257.007214 171.880385 
L 260.415325 176.324101 
L 263.828306 175.164871 
L 267.234273 173.61923 
L 270.645082 174.39205 
L 274.056525 175.551281 
L 277.468726 171.68718 
L 280.867768 178.062946 
L 284.283591 173.23282 
L 287.695655 172.84641 
L 291.109696 176.324101 
L 294.515704 173.812435 
L 297.914237 173.23282 
L 301.327986 175.358076 
L 304.727842 174.778461 
L 308.150082 174.39205 
L 311.558355 175.358076 
L 314.975963 172.46 
L 318.361493 174.971666 
L 321.767861 174.585255 
L 325.182442 175.358076 
L 328.608622 172.46 
L 332.014631 175.937691 
L 335.427751 172.84641 
L 338.823898 175.164871 
L 342.235382 176.710511 
L 345.644578 174.39205 
L 349.05965 173.812435 
L 352.467852 170.91436 
L 355.862752 174.778461 
L 359.271568 174.971666 
L 362.69161 175.744486 
L 366.104877 175.551281 
L 369.522547 172.266795 
L 372.941714 172.84641 
L 376.352736 175.551281 
L 379.751473 174.00564 
L 383.167031 174.585255 
L 386.58154 173.812435 
L 389.974613 175.551281 
L 393.398 175.937691 
L 396.821408 174.585255 
L 400.225344 174.00564 
L 403.624315 175.937691 
L 407.038848 172.266795 
L 410.45114 175.551281 
L 413.856093 172.46 
L 417.264661 174.971666 
L 420.677608 173.61923 
L 424.089955 173.426025 
L 427.501327 174.585255 
L 430.895002 175.937691 
L 434.315289 175.744486 
L 437.737118 174.39205 
L 441.144579 174.971666 
L 444.567779 173.039615 
L 447.973607 172.84641 
L 451.381472 174.198845 
L 454.79572 174.778461 
L 458.189232 176.710511 
L 461.617317 174.585255 
L 465.027925 172.07359 
L 468.424492 173.812435 
L 471.836275 174.585255 
L 475.251087 175.744486 
L 478.652722 174.778461 
L 482.051648 174.198845 
L 485.464566 176.130896 
L 488.87275 172.266795 
L 492.287351 174.585255 
L 495.695443 174.39205 
L 499.1047 171.30077 
L 502.514158 178.062946 
L 505.923989 175.164871 
L 509.340989 170.141539 
L 512.7528 176.710511 
L 516.171556 174.198845 
L 519.569963 174.39205 
L 522.989425 175.358076 
L 529.842429 170.52795 
L 536.6615 183.472687 
L 540.055286 172.653205 
L 543.472287 171.493975 
L 546.8688 173.039615 
L 550.290235 174.971666 
L 553.695547 174.39205 
L 557.105283 173.23282 
L 560.529525 174.198845 
L 563.924999 173.61923 
L 567.344369 176.517306 
L 570.753915 174.00564 
L 574.155572 175.164871 
L 577.565901 173.426025 
L 580.971577 174.00564 
L 584.387115 173.426025 
L 587.790173 175.551281 
L 591.207333 175.744486 
L 594.614007 172.46 
L 598.009579 175.937691 
L 601.426678 174.585255 
L 604.848395 174.198845 
L 608.253748 173.039615 
L 611.657994 175.164871 
L 615.067425 173.61923 
L 618.484052 175.358076 
L 621.894311 174.585255 
L 625.32372 174.198845 
L 628.722949 173.23282 
L 632.134647 175.164871 
L 635.539882 172.653205 
L 638.948307 174.39205 
L 642.360887 176.903716 
L 645.77007 175.937691 
L 649.180556 173.23282 
L 652.588557 173.61923 
L 656.013306 173.039615 
L 659.40536 176.130896 
L 662.818403 171.880385 
L 666.226306 175.937691 
L 669.676315 174.00564 
L 673.076688 173.426025 
L 676.472264 175.551281 
L 679.912126 175.744486 
L 683.292995 177.483331 
L 686.736001 170.141539 
L 690.126929 173.039615 
L 693.540498 173.426025 
L 696.938348 176.710511 
L 700.352796 173.23282 
L 703.763819 174.39205 
L 707.176382 175.744486 
L 710.589106 176.710511 
L 714.004053 171.493975 
L 717.388842 175.551281 
L 720.821627 172.653205 
L 724.226212 176.130896 
L 727.64471 176.710511 
L 731.045647 171.30077 
L 734.462878 172.46 
L 737.857507 175.358076 
L 741.276297 176.903716 
L 744.688399 173.812435 
L 748.097273 174.778461 
L 748.097273 174.778461 
" clip-path="url(#pfba0d63afc)" style="fill: none; stroke: #1f77b4; stroke-width: 1.5; stroke-linecap: square"/>
   </g>
   <g id="line2d_34">
    <path d="M 86.042727 40.114545 
L 89.244928 277.756749 
L 92.759309 268.289701 
L 96.329217 184.052303 
L 99.794222 141.353988 
L 103.188008 140.774373 
L 109.941507 166.663849 
L 113.332632 180.574612 
L 116.730081 180.381407 
L 120.131921 177.869741 
L 123.543677 179.801792 
L 130.367718 170.334745 
L 133.787696 175.358076 
L 137.188894 176.130896 
L 140.60711 176.517306 
L 144.02349 175.551281 
L 147.434427 173.426025 
L 150.837424 173.812435 
L 154.259382 174.39205 
L 157.667733 175.358076 
L 161.08914 173.039615 
L 164.486644 176.710511 
L 167.890062 173.61923 
L 171.304351 176.903716 
L 174.710356 174.585255 
L 178.148357 171.30077 
L 181.550465 170.721155 
L 184.959006 175.358076 
L 188.366016 175.937691 
L 191.782558 171.493975 
L 195.192121 177.869741 
L 198.61489 178.256151 
L 202.022497 174.198845 
L 205.443491 169.175514 
L 208.837087 177.290126 
L 212.260073 172.07359 
L 215.660683 176.903716 
L 219.069313 173.61923 
L 222.478087 176.903716 
L 225.892821 171.107565 
L 229.301664 172.653205 
L 232.713471 178.062946 
L 236.118936 171.880385 
L 239.526679 175.551281 
L 242.935016 176.324101 
L 246.340511 173.23282 
L 249.759495 172.653205 
L 253.151553 177.869741 
L 256.564796 170.141539 
L 259.975109 173.23282 
L 263.376514 175.551281 
L 266.78551 177.096921 
L 270.204262 173.426025 
L 273.631598 174.778461 
L 277.028277 173.23282 
L 280.422658 173.23282 
L 283.845362 175.937691 
L 287.257606 176.710511 
L 290.669094 173.23282 
L 294.068483 174.778461 
L 297.48182 173.23282 
L 300.888463 174.971666 
L 304.305196 173.812435 
L 307.709473 173.61923 
L 311.122176 174.585255 
L 314.518783 176.517306 
L 317.932427 172.46 
L 321.33724 174.971666 
L 324.754927 174.778461 
L 328.167609 176.324101 
L 331.575672 169.175514 
L 334.991169 177.483331 
L 338.401546 173.426025 
L 341.804859 175.358076 
L 345.222261 174.778461 
L 348.629026 176.130896 
L 352.037584 172.46 
L 355.459779 174.778461 
L 358.871216 172.84641 
L 362.276868 173.23282 
L 365.678279 175.744486 
L 369.097236 176.324101 
L 372.524309 173.426025 
L 375.918526 172.266795 
L 379.329383 173.426025 
L 382.720548 176.324101 
L 386.140646 175.937691 
L 389.552571 172.84641 
L 392.961404 175.551281 
L 396.37353 174.971666 
L 399.79198 175.744486 
L 403.197059 173.23282 
L 406.619122 173.23282 
L 410.009985 175.937691 
L 413.423353 174.198845 
L 416.834617 171.68718 
L 420.247439 175.937691 
L 423.668843 171.30077 
L 427.063808 174.971666 
L 430.478914 173.812435 
L 433.895406 178.835766 
L 437.305318 174.778461 
L 440.714613 173.426025 
L 444.129506 175.551281 
L 447.558059 173.61923 
L 450.952668 173.23282 
L 454.366233 170.52795 
L 457.768018 175.164871 
L 461.173136 174.39205 
L 464.578245 179.028971 
L 467.993495 174.778461 
L 471.418429 170.91436 
L 474.81427 174.39205 
L 478.212208 175.744486 
L 481.634556 174.39205 
L 485.044401 177.483331 
L 488.462407 174.198845 
L 491.865974 174.39205 
L 495.292154 170.721155 
L 498.693691 173.61923 
L 502.092635 172.266795 
L 505.508709 177.869741 
L 508.909941 178.062946 
L 512.330897 170.52795 
L 515.741223 177.096921 
L 519.144343 172.653205 
L 522.561198 172.653205 
L 525.963485 175.937691 
L 529.375268 174.778461 
L 532.783938 173.426025 
L 536.193813 165.697823 
L 539.597948 183.665893 
L 543.009866 180.574612 
L 546.4219 169.948334 
L 549.836528 173.23282 
L 553.24844 175.164871 
L 556.646976 173.426025 
L 560.085708 172.07359 
L 563.475132 172.653205 
L 566.879416 175.937691 
L 570.291389 178.642561 
L 573.700718 174.00564 
L 577.123256 172.266795 
L 580.527899 173.23282 
L 583.929331 175.937691 
L 587.34127 173.812435 
L 590.756265 173.61923 
L 594.166615 176.710511 
L 597.563532 171.68718 
L 600.985445 174.778461 
L 604.401098 175.551281 
L 607.807361 174.778461 
L 611.211082 172.46 
L 614.615161 175.551281 
L 618.042167 173.23282 
L 621.45433 175.937691 
L 624.881594 177.096921 
L 635.11584 169.368719 
L 638.520643 170.141539 
L 641.928342 174.39205 
L 645.331638 177.869741 
L 648.74048 177.096921 
L 652.157458 175.937691 
L 655.572727 175.937691 
L 658.98982 171.880385 
L 662.388763 171.68718 
L 665.797151 174.39205 
L 669.208574 176.710511 
L 676.028844 171.30077 
L 679.425489 177.676536 
L 682.832383 174.778461 
L 686.258788 177.483331 
L 689.659239 173.23282 
L 693.068812 170.721155 
L 696.490559 173.23282 
L 699.889003 176.130896 
L 703.314444 171.493975 
L 706.709259 175.937691 
L 710.118441 177.290126 
L 713.530106 175.164871 
L 716.941566 173.61923 
L 720.353672 173.426025 
L 723.756496 173.039615 
L 727.160507 176.324101 
L 730.57963 176.324101 
L 733.995358 172.84641 
L 737.390326 171.68718 
L 740.811618 176.130896 
L 744.208291 178.062946 
L 747.629511 172.84641 
L 747.629511 172.84641 
" clip-path="url(#pfba0d63afc)" style="fill: none; stroke: #ff7f0e; stroke-width: 1.5; stroke-linecap: square"/>
   </g>
   <g id="line2d_35">
    <path d="M 86.309024 170.52795 
L 89.940061 269.642137 
L 93.426141 227.909847 
L 96.821968 147.729754 
L 100.220881 115.657717 
L 103.600885 128.02284 
L 107.009656 145.990909 
L 110.411383 166.470644 
L 113.807187 179.801792 
L 117.222412 181.540637 
L 120.627493 178.256151 
L 124.060094 177.869741 
L 127.457785 173.039615 
L 130.859763 171.880385 
L 134.275087 177.483331 
L 137.680497 175.937691 
L 141.092148 178.449356 
L 144.494174 174.778461 
L 147.903089 171.880385 
L 151.308717 175.551281 
L 154.726719 173.61923 
L 158.136268 175.937691 
L 161.537194 171.107565 
L 164.944035 177.290126 
L 168.35157 174.971666 
L 171.76541 178.062946 
L 175.189473 172.46 
L 178.584268 169.755129 
L 181.986979 171.68718 
L 185.393008 175.937691 
L 188.801026 175.164871 
L 192.21101 173.426025 
L 195.62667 179.222177 
L 199.036776 176.903716 
L 202.450436 172.46 
L 205.860654 170.721155 
L 209.264014 175.551281 
L 212.685096 173.61923 
L 216.101245 177.096921 
L 219.506792 174.39205 
L 222.911934 174.585255 
L 226.32003 170.52795 
L 229.739234 173.812435 
L 233.150301 177.483331 
L 236.555959 171.880385 
L 239.967641 178.642561 
L 243.37722 173.61923 
L 246.778683 173.426025 
L 250.187084 174.585255 
L 253.595194 175.937691 
L 257.007214 167.629874 
L 260.415325 175.164871 
L 263.828306 176.324101 
L 267.234273 176.324101 
L 270.645082 173.426025 
L 274.056525 175.937691 
L 277.468726 170.52795 
L 280.867768 176.903716 
L 284.283591 174.778461 
L 287.695655 175.164871 
L 291.109696 175.164871 
L 294.515704 174.198845 
L 297.914237 172.07359 
L 301.327986 175.937691 
L 304.727842 174.198845 
L 308.150082 173.61923 
L 311.558355 175.551281 
L 314.975963 174.585255 
L 318.361493 173.039615 
L 321.767861 175.164871 
L 325.182442 175.744486 
L 328.608622 174.39205 
L 332.014631 170.721155 
L 335.427751 175.937691 
L 338.823898 174.198845 
L 342.235382 177.676536 
L 345.644578 174.778461 
L 349.05965 175.551281 
L 352.467852 168.982309 
L 355.862752 175.164871 
L 359.271568 173.426025 
L 362.69161 174.585255 
L 366.104877 176.903716 
L 369.522547 174.198845 
L 372.941714 171.880385 
L 376.352736 173.426025 
L 379.751473 173.039615 
L 383.167031 176.517306 
L 386.58154 175.358076 
L 389.974613 174.00564 
L 393.398 177.096921 
L 396.821408 175.164871 
L 400.225344 175.358076 
L 403.624315 174.778461 
L 407.038848 171.107565 
L 410.45114 177.096921 
L 413.856093 172.266795 
L 417.264661 172.266795 
L 420.677608 175.164871 
L 424.089955 170.334745 
L 427.501327 175.164871 
L 430.895002 175.358076 
L 434.315289 180.188202 
L 437.737118 174.778461 
L 441.144579 174.00564 
L 444.567779 174.198845 
L 447.973607 172.07359 
L 451.381472 173.039615 
L 454.79572 170.91436 
L 458.189232 177.483331 
L 461.617317 174.585255 
L 465.027925 176.710511 
L 468.424492 174.198845 
L 471.836275 171.107565 
L 475.251087 175.744486 
L 478.652722 176.130896 
L 482.051648 174.198845 
L 485.464566 179.222177 
L 488.87275 172.07359 
L 492.287351 174.585255 
L 495.695443 170.721155 
L 499.1047 170.52795 
L 502.514158 175.937691 
L 505.923989 178.642561 
L 509.340989 173.812435 
L 512.7528 172.84641 
L 516.171556 176.903716 
L 519.569963 172.653205 
L 522.989425 173.61923 
L 529.842429 172.07359 
L 536.6615 183.859098 
L 540.055286 171.68718 
L 543.472287 162.799748 
L 546.8688 182.313457 
L 550.290235 181.154227 
L 553.695547 169.948334 
L 557.105283 172.07359 
L 560.529525 174.971666 
L 563.924999 172.653205 
L 567.344369 174.198845 
L 570.753915 172.266795 
L 574.155572 176.710511 
L 577.565901 177.676536 
L 580.971577 173.61923 
L 584.387115 171.30077 
L 587.790173 174.39205 
L 591.207333 177.290126 
L 594.614007 171.880385 
L 598.009579 175.164871 
L 601.426678 176.903716 
L 604.848395 171.493975 
L 608.253748 173.426025 
L 611.657994 176.324101 
L 615.067425 174.00564 
L 618.484052 173.426025 
L 621.894311 175.744486 
L 625.32372 173.039615 
L 628.722949 174.778461 
L 632.134647 177.869741 
L 635.539882 167.629874 
L 638.948307 170.141539 
L 642.360887 176.903716 
L 645.77007 179.415382 
L 649.180556 175.937691 
L 652.588557 175.164871 
L 656.013306 174.585255 
L 659.40536 173.61923 
L 662.818403 169.175514 
L 666.226306 175.937691 
L 669.676315 176.324101 
L 673.076688 173.039615 
L 676.472264 172.46 
L 679.912126 179.028971 
L 683.292995 177.869741 
L 686.736001 173.23282 
L 690.126929 171.880385 
L 693.540498 169.755129 
L 696.938348 175.551281 
L 700.352796 174.971666 
L 703.763819 171.493975 
L 707.176382 177.290126 
L 710.589106 179.608587 
L 714.004053 172.266795 
L 717.388842 174.778461 
L 720.821627 171.68718 
L 724.226212 174.778461 
L 727.64471 178.642561 
L 731.045647 173.23282 
L 734.462878 170.91436 
L 737.857507 172.653205 
L 741.276297 178.642561 
L 744.688399 177.483331 
L 748.097273 173.23282 
L 748.097273 173.23282 
" clip-path="url(#pfba0d63afc)" style="fill: none; stroke-dasharray: 3.7,1.6; stroke-dashoffset: 0; stroke: #000000"/>
   </g>
   <g id="line2d_36">
    <path d="M 52.94 174.39205 
L 781.2 174.39205 
" clip-path="url(#pfba0d63afc)" style="fill: none; stroke-dasharray: 3.7,1.6; stroke-dashoffset: 0; stroke: #000000"/>
   </g>
   <g id="patch_4">
    <path d="M 52.94 318.04 
L 52.94 26.88 
" style="fill: none; stroke: #000000; stroke-width: 0.8; stroke-linejoin: miter; stroke-linecap: square"/>
   </g>
   <g id="patch_5">
    <path d="M 781.2 318.04 
L 781.2 26.88 
" style="fill: none; stroke: #000000; stroke-width: 0.8; stroke-linejoin: miter; stroke-linecap: square"/>
   </g>
   <g id="patch_6">
    <path d="M 52.94 318.04 
L 781.2 318.04 
" style="fill: none; stroke: #000000; stroke-width: 0.8; stroke-linejoin: miter; stroke-linecap: square"/>
   </g>
   <g id="patch_7">
    <path d="M 52.94 26.88 
L 781.2 26.88 
" style="fill: none; stroke: #000000; stroke-width: 0.8; stroke-linejoin: miter; stroke-linecap: square"/>
   </g>
   <g id="text_19">
    <!-- Clock sync error per neighboring pair + total -->
    <g transform="translate(282.787187 20.88) scale(0.12 -0.12)">
     <defs>
      <path id="DejaVuSans-43" d="M 4122 4306 
L 4122 3641 
Q 3803 3938 3442 4084 
Q 3081 4231 2675 4231 
Q 1875 4231 1450 3742 
Q 1025 3253 1025 2328 
Q 1025 1406 1450 917 
Q 1875 428 2675 428 
Q 3081 428 3442 575 
Q 3803 722 4122 1019 
L 4122 359 
Q 3791 134 3420 21 
Q 3050 -91 2638 -91 
Q 1578 -91 968 557 
Q 359 1206 359 2328 
Q 359 3453 968 4101 
Q 1578 4750 2638 4750 
Q 3056 4750 3426 4639 
Q 3797 4528 4122 4306 
z
" transform="scale(0.015625)"/>
      <path id="DejaVuSans-6f" d="M 1959 3097 
Q 1497 3097 1228 2736 
Q 959 2375 959 1747 
Q 959 1119 1226 758 
Q 1494 397 1959 397 
Q 2419 397 2687 759 
Q 2956 1122 2956 1747 
Q 2956 2369 2687 2733 
Q 2419 3097 1959 3097 
z
M 1959 3584 
Q 2709 3584 3137 3096 
Q 3566 2609 3566 1747 
Q 3566 888 3137 398 
Q 2709 -91 1959 -91 
Q 1206 -91 779 398 
Q 353 888 353 1747 
Q 353 2609 779 3096 
Q 1206 3584 1959 3584 
z
" transform="scale(0.015625)"/>
      <path id="DejaVuSans-6b" d="M 581 4863 
L 1159 4863 
L 1159 1991 
L 2875 3500 
L 3609 3500 
L 1753 1863 
L 3688 0 
L 2938 0 
L 1159 1709 
L 1159 0 
L 581 0 
L 581 4863 
z
" transform="scale(0.015625)"/>
      <path id="DejaVuSans-79" d="M 2059 -325 
Q 1816 -950 1584 -1140 
Q 1353 -1331 966 -1331 
L 506 -1331 
L 506 -850 
L 844 -850 
Q 1081 -850 1212 -737 
Q 1344 -625 1503 -206 
L 1606 56 
L 191 3500 
L 800 3500 
L 1894 763 
L 2988 3500 
L 3597 3500 
L 2059 -325 
z
" transform="scale(0.015625)"/>
      <path id="DejaVuSans-67" d="M 2906 1791 
Q 2906 2416 2648 2759 
Q 2391 3103 1925 3103 
Q 1463 3103 1205 2759 
Q 947 2416 947 1791 
Q 947 1169 1205 825 
Q 1463 481 1925 481 
Q 2391 481 2648 825 
Q 2906 1169 2906 1791 
z
M 3481 434 
Q 3481 -459 3084 -895 
Q 2688 -1331 1869 -1331 
Q 1566 -1331 1297 -1286 
Q 1028 -1241 775 -1147 
L 775 -588 
Q 1028 -725 1275 -790 
Q 1522 -856 1778 -856 
Q 2344 -856 2625 -561 
Q 2906 -266 2906 331 
L 2906 616 
Q 2728 306 2450 153 
Q 2172 0 1784 0 
Q 1141 0 747 490 
Q 353 981 353 1791 
Q 353 2603 747 3093 
Q 1141 3584 1784 3584 
Q 2172 3584 2450 3431 
Q 2728 3278 2906 2969 
L 2906 3500 
L 3481 3500 
L 3481 434 
z
" transform="scale(0.015625)"/>
      <path id="DejaVuSans-68" d="M 3513 2113 
L 3513 0 
L 2938 0 
L 2938 2094 
Q 2938 2591 2744 2837 
Q 2550 3084 2163 3084 
Q 1697 3084 1428 2787 
Q 1159 2491 1159 1978 
L 1159 0 
L 581 0 
L 581 4863 
L 1159 4863 
L 1159 2956 
Q 1366 3272 1645 3428 
Q 1925 3584 2291 3584 
Q 2894 3584 3203 3211 
Q 3513 2838 3513 2113 
z
" transform="scale(0.015625)"/>
      <path id="DejaVuSans-62" d="M 3116 1747 
Q 3116 2381 2855 2742 
Q 2594 3103 2138 3103 
Q 1681 3103 1420 2742 
Q 1159 2381 1159 1747 
Q 1159 1113 1420 752 
Q 1681 391 2138 391 
Q 2594 391 2855 752 
Q 3116 1113 3116 1747 
z
M 1159 2969 
Q 1341 3281 1617 3432 
Q 1894 3584 2278 3584 
Q 2916 3584 3314 3078 
Q 3713 2572 3713 1747 
Q 3713 922 3314 415 
Q 2916 -91 2278 -91 
Q 1894 -91 1617 61 
Q 1341 213 1159 525 
L 1159 0 
L 581 0 
L 581 4863 
L 1159 4863 
L 1159 2969 
z
" transform="scale(0.015625)"/>
      <path id="DejaVuSans-2b" d="M 2944 4013 
L 2944 2272 
L 4684 2272 
L 4684 1741 
L 2944 1741 
L 2944 0 
L 2419 0 
L 2419 1741 
L 678 1741 
L 678 2272 
L 2419 2272 
L 2419 4013 
L 2944 4013 
z
" transform="scale(0.015625)"/>
     </defs>
     <use xlink:href="#DejaVuSans-43"/>
     <use xlink:href="#DejaVuSans-6c" transform="translate(69.824219 0)"/>
     <use xlink:href="#DejaVuSans-6f" transform="translate(97.607422 0)"/>
     <use xlink:href="#DejaVuSans-63" transform="translate(158.789062 0)"/>
     <use xlink:href="#DejaVuSans-6b" transform="translate(213.769531 0)"/>
     <use xlink:href="#DejaVuSans-20" transform="translate(271.679688 0)"/>
     <use xlink:href="#DejaVuSans-73" transform="translate(303.466797 0)"/>
     <use xlink:href="#DejaVuSans-79" transform="translate(355.566406 0)"/>
     <use xlink:href="#DejaVuSans-6e" transform="translate(414.746094 0)"/>
     <use xlink:href="#DejaVuSans-63" transform="translate(478.125 0)"/>
     <use xlink:href="#DejaVuSans-20" transform="translate(533.105469 0)"/>
     <use xlink:href="#DejaVuSans-65" transform="translate(564.892578 0)"/>
     <use xlink:href="#DejaVuSans-72" transform="translate(626.416016 0)"/>
     <use xlink:href="#DejaVuSans-72" transform="translate(665.779297 0)"/>
     <use xlink:href="#DejaVuSans-6f" transform="translate(704.642578 0)"/>
     <use xlink:href="#DejaVuSans-72" transform="translate(765.824219 0)"/>
     <use xlink:href="#DejaVuSans-20" transform="translate(806.9375 0)"/>
     <use xlink:href="#DejaVuSans-70" transform="translate(838.724609 0)"/>
     <use xlink:href="#DejaVuSans-65" transform="translate(902.201172 0)"/>
     <use xlink:href="#DejaVuSans-72" transform="translate(963.724609 0)"/>
     <use xlink:href="#DejaVuSans-20" transform="translate(1004.837891 0)"/>
     <use xlink:href="#DejaVuSans-6e" transform="translate(1036.625 0)"/>
     <use xlink:href="#DejaVuSans-65" transform="translate(1100.003906 0)"/>
     <use xlink:href="#DejaVuSans-69" transform="translate(1161.527344 0)"/>
     <use xlink:href="#DejaVuSans-67" transform="translate(1189.310547 0)"/>
     <use xlink:href="#DejaVuSans-68" transform="translate(1252.787109 0)"/>
     <use xlink:href="#DejaVuSans-62" transform="translate(1316.166016 0)"/>
     <use xlink:href="#DejaVuSans-6f" transform="translate(1379.642578 0)"/>
     <use xlink:href="#DejaVuSans-72" transform="translate(1440.824219 0)"/>
     <use xlink:href="#DejaVuSans-69" transform="translate(1481.9375 0)"/>
     <use xlink:href="#DejaVuSans-6e" transform="translate(1509.720703 0)"/>
     <use xlink:href="#DejaVuSans-67" transform="translate(1573.099609 0)"/>
     <use xlink:href="#DejaVuSans-20" transform="translate(1636.576172 0)"/>
     <use xlink:href="#DejaVuSans-70" transform="translate(1668.363281 0)"/>
     <use xlink:href="#DejaVuSans-61" transform="translate(1731.839844 0)"/>
     <use xlink:href="#DejaVuSans-69" transform="translate(1793.119141 0)"/>
     <use xlink:href="#DejaVuSans-72" transform="translate(1820.902344 0)"/>
     <use xlink:href="#DejaVuSans-20" transform="translate(1862.015625 0)"/>
     <use xlink:href="#DejaVuSans-2b" transform="translate(1893.802734 0)"/>
     <use xlink:href="#DejaVuSans-20" transform="translate(1977.591797 0)"/>
     <use xlink:href="#DejaVuSans-74" transform="translate(2009.378906 0)"/>
     <use xlink:href="#DejaVuSans-6f" transform="translate(2048.587891 0)"/>
     <use xlink:href="#DejaVuSans-74" transform="translate(2109.769531 0)"/>
     <use xlink:href="#DejaVuSans-61" transform="translate(2148.978516 0)"/>
     <use xlink:href="#DejaVuSans-6c" transform="translate(2210.257812 0)"/>
    </g>
   </g>
   <g id="legend_1">
    <g id="patch_8">
     <path d="M 683.640625 93.5925 
L 774.2 93.5925 
Q 776.2 93.5925 776.2 91.5925 
L 776.2 33.88 
Q 776.2 31.88 774.2 31.88 
L 683.640625 31.88 
Q 681.640625 31.88 681.640625 33.88 
L 681.640625 91.5925 
Q 681.640625 93.5925 683.640625 93.5925 
z
" style="fill: #ffffff; opacity: 0.8; stroke: #cccccc; stroke-linejoin: miter"/>
    </g>
    <g id="text_20">
     <!-- Series -->
     <g transform="translate(713.54375 43.478437) scale(0.1 -0.1)">
      <defs>
       <path id="DejaVuSans-53" d="M 3425 4513 
L 3425 3897 
Q 3066 4069 2747 4153 
Q 2428 4238 2131 4238 
Q 1616 4238 1336 4038 
Q 1056 3838 1056 3469 
Q 1056 3159 1242 3001 
Q 1428 2844 1947 2747 
L 2328 2669 
Q 3034 2534 3370 2195 
Q 3706 1856 3706 1288 
Q 3706 609 3251 259 
Q 2797 -91 1919 -91 
Q 1588 -91 1214 -16 
Q 841 59 441 206 
L 441 856 
Q 825 641 1194 531 
Q 1563 422 1919 422 
Q 2459 422 2753 634 
Q 3047 847 3047 1241 
Q 3047 1584 2836 1778 
Q 2625 1972 2144 2069 
L 1759 2144 
Q 1053 2284 737 2584 
Q 422 2884 422 3419 
Q 422 4038 858 4394 
Q 1294 4750 2059 4750 
Q 2388 4750 2728 4690 
Q 3069 4631 3425 4513 
z
" transform="scale(0.015625)"/>
      </defs>
      <use xlink:href="#DejaVuSans-53"/>
      <use xlink:href="#DejaVuSans-65" transform="translate(63.476562 0)"/>
      <use xlink:href="#DejaVuSans-72" transform="translate(125 0)"/>
      <use xlink:href="#DejaVuSans-69" transform="translate(166.113281 0)"/>
      <use xlink:href="#DejaVuSans-65" transform="translate(193.896484 0)"/>
      <use xlink:href="#DejaVuSans-73" transform="translate(255.419922 0)"/>
     </g>
    </g>
    <g id="line2d_37">
     <path d="M 685.640625 54.656563 
L 695.640625 54.656563 
L 705.640625 54.656563 
" style="fill: none; stroke: #1f77b4; stroke-width: 1.5; stroke-linecap: square"/>
    </g>
    <g id="text_21">
     <!-- 0-&gt;1 -->
     <g transform="translate(713.640625 58.156563) scale(0.1 -0.1)">
      <defs>
       <path id="DejaVuSans-2d" d="M 313 2009 
L 1997 2009 
L 1997 1497 
L 313 1497 
L 313 2009 
z
" transform="scale(0.015625)"/>
       <path id="DejaVuSans-3e" d="M 678 3150 
L 678 3719 
L 4684 2266 
L 4684 1747 
L 678 294 
L 678 863 
L 3897 2003 
L 678 3150 
z
" transform="scale(0.015625)"/>
      </defs>
      <use xlink:href="#DejaVuSans-30"/>
      <use xlink:href="#DejaVuSans-2d" transform="translate(63.623047 0)"/>
      <use xlink:href="#DejaVuSans-3e" transform="translate(99.707031 0)"/>
      <use xlink:href="#DejaVuSans-31" transform="translate(183.496094 0)"/>
     </g>
    </g>
    <g id="line2d_38">
     <path d="M 685.640625 69.334688 
L 695.640625 69.334688 
L 705.640625 69.334688 
" style="fill: none; stroke: #ff7f0e; stroke-width: 1.5; stroke-linecap: square"/>
    </g>
    <g id="text_22">
     <!-- 1-&gt;2 -->
     <g transform="translate(713.640625 72.834688) scale(0.1 -0.1)">
      <use xlink:href="#DejaVuSans-31"/>
      <use xlink:href="#DejaVuSans-2d" transform="translate(63.623047 0)"/>
      <use xlink:href="#DejaVuSans-3e" transform="translate(99.707031 0)"/>
      <use xlink:href="#DejaVuSans-32" transform="translate(183.496094 0)"/>
     </g>
    </g>
    <g id="line2d_39">
     <path d="M 685.640625 84.012812 
L 695.640625 84.012812 
L 705.640625 84.012812 
" style="fill: none; stroke-dasharray: 3.7,1.6; stroke-dashoffset: 0; stroke: #000000"/>
    </g>
    <g id="text_23">
     <!-- 0-&gt;2 (total) -->
     <g transform="translate(713.640625 87.512812) scale(0.1 -0.1)">
      <use xlink:href="#DejaVuSans-30"/>
      <use xlink:href="#DejaVuSans-2d" transform="translate(63.623047 0)"/>
      <use xlink:href="#DejaVuSans-3e" transform="translate(99.707031 0)"/>
      <use xlink:href="#DejaVuSans-32" transform="translate(183.496094 0)"/>
      <use xlink:href="#DejaVuSans-20" transform="translate(247.119141 0)"/>
      <use xlink:href="#DejaVuSans-28" transform="translate(278.90625 0)"/>
      <use xlink:href="#DejaVuSans-74" transform="translate(317.919922 0)"/>
      <use xlink:href="#DejaVuSans-6f" transform="translate(357.128906 0)"/>
      <use xlink:href="#DejaVuSans-74" transform="translate(418.310547 0)"/>
      <use xlink:href="#DejaVuSans-61" transform="translate(457.519531 0)"/>
      <use xlink:href="#DejaVuSans-6c" transform="translate(518.798828 0)"/>
      <use xlink:href="#DejaVuSans-29" transform="translate(546.582031 0)"/>
     </g>
    </g>
   </g>
  </g>
  <g id="axes_2">
   <g id="patch_9">
    <path d="M 457.1243 287.4682 
L 668.3197 287.4682 
L 668.3197 203.0318 
L 457.1243 203.0318 
z
" style="fill: #ffffff"/>
   </g>
   <g id="patch_10">
    <path d="M 668.3197 203.0318 
L 456.793273 162.931127 
" style="fill: none; stroke: #595959; stroke-width: 0.9; stroke-linejoin: miter"/>
   </g>
   <g id="patch_11">
    <path d="M 457.1243 287.4682 
L 377.346727 181.988873 
" style="fill: none; stroke: #595959; stroke-width: 0.9; stroke-linejoin: miter"/>
   </g>
   <g id="matplotlib.axis_3">
    <g id="xtick_10">
     <g id="line2d_40">
      <path d="M 494.974261 287.4682 
L 494.974261 203.0318 
" clip-path="url(#p60b032e48a)" style="fill: none; stroke-dasharray: 0.8,1.32; stroke-dashoffset: 0; stroke: #b0b0b0; stroke-opacity: 0.4; stroke-width: 0.8"/>
     </g>
     <g id="line2d_41">
      <g>
       <use xlink:href="#m1e2e776076" x="494.974261" y="287.4682" style="stroke: #000000; stroke-width: 0.8"/>
      </g>
     </g>
     <g id="text_24">
      <!-- 90 -->
      <g transform="translate(489.884261 300.54695) scale(0.08 -0.08)">
       <defs>
        <path id="DejaVuSans-39" d="M 703 97 
L 703 672 
Q 941 559 1184 500 
Q 1428 441 1663 441 
Q 2288 441 2617 861 
Q 2947 1281 2994 2138 
Q 2813 1869 2534 1725 
Q 2256 1581 1919 1581 
Q 1219 1581 811 2004 
Q 403 2428 403 3163 
Q 403 3881 828 4315 
Q 1253 4750 1959 4750 
Q 2769 4750 3195 4129 
Q 3622 3509 3622 2328 
Q 3622 1225 3098 567 
Q 2575 -91 1691 -91 
Q 1453 -91 1209 -44 
Q 966 3 703 97 
z
M 1959 2075 
Q 2384 2075 2632 2365 
Q 2881 2656 2881 3163 
Q 2881 3666 2632 3958 
Q 2384 4250 1959 4250 
Q 1534 4250 1286 3958 
Q 1038 3666 1038 3163 
Q 1038 2656 1286 2365 
Q 1534 2075 1959 2075 
z
" transform="scale(0.015625)"/>
       </defs>
       <use xlink:href="#DejaVuSans-39"/>
       <use xlink:href="#DejaVuSans-30" transform="translate(63.623047 0)"/>
      </g>
     </g>
    </g>
    <g id="xtick_11">
     <g id="line2d_42">
      <path d="M 540.098322 287.4682 
L 540.098322 203.0318 
" clip-path="url(#p60b032e48a)" style="fill: none; stroke-dasharray: 0.8,1.32; stroke-dashoffset: 0; stroke: #b0b0b0; stroke-opacity: 0.4; stroke-width: 0.8"/>
     </g>
     <g id="line2d_43">
      <g>
       <use xlink:href="#m1e2e776076" x="540.098322" y="287.4682" style="stroke: #000000; stroke-width: 0.8"/>
      </g>
     </g>
     <g id="text_25">
      <!-- 95 -->
      <g transform="translate(535.008322 300.54695) scale(0.08 -0.08)">
       <use xlink:href="#DejaVuSans-39"/>
       <use xlink:href="#DejaVuSans-35" transform="translate(63.623047 0)"/>
      </g>
     </g>
    </g>
    <g id="xtick_12">
     <g id="line2d_44">
      <path d="M 585.222383 287.4682 
L 585.222383 203.0318 
" clip-path="url(#p60b032e48a)" style="fill: none; stroke-dasharray: 0.8,1.32; stroke-dashoffset: 0; stroke: #b0b0b0; stroke-opacity: 0.4; stroke-width: 0.8"/>
     </g>
     <g id="line2d_45">
      <g>
       <use xlink:href="#m1e2e776076" x="585.222383" y="287.4682" style="stroke: #000000; stroke-width: 0.8"/>
      </g>
     </g>
     <g id="text_26">
      <!-- 100 -->
      <g transform="translate(577.587383 300.54695) scale(0.08 -0.08)">
       <use xlink:href="#DejaVuSans-31"/>
       <use xlink:href="#DejaVuSans-30" transform="translate(63.623047 0)"/>
       <use xlink:href="#DejaVuSans-30" transform="translate(127.246094 0)"/>
      </g>
     </g>
    </g>
    <g id="xtick_13">
     <g id="line2d_46">
      <path d="M 630.346443 287.4682 
L 630.346443 203.0318 
" clip-path="url(#p60b032e48a)" style="fill: none; stroke-dasharray: 0.8,1.32; stroke-dashoffset: 0; stroke: #b0b0b0; stroke-opacity: 0.4; stroke-width: 0.8"/>
     </g>
     <g id="line2d_47">
      <g>
       <use xlink:href="#m1e2e776076" x="630.346443" y="287.4682" style="stroke: #000000; stroke-width: 0.8"/>
      </g>
     </g>
     <g id="text_27">
      <!-- 105 -->
      <g transform="translate(622.711443 300.54695) scale(0.08 -0.08)">
       <use xlink:href="#DejaVuSans-31"/>
       <use xlink:href="#DejaVuSans-30" transform="translate(63.623047 0)"/>
       <use xlink:href="#DejaVuSans-35" transform="translate(127.246094 0)"/>
      </g>
     </g>
    </g>
   </g>
   <g id="matplotlib.axis_4">
    <g id="ytick_8">
     <g id="line2d_48">
      <path d="M 457.1243 270.93017 
L 668.3197 270.93017 
" clip-path="url(#p60b032e48a)" style="fill: none; stroke-dasharray: 0.8,1.32; stroke-dashoffset: 0; stroke: #b0b0b0; stroke-opacity: 0.4; stroke-width: 0.8"/>
     </g>
     <g id="line2d_49">
      <g>
       <use xlink:href="#m2047aef329" x="457.1243" y="270.93017" style="stroke: #000000; stroke-width: 0.8"/>
      </g>
     </g>
     <g id="text_28">
      <!-- −2 -->
      <g transform="translate(438.33055 273.969545) scale(0.08 -0.08)">
       <use xlink:href="#DejaVuSans-2212"/>
       <use xlink:href="#DejaVuSans-32" transform="translate(83.789062 0)"/>
      </g>
     </g>
    </g>
    <g id="ytick_9">
     <g id="line2d_50">
      <path d="M 457.1243 253.810057 
L 668.3197 253.810057 
" clip-path="url(#p60b032e48a)" style="fill: none; stroke-dasharray: 0.8,1.32; stroke-dashoffset: 0; stroke: #b0b0b0; stroke-opacity: 0.4; stroke-width: 0.8"/>
     </g>
     <g id="line2d_51">
      <g>
       <use xlink:href="#m2047aef329" x="457.1243" y="253.810057" style="stroke: #000000; stroke-width: 0.8"/>
      </g>
     </g>
     <g id="text_29">
      <!-- 0 -->
      <g transform="translate(445.0343 256.849432) scale(0.08 -0.08)">
       <use xlink:href="#DejaVuSans-30"/>
      </g>
     </g>
    </g>
    <g id="ytick_10">
     <g id="line2d_52">
      <path d="M 457.1243 236.689943 
L 668.3197 236.689943 
" clip-path="url(#p60b032e48a)" style="fill: none; stroke-dasharray: 0.8,1.32; stroke-dashoffset: 0; stroke: #b0b0b0; stroke-opacity: 0.4; stroke-width: 0.8"/>
     </g>
     <g id="line2d_53">
      <g>
       <use xlink:href="#m2047aef329" x="457.1243" y="236.689943" style="stroke: #000000; stroke-width: 0.8"/>
      </g>
     </g>
     <g id="text_30">
      <!-- 2 -->
      <g transform="translate(445.0343 239.729318) scale(0.08 -0.08)">
       <use xlink:href="#DejaVuSans-32"/>
      </g>
     </g>
    </g>
    <g id="ytick_11">
     <g id="line2d_54">
      <path d="M 457.1243 219.56983 
L 668.3197 219.56983 
" clip-path="url(#p60b032e48a)" style="fill: none; stroke-dasharray: 0.8,1.32; stroke-dashoffset: 0; stroke: #b0b0b0; stroke-opacity: 0.4; stroke-width: 0.8"/>
     </g>
     <g id="line2d_55">
      <g>
       <use xlink:href="#m2047aef329" x="457.1243" y="219.56983" style="stroke: #000000; stroke-width: 0.8"/>
      </g>
     </g>
     <g id="text_31">
      <!-- 4 -->
      <g transform="translate(445.0343 222.609205) scale(0.08 -0.08)">
       <use xlink:href="#DejaVuSans-34"/>
      </g>
     </g>
    </g>
   </g>
   <g id="line2d_56">
    <path d="M -1 257.034875 
L 1.257156 260.658102 
L 10.304421 246.106006 
L 19.398797 260.658102 
L 28.480059 254.666062 
L 37.533138 257.234079 
L 46.585141 243.537989 
L 64.734381 258.946091 
L 73.802133 251.24204 
L 82.855508 253.810057 
L 91.924895 267.506148 
L 100.988693 241.825977 
L 110.030915 254.666062 
L 119.091582 262.370114 
L 128.151474 245.25 
L 137.221761 242.681983 
L 146.281655 262.370114 
L 155.354497 257.234079 
L 164.408692 250.386034 
L 173.475759 253.810057 
L 182.544513 258.946091 
L 191.615281 241.825977 
L 200.651067 270.074165 
L 209.731463 248.674023 
L 218.801867 246.962011 
L 227.877526 262.370114 
L 236.931831 251.24204 
L 245.966263 248.674023 
L 255.041145 258.090085 
L 264.079098 255.522068 
L 273.176551 253.810057 
L 282.236876 258.090085 
L 291.322017 245.25 
L 300.321885 256.378074 
L 309.377148 254.666062 
L 318.454242 258.090085 
L 327.562171 245.25 
L 336.616476 260.658102 
L 345.689689 246.962011 
L 354.717778 257.234079 
L 363.786639 264.082125 
L 372.84942 253.810057 
L 381.92782 251.24204 
L 390.987956 238.401955 
L 400.012732 255.522068 
L 409.074501 256.378074 
L 418.166114 259.802097 
L 427.239714 258.946091 
L 436.325021 244.393994 
L 445.414306 246.962011 
L 454.481941 258.946091 
L 463.516915 252.098045 
L 472.596606 254.666062 
L 481.673511 251.24204 
L 490.69343 258.946091 
L 499.793934 260.658102 
L 508.894492 254.666062 
L 517.943291 252.098045 
L 526.978887 260.658102 
L 536.055854 244.393994 
L 545.126865 258.946091 
L 554.178364 245.25 
L 563.239473 256.378074 
L 572.312225 250.386034 
L 581.38338 249.530028 
L 590.451945 254.666062 
L 599.473462 260.658102 
L 608.565726 259.802097 
L 617.662088 253.810057 
L 626.720255 256.378074 
L 635.820262 247.818017 
L 644.874088 246.962011 
L 653.933331 252.954051 
L 663.009538 255.522068 
L 672.030624 264.082125 
L 681.143618 254.666062 
L 690.210152 243.537989 
L 699.239358 251.24204 
L 708.309015 254.666062 
L 717.386722 259.802097 
L 726.429402 255.522068 
L 735.464882 252.954051 
L 744.537554 261.514108 
L 753.597643 244.393994 
L 762.674791 254.666062 
L 771.734636 253.810057 
L 780.797579 240.113966 
L 789.861052 270.074165 
L 793 265.627753 
L 793 265.627753 
" clip-path="url(#p60b032e48a)" style="fill: none; stroke: #1f77b4; stroke-linecap: square"/>
   </g>
   <g id="line2d_57">
    <path d="M -1 233.507891 
L 0.148196 230.697903 
L 9.169505 266.650142 
L 18.268944 243.537989 
L 27.3089 264.938131 
L 36.370172 250.386034 
L 45.431832 264.938131 
L 54.509333 239.25796 
L 63.571173 246.106006 
L 72.640893 270.074165 
L 81.693754 242.681983 
L 90.752671 258.946091 
L 99.813166 262.370114 
L 108.86611 248.674023 
L 117.954906 246.106006 
L 126.97213 269.218159 
L 136.045667 234.977932 
L 145.111415 248.674023 
L 154.153483 258.946091 
L 163.21573 265.794136 
L 172.303914 249.530028 
L 181.414914 255.522068 
L 190.444419 248.674023 
L 199.467815 248.674023 
L 208.566503 260.658102 
L 217.637387 264.082125 
L 226.706259 248.674023 
L 235.742966 255.522068 
L 244.816755 248.674023 
L 253.872747 256.378074 
L 262.955562 251.24204 
L 272.005265 250.386034 
L 281.077367 254.666062 
L 290.106682 263.226119 
L 299.181285 245.25 
L 308.232414 256.378074 
L 317.317764 255.522068 
L 326.389812 262.370114 
L 335.449578 230.697903 
L 344.529107 267.506148 
L 353.595027 249.530028 
L 362.642168 258.090085 
L 371.72676 255.522068 
L 380.783077 261.514108 
L 389.84416 245.25 
L 398.941495 255.522068 
L 408.010231 246.962011 
L 417.06359 248.674023 
L 426.105674 259.802097 
L 435.194402 262.370114 
L 444.304704 249.530028 
L 453.327666 244.393994 
L 462.39486 249.530028 
L 471.409708 262.370114 
L 480.501467 260.658102 
L 489.571501 246.962011 
L 498.633316 258.946091 
L 507.703884 256.378074 
L 516.791265 259.802097 
L 525.843098 248.674023 
L 534.940082 248.674023 
L 543.954127 260.658102 
L 553.027997 252.954051 
L 562.096273 241.825977 
L 571.168692 260.658102 
L 580.263924 240.113966 
L 589.288872 256.378074 
L 598.367364 251.24204 
L 607.449538 273.498187 
L 616.514221 255.522068 
L 625.577262 249.530028 
L 634.655186 258.946091 
L 643.769424 250.386034 
L 652.793425 248.674023 
L 661.867819 236.689943 
L 670.910897 257.234079 
L 679.962837 253.810057 
L 689.014752 274.354193 
L 698.093623 255.522068 
L 707.198241 238.401955 
L 716.225517 253.810057 
L 725.25837 259.802097 
L 734.356111 253.810057 
L 743.420615 267.506148 
L 752.506815 252.954051 
L 761.554631 253.810057 
L 770.66256 237.545949 
L 779.70498 250.386034 
L 788.740505 244.393994 
L 793 256.037829 
L 793 256.037829 
" clip-path="url(#p60b032e48a)" style="fill: none; stroke: #ff7f0e; stroke-linecap: square"/>
   </g>
   <g id="line2d_58">
    <path d="M -1 239.464128 
L 1.257156 237.545949 
L 10.304421 258.946091 
L 19.398797 250.386034 
L 28.480059 265.794136 
L 37.533138 253.810057 
L 46.585141 254.666062 
L 55.644997 236.689943 
L 64.734381 251.24204 
L 73.802133 267.506148 
L 82.855508 242.681983 
L 91.924895 272.642182 
L 100.988693 250.386034 
L 110.030915 249.530028 
L 119.091582 254.666062 
L 128.151474 260.658102 
L 137.221761 223.849858 
L 146.281655 257.234079 
L 155.354497 262.370114 
L 164.408692 262.370114 
L 173.475759 249.530028 
L 182.544513 260.658102 
L 191.615281 236.689943 
L 200.651067 264.938131 
L 209.731463 255.522068 
L 218.801867 257.234079 
L 227.877526 257.234079 
L 236.931831 252.954051 
L 245.966263 243.537989 
L 255.041145 260.658102 
L 264.079098 252.954051 
L 273.176551 250.386034 
L 282.236876 258.946091 
L 291.322017 254.666062 
L 300.321885 247.818017 
L 309.377148 257.234079 
L 318.454242 259.802097 
L 327.562171 253.810057 
L 336.616476 237.545949 
L 345.689689 260.658102 
L 354.717778 252.954051 
L 363.786639 268.362153 
L 372.84942 255.522068 
L 381.92782 258.946091 
L 390.987956 229.841898 
L 400.012732 257.234079 
L 409.074501 249.530028 
L 418.166114 254.666062 
L 427.239714 264.938131 
L 436.325021 252.954051 
L 445.414306 242.681983 
L 454.481941 249.530028 
L 463.516915 247.818017 
L 472.596606 263.226119 
L 481.673511 258.090085 
L 490.69343 252.098045 
L 499.793934 265.794136 
L 508.894492 257.234079 
L 517.943291 258.090085 
L 526.978887 255.522068 
L 536.055854 239.25796 
L 545.126865 265.794136 
L 554.178364 244.393994 
L 563.239473 244.393994 
L 572.312225 257.234079 
L 581.38338 235.833938 
L 590.451945 257.234079 
L 599.473462 258.090085 
L 608.565726 279.490227 
L 617.662088 255.522068 
L 626.720255 252.098045 
L 635.820262 252.954051 
L 644.874088 243.537989 
L 653.933331 247.818017 
L 663.009538 238.401955 
L 672.030624 267.506148 
L 681.143618 254.666062 
L 690.210152 264.082125 
L 699.239358 252.954051 
L 708.309015 239.25796 
L 717.386722 259.802097 
L 726.429402 261.514108 
L 735.464882 252.954051 
L 744.537554 275.210199 
L 753.597643 243.537989 
L 762.674791 254.666062 
L 771.734636 237.545949 
L 780.797579 236.689943 
L 789.861052 260.658102 
L 793 264.808087 
L 793 264.808087 
" clip-path="url(#p60b032e48a)" style="fill: none; stroke-dasharray: 3.7,1.6; stroke-dashoffset: 0; stroke: #000000"/>
   </g>
   <g id="patch_12">
    <path d="M 457.1243 287.4682 
L 457.1243 203.0318 
" style="fill: none; stroke: #000000; stroke-width: 0.8; stroke-linejoin: miter; stroke-linecap: square"/>
   </g>
   <g id="patch_13">
    <path d="M 668.3197 287.4682 
L 668.3197 203.0318 
" style="fill: none; stroke: #000000; stroke-width: 0.8; stroke-linejoin: miter; stroke-linecap: square"/>
   </g>
   <g id="patch_14">
    <path d="M 457.1243 287.4682 
L 668.3197 287.4682 
" style="fill: none; stroke: #000000; stroke-width: 0.8; stroke-linejoin: miter; stroke-linecap: square"/>
   </g>
   <g id="patch_15">
    <path d="M 457.1243 203.0318 
L 668.3197 203.0318 
" style="fill: none; stroke: #000000; stroke-width: 0.8; stroke-linejoin: miter; stroke-linecap: square"/>
   </g>
   <g id="text_32">
    <!-- Zoom -->
    <g transform="translate(549.749344 197.0318) scale(0.09 -0.09)">
     <defs>
      <path id="DejaVuSans-5a" d="M 359 4666 
L 4025 4666 
L 4025 4184 
L 1075 531 
L 4097 531 
L 4097 0 
L 288 0 
L 288 481 
L 3238 4134 
L 359 4134 
L 359 4666 
z
" transform="scale(0.015625)"/>
     </defs>
     <use xlink:href="#DejaVuSans-5a"/>
     <use xlink:href="#DejaVuSans-6f" transform="translate(68.505859 0)"/>
     <use xlink:href="#DejaVuSans-6f" transform="translate(129.6875 0)"/>
     <use xlink:href="#DejaVuSans-6d" transform="translate(190.869141 0)"/>
    </g>
   </g>
  </g>
 </g>
 <defs>
  <clipPath id="pfba0d63afc">
   <rect x="52.94" y="26.88" width="728.26" height="291.16"/>
  </clipPath>
  <clipPath id="p60b032e48a">
   <rect x="457.1243" y="203.0318" width="211.1954" height="84.4364"/>
  </clipPath>
 </defs>
</svg>
