<?xml version="1.0" encoding="utf-8" standalone="no"?>
<!DOCTYPE svg PUBLIC "-//W3C//DTD SVG 1.1//EN"
  "http://www.w3.org/Graphics/SVG/1.1/DTD/svg11.dtd">
<svg xmlns:xlink="http://www.w3.org/1999/xlink" width="792pt" height="648pt" viewBox="0 0 792 648" xmlns="http://www.w3.org/2000/svg" version="1.1">
 <metadata>
  <rdf:RDF xmlns:dc="http://purl.org/dc/elements/1.1/" xmlns:cc="http://creativecommons.org/ns#" xmlns:rdf="http://www.w3.org/1999/02/22-rdf-syntax-ns#">
   <cc:Work>
    <dc:type rdf:resource="http://purl.org/dc/dcmitype/StillImage"/>
    <dc:date>2026-03-08T22:54:51.494722</dc:date>
    <dc:format>image/svg+xml</dc:format>
    <dc:creator>
     <cc:Agent>
      <dc:title>Matplotlib v3.10.8, https://matplotlib.org/</dc:title>
     </cc:Agent>
    </dc:creator>
   </cc:Work>
  </rdf:RDF>
 </metadata>
 <defs>
  <style type="text/css">*{stroke-linejoin: round; stroke-linecap: butt}</style>
 </defs>
 <g id="figure_1">
  <g id="patch_1">
   <path d="M 0 648 
L 792 648 
L 792 0 
L 0 0 
z
" style="fill: #ffffff"/>
  </g>
  <g id="axes_1">
   <g id="patch_2">
    <path d="M 46.55 382.213333 
L 778.05 382.213333 
L 778.05 50.64 
L 46.55 50.64 
z
" style="fill: #ffffff"/>
   </g>
   <g id="matplotlib.axis_1">
    <g id="xtick_1">
     <g id="line2d_1">
      <path d="M 72.836649 382.213333 
L 72.836649 50.64 
" clip-path="url(#pd58ea1cc0e)" style="fill: none; stroke-dasharray: 0.8,1.32; stroke-dashoffset: 0; stroke: #b0b0b0; stroke-opacity: 0.5; stroke-width: 0.8"/>
     </g>
     <g id="line2d_2">
      <defs>
       <path id="me150f8d435" d="M 0 0 
L 0 3.5 
" style="stroke: #000000; stroke-width: 0.8"/>
      </defs>
      <g>
       <use xlink:href="#me150f8d435" x="72.836649" y="382.213333" style="stroke: #000000; stroke-width: 0.8"/>
      </g>
     </g>
     <g id="text_1">
      <!-- 0 -->
      <g transform="translate(69.655399 396.811771) scale(0.1 -0.1)">
       <defs>
        <path id="DejaVuSans-30" d="M 2034 4250 
Q 1547 4250 1301 3770 
Q 1056 3291 1056 2328 
Q 1056 1369 1301 889 
Q 1547 409 2034 409 
Q 2525 409 2770 889 
Q 3016 1369 3016 2328 
Q 3016 3291 2770 3770 
Q 2525 4250 2034 4250 
z
M 2034 4750 
Q 2819 4750 3233 4129 
Q 3647 3509 3647 2328 
Q 3647 1150 3233 529 
Q 2819 -91 2034 -91 
Q 1250 -91 836 529 
Q 422 1150 422 2328 
Q 422 3509 836 4129 
Q 1250 4750 2034 4750 
z
" transform="scale(0.015625)"/>
       </defs>
       <use xlink:href="#DejaVuSans-30"/>
      </g>
     </g>
    </g>
    <g id="xtick_2">
     <g id="line2d_3">
      <path d="M 159.878534 382.213333 
L 159.878534 50.64 
" clip-path="url(#pd58ea1cc0e)" style="fill: none; stroke-dasharray: 0.8,1.32; stroke-dashoffset: 0; stroke: #b0b0b0; stroke-opacity: 0.5; stroke-width: 0.8"/>
     </g>
     <g id="line2d_4">
      <g>
       <use xlink:href="#me150f8d435" x="159.878534" y="382.213333" style="stroke: #000000; stroke-width: 0.8"/>
      </g>
     </g>
     <g id="text_2">
      <!-- 25 -->
      <g transform="translate(153.516034 396.811771) scale(0.1 -0.1)">
       <defs>
        <path id="DejaVuSans-32" d="M 1228 531 
L 3431 531 
L 3431 0 
L 469 0 
L 469 531 
Q 828 903 1448 1529 
Q 2069 2156 2228 2338 
Q 2531 2678 2651 2914 
Q 2772 3150 2772 3378 
Q 2772 3750 2511 3984 
Q 2250 4219 1831 4219 
Q 1534 4219 1204 4116 
Q 875 4013 500 3803 
L 500 4441 
Q 881 4594 1212 4672 
Q 1544 4750 1819 4750 
Q 2544 4750 2975 4387 
Q 3406 4025 3406 3419 
Q 3406 3131 3298 2873 
Q 3191 2616 2906 2266 
Q 2828 2175 2409 1742 
Q 1991 1309 1228 531 
z
" transform="scale(0.015625)"/>
        <path id="DejaVuSans-35" d="M 691 4666 
L 3169 4666 
L 3169 4134 
L 1269 4134 
L 1269 2991 
Q 1406 3038 1543 3061 
Q 1681 3084 1819 3084 
Q 2600 3084 3056 2656 
Q 3513 2228 3513 1497 
Q 3513 744 3044 326 
Q 2575 -91 1722 -91 
Q 1428 -91 1123 -41 
Q 819 9 494 109 
L 494 744 
Q 775 591 1075 516 
Q 1375 441 1709 441 
Q 2250 441 2565 725 
Q 2881 1009 2881 1497 
Q 2881 1984 2565 2268 
Q 2250 2553 1709 2553 
Q 1456 2553 1204 2497 
Q 953 2441 691 2322 
L 691 4666 
z
" transform="scale(0.015625)"/>
       </defs>
       <use xlink:href="#DejaVuSans-32"/>
       <use xlink:href="#DejaVuSans-35" transform="translate(63.623047 0)"/>
      </g>
     </g>
    </g>
    <g id="xtick_3">
     <g id="line2d_5">
      <path d="M 246.920419 382.213333 
L 246.920419 50.64 
" clip-path="url(#pd58ea1cc0e)" style="fill: none; stroke-dasharray: 0.8,1.32; stroke-dashoffset: 0; stroke: #b0b0b0; stroke-opacity: 0.5; stroke-width: 0.8"/>
     </g>
     <g id="line2d_6">
      <g>
       <use xlink:href="#me150f8d435" x="246.920419" y="382.213333" style="stroke: #000000; stroke-width: 0.8"/>
      </g>
     </g>
     <g id="text_3">
      <!-- 50 -->
      <g transform="translate(240.557919 396.811771) scale(0.1 -0.1)">
       <use xlink:href="#DejaVuSans-35"/>
       <use xlink:href="#DejaVuSans-30" transform="translate(63.623047 0)"/>
      </g>
     </g>
    </g>
    <g id="xtick_4">
     <g id="line2d_7">
      <path d="M 333.962304 382.213333 
L 333.962304 50.64 
" clip-path="url(#pd58ea1cc0e)" style="fill: none; stroke-dasharray: 0.8,1.32; stroke-dashoffset: 0; stroke: #b0b0b0; stroke-opacity: 0.5; stroke-width: 0.8"/>
     </g>
     <g id="line2d_8">
      <g>
       <use xlink:href="#me150f8d435" x="333.962304" y="382.213333" style="stroke: #000000; stroke-width: 0.8"/>
      </g>
     </g>
     <g id="text_4">
      <!-- 75 -->
      <g transform="translate(327.599804 396.811771) scale(0.1 -0.1)">
       <defs>
        <path id="DejaVuSans-37" d="M 525 4666 
L 3525 4666 
L 3525 4397 
L 1831 0 
L 1172 0 
L 2766 4134 
L 525 4134 
L 525 4666 
z
" transform="scale(0.015625)"/>
       </defs>
       <use xlink:href="#DejaVuSans-37"/>
       <use xlink:href="#DejaVuSans-35" transform="translate(63.623047 0)"/>
      </g>
     </g>
    </g>
    <g id="xtick_5">
     <g id="line2d_9">
      <path d="M 421.004188 382.213333 
L 421.004188 50.64 
" clip-path="url(#pd58ea1cc0e)" style="fill: none; stroke-dasharray: 0.8,1.32; stroke-dashoffset: 0; stroke: #b0b0b0; stroke-opacity: 0.5; stroke-width: 0.8"/>
     </g>
     <g id="line2d_10">
      <g>
       <use xlink:href="#me150f8d435" x="421.004188" y="382.213333" style="stroke: #000000; stroke-width: 0.8"/>
      </g>
     </g>
     <g id="text_5">
      <!-- 100 -->
      <g transform="translate(411.460438 396.811771) scale(0.1 -0.1)">
       <defs>
        <path id="DejaVuSans-31" d="M 794 531 
L 1825 531 
L 1825 4091 
L 703 3866 
L 703 4441 
L 1819 4666 
L 2450 4666 
L 2450 531 
L 3481 531 
L 3481 0 
L 794 0 
L 794 531 
z
" transform="scale(0.015625)"/>
       </defs>
       <use xlink:href="#DejaVuSans-31"/>
       <use xlink:href="#DejaVuSans-30" transform="translate(63.623047 0)"/>
       <use xlink:href="#DejaVuSans-30" transform="translate(127.246094 0)"/>
      </g>
     </g>
    </g>
    <g id="xtick_6">
     <g id="line2d_11">
      <path d="M 508.046073 382.213333 
L 508.046073 50.64 
" clip-path="url(#pd58ea1cc0e)" style="fill: none; stroke-dasharray: 0.8,1.32; stroke-dashoffset: 0; stroke: #b0b0b0; stroke-opacity: 0.5; stroke-width: 0.8"/>
     </g>
     <g id="line2d_12">
      <g>
       <use xlink:href="#me150f8d435" x="508.046073" y="382.213333" style="stroke: #000000; stroke-width: 0.8"/>
      </g>
     </g>
     <g id="text_6">
      <!-- 125 -->
      <g transform="translate(498.502323 396.811771) scale(0.1 -0.1)">
       <use xlink:href="#DejaVuSans-31"/>
       <use xlink:href="#DejaVuSans-32" transform="translate(63.623047 0)"/>
       <use xlink:href="#DejaVuSans-35" transform="translate(127.246094 0)"/>
      </g>
     </g>
    </g>
    <g id="xtick_7">
     <g id="line2d_13">
      <path d="M 595.087958 382.213333 
L 595.087958 50.64 
" clip-path="url(#pd58ea1cc0e)" style="fill: none; stroke-dasharray: 0.8,1.32; stroke-dashoffset: 0; stroke: #b0b0b0; stroke-opacity: 0.5; stroke-width: 0.8"/>
     </g>
     <g id="line2d_14">
      <g>
       <use xlink:href="#me150f8d435" x="595.087958" y="382.213333" style="stroke: #000000; stroke-width: 0.8"/>
      </g>
     </g>
     <g id="text_7">
      <!-- 150 -->
      <g transform="translate(585.544208 396.811771) scale(0.1 -0.1)">
       <use xlink:href="#DejaVuSans-31"/>
       <use xlink:href="#DejaVuSans-35" transform="translate(63.623047 0)"/>
       <use xlink:href="#DejaVuSans-30" transform="translate(127.246094 0)"/>
      </g>
     </g>
    </g>
    <g id="xtick_8">
     <g id="line2d_15">
      <path d="M 682.129843 382.213333 
L 682.129843 50.64 
" clip-path="url(#pd58ea1cc0e)" style="fill: none; stroke-dasharray: 0.8,1.32; stroke-dashoffset: 0; stroke: #b0b0b0; stroke-opacity: 0.5; stroke-width: 0.8"/>
     </g>
     <g id="line2d_16">
      <g>
       <use xlink:href="#me150f8d435" x="682.129843" y="382.213333" style="stroke: #000000; stroke-width: 0.8"/>
      </g>
     </g>
     <g id="text_8">
      <!-- 175 -->
      <g transform="translate(672.586093 396.811771) scale(0.1 -0.1)">
       <use xlink:href="#DejaVuSans-31"/>
       <use xlink:href="#DejaVuSans-37" transform="translate(63.623047 0)"/>
       <use xlink:href="#DejaVuSans-35" transform="translate(127.246094 0)"/>
      </g>
     </g>
    </g>
    <g id="xtick_9">
     <g id="line2d_17">
      <path d="M 769.171728 382.213333 
L 769.171728 50.64 
" clip-path="url(#pd58ea1cc0e)" style="fill: none; stroke-dasharray: 0.8,1.32; stroke-dashoffset: 0; stroke: #b0b0b0; stroke-opacity: 0.5; stroke-width: 0.8"/>
     </g>
     <g id="line2d_18">
      <g>
       <use xlink:href="#me150f8d435" x="769.171728" y="382.213333" style="stroke: #000000; stroke-width: 0.8"/>
      </g>
     </g>
     <g id="text_9">
      <!-- 200 -->
      <g transform="translate(759.627978 396.811771) scale(0.1 -0.1)">
       <use xlink:href="#DejaVuSans-32"/>
       <use xlink:href="#DejaVuSans-30" transform="translate(63.623047 0)"/>
       <use xlink:href="#DejaVuSans-30" transform="translate(127.246094 0)"/>
      </g>
     </g>
    </g>
    <g id="text_10">
     <!-- Message # -->
     <g transform="translate(384.60625 410.489896) scale(0.1 -0.1)">
      <defs>
       <path id="DejaVuSans-4d" d="M 628 4666 
L 1569 4666 
L 2759 1491 
L 3956 4666 
L 4897 4666 
L 4897 0 
L 4281 0 
L 4281 4097 
L 3078 897 
L 2444 897 
L 1241 4097 
L 1241 0 
L 628 0 
L 628 4666 
z
" transform="scale(0.015625)"/>
       <path id="DejaVuSans-65" d="M 3597 1894 
L 3597 1613 
L 953 1613 
Q 991 1019 1311 708 
Q 1631 397 2203 397 
Q 2534 397 2845 478 
Q 3156 559 3463 722 
L 3463 178 
Q 3153 47 2828 -22 
Q 2503 -91 2169 -91 
Q 1331 -91 842 396 
Q 353 884 353 1716 
Q 353 2575 817 3079 
Q 1281 3584 2069 3584 
Q 2775 3584 3186 3129 
Q 3597 2675 3597 1894 
z
M 3022 2063 
Q 3016 2534 2758 2815 
Q 2500 3097 2075 3097 
Q 1594 3097 1305 2825 
Q 1016 2553 972 2059 
L 3022 2063 
z
" transform="scale(0.015625)"/>
       <path id="DejaVuSans-73" d="M 2834 3397 
L 2834 2853 
Q 2591 2978 2328 3040 
Q 2066 3103 1784 3103 
Q 1356 3103 1142 2972 
Q 928 2841 928 2578 
Q 928 2378 1081 2264 
Q 1234 2150 1697 2047 
L 1894 2003 
Q 2506 1872 2764 1633 
Q 3022 1394 3022 966 
Q 3022 478 2636 193 
Q 2250 -91 1575 -91 
Q 1294 -91 989 -36 
Q 684 19 347 128 
L 347 722 
Q 666 556 975 473 
Q 1284 391 1588 391 
Q 1994 391 2212 530 
Q 2431 669 2431 922 
Q 2431 1156 2273 1281 
Q 2116 1406 1581 1522 
L 1381 1569 
Q 847 1681 609 1914 
Q 372 2147 372 2553 
Q 372 3047 722 3315 
Q 1072 3584 1716 3584 
Q 2034 3584 2315 3537 
Q 2597 3491 2834 3397 
z
" transform="scale(0.015625)"/>
       <path id="DejaVuSans-61" d="M 2194 1759 
Q 1497 1759 1228 1600 
Q 959 1441 959 1056 
Q 959 750 1161 570 
Q 1363 391 1709 391 
Q 2188 391 2477 730 
Q 2766 1069 2766 1631 
L 2766 1759 
L 2194 1759 
z
M 3341 1997 
L 3341 0 
L 2766 0 
L 2766 531 
Q 2569 213 2275 61 
Q 1981 -91 1556 -91 
Q 1019 -91 701 211 
Q 384 513 384 1019 
Q 384 1609 779 1909 
Q 1175 2209 1959 2209 
L 2766 2209 
L 2766 2266 
Q 2766 2663 2505 2880 
Q 2244 3097 1772 3097 
Q 1472 3097 1187 3025 
Q 903 2953 641 2809 
L 641 3341 
Q 956 3463 1253 3523 
Q 1550 3584 1831 3584 
Q 2591 3584 2966 3190 
Q 3341 2797 3341 1997 
z
" transform="scale(0.015625)"/>
       <path id="DejaVuSans-67" d="M 2906 1791 
Q 2906 2416 2648 2759 
Q 2391 3103 1925 3103 
Q 1463 3103 1205 2759 
Q 947 2416 947 1791 
Q 947 1169 1205 825 
Q 1463 481 1925 481 
Q 2391 481 2648 825 
Q 2906 1169 2906 1791 
z
M 3481 434 
Q 3481 -459 3084 -895 
Q 2688 -1331 1869 -1331 
Q 1566 -1331 1297 -1286 
Q 1028 -1241 775 -1147 
L 775 -588 
Q 1028 -725 1275 -790 
Q 1522 -856 1778 -856 
Q 2344 -856 2625 -561 
Q 2906 -266 2906 331 
L 2906 616 
Q 2728 306 2450 153 
Q 2172 0 1784 0 
Q 1141 0 747 490 
Q 353 981 353 1791 
Q 353 2603 747 3093 
Q 1141 3584 1784 3584 
Q 2172 3584 2450 3431 
Q 2728 3278 2906 2969 
L 2906 3500 
L 3481 3500 
L 3481 434 
z
" transform="scale(0.015625)"/>
       <path id="DejaVuSans-20" transform="scale(0.015625)"/>
       <path id="DejaVuSans-23" d="M 3272 2816 
L 2363 2816 
L 2100 1772 
L 3016 1772 
L 3272 2816 
z
M 2803 4594 
L 2478 3297 
L 3391 3297 
L 3719 4594 
L 4219 4594 
L 3897 3297 
L 4872 3297 
L 4872 2816 
L 3775 2816 
L 3519 1772 
L 4513 1772 
L 4513 1294 
L 3397 1294 
L 3072 0 
L 2572 0 
L 2894 1294 
L 1978 1294 
L 1656 0 
L 1153 0 
L 1478 1294 
L 494 1294 
L 494 1772 
L 1594 1772 
L 1856 2816 
L 850 2816 
L 850 3297 
L 1978 3297 
L 2297 4594 
L 2803 4594 
z
" transform="scale(0.015625)"/>
      </defs>
      <use xlink:href="#DejaVuSans-4d"/>
      <use xlink:href="#DejaVuSans-65" transform="translate(86.279297 0)"/>
      <use xlink:href="#DejaVuSans-73" transform="translate(147.802734 0)"/>
      <use xlink:href="#DejaVuSans-73" transform="translate(199.902344 0)"/>
      <use xlink:href="#DejaVuSans-61" transform="translate(252.001953 0)"/>
      <use xlink:href="#DejaVuSans-67" transform="translate(313.28125 0)"/>
      <use xlink:href="#DejaVuSans-65" transform="translate(376.757812 0)"/>
      <use xlink:href="#DejaVuSans-20" transform="translate(438.28125 0)"/>
      <use xlink:href="#DejaVuSans-23" transform="translate(470.068359 0)"/>
     </g>
    </g>
   </g>
   <g id="matplotlib.axis_2">
    <g id="ytick_1">
     <g id="line2d_19">
      <path d="M 46.55 367.141818 
L 778.05 367.141818 
" clip-path="url(#pd58ea1cc0e)" style="fill: none; stroke-dasharray: 0.8,1.32; stroke-dashoffset: 0; stroke: #b0b0b0; stroke-opacity: 0.5; stroke-width: 0.8"/>
     </g>
     <g id="line2d_20">
      <defs>
       <path id="mff5e4ba79d" d="M 0 0 
L -3.5 0 
" style="stroke: #000000; stroke-width: 0.8"/>
      </defs>
      <g>
       <use xlink:href="#mff5e4ba79d" x="46.55" y="367.141818" style="stroke: #000000; stroke-width: 0.8"/>
      </g>
     </g>
     <g id="text_11">
      <!-- −4 -->
      <g transform="translate(24.807813 370.941037) scale(0.1 -0.1)">
       <defs>
        <path id="DejaVuSans-2212" d="M 678 2272 
L 4684 2272 
L 4684 1741 
L 678 1741 
L 678 2272 
z
" transform="scale(0.015625)"/>
        <path id="DejaVuSans-34" d="M 2419 4116 
L 825 1625 
L 2419 1625 
L 2419 4116 
z
M 2253 4666 
L 3047 4666 
L 3047 1625 
L 3713 1625 
L 3713 1100 
L 3047 1100 
L 3047 0 
L 2419 0 
L 2419 1100 
L 313 1100 
L 313 1709 
L 2253 4666 
z
" transform="scale(0.015625)"/>
       </defs>
       <use xlink:href="#DejaVuSans-2212"/>
       <use xlink:href="#DejaVuSans-34" transform="translate(83.789062 0)"/>
      </g>
     </g>
    </g>
    <g id="ytick_2">
     <g id="line2d_21">
      <path d="M 46.55 308.037837 
L 778.05 308.037837 
" clip-path="url(#pd58ea1cc0e)" style="fill: none; stroke-dasharray: 0.8,1.32; stroke-dashoffset: 0; stroke: #b0b0b0; stroke-opacity: 0.5; stroke-width: 0.8"/>
     </g>
     <g id="line2d_22">
      <g>
       <use xlink:href="#mff5e4ba79d" x="46.55" y="308.037837" style="stroke: #000000; stroke-width: 0.8"/>
      </g>
     </g>
     <g id="text_12">
      <!-- −2 -->
      <g transform="translate(24.807813 311.837056) scale(0.1 -0.1)">
       <use xlink:href="#DejaVuSans-2212"/>
       <use xlink:href="#DejaVuSans-32" transform="translate(83.789062 0)"/>
      </g>
     </g>
    </g>
    <g id="ytick_3">
     <g id="line2d_23">
      <path d="M 46.55 248.933856 
L 778.05 248.933856 
" clip-path="url(#pd58ea1cc0e)" style="fill: none; stroke-dasharray: 0.8,1.32; stroke-dashoffset: 0; stroke: #b0b0b0; stroke-opacity: 0.5; stroke-width: 0.8"/>
     </g>
     <g id="line2d_24">
      <g>
       <use xlink:href="#mff5e4ba79d" x="46.55" y="248.933856" style="stroke: #000000; stroke-width: 0.8"/>
      </g>
     </g>
     <g id="text_13">
      <!-- 0 -->
      <g transform="translate(33.1875 252.733075) scale(0.1 -0.1)">
       <use xlink:href="#DejaVuSans-30"/>
      </g>
     </g>
    </g>
    <g id="ytick_4">
     <g id="line2d_25">
      <path d="M 46.55 189.829875 
L 778.05 189.829875 
" clip-path="url(#pd58ea1cc0e)" style="fill: none; stroke-dasharray: 0.8,1.32; stroke-dashoffset: 0; stroke: #b0b0b0; stroke-opacity: 0.5; stroke-width: 0.8"/>
     </g>
     <g id="line2d_26">
      <g>
       <use xlink:href="#mff5e4ba79d" x="46.55" y="189.829875" style="stroke: #000000; stroke-width: 0.8"/>
      </g>
     </g>
     <g id="text_14">
      <!-- 2 -->
      <g transform="translate(33.1875 193.629094) scale(0.1 -0.1)">
       <use xlink:href="#DejaVuSans-32"/>
      </g>
     </g>
    </g>
    <g id="ytick_5">
     <g id="line2d_27">
      <path d="M 46.55 130.725894 
L 778.05 130.725894 
" clip-path="url(#pd58ea1cc0e)" style="fill: none; stroke-dasharray: 0.8,1.32; stroke-dashoffset: 0; stroke: #b0b0b0; stroke-opacity: 0.5; stroke-width: 0.8"/>
     </g>
     <g id="line2d_28">
      <g>
       <use xlink:href="#mff5e4ba79d" x="46.55" y="130.725894" style="stroke: #000000; stroke-width: 0.8"/>
      </g>
     </g>
     <g id="text_15">
      <!-- 4 -->
      <g transform="translate(33.1875 134.525113) scale(0.1 -0.1)">
       <use xlink:href="#DejaVuSans-34"/>
      </g>
     </g>
    </g>
    <g id="ytick_6">
     <g id="line2d_29">
      <path d="M 46.55 71.621913 
L 778.05 71.621913 
" clip-path="url(#pd58ea1cc0e)" style="fill: none; stroke-dasharray: 0.8,1.32; stroke-dashoffset: 0; stroke: #b0b0b0; stroke-opacity: 0.5; stroke-width: 0.8"/>
     </g>
     <g id="line2d_30">
      <g>
       <use xlink:href="#mff5e4ba79d" x="46.55" y="71.621913" style="stroke: #000000; stroke-width: 0.8"/>
      </g>
     </g>
     <g id="text_16">
      <!-- 6 -->
      <g transform="translate(33.1875 75.421132) scale(0.1 -0.1)">
       <defs>
        <path id="DejaVuSans-36" d="M 2113 2584 
Q 1688 2584 1439 2293 
Q 1191 2003 1191 1497 
Q 1191 994 1439 701 
Q 1688 409 2113 409 
Q 2538 409 2786 701 
Q 3034 994 3034 1497 
Q 3034 2003 2786 2293 
Q 2538 2584 2113 2584 
z
M 3366 4563 
L 3366 3988 
Q 3128 4100 2886 4159 
Q 2644 4219 2406 4219 
Q 1781 4219 1451 3797 
Q 1122 3375 1075 2522 
Q 1259 2794 1537 2939 
Q 1816 3084 2150 3084 
Q 2853 3084 3261 2657 
Q 3669 2231 3669 1497 
Q 3669 778 3244 343 
Q 2819 -91 2113 -91 
Q 1303 -91 875 529 
Q 447 1150 447 2328 
Q 447 3434 972 4092 
Q 1497 4750 2381 4750 
Q 2619 4750 2861 4703 
Q 3103 4656 3366 4563 
z
" transform="scale(0.015625)"/>
       </defs>
       <use xlink:href="#DejaVuSans-36"/>
      </g>
     </g>
    </g>
    <g id="text_17">
     <!-- Delta (ms) -->
     <g transform="translate(18.728125 242.732135) rotate(-90) scale(0.1 -0.1)">
      <defs>
       <path id="DejaVuSans-44" d="M 1259 4147 
L 1259 519 
L 2022 519 
Q 2988 519 3436 956 
Q 3884 1394 3884 2338 
Q 3884 3275 3436 3711 
Q 2988 4147 2022 4147 
L 1259 4147 
z
M 628 4666 
L 1925 4666 
Q 3281 4666 3915 4102 
Q 4550 3538 4550 2338 
Q 4550 1131 3912 565 
Q 3275 0 1925 0 
L 628 0 
L 628 4666 
z
" transform="scale(0.015625)"/>
       <path id="DejaVuSans-6c" d="M 603 4863 
L 1178 4863 
L 1178 0 
L 603 0 
L 603 4863 
z
" transform="scale(0.015625)"/>
       <path id="DejaVuSans-74" d="M 1172 4494 
L 1172 3500 
L 2356 3500 
L 2356 3053 
L 1172 3053 
L 1172 1153 
Q 1172 725 1289 603 
Q 1406 481 1766 481 
L 2356 481 
L 2356 0 
L 1766 0 
Q 1100 0 847 248 
Q 594 497 594 1153 
L 594 3053 
L 172 3053 
L 172 3500 
L 594 3500 
L 594 4494 
L 1172 4494 
z
" transform="scale(0.015625)"/>
       <path id="DejaVuSans-28" d="M 1984 4856 
Q 1566 4138 1362 3434 
Q 1159 2731 1159 2009 
Q 1159 1288 1364 580 
Q 1569 -128 1984 -844 
L 1484 -844 
Q 1016 -109 783 600 
Q 550 1309 550 2009 
Q 550 2706 781 3412 
Q 1013 4119 1484 4856 
L 1984 4856 
z
" transform="scale(0.015625)"/>
       <path id="DejaVuSans-6d" d="M 3328 2828 
Q 3544 3216 3844 3400 
Q 4144 3584 4550 3584 
Q 5097 3584 5394 3201 
Q 5691 2819 5691 2113 
L 5691 0 
L 5113 0 
L 5113 2094 
Q 5113 2597 4934 2840 
Q 4756 3084 4391 3084 
Q 3944 3084 3684 2787 
Q 3425 2491 3425 1978 
L 3425 0 
L 2847 0 
L 2847 2094 
Q 2847 2600 2669 2842 
Q 2491 3084 2119 3084 
Q 1678 3084 1418 2786 
Q 1159 2488 1159 1978 
L 1159 0 
L 581 0 
L 581 3500 
L 1159 3500 
L 1159 2956 
Q 1356 3278 1631 3431 
Q 1906 3584 2284 3584 
Q 2666 3584 2933 3390 
Q 3200 3197 3328 2828 
z
" transform="scale(0.015625)"/>
       <path id="DejaVuSans-29" d="M 513 4856 
L 1013 4856 
Q 1481 4119 1714 3412 
Q 1947 2706 1947 2009 
Q 1947 1309 1714 600 
Q 1481 -109 1013 -844 
L 513 -844 
Q 928 -128 1133 580 
Q 1338 1288 1338 2009 
Q 1338 2731 1133 3434 
Q 928 4138 513 4856 
z
" transform="scale(0.015625)"/>
      </defs>
      <use xlink:href="#DejaVuSans-44"/>
      <use xlink:href="#DejaVuSans-65" transform="translate(77.001953 0)"/>
      <use xlink:href="#DejaVuSans-6c" transform="translate(138.525391 0)"/>
      <use xlink:href="#DejaVuSans-74" transform="translate(166.308594 0)"/>
      <use xlink:href="#DejaVuSans-61" transform="translate(205.517578 0)"/>
      <use xlink:href="#DejaVuSans-20" transform="translate(266.796875 0)"/>
      <use xlink:href="#DejaVuSans-28" transform="translate(298.583984 0)"/>
      <use xlink:href="#DejaVuSans-6d" transform="translate(337.597656 0)"/>
      <use xlink:href="#DejaVuSans-73" transform="translate(435.009766 0)"/>
      <use xlink:href="#DejaVuSans-29" transform="translate(487.109375 0)"/>
     </g>
    </g>
   </g>
   <g id="line2d_31">
    <path d="M 79.8 281.441046 
L 83.281675 245.978657 
L 86.763351 245.978657 
L 90.245026 234.157861 
L 93.726702 266.665051 
L 97.208377 260.754652 
L 100.690052 248.933856 
L 104.171728 257.799453 
L 107.653403 278.485847 
L 111.135079 278.485847 
L 114.616754 245.978657 
L 118.098429 240.068259 
L 121.580105 248.933856 
L 125.06178 243.023458 
L 128.543455 260.754652 
L 132.025131 248.933856 
L 135.506806 213.471468 
L 138.988482 65.711515 
L 142.470157 225.292264 
L 145.951832 240.068259 
L 149.433508 180.964278 
L 152.915183 266.665051 
L 156.396859 189.829875 
L 159.878534 237.11306 
L 163.360209 237.11306 
L 166.841885 240.068259 
L 170.32356 269.62025 
L 173.805236 248.933856 
L 177.286911 263.709851 
L 180.768586 266.665051 
L 184.250262 293.261842 
L 187.731937 248.933856 
L 191.213613 248.933856 
L 194.695288 275.530648 
L 198.176963 251.889055 
L 205.140314 245.978657 
L 208.62199 281.441046 
L 212.103665 251.889055 
L 215.58534 248.933856 
L 219.067016 257.799453 
L 222.548691 234.157861 
L 226.030366 240.068259 
L 229.512042 266.665051 
L 232.993717 263.709851 
L 236.475393 240.068259 
L 239.957068 248.933856 
L 243.438743 237.11306 
L 246.920419 234.157861 
L 250.402094 234.157861 
L 253.88377 263.709851 
L 257.365445 228.247463 
L 260.84712 231.202662 
L 264.328796 248.933856 
L 267.810471 228.247463 
L 271.292147 266.665051 
L 274.773822 237.11306 
L 278.255497 266.665051 
L 281.737173 272.575449 
L 285.218848 234.157861 
L 288.700524 237.11306 
L 292.182199 231.202662 
L 295.663874 251.889055 
L 299.14555 245.978657 
L 302.627225 269.62025 
L 306.108901 257.799453 
L 309.590576 254.844254 
L 313.072251 260.754652 
L 316.553927 257.799453 
L 320.035602 243.023458 
L 323.517277 248.933856 
L 326.998953 245.978657 
L 330.480628 222.337065 
L 333.962304 260.754652 
L 337.443979 254.844254 
L 340.925654 245.978657 
L 344.40733 278.485847 
L 347.889005 263.709851 
L 351.370681 243.023458 
L 354.852356 245.978657 
L 358.334031 299.17224 
L 361.815707 243.023458 
L 365.297382 248.933856 
L 368.779058 222.337065 
L 372.260733 231.202662 
L 375.742408 251.889055 
L 379.224084 243.023458 
L 382.705759 248.933856 
L 386.187435 231.202662 
L 389.66911 251.889055 
L 393.150785 254.844254 
L 396.632461 245.978657 
L 400.114136 287.351444 
L 403.595812 240.068259 
L 407.077487 248.933856 
L 410.559162 248.933856 
L 414.040838 225.292264 
L 417.522513 266.665051 
L 421.004188 254.844254 
L 424.485864 222.337065 
L 427.967539 251.889055 
L 431.449215 251.889055 
L 434.93089 237.11306 
L 438.412565 243.023458 
L 441.894241 296.217041 
L 445.375916 228.247463 
L 448.857592 228.247463 
L 452.339267 248.933856 
L 455.820942 219.381866 
L 459.302618 251.889055 
L 466.265969 269.62025 
L 469.747644 245.978657 
L 473.229319 251.889055 
L 476.710995 248.933856 
L 480.19267 243.023458 
L 483.674346 225.292264 
L 487.156021 240.068259 
L 490.637696 240.068259 
L 494.119372 269.62025 
L 497.601047 269.62025 
L 501.082723 257.799453 
L 504.564398 231.202662 
L 508.046073 257.799453 
L 511.527749 269.62025 
L 515.009424 367.141818 
L 518.491099 245.978657 
L 521.972775 319.858633 
L 525.45445 316.903434 
L 528.936126 272.575449 
L 532.417801 254.844254 
L 535.899476 234.157861 
L 539.381152 263.709851 
L 542.862827 240.068259 
L 546.344503 243.023458 
L 549.826178 248.933856 
L 553.307853 260.754652 
L 556.789529 257.799453 
L 560.271204 243.023458 
L 567.234555 248.933856 
L 570.71623 243.023458 
L 574.197906 251.889055 
L 577.679581 219.381866 
L 581.161257 228.247463 
L 584.642932 248.933856 
L 588.124607 254.844254 
L 591.606283 257.799453 
L 595.087958 266.665051 
L 598.569634 243.023458 
L 602.051309 222.337065 
L 605.532984 245.978657 
L 609.01466 234.157861 
L 612.496335 234.157861 
L 615.97801 257.799453 
L 619.459686 284.396245 
L 622.941361 240.068259 
L 626.423037 251.889055 
L 629.904712 254.844254 
L 633.386387 245.978657 
L 636.868063 248.933856 
L 640.349738 266.665051 
L 643.831414 234.157861 
L 647.313089 260.754652 
L 650.794764 257.799453 
L 654.27644 269.62025 
L 661.239791 269.62025 
L 664.721466 272.575449 
L 668.203141 257.799453 
L 671.684817 237.11306 
L 675.166492 245.978657 
L 678.648168 272.575449 
L 682.129843 260.754652 
L 685.611518 234.157861 
L 689.093194 251.889055 
L 696.056545 228.247463 
L 699.53822 284.396245 
L 703.019895 251.889055 
L 706.501571 237.11306 
L 709.983246 237.11306 
L 713.464921 219.381866 
L 716.946597 243.023458 
L 720.428272 228.247463 
L 723.909948 275.530648 
L 727.391623 243.023458 
L 730.873298 260.754652 
L 734.354974 240.068259 
L 737.836649 245.978657 
L 741.318325 272.575449 
L 744.8 251.889055 
L 744.8 251.889055 
" clip-path="url(#pd58ea1cc0e)" style="fill: none; stroke: #000000; stroke-width: 3; stroke-linecap: square"/>
    <defs>
     <path id="me10b6d3ceb" d="M 0 3 
C 0.795609 3 1.55874 2.683901 2.12132 2.12132 
C 2.683901 1.55874 3 0.795609 3 0 
C 3 -0.795609 2.683901 -1.55874 2.12132 -2.12132 
C 1.55874 -2.683901 0.795609 -3 0 -3 
C -0.795609 -3 -1.55874 -2.683901 -2.12132 -2.12132 
C -2.683901 -1.55874 -3 -0.795609 -3 0 
C -3 0.795609 -2.683901 1.55874 -2.12132 2.12132 
C -1.55874 2.683901 -0.795609 3 0 3 
z
" style="stroke: #000000"/>
    </defs>
    <g clip-path="url(#pd58ea1cc0e)">
     <use xlink:href="#me10b6d3ceb" x="79.8" y="281.441046" style="stroke: #000000"/>
     <use xlink:href="#me10b6d3ceb" x="83.281675" y="245.978657" style="stroke: #000000"/>
     <use xlink:href="#me10b6d3ceb" x="86.763351" y="245.978657" style="stroke: #000000"/>
     <use xlink:href="#me10b6d3ceb" x="90.245026" y="234.157861" style="stroke: #000000"/>
     <use xlink:href="#me10b6d3ceb" x="93.726702" y="266.665051" style="stroke: #000000"/>
     <use xlink:href="#me10b6d3ceb" x="97.208377" y="260.754652" style="stroke: #000000"/>
     <use xlink:href="#me10b6d3ceb" x="100.690052" y="248.933856" style="stroke: #000000"/>
     <use xlink:href="#me10b6d3ceb" x="104.171728" y="257.799453" style="stroke: #000000"/>
     <use xlink:href="#me10b6d3ceb" x="107.653403" y="278.485847" style="stroke: #000000"/>
     <use xlink:href="#me10b6d3ceb" x="111.135079" y="278.485847" style="stroke: #000000"/>
     <use xlink:href="#me10b6d3ceb" x="114.616754" y="245.978657" style="stroke: #000000"/>
     <use xlink:href="#me10b6d3ceb" x="118.098429" y="240.068259" style="stroke: #000000"/>
     <use xlink:href="#me10b6d3ceb" x="121.580105" y="248.933856" style="stroke: #000000"/>
     <use xlink:href="#me10b6d3ceb" x="125.06178" y="243.023458" style="stroke: #000000"/>
     <use xlink:href="#me10b6d3ceb" x="128.543455" y="260.754652" style="stroke: #000000"/>
     <use xlink:href="#me10b6d3ceb" x="132.025131" y="248.933856" style="stroke: #000000"/>
     <use xlink:href="#me10b6d3ceb" x="135.506806" y="213.471468" style="stroke: #000000"/>
     <use xlink:href="#me10b6d3ceb" x="138.988482" y="65.711515" style="stroke: #000000"/>
     <use xlink:href="#me10b6d3ceb" x="142.470157" y="225.292264" style="stroke: #000000"/>
     <use xlink:href="#me10b6d3ceb" x="145.951832" y="240.068259" style="stroke: #000000"/>
     <use xlink:href="#me10b6d3ceb" x="149.433508" y="180.964278" style="stroke: #000000"/>
     <use xlink:href="#me10b6d3ceb" x="152.915183" y="266.665051" style="stroke: #000000"/>
     <use xlink:href="#me10b6d3ceb" x="156.396859" y="189.829875" style="stroke: #000000"/>
     <use xlink:href="#me10b6d3ceb" x="159.878534" y="237.11306" style="stroke: #000000"/>
     <use xlink:href="#me10b6d3ceb" x="163.360209" y="237.11306" style="stroke: #000000"/>
     <use xlink:href="#me10b6d3ceb" x="166.841885" y="240.068259" style="stroke: #000000"/>
     <use xlink:href="#me10b6d3ceb" x="170.32356" y="269.62025" style="stroke: #000000"/>
     <use xlink:href="#me10b6d3ceb" x="173.805236" y="248.933856" style="stroke: #000000"/>
     <use xlink:href="#me10b6d3ceb" x="177.286911" y="263.709851" style="stroke: #000000"/>
     <use xlink:href="#me10b6d3ceb" x="180.768586" y="266.665051" style="stroke: #000000"/>
     <use xlink:href="#me10b6d3ceb" x="184.250262" y="293.261842" style="stroke: #000000"/>
     <use xlink:href="#me10b6d3ceb" x="187.731937" y="248.933856" style="stroke: #000000"/>
     <use xlink:href="#me10b6d3ceb" x="191.213613" y="248.933856" style="stroke: #000000"/>
     <use xlink:href="#me10b6d3ceb" x="194.695288" y="275.530648" style="stroke: #000000"/>
     <use xlink:href="#me10b6d3ceb" x="198.176963" y="251.889055" style="stroke: #000000"/>
     <use xlink:href="#me10b6d3ceb" x="201.658639" y="248.933856" style="stroke: #000000"/>
     <use xlink:href="#me10b6d3ceb" x="205.140314" y="245.978657" style="stroke: #000000"/>
     <use xlink:href="#me10b6d3ceb" x="208.62199" y="281.441046" style="stroke: #000000"/>
     <use xlink:href="#me10b6d3ceb" x="212.103665" y="251.889055" style="stroke: #000000"/>
     <use xlink:href="#me10b6d3ceb" x="215.58534" y="248.933856" style="stroke: #000000"/>
     <use xlink:href="#me10b6d3ceb" x="219.067016" y="257.799453" style="stroke: #000000"/>
     <use xlink:href="#me10b6d3ceb" x="222.548691" y="234.157861" style="stroke: #000000"/>
     <use xlink:href="#me10b6d3ceb" x="226.030366" y="240.068259" style="stroke: #000000"/>
     <use xlink:href="#me10b6d3ceb" x="229.512042" y="266.665051" style="stroke: #000000"/>
     <use xlink:href="#me10b6d3ceb" x="232.993717" y="263.709851" style="stroke: #000000"/>
     <use xlink:href="#me10b6d3ceb" x="236.475393" y="240.068259" style="stroke: #000000"/>
     <use xlink:href="#me10b6d3ceb" x="239.957068" y="248.933856" style="stroke: #000000"/>
     <use xlink:href="#me10b6d3ceb" x="243.438743" y="237.11306" style="stroke: #000000"/>
     <use xlink:href="#me10b6d3ceb" x="246.920419" y="234.157861" style="stroke: #000000"/>
     <use xlink:href="#me10b6d3ceb" x="250.402094" y="234.157861" style="stroke: #000000"/>
     <use xlink:href="#me10b6d3ceb" x="253.88377" y="263.709851" style="stroke: #000000"/>
     <use xlink:href="#me10b6d3ceb" x="257.365445" y="228.247463" style="stroke: #000000"/>
     <use xlink:href="#me10b6d3ceb" x="260.84712" y="231.202662" style="stroke: #000000"/>
     <use xlink:href="#me10b6d3ceb" x="264.328796" y="248.933856" style="stroke: #000000"/>
     <use xlink:href="#me10b6d3ceb" x="267.810471" y="228.247463" style="stroke: #000000"/>
     <use xlink:href="#me10b6d3ceb" x="271.292147" y="266.665051" style="stroke: #000000"/>
     <use xlink:href="#me10b6d3ceb" x="274.773822" y="237.11306" style="stroke: #000000"/>
     <use xlink:href="#me10b6d3ceb" x="278.255497" y="266.665051" style="stroke: #000000"/>
     <use xlink:href="#me10b6d3ceb" x="281.737173" y="272.575449" style="stroke: #000000"/>
     <use xlink:href="#me10b6d3ceb" x="285.218848" y="234.157861" style="stroke: #000000"/>
     <use xlink:href="#me10b6d3ceb" x="288.700524" y="237.11306" style="stroke: #000000"/>
     <use xlink:href="#me10b6d3ceb" x="292.182199" y="231.202662" style="stroke: #000000"/>
     <use xlink:href="#me10b6d3ceb" x="295.663874" y="251.889055" style="stroke: #000000"/>
     <use xlink:href="#me10b6d3ceb" x="299.14555" y="245.978657" style="stroke: #000000"/>
     <use xlink:href="#me10b6d3ceb" x="302.627225" y="269.62025" style="stroke: #000000"/>
     <use xlink:href="#me10b6d3ceb" x="306.108901" y="257.799453" style="stroke: #000000"/>
     <use xlink:href="#me10b6d3ceb" x="309.590576" y="254.844254" style="stroke: #000000"/>
     <use xlink:href="#me10b6d3ceb" x="313.072251" y="260.754652" style="stroke: #000000"/>
     <use xlink:href="#me10b6d3ceb" x="316.553927" y="257.799453" style="stroke: #000000"/>
     <use xlink:href="#me10b6d3ceb" x="320.035602" y="243.023458" style="stroke: #000000"/>
     <use xlink:href="#me10b6d3ceb" x="323.517277" y="248.933856" style="stroke: #000000"/>
     <use xlink:href="#me10b6d3ceb" x="326.998953" y="245.978657" style="stroke: #000000"/>
     <use xlink:href="#me10b6d3ceb" x="330.480628" y="222.337065" style="stroke: #000000"/>
     <use xlink:href="#me10b6d3ceb" x="333.962304" y="260.754652" style="stroke: #000000"/>
     <use xlink:href="#me10b6d3ceb" x="337.443979" y="254.844254" style="stroke: #000000"/>
     <use xlink:href="#me10b6d3ceb" x="340.925654" y="245.978657" style="stroke: #000000"/>
     <use xlink:href="#me10b6d3ceb" x="344.40733" y="278.485847" style="stroke: #000000"/>
     <use xlink:href="#me10b6d3ceb" x="347.889005" y="263.709851" style="stroke: #000000"/>
     <use xlink:href="#me10b6d3ceb" x="351.370681" y="243.023458" style="stroke: #000000"/>
     <use xlink:href="#me10b6d3ceb" x="354.852356" y="245.978657" style="stroke: #000000"/>
     <use xlink:href="#me10b6d3ceb" x="358.334031" y="299.17224" style="stroke: #000000"/>
     <use xlink:href="#me10b6d3ceb" x="361.815707" y="243.023458" style="stroke: #000000"/>
     <use xlink:href="#me10b6d3ceb" x="365.297382" y="248.933856" style="stroke: #000000"/>
     <use xlink:href="#me10b6d3ceb" x="368.779058" y="222.337065" style="stroke: #000000"/>
     <use xlink:href="#me10b6d3ceb" x="372.260733" y="231.202662" style="stroke: #000000"/>
     <use xlink:href="#me10b6d3ceb" x="375.742408" y="251.889055" style="stroke: #000000"/>
     <use xlink:href="#me10b6d3ceb" x="379.224084" y="243.023458" style="stroke: #000000"/>
     <use xlink:href="#me10b6d3ceb" x="382.705759" y="248.933856" style="stroke: #000000"/>
     <use xlink:href="#me10b6d3ceb" x="386.187435" y="231.202662" style="stroke: #000000"/>
     <use xlink:href="#me10b6d3ceb" x="389.66911" y="251.889055" style="stroke: #000000"/>
     <use xlink:href="#me10b6d3ceb" x="393.150785" y="254.844254" style="stroke: #000000"/>
     <use xlink:href="#me10b6d3ceb" x="396.632461" y="245.978657" style="stroke: #000000"/>
     <use xlink:href="#me10b6d3ceb" x="400.114136" y="287.351444" style="stroke: #000000"/>
     <use xlink:href="#me10b6d3ceb" x="403.595812" y="240.068259" style="stroke: #000000"/>
     <use xlink:href="#me10b6d3ceb" x="407.077487" y="248.933856" style="stroke: #000000"/>
     <use xlink:href="#me10b6d3ceb" x="410.559162" y="248.933856" style="stroke: #000000"/>
     <use xlink:href="#me10b6d3ceb" x="414.040838" y="225.292264" style="stroke: #000000"/>
     <use xlink:href="#me10b6d3ceb" x="417.522513" y="266.665051" style="stroke: #000000"/>
     <use xlink:href="#me10b6d3ceb" x="421.004188" y="254.844254" style="stroke: #000000"/>
     <use xlink:href="#me10b6d3ceb" x="424.485864" y="222.337065" style="stroke: #000000"/>
     <use xlink:href="#me10b6d3ceb" x="427.967539" y="251.889055" style="stroke: #000000"/>
     <use xlink:href="#me10b6d3ceb" x="431.449215" y="251.889055" style="stroke: #000000"/>
     <use xlink:href="#me10b6d3ceb" x="434.93089" y="237.11306" style="stroke: #000000"/>
     <use xlink:href="#me10b6d3ceb" x="438.412565" y="243.023458" style="stroke: #000000"/>
     <use xlink:href="#me10b6d3ceb" x="441.894241" y="296.217041" style="stroke: #000000"/>
     <use xlink:href="#me10b6d3ceb" x="445.375916" y="228.247463" style="stroke: #000000"/>
     <use xlink:href="#me10b6d3ceb" x="448.857592" y="228.247463" style="stroke: #000000"/>
     <use xlink:href="#me10b6d3ceb" x="452.339267" y="248.933856" style="stroke: #000000"/>
     <use xlink:href="#me10b6d3ceb" x="455.820942" y="219.381866" style="stroke: #000000"/>
     <use xlink:href="#me10b6d3ceb" x="459.302618" y="251.889055" style="stroke: #000000"/>
     <use xlink:href="#me10b6d3ceb" x="462.784293" y="260.754652" style="stroke: #000000"/>
     <use xlink:href="#me10b6d3ceb" x="466.265969" y="269.62025" style="stroke: #000000"/>
     <use xlink:href="#me10b6d3ceb" x="469.747644" y="245.978657" style="stroke: #000000"/>
     <use xlink:href="#me10b6d3ceb" x="473.229319" y="251.889055" style="stroke: #000000"/>
     <use xlink:href="#me10b6d3ceb" x="476.710995" y="248.933856" style="stroke: #000000"/>
     <use xlink:href="#me10b6d3ceb" x="480.19267" y="243.023458" style="stroke: #000000"/>
     <use xlink:href="#me10b6d3ceb" x="483.674346" y="225.292264" style="stroke: #000000"/>
     <use xlink:href="#me10b6d3ceb" x="487.156021" y="240.068259" style="stroke: #000000"/>
     <use xlink:href="#me10b6d3ceb" x="490.637696" y="240.068259" style="stroke: #000000"/>
     <use xlink:href="#me10b6d3ceb" x="494.119372" y="269.62025" style="stroke: #000000"/>
     <use xlink:href="#me10b6d3ceb" x="497.601047" y="269.62025" style="stroke: #000000"/>
     <use xlink:href="#me10b6d3ceb" x="501.082723" y="257.799453" style="stroke: #000000"/>
     <use xlink:href="#me10b6d3ceb" x="504.564398" y="231.202662" style="stroke: #000000"/>
     <use xlink:href="#me10b6d3ceb" x="508.046073" y="257.799453" style="stroke: #000000"/>
     <use xlink:href="#me10b6d3ceb" x="511.527749" y="269.62025" style="stroke: #000000"/>
     <use xlink:href="#me10b6d3ceb" x="515.009424" y="367.141818" style="stroke: #000000"/>
     <use xlink:href="#me10b6d3ceb" x="518.491099" y="245.978657" style="stroke: #000000"/>
     <use xlink:href="#me10b6d3ceb" x="521.972775" y="319.858633" style="stroke: #000000"/>
     <use xlink:href="#me10b6d3ceb" x="525.45445" y="316.903434" style="stroke: #000000"/>
     <use xlink:href="#me10b6d3ceb" x="528.936126" y="272.575449" style="stroke: #000000"/>
     <use xlink:href="#me10b6d3ceb" x="532.417801" y="254.844254" style="stroke: #000000"/>
     <use xlink:href="#me10b6d3ceb" x="535.899476" y="234.157861" style="stroke: #000000"/>
     <use xlink:href="#me10b6d3ceb" x="539.381152" y="263.709851" style="stroke: #000000"/>
     <use xlink:href="#me10b6d3ceb" x="542.862827" y="240.068259" style="stroke: #000000"/>
     <use xlink:href="#me10b6d3ceb" x="546.344503" y="243.023458" style="stroke: #000000"/>
     <use xlink:href="#me10b6d3ceb" x="549.826178" y="248.933856" style="stroke: #000000"/>
     <use xlink:href="#me10b6d3ceb" x="553.307853" y="260.754652" style="stroke: #000000"/>
     <use xlink:href="#me10b6d3ceb" x="556.789529" y="257.799453" style="stroke: #000000"/>
     <use xlink:href="#me10b6d3ceb" x="560.271204" y="243.023458" style="stroke: #000000"/>
     <use xlink:href="#me10b6d3ceb" x="563.75288" y="245.978657" style="stroke: #000000"/>
     <use xlink:href="#me10b6d3ceb" x="567.234555" y="248.933856" style="stroke: #000000"/>
     <use xlink:href="#me10b6d3ceb" x="570.71623" y="243.023458" style="stroke: #000000"/>
     <use xlink:href="#me10b6d3ceb" x="574.197906" y="251.889055" style="stroke: #000000"/>
     <use xlink:href="#me10b6d3ceb" x="577.679581" y="219.381866" style="stroke: #000000"/>
     <use xlink:href="#me10b6d3ceb" x="581.161257" y="228.247463" style="stroke: #000000"/>
     <use xlink:href="#me10b6d3ceb" x="584.642932" y="248.933856" style="stroke: #000000"/>
     <use xlink:href="#me10b6d3ceb" x="588.124607" y="254.844254" style="stroke: #000000"/>
     <use xlink:href="#me10b6d3ceb" x="591.606283" y="257.799453" style="stroke: #000000"/>
     <use xlink:href="#me10b6d3ceb" x="595.087958" y="266.665051" style="stroke: #000000"/>
     <use xlink:href="#me10b6d3ceb" x="598.569634" y="243.023458" style="stroke: #000000"/>
     <use xlink:href="#me10b6d3ceb" x="602.051309" y="222.337065" style="stroke: #000000"/>
     <use xlink:href="#me10b6d3ceb" x="605.532984" y="245.978657" style="stroke: #000000"/>
     <use xlink:href="#me10b6d3ceb" x="609.01466" y="234.157861" style="stroke: #000000"/>
     <use xlink:href="#me10b6d3ceb" x="612.496335" y="234.157861" style="stroke: #000000"/>
     <use xlink:href="#me10b6d3ceb" x="615.97801" y="257.799453" style="stroke: #000000"/>
     <use xlink:href="#me10b6d3ceb" x="619.459686" y="284.396245" style="stroke: #000000"/>
     <use xlink:href="#me10b6d3ceb" x="622.941361" y="240.068259" style="stroke: #000000"/>
     <use xlink:href="#me10b6d3ceb" x="626.423037" y="251.889055" style="stroke: #000000"/>
     <use xlink:href="#me10b6d3ceb" x="629.904712" y="254.844254" style="stroke: #000000"/>
     <use xlink:href="#me10b6d3ceb" x="633.386387" y="245.978657" style="stroke: #000000"/>
     <use xlink:href="#me10b6d3ceb" x="636.868063" y="248.933856" style="stroke: #000000"/>
     <use xlink:href="#me10b6d3ceb" x="640.349738" y="266.665051" style="stroke: #000000"/>
     <use xlink:href="#me10b6d3ceb" x="643.831414" y="234.157861" style="stroke: #000000"/>
     <use xlink:href="#me10b6d3ceb" x="647.313089" y="260.754652" style="stroke: #000000"/>
     <use xlink:href="#me10b6d3ceb" x="650.794764" y="257.799453" style="stroke: #000000"/>
     <use xlink:href="#me10b6d3ceb" x="654.27644" y="269.62025" style="stroke: #000000"/>
     <use xlink:href="#me10b6d3ceb" x="657.758115" y="269.62025" style="stroke: #000000"/>
     <use xlink:href="#me10b6d3ceb" x="661.239791" y="269.62025" style="stroke: #000000"/>
     <use xlink:href="#me10b6d3ceb" x="664.721466" y="272.575449" style="stroke: #000000"/>
     <use xlink:href="#me10b6d3ceb" x="668.203141" y="257.799453" style="stroke: #000000"/>
     <use xlink:href="#me10b6d3ceb" x="671.684817" y="237.11306" style="stroke: #000000"/>
     <use xlink:href="#me10b6d3ceb" x="675.166492" y="245.978657" style="stroke: #000000"/>
     <use xlink:href="#me10b6d3ceb" x="678.648168" y="272.575449" style="stroke: #000000"/>
     <use xlink:href="#me10b6d3ceb" x="682.129843" y="260.754652" style="stroke: #000000"/>
     <use xlink:href="#me10b6d3ceb" x="685.611518" y="234.157861" style="stroke: #000000"/>
     <use xlink:href="#me10b6d3ceb" x="689.093194" y="251.889055" style="stroke: #000000"/>
     <use xlink:href="#me10b6d3ceb" x="692.574869" y="240.068259" style="stroke: #000000"/>
     <use xlink:href="#me10b6d3ceb" x="696.056545" y="228.247463" style="stroke: #000000"/>
     <use xlink:href="#me10b6d3ceb" x="699.53822" y="284.396245" style="stroke: #000000"/>
     <use xlink:href="#me10b6d3ceb" x="703.019895" y="251.889055" style="stroke: #000000"/>
     <use xlink:href="#me10b6d3ceb" x="706.501571" y="237.11306" style="stroke: #000000"/>
     <use xlink:href="#me10b6d3ceb" x="709.983246" y="237.11306" style="stroke: #000000"/>
     <use xlink:href="#me10b6d3ceb" x="713.464921" y="219.381866" style="stroke: #000000"/>
     <use xlink:href="#me10b6d3ceb" x="716.946597" y="243.023458" style="stroke: #000000"/>
     <use xlink:href="#me10b6d3ceb" x="720.428272" y="228.247463" style="stroke: #000000"/>
     <use xlink:href="#me10b6d3ceb" x="723.909948" y="275.530648" style="stroke: #000000"/>
     <use xlink:href="#me10b6d3ceb" x="727.391623" y="243.023458" style="stroke: #000000"/>
     <use xlink:href="#me10b6d3ceb" x="730.873298" y="260.754652" style="stroke: #000000"/>
     <use xlink:href="#me10b6d3ceb" x="734.354974" y="240.068259" style="stroke: #000000"/>
     <use xlink:href="#me10b6d3ceb" x="737.836649" y="245.978657" style="stroke: #000000"/>
     <use xlink:href="#me10b6d3ceb" x="741.318325" y="272.575449" style="stroke: #000000"/>
     <use xlink:href="#me10b6d3ceb" x="744.8" y="251.889055" style="stroke: #000000"/>
    </g>
   </g>
   <g id="line2d_32">
    <path d="M 46.55 248.933856 
L 778.05 248.933856 
" clip-path="url(#pd58ea1cc0e)" style="fill: none; stroke-dasharray: 3.7,1.6; stroke-dashoffset: 0; stroke: #000000"/>
   </g>
   <g id="patch_3">
    <path d="M 46.55 382.213333 
L 46.55 50.64 
" style="fill: none; stroke: #000000; stroke-width: 0.8; stroke-linejoin: miter; stroke-linecap: square"/>
   </g>
   <g id="patch_4">
    <path d="M 778.05 382.213333 
L 778.05 50.64 
" style="fill: none; stroke: #000000; stroke-width: 0.8; stroke-linejoin: miter; stroke-linecap: square"/>
   </g>
   <g id="patch_5">
    <path d="M 46.55 382.213333 
L 778.05 382.213333 
" style="fill: none; stroke: #000000; stroke-width: 0.8; stroke-linejoin: miter; stroke-linecap: square"/>
   </g>
   <g id="patch_6">
    <path d="M 46.55 50.64 
L 778.05 50.64 
" style="fill: none; stroke: #000000; stroke-width: 0.8; stroke-linejoin: miter; stroke-linecap: square"/>
   </g>
   <g id="text_18">
    <!-- Estimated total error -->
    <g transform="translate(349.93375 44.64) scale(0.12 -0.12)">
     <defs>
      <path id="DejaVuSans-45" d="M 628 4666 
L 3578 4666 
L 3578 4134 
L 1259 4134 
L 1259 2753 
L 3481 2753 
L 3481 2222 
L 1259 2222 
L 1259 531 
L 3634 531 
L 3634 0 
L 628 0 
L 628 4666 
z
" transform="scale(0.015625)"/>
      <path id="DejaVuSans-69" d="M 603 3500 
L 1178 3500 
L 1178 0 
L 603 0 
L 603 3500 
z
M 603 4863 
L 1178 4863 
L 1178 4134 
L 603 4134 
L 603 4863 
z
" transform="scale(0.015625)"/>
      <path id="DejaVuSans-64" d="M 2906 2969 
L 2906 4863 
L 3481 4863 
L 3481 0 
L 2906 0 
L 2906 525 
Q 2725 213 2448 61 
Q 2172 -91 1784 -91 
Q 1150 -91 751 415 
Q 353 922 353 1747 
Q 353 2572 751 3078 
Q 1150 3584 1784 3584 
Q 2172 3584 2448 3432 
Q 2725 3281 2906 2969 
z
M 947 1747 
Q 947 1113 1208 752 
Q 1469 391 1925 391 
Q 2381 391 2643 752 
Q 2906 1113 2906 1747 
Q 2906 2381 2643 2742 
Q 2381 3103 1925 3103 
Q 1469 3103 1208 2742 
Q 947 2381 947 1747 
z
" transform="scale(0.015625)"/>
      <path id="DejaVuSans-6f" d="M 1959 3097 
Q 1497 3097 1228 2736 
Q 959 2375 959 1747 
Q 959 1119 1226 758 
Q 1494 397 1959 397 
Q 2419 397 2687 759 
Q 2956 1122 2956 1747 
Q 2956 2369 2687 2733 
Q 2419 3097 1959 3097 
z
M 1959 3584 
Q 2709 3584 3137 3096 
Q 3566 2609 3566 1747 
Q 3566 888 3137 398 
Q 2709 -91 1959 -91 
Q 1206 -91 779 398 
Q 353 888 353 1747 
Q 353 2609 779 3096 
Q 1206 3584 1959 3584 
z
" transform="scale(0.015625)"/>
      <path id="DejaVuSans-72" d="M 2631 2963 
Q 2534 3019 2420 3045 
Q 2306 3072 2169 3072 
Q 1681 3072 1420 2755 
Q 1159 2438 1159 1844 
L 1159 0 
L 581 0 
L 581 3500 
L 1159 3500 
L 1159 2956 
Q 1341 3275 1631 3429 
Q 1922 3584 2338 3584 
Q 2397 3584 2469 3576 
Q 2541 3569 2628 3553 
L 2631 2963 
z
" transform="scale(0.015625)"/>
     </defs>
     <use xlink:href="#DejaVuSans-45"/>
     <use xlink:href="#DejaVuSans-73" transform="translate(63.183594 0)"/>
     <use xlink:href="#DejaVuSans-74" transform="translate(115.283203 0)"/>
     <use xlink:href="#DejaVuSans-69" transform="translate(154.492188 0)"/>
     <use xlink:href="#DejaVuSans-6d" transform="translate(182.275391 0)"/>
     <use xlink:href="#DejaVuSans-61" transform="translate(279.6875 0)"/>
     <use xlink:href="#DejaVuSans-74" transform="translate(340.966797 0)"/>
     <use xlink:href="#DejaVuSans-65" transform="translate(380.175781 0)"/>
     <use xlink:href="#DejaVuSans-64" transform="translate(441.699219 0)"/>
     <use xlink:href="#DejaVuSans-20" transform="translate(505.175781 0)"/>
     <use xlink:href="#DejaVuSans-74" transform="translate(536.962891 0)"/>
     <use xlink:href="#DejaVuSans-6f" transform="translate(576.171875 0)"/>
     <use xlink:href="#DejaVuSans-74" transform="translate(637.353516 0)"/>
     <use xlink:href="#DejaVuSans-61" transform="translate(676.5625 0)"/>
     <use xlink:href="#DejaVuSans-6c" transform="translate(737.841797 0)"/>
     <use xlink:href="#DejaVuSans-20" transform="translate(765.625 0)"/>
     <use xlink:href="#DejaVuSans-65" transform="translate(797.412109 0)"/>
     <use xlink:href="#DejaVuSans-72" transform="translate(858.935547 0)"/>
     <use xlink:href="#DejaVuSans-72" transform="translate(898.298828 0)"/>
     <use xlink:href="#DejaVuSans-6f" transform="translate(937.162109 0)"/>
     <use xlink:href="#DejaVuSans-72" transform="translate(998.34375 0)"/>
    </g>
   </g>
   <g id="legend_1">
    <g id="patch_7">
     <path d="M 680.490625 87.99625 
L 771.05 87.99625 
Q 773.05 87.99625 773.05 85.99625 
L 773.05 57.64 
Q 773.05 55.64 771.05 55.64 
L 680.490625 55.64 
Q 678.490625 55.64 678.490625 57.64 
L 678.490625 85.99625 
Q 678.490625 87.99625 680.490625 87.99625 
z
" style="fill: #ffffff; opacity: 0.8; stroke: #cccccc; stroke-linejoin: miter"/>
    </g>
    <g id="text_19">
     <!-- Series -->
     <g transform="translate(710.39375 67.238437) scale(0.1 -0.1)">
      <defs>
       <path id="DejaVuSans-53" d="M 3425 4513 
L 3425 3897 
Q 3066 4069 2747 4153 
Q 2428 4238 2131 4238 
Q 1616 4238 1336 4038 
Q 1056 3838 1056 3469 
Q 1056 3159 1242 3001 
Q 1428 2844 1947 2747 
L 2328 2669 
Q 3034 2534 3370 2195 
Q 3706 1856 3706 1288 
Q 3706 609 3251 259 
Q 2797 -91 1919 -91 
Q 1588 -91 1214 -16 
Q 841 59 441 206 
L 441 856 
Q 825 641 1194 531 
Q 1563 422 1919 422 
Q 2459 422 2753 634 
Q 3047 847 3047 1241 
Q 3047 1584 2836 1778 
Q 2625 1972 2144 2069 
L 1759 2144 
Q 1053 2284 737 2584 
Q 422 2884 422 3419 
Q 422 4038 858 4394 
Q 1294 4750 2059 4750 
Q 2388 4750 2728 4690 
Q 3069 4631 3425 4513 
z
" transform="scale(0.015625)"/>
      </defs>
      <use xlink:href="#DejaVuSans-53"/>
      <use xlink:href="#DejaVuSans-65" transform="translate(63.476562 0)"/>
      <use xlink:href="#DejaVuSans-72" transform="translate(125 0)"/>
      <use xlink:href="#DejaVuSans-69" transform="translate(166.113281 0)"/>
      <use xlink:href="#DejaVuSans-65" transform="translate(193.896484 0)"/>
      <use xlink:href="#DejaVuSans-73" transform="translate(255.419922 0)"/>
     </g>
    </g>
    <g id="line2d_33">
     <path d="M 682.490625 78.416562 
L 692.490625 78.416562 
L 702.490625 78.416562 
" style="fill: none; stroke: #000000; stroke-width: 3; stroke-linecap: square"/>
     <g>
      <use xlink:href="#me10b6d3ceb" x="692.490625" y="78.416562" style="stroke: #000000"/>
     </g>
    </g>
    <g id="text_20">
     <!-- 0-&gt;2 (total) -->
     <g transform="translate(710.490625 81.916562) scale(0.1 -0.1)">
      <defs>
       <path id="DejaVuSans-2d" d="M 313 2009 
L 1997 2009 
L 1997 1497 
L 313 1497 
L 313 2009 
z
" transform="scale(0.015625)"/>
       <path id="DejaVuSans-3e" d="M 678 3150 
L 678 3719 
L 4684 2266 
L 4684 1747 
L 678 294 
L 678 863 
L 3897 2003 
L 678 3150 
z
" transform="scale(0.015625)"/>
      </defs>
      <use xlink:href="#DejaVuSans-30"/>
      <use xlink:href="#DejaVuSans-2d" transform="translate(63.623047 0)"/>
      <use xlink:href="#DejaVuSans-3e" transform="translate(99.707031 0)"/>
      <use xlink:href="#DejaVuSans-32" transform="translate(183.496094 0)"/>
      <use xlink:href="#DejaVuSans-20" transform="translate(247.119141 0)"/>
      <use xlink:href="#DejaVuSans-28" transform="translate(278.90625 0)"/>
      <use xlink:href="#DejaVuSans-74" transform="translate(317.919922 0)"/>
      <use xlink:href="#DejaVuSans-6f" transform="translate(357.128906 0)"/>
      <use xlink:href="#DejaVuSans-74" transform="translate(418.310547 0)"/>
      <use xlink:href="#DejaVuSans-61" transform="translate(457.519531 0)"/>
      <use xlink:href="#DejaVuSans-6c" transform="translate(518.798828 0)"/>
      <use xlink:href="#DejaVuSans-29" transform="translate(546.582031 0)"/>
     </g>
    </g>
   </g>
  </g>
  <g id="axes_2">
   <g id="patch_8">
    <path d="M 46.55 606.04 
L 778.05 606.04 
L 778.05 440.253333 
L 46.55 440.253333 
z
" style="fill: #ffffff"/>
   </g>
   <g id="FillBetweenPolyCollection_1">
    <defs>
     <path id="mcab879e526" d="M 46.55 -108.599739 
L 46.55 -108.599739 
L 412.3 -62.794153 
L 778.05 -49.495758 
L 778.05 -200.210909 
L 778.05 -200.210909 
L 412.3 -172.136518 
L 46.55 -108.599739 
z
" style="stroke: #808080; stroke-opacity: 0.25"/>
    </defs>
    <g clip-path="url(#pa9af3791f6)">
     <use xlink:href="#mcab879e526" x="0" y="648" style="fill: #808080; fill-opacity: 0.25; stroke: #808080; stroke-opacity: 0.25"/>
    </g>
   </g>
   <g id="matplotlib.axis_3">
    <g id="xtick_10">
     <g id="line2d_34">
      <path d="M 46.55 606.04 
L 46.55 440.253333 
" clip-path="url(#pa9af3791f6)" style="fill: none; stroke-dasharray: 0.8,1.32; stroke-dashoffset: 0; stroke: #b0b0b0; stroke-opacity: 0.5; stroke-width: 0.8"/>
     </g>
     <g id="line2d_35">
      <g>
       <use xlink:href="#me150f8d435" x="46.55" y="606.04" style="stroke: #000000; stroke-width: 0.8"/>
      </g>
     </g>
     <g id="text_21">
      <!-- 0 -->
      <g transform="translate(43.36875 620.638438) scale(0.1 -0.1)">
       <use xlink:href="#DejaVuSans-30"/>
      </g>
     </g>
    </g>
    <g id="xtick_11">
     <g id="line2d_36">
      <path d="M 412.3 606.04 
L 412.3 440.253333 
" clip-path="url(#pa9af3791f6)" style="fill: none; stroke-dasharray: 0.8,1.32; stroke-dashoffset: 0; stroke: #b0b0b0; stroke-opacity: 0.5; stroke-width: 0.8"/>
     </g>
     <g id="line2d_37">
      <g>
       <use xlink:href="#me150f8d435" x="412.3" y="606.04" style="stroke: #000000; stroke-width: 0.8"/>
      </g>
     </g>
     <g id="text_22">
      <!-- 1 -->
      <g transform="translate(409.11875 620.638438) scale(0.1 -0.1)">
       <use xlink:href="#DejaVuSans-31"/>
      </g>
     </g>
    </g>
    <g id="xtick_12">
     <g id="line2d_38">
      <path d="M 778.05 606.04 
L 778.05 440.253333 
" clip-path="url(#pa9af3791f6)" style="fill: none; stroke-dasharray: 0.8,1.32; stroke-dashoffset: 0; stroke: #b0b0b0; stroke-opacity: 0.5; stroke-width: 0.8"/>
     </g>
     <g id="line2d_39">
      <g>
       <use xlink:href="#me150f8d435" x="778.05" y="606.04" style="stroke: #000000; stroke-width: 0.8"/>
      </g>
     </g>
     <g id="text_23">
      <!-- 2 -->
      <g transform="translate(774.86875 620.638438) scale(0.1 -0.1)">
       <use xlink:href="#DejaVuSans-32"/>
      </g>
     </g>
    </g>
    <g id="text_24">
     <!-- Node b -->
     <g transform="translate(394.485938 634.316563) scale(0.1 -0.1)">
      <defs>
       <path id="DejaVuSans-4e" d="M 628 4666 
L 1478 4666 
L 3547 763 
L 3547 4666 
L 4159 4666 
L 4159 0 
L 3309 0 
L 1241 3903 
L 1241 0 
L 628 0 
L 628 4666 
z
" transform="scale(0.015625)"/>
       <path id="DejaVuSans-62" d="M 3116 1747 
Q 3116 2381 2855 2742 
Q 2594 3103 2138 3103 
Q 1681 3103 1420 2742 
Q 1159 2381 1159 1747 
Q 1159 1113 1420 752 
Q 1681 391 2138 391 
Q 2594 391 2855 752 
Q 3116 1113 3116 1747 
z
M 1159 2969 
Q 1341 3281 1617 3432 
Q 1894 3584 2278 3584 
Q 2916 3584 3314 3078 
Q 3713 2572 3713 1747 
Q 3713 922 3314 415 
Q 2916 -91 2278 -91 
Q 1894 -91 1617 61 
Q 1341 213 1159 525 
L 1159 0 
L 581 0 
L 581 4863 
L 1159 4863 
L 1159 2969 
z
" transform="scale(0.015625)"/>
      </defs>
      <use xlink:href="#DejaVuSans-4e"/>
      <use xlink:href="#DejaVuSans-6f" transform="translate(74.804688 0)"/>
      <use xlink:href="#DejaVuSans-64" transform="translate(135.986328 0)"/>
      <use xlink:href="#DejaVuSans-65" transform="translate(199.462891 0)"/>
      <use xlink:href="#DejaVuSans-20" transform="translate(260.986328 0)"/>
      <use xlink:href="#DejaVuSans-62" transform="translate(292.773438 0)"/>
     </g>
    </g>
   </g>
   <g id="matplotlib.axis_4">
    <g id="ytick_7">
     <g id="line2d_40">
      <path d="M 46.55 598.504242 
L 778.05 598.504242 
" clip-path="url(#pa9af3791f6)" style="fill: none; stroke-dasharray: 0.8,1.32; stroke-dashoffset: 0; stroke: #b0b0b0; stroke-opacity: 0.5; stroke-width: 0.8"/>
     </g>
     <g id="line2d_41">
      <g>
       <use xlink:href="#mff5e4ba79d" x="46.55" y="598.504242" style="stroke: #000000; stroke-width: 0.8"/>
      </g>
     </g>
     <g id="text_25">
      <!-- −4 -->
      <g transform="translate(24.807813 602.303461) scale(0.1 -0.1)">
       <use xlink:href="#DejaVuSans-2212"/>
       <use xlink:href="#DejaVuSans-34" transform="translate(83.789062 0)"/>
      </g>
     </g>
    </g>
    <g id="ytick_8">
     <g id="line2d_42">
      <path d="M 46.55 568.952252 
L 778.05 568.952252 
" clip-path="url(#pa9af3791f6)" style="fill: none; stroke-dasharray: 0.8,1.32; stroke-dashoffset: 0; stroke: #b0b0b0; stroke-opacity: 0.5; stroke-width: 0.8"/>
     </g>
     <g id="line2d_43">
      <g>
       <use xlink:href="#mff5e4ba79d" x="46.55" y="568.952252" style="stroke: #000000; stroke-width: 0.8"/>
      </g>
     </g>
     <g id="text_26">
      <!-- −2 -->
      <g transform="translate(24.807813 572.751471) scale(0.1 -0.1)">
       <use xlink:href="#DejaVuSans-2212"/>
       <use xlink:href="#DejaVuSans-32" transform="translate(83.789062 0)"/>
      </g>
     </g>
    </g>
    <g id="ytick_9">
     <g id="line2d_44">
      <path d="M 46.55 539.400261 
L 778.05 539.400261 
" clip-path="url(#pa9af3791f6)" style="fill: none; stroke-dasharray: 0.8,1.32; stroke-dashoffset: 0; stroke: #b0b0b0; stroke-opacity: 0.5; stroke-width: 0.8"/>
     </g>
     <g id="line2d_45">
      <g>
       <use xlink:href="#mff5e4ba79d" x="46.55" y="539.400261" style="stroke: #000000; stroke-width: 0.8"/>
      </g>
     </g>
     <g id="text_27">
      <!-- 0 -->
      <g transform="translate(33.1875 543.19948) scale(0.1 -0.1)">
       <use xlink:href="#DejaVuSans-30"/>
      </g>
     </g>
    </g>
    <g id="ytick_10">
     <g id="line2d_46">
      <path d="M 46.55 509.848271 
L 778.05 509.848271 
" clip-path="url(#pa9af3791f6)" style="fill: none; stroke-dasharray: 0.8,1.32; stroke-dashoffset: 0; stroke: #b0b0b0; stroke-opacity: 0.5; stroke-width: 0.8"/>
     </g>
     <g id="line2d_47">
      <g>
       <use xlink:href="#mff5e4ba79d" x="46.55" y="509.848271" style="stroke: #000000; stroke-width: 0.8"/>
      </g>
     </g>
     <g id="text_28">
      <!-- 2 -->
      <g transform="translate(33.1875 513.64749) scale(0.1 -0.1)">
       <use xlink:href="#DejaVuSans-32"/>
      </g>
     </g>
    </g>
    <g id="ytick_11">
     <g id="line2d_48">
      <path d="M 46.55 480.29628 
L 778.05 480.29628 
" clip-path="url(#pa9af3791f6)" style="fill: none; stroke-dasharray: 0.8,1.32; stroke-dashoffset: 0; stroke: #b0b0b0; stroke-opacity: 0.5; stroke-width: 0.8"/>
     </g>
     <g id="line2d_49">
      <g>
       <use xlink:href="#mff5e4ba79d" x="46.55" y="480.29628" style="stroke: #000000; stroke-width: 0.8"/>
      </g>
     </g>
     <g id="text_29">
      <!-- 4 -->
      <g transform="translate(33.1875 484.095499) scale(0.1 -0.1)">
       <use xlink:href="#DejaVuSans-34"/>
      </g>
     </g>
    </g>
    <g id="ytick_12">
     <g id="line2d_50">
      <path d="M 46.55 450.74429 
L 778.05 450.74429 
" clip-path="url(#pa9af3791f6)" style="fill: none; stroke-dasharray: 0.8,1.32; stroke-dashoffset: 0; stroke: #b0b0b0; stroke-opacity: 0.5; stroke-width: 0.8"/>
     </g>
     <g id="line2d_51">
      <g>
       <use xlink:href="#mff5e4ba79d" x="46.55" y="450.74429" style="stroke: #000000; stroke-width: 0.8"/>
      </g>
     </g>
     <g id="text_30">
      <!-- 6 -->
      <g transform="translate(33.1875 454.543509) scale(0.1 -0.1)">
       <use xlink:href="#DejaVuSans-36"/>
      </g>
     </g>
    </g>
    <g id="text_31">
     <!-- Delta (ms) -->
     <g transform="translate(18.728125 549.452135) rotate(-90) scale(0.1 -0.1)">
      <use xlink:href="#DejaVuSans-44"/>
      <use xlink:href="#DejaVuSans-65" transform="translate(77.001953 0)"/>
      <use xlink:href="#DejaVuSans-6c" transform="translate(138.525391 0)"/>
      <use xlink:href="#DejaVuSans-74" transform="translate(166.308594 0)"/>
      <use xlink:href="#DejaVuSans-61" transform="translate(205.517578 0)"/>
      <use xlink:href="#DejaVuSans-20" transform="translate(266.796875 0)"/>
      <use xlink:href="#DejaVuSans-28" transform="translate(298.583984 0)"/>
      <use xlink:href="#DejaVuSans-6d" transform="translate(337.597656 0)"/>
      <use xlink:href="#DejaVuSans-73" transform="translate(435.009766 0)"/>
      <use xlink:href="#DejaVuSans-29" transform="translate(487.109375 0)"/>
     </g>
    </g>
   </g>
   <g id="line2d_52">
    <path d="M 46.55 539.400261 
L 412.3 540.54694 
L 778.05 539.946665 
" clip-path="url(#pa9af3791f6)" style="fill: none; stroke: #1f77b4; stroke-width: 1.8; stroke-linecap: square"/>
    <defs>
     <path id="mb9d47e469c" d="M 0 3 
C 0.795609 3 1.55874 2.683901 2.12132 2.12132 
C 2.683901 1.55874 3 0.795609 3 0 
C 3 -0.795609 2.683901 -1.55874 2.12132 -2.12132 
C 1.55874 -2.683901 0.795609 -3 0 -3 
C -0.795609 -3 -1.55874 -2.683901 -2.12132 -2.12132 
C -2.683901 -1.55874 -3 -0.795609 -3 0 
C -3 0.795609 -2.683901 1.55874 -2.12132 2.12132 
C -1.55874 2.683901 -0.795609 3 0 3 
z
" style="stroke: #1f77b4"/>
    </defs>
    <g clip-path="url(#pa9af3791f6)">
     <use xlink:href="#mb9d47e469c" x="46.55" y="539.400261" style="fill: #1f77b4; stroke: #1f77b4"/>
     <use xlink:href="#mb9d47e469c" x="412.3" y="540.54694" style="fill: #1f77b4; stroke: #1f77b4"/>
     <use xlink:href="#mb9d47e469c" x="778.05" y="539.946665" style="fill: #1f77b4; stroke: #1f77b4"/>
    </g>
   </g>
   <g id="line2d_53">
    <path d="M 46.55 539.400261 
L 778.05 539.400261 
" clip-path="url(#pa9af3791f6)" style="fill: none; stroke-dasharray: 3.7,1.6; stroke-dashoffset: 0; stroke: #000000"/>
   </g>
   <g id="patch_9">
    <path d="M 46.55 606.04 
L 46.55 440.253333 
" style="fill: none; stroke: #000000; stroke-width: 0.8; stroke-linejoin: miter; stroke-linecap: square"/>
   </g>
   <g id="patch_10">
    <path d="M 778.05 606.04 
L 778.05 440.253333 
" style="fill: none; stroke: #000000; stroke-width: 0.8; stroke-linejoin: miter; stroke-linecap: square"/>
   </g>
   <g id="patch_11">
    <path d="M 46.55 606.04 
L 778.05 606.04 
" style="fill: none; stroke: #000000; stroke-width: 0.8; stroke-linejoin: miter; stroke-linecap: square"/>
   </g>
   <g id="patch_12">
    <path d="M 46.55 440.253333 
L 778.05 440.253333 
" style="fill: none; stroke: #000000; stroke-width: 0.8; stroke-linejoin: miter; stroke-linecap: square"/>
   </g>
   <g id="text_32">
    <!-- Approximate reaction timing error (delta) between node 0 and node b -->
    <g transform="translate(202.06375 434.253333) scale(0.12 -0.12)">
     <defs>
      <path id="DejaVuSans-41" d="M 2188 4044 
L 1331 1722 
L 3047 1722 
L 2188 4044 
z
M 1831 4666 
L 2547 4666 
L 4325 0 
L 3669 0 
L 3244 1197 
L 1141 1197 
L 716 0 
L 50 0 
L 1831 4666 
z
" transform="scale(0.015625)"/>
      <path id="DejaVuSans-70" d="M 1159 525 
L 1159 -1331 
L 581 -1331 
L 581 3500 
L 1159 3500 
L 1159 2969 
Q 1341 3281 1617 3432 
Q 1894 3584 2278 3584 
Q 2916 3584 3314 3078 
Q 3713 2572 3713 1747 
Q 3713 922 3314 415 
Q 2916 -91 2278 -91 
Q 1894 -91 1617 61 
Q 1341 213 1159 525 
z
M 3116 1747 
Q 3116 2381 2855 2742 
Q 2594 3103 2138 3103 
Q 1681 3103 1420 2742 
Q 1159 2381 1159 1747 
Q 1159 1113 1420 752 
Q 1681 391 2138 391 
Q 2594 391 2855 752 
Q 3116 1113 3116 1747 
z
" transform="scale(0.015625)"/>
      <path id="DejaVuSans-78" d="M 3513 3500 
L 2247 1797 
L 3578 0 
L 2900 0 
L 1881 1375 
L 863 0 
L 184 0 
L 1544 1831 
L 300 3500 
L 978 3500 
L 1906 2253 
L 2834 3500 
L 3513 3500 
z
" transform="scale(0.015625)"/>
      <path id="DejaVuSans-63" d="M 3122 3366 
L 3122 2828 
Q 2878 2963 2633 3030 
Q 2388 3097 2138 3097 
Q 1578 3097 1268 2742 
Q 959 2388 959 1747 
Q 959 1106 1268 751 
Q 1578 397 2138 397 
Q 2388 397 2633 464 
Q 2878 531 3122 666 
L 3122 134 
Q 2881 22 2623 -34 
Q 2366 -91 2075 -91 
Q 1284 -91 818 406 
Q 353 903 353 1747 
Q 353 2603 823 3093 
Q 1294 3584 2113 3584 
Q 2378 3584 2631 3529 
Q 2884 3475 3122 3366 
z
" transform="scale(0.015625)"/>
      <path id="DejaVuSans-6e" d="M 3513 2113 
L 3513 0 
L 2938 0 
L 2938 2094 
Q 2938 2591 2744 2837 
Q 2550 3084 2163 3084 
Q 1697 3084 1428 2787 
Q 1159 2491 1159 1978 
L 1159 0 
L 581 0 
L 581 3500 
L 1159 3500 
L 1159 2956 
Q 1366 3272 1645 3428 
Q 1925 3584 2291 3584 
Q 2894 3584 3203 3211 
Q 3513 2838 3513 2113 
z
" transform="scale(0.015625)"/>
      <path id="DejaVuSans-77" d="M 269 3500 
L 844 3500 
L 1563 769 
L 2278 3500 
L 2956 3500 
L 3675 769 
L 4391 3500 
L 4966 3500 
L 4050 0 
L 3372 0 
L 2619 2869 
L 1863 0 
L 1184 0 
L 269 3500 
z
" transform="scale(0.015625)"/>
     </defs>
     <use xlink:href="#DejaVuSans-41"/>
     <use xlink:href="#DejaVuSans-70" transform="translate(68.408203 0)"/>
     <use xlink:href="#DejaVuSans-70" transform="translate(131.884766 0)"/>
     <use xlink:href="#DejaVuSans-72" transform="translate(195.361328 0)"/>
     <use xlink:href="#DejaVuSans-6f" transform="translate(234.224609 0)"/>
     <use xlink:href="#DejaVuSans-78" transform="translate(292.28125 0)"/>
     <use xlink:href="#DejaVuSans-69" transform="translate(351.460938 0)"/>
     <use xlink:href="#DejaVuSans-6d" transform="translate(379.244141 0)"/>
     <use xlink:href="#DejaVuSans-61" transform="translate(476.65625 0)"/>
     <use xlink:href="#DejaVuSans-74" transform="translate(537.935547 0)"/>
     <use xlink:href="#DejaVuSans-65" transform="translate(577.144531 0)"/>
     <use xlink:href="#DejaVuSans-20" transform="translate(638.667969 0)"/>
     <use xlink:href="#DejaVuSans-72" transform="translate(670.455078 0)"/>
     <use xlink:href="#DejaVuSans-65" transform="translate(709.318359 0)"/>
     <use xlink:href="#DejaVuSans-61" transform="translate(770.841797 0)"/>
     <use xlink:href="#DejaVuSans-63" transform="translate(832.121094 0)"/>
     <use xlink:href="#DejaVuSans-74" transform="translate(887.101562 0)"/>
     <use xlink:href="#DejaVuSans-69" transform="translate(926.310547 0)"/>
     <use xlink:href="#DejaVuSans-6f" transform="translate(954.09375 0)"/>
     <use xlink:href="#DejaVuSans-6e" transform="translate(1015.275391 0)"/>
     <use xlink:href="#DejaVuSans-20" transform="translate(1078.654297 0)"/>
     <use xlink:href="#DejaVuSans-74" transform="translate(1110.441406 0)"/>
     <use xlink:href="#DejaVuSans-69" transform="translate(1149.650391 0)"/>
     <use xlink:href="#DejaVuSans-6d" transform="translate(1177.433594 0)"/>
     <use xlink:href="#DejaVuSans-69" transform="translate(1274.845703 0)"/>
     <use xlink:href="#DejaVuSans-6e" transform="translate(1302.628906 0)"/>
     <use xlink:href="#DejaVuSans-67" transform="translate(1366.007812 0)"/>
     <use xlink:href="#DejaVuSans-20" transform="translate(1429.484375 0)"/>
     <use xlink:href="#DejaVuSans-65" transform="translate(1461.271484 0)"/>
     <use xlink:href="#DejaVuSans-72" transform="translate(1522.794922 0)"/>
     <use xlink:href="#DejaVuSans-72" transform="translate(1562.158203 0)"/>
     <use xlink:href="#DejaVuSans-6f" transform="translate(1601.021484 0)"/>
     <use xlink:href="#DejaVuSans-72" transform="translate(1662.203125 0)"/>
     <use xlink:href="#DejaVuSans-20" transform="translate(1703.316406 0)"/>
     <use xlink:href="#DejaVuSans-28" transform="translate(1735.103516 0)"/>
     <use xlink:href="#DejaVuSans-64" transform="translate(1774.117188 0)"/>
     <use xlink:href="#DejaVuSans-65" transform="translate(1837.59375 0)"/>
     <use xlink:href="#DejaVuSans-6c" transform="translate(1899.117188 0)"/>
     <use xlink:href="#DejaVuSans-74" transform="translate(1926.900391 0)"/>
     <use xlink:href="#DejaVuSans-61" transform="translate(1966.109375 0)"/>
     <use xlink:href="#DejaVuSans-29" transform="translate(2027.388672 0)"/>
     <use xlink:href="#DejaVuSans-20" transform="translate(2066.402344 0)"/>
     <use xlink:href="#DejaVuSans-62" transform="translate(2098.189453 0)"/>
     <use xlink:href="#DejaVuSans-65" transform="translate(2161.666016 0)"/>
     <use xlink:href="#DejaVuSans-74" transform="translate(2223.189453 0)"/>
     <use xlink:href="#DejaVuSans-77" transform="translate(2262.398438 0)"/>
     <use xlink:href="#DejaVuSans-65" transform="translate(2344.185547 0)"/>
     <use xlink:href="#DejaVuSans-65" transform="translate(2405.708984 0)"/>
     <use xlink:href="#DejaVuSans-6e" transform="translate(2467.232422 0)"/>
     <use xlink:href="#DejaVuSans-20" transform="translate(2530.611328 0)"/>
     <use xlink:href="#DejaVuSans-6e" transform="translate(2562.398438 0)"/>
     <use xlink:href="#DejaVuSans-6f" transform="translate(2625.777344 0)"/>
     <use xlink:href="#DejaVuSans-64" transform="translate(2686.958984 0)"/>
     <use xlink:href="#DejaVuSans-65" transform="translate(2750.435547 0)"/>
     <use xlink:href="#DejaVuSans-20" transform="translate(2811.958984 0)"/>
     <use xlink:href="#DejaVuSans-30" transform="translate(2843.746094 0)"/>
     <use xlink:href="#DejaVuSans-20" transform="translate(2907.369141 0)"/>
     <use xlink:href="#DejaVuSans-61" transform="translate(2939.15625 0)"/>
     <use xlink:href="#DejaVuSans-6e" transform="translate(3000.435547 0)"/>
     <use xlink:href="#DejaVuSans-64" transform="translate(3063.814453 0)"/>
     <use xlink:href="#DejaVuSans-20" transform="translate(3127.291016 0)"/>
     <use xlink:href="#DejaVuSans-6e" transform="translate(3159.078125 0)"/>
     <use xlink:href="#DejaVuSans-6f" transform="translate(3222.457031 0)"/>
     <use xlink:href="#DejaVuSans-64" transform="translate(3283.638672 0)"/>
     <use xlink:href="#DejaVuSans-65" transform="translate(3347.115234 0)"/>
     <use xlink:href="#DejaVuSans-20" transform="translate(3408.638672 0)"/>
     <use xlink:href="#DejaVuSans-62" transform="translate(3440.425781 0)"/>
    </g>
   </g>
   <g id="legend_2">
    <g id="patch_13">
     <path d="M 53.55 477.609583 
L 209.004688 477.609583 
Q 211.004688 477.609583 211.004688 475.609583 
L 211.004688 447.253333 
Q 211.004688 445.253333 209.004688 445.253333 
L 53.55 445.253333 
Q 51.55 445.253333 51.55 447.253333 
L 51.55 475.609583 
Q 51.55 477.609583 53.55 477.609583 
z
" style="fill: #ffffff; opacity: 0.8; stroke: #cccccc; stroke-linejoin: miter"/>
    </g>
    <g id="line2d_54">
     <path d="M 55.55 453.351771 
L 65.55 453.351771 
L 75.55 453.351771 
" style="fill: none; stroke: #1f77b4; stroke-width: 1.8; stroke-linecap: square"/>
     <g>
      <use xlink:href="#mb9d47e469c" x="65.55" y="453.351771" style="fill: #1f77b4; stroke: #1f77b4"/>
     </g>
    </g>
    <g id="text_33">
     <!-- Average clock difference -->
     <g transform="translate(83.55 456.851771) scale(0.1 -0.1)">
      <defs>
       <path id="DejaVuSans-76" d="M 191 3500 
L 800 3500 
L 1894 563 
L 2988 3500 
L 3597 3500 
L 2284 0 
L 1503 0 
L 191 3500 
z
" transform="scale(0.015625)"/>
       <path id="DejaVuSans-6b" d="M 581 4863 
L 1159 4863 
L 1159 1991 
L 2875 3500 
L 3609 3500 
L 1753 1863 
L 3688 0 
L 2938 0 
L 1159 1709 
L 1159 0 
L 581 0 
L 581 4863 
z
" transform="scale(0.015625)"/>
       <path id="DejaVuSans-66" d="M 2375 4863 
L 2375 4384 
L 1825 4384 
Q 1516 4384 1395 4259 
Q 1275 4134 1275 3809 
L 1275 3500 
L 2222 3500 
L 2222 3053 
L 1275 3053 
L 1275 0 
L 697 0 
L 697 3053 
L 147 3053 
L 147 3500 
L 697 3500 
L 697 3744 
Q 697 4328 969 4595 
Q 1241 4863 1831 4863 
L 2375 4863 
z
" transform="scale(0.015625)"/>
      </defs>
      <use xlink:href="#DejaVuSans-41"/>
      <use xlink:href="#DejaVuSans-76" transform="translate(62.533203 0)"/>
      <use xlink:href="#DejaVuSans-65" transform="translate(121.712891 0)"/>
      <use xlink:href="#DejaVuSans-72" transform="translate(183.236328 0)"/>
      <use xlink:href="#DejaVuSans-61" transform="translate(224.349609 0)"/>
      <use xlink:href="#DejaVuSans-67" transform="translate(285.628906 0)"/>
      <use xlink:href="#DejaVuSans-65" transform="translate(349.105469 0)"/>
      <use xlink:href="#DejaVuSans-20" transform="translate(410.628906 0)"/>
      <use xlink:href="#DejaVuSans-63" transform="translate(442.416016 0)"/>
      <use xlink:href="#DejaVuSans-6c" transform="translate(497.396484 0)"/>
      <use xlink:href="#DejaVuSans-6f" transform="translate(525.179688 0)"/>
      <use xlink:href="#DejaVuSans-63" transform="translate(586.361328 0)"/>
      <use xlink:href="#DejaVuSans-6b" transform="translate(641.341797 0)"/>
      <use xlink:href="#DejaVuSans-20" transform="translate(699.251953 0)"/>
      <use xlink:href="#DejaVuSans-64" transform="translate(731.039062 0)"/>
      <use xlink:href="#DejaVuSans-69" transform="translate(794.515625 0)"/>
      <use xlink:href="#DejaVuSans-66" transform="translate(822.298828 0)"/>
      <use xlink:href="#DejaVuSans-66" transform="translate(857.503906 0)"/>
      <use xlink:href="#DejaVuSans-65" transform="translate(892.708984 0)"/>
      <use xlink:href="#DejaVuSans-72" transform="translate(954.232422 0)"/>
      <use xlink:href="#DejaVuSans-65" transform="translate(993.095703 0)"/>
      <use xlink:href="#DejaVuSans-6e" transform="translate(1054.619141 0)"/>
      <use xlink:href="#DejaVuSans-63" transform="translate(1117.998047 0)"/>
      <use xlink:href="#DejaVuSans-65" transform="translate(1172.978516 0)"/>
     </g>
    </g>
    <g id="patch_14">
     <path d="M 55.55 471.529896 
L 75.55 471.529896 
L 75.55 464.529896 
L 55.55 464.529896 
z
" style="fill: #808080; fill-opacity: 0.25; stroke: #808080; stroke-opacity: 0.25; stroke-linejoin: miter"/>
    </g>
    <g id="text_34">
     <!-- Min-max range -->
     <g transform="translate(83.55 471.529896) scale(0.1 -0.1)">
      <use xlink:href="#DejaVuSans-4d"/>
      <use xlink:href="#DejaVuSans-69" transform="translate(86.279297 0)"/>
      <use xlink:href="#DejaVuSans-6e" transform="translate(114.0625 0)"/>
      <use xlink:href="#DejaVuSans-2d" transform="translate(177.441406 0)"/>
      <use xlink:href="#DejaVuSans-6d" transform="translate(213.525391 0)"/>
      <use xlink:href="#DejaVuSans-61" transform="translate(310.9375 0)"/>
      <use xlink:href="#DejaVuSans-78" transform="translate(372.216797 0)"/>
      <use xlink:href="#DejaVuSans-20" transform="translate(431.396484 0)"/>
      <use xlink:href="#DejaVuSans-72" transform="translate(463.183594 0)"/>
      <use xlink:href="#DejaVuSans-61" transform="translate(504.296875 0)"/>
      <use xlink:href="#DejaVuSans-6e" transform="translate(565.576172 0)"/>
      <use xlink:href="#DejaVuSans-67" transform="translate(628.955078 0)"/>
      <use xlink:href="#DejaVuSans-65" transform="translate(692.431641 0)"/>
     </g>
    </g>
   </g>
  </g>
  <g id="text_35">
   <!-- Approx. reaction timing error (logical delay: 200 ms) -->
   <g transform="translate(238.955625 22.078125) scale(0.12 -0.12)">
    <defs>
     <path id="DejaVuSans-2e" d="M 684 794 
L 1344 794 
L 1344 0 
L 684 0 
L 684 794 
z
" transform="scale(0.015625)"/>
     <path id="DejaVuSans-79" d="M 2059 -325 
Q 1816 -950 1584 -1140 
Q 1353 -1331 966 -1331 
L 506 -1331 
L 506 -850 
L 844 -850 
Q 1081 -850 1212 -737 
Q 1344 -625 1503 -206 
L 1606 56 
L 191 3500 
L 800 3500 
L 1894 763 
L 2988 3500 
L 3597 3500 
L 2059 -325 
z
" transform="scale(0.015625)"/>
     <path id="DejaVuSans-3a" d="M 750 794 
L 1409 794 
L 1409 0 
L 750 0 
L 750 794 
z
M 750 3309 
L 1409 3309 
L 1409 2516 
L 750 2516 
L 750 3309 
z
" transform="scale(0.015625)"/>
    </defs>
    <use xlink:href="#DejaVuSans-41"/>
    <use xlink:href="#DejaVuSans-70" transform="translate(68.408203 0)"/>
    <use xlink:href="#DejaVuSans-70" transform="translate(131.884766 0)"/>
    <use xlink:href="#DejaVuSans-72" transform="translate(195.361328 0)"/>
    <use xlink:href="#DejaVuSans-6f" transform="translate(234.224609 0)"/>
    <use xlink:href="#DejaVuSans-78" transform="translate(292.28125 0)"/>
    <use xlink:href="#DejaVuSans-2e" transform="translate(351.460938 0)"/>
    <use xlink:href="#DejaVuSans-20" transform="translate(383.248047 0)"/>
    <use xlink:href="#DejaVuSans-72" transform="translate(415.035156 0)"/>
    <use xlink:href="#DejaVuSans-65" transform="translate(453.898438 0)"/>
    <use xlink:href="#DejaVuSans-61" transform="translate(515.421875 0)"/>
    <use xlink:href="#DejaVuSans-63" transform="translate(576.701172 0)"/>
    <use xlink:href="#DejaVuSans-74" transform="translate(631.681641 0)"/>
    <use xlink:href="#DejaVuSans-69" transform="translate(670.890625 0)"/>
    <use xlink:href="#DejaVuSans-6f" transform="translate(698.673828 0)"/>
    <use xlink:href="#DejaVuSans-6e" transform="translate(759.855469 0)"/>
    <use xlink:href="#DejaVuSans-20" transform="translate(823.234375 0)"/>
    <use xlink:href="#DejaVuSans-74" transform="translate(855.021484 0)"/>
    <use xlink:href="#DejaVuSans-69" transform="translate(894.230469 0)"/>
    <use xlink:href="#DejaVuSans-6d" transform="translate(922.013672 0)"/>
    <use xlink:href="#DejaVuSans-69" transform="translate(1019.425781 0)"/>
    <use xlink:href="#DejaVuSans-6e" transform="translate(1047.208984 0)"/>
    <use xlink:href="#DejaVuSans-67" transform="translate(1110.587891 0)"/>
    <use xlink:href="#DejaVuSans-20" transform="translate(1174.064453 0)"/>
    <use xlink:href="#DejaVuSans-65" transform="translate(1205.851562 0)"/>
    <use xlink:href="#DejaVuSans-72" transform="translate(1267.375 0)"/>
    <use xlink:href="#DejaVuSans-72" transform="translate(1306.738281 0)"/>
    <use xlink:href="#DejaVuSans-6f" transform="translate(1345.601562 0)"/>
    <use xlink:href="#DejaVuSans-72" transform="translate(1406.783203 0)"/>
    <use xlink:href="#DejaVuSans-20" transform="translate(1447.896484 0)"/>
    <use xlink:href="#DejaVuSans-28" transform="translate(1479.683594 0)"/>
    <use xlink:href="#DejaVuSans-6c" transform="translate(1518.697266 0)"/>
    <use xlink:href="#DejaVuSans-6f" transform="translate(1546.480469 0)"/>
    <use xlink:href="#DejaVuSans-67" transform="translate(1607.662109 0)"/>
    <use xlink:href="#DejaVuSans-69" transform="translate(1671.138672 0)"/>
    <use xlink:href="#DejaVuSans-63" transform="translate(1698.921875 0)"/>
    <use xlink:href="#DejaVuSans-61" transform="translate(1753.902344 0)"/>
    <use xlink:href="#DejaVuSans-6c" transform="translate(1815.181641 0)"/>
    <use xlink:href="#DejaVuSans-20" transform="translate(1842.964844 0)"/>
    <use xlink:href="#DejaVuSans-64" transform="translate(1874.751953 0)"/>
    <use xlink:href="#DejaVuSans-65" transform="translate(1938.228516 0)"/>
    <use xlink:href="#DejaVuSans-6c" transform="translate(1999.751953 0)"/>
    <use xlink:href="#DejaVuSans-61" transform="translate(2027.535156 0)"/>
    <use xlink:href="#DejaVuSans-79" transform="translate(2088.814453 0)"/>
    <use xlink:href="#DejaVuSans-3a" transform="translate(2140.744141 0)"/>
    <use xlink:href="#DejaVuSans-20" transform="translate(2174.435547 0)"/>
    <use xlink:href="#DejaVuSans-32" transform="translate(2206.222656 0)"/>
    <use xlink:href="#DejaVuSans-30" transform="translate(2269.845703 0)"/>
    <use xlink:href="#DejaVuSans-30" transform="translate(2333.46875 0)"/>
    <use xlink:href="#DejaVuSans-20" transform="translate(2397.091797 0)"/>
    <use xlink:href="#DejaVuSans-6d" transform="translate(2428.878906 0)"/>
    <use xlink:href="#DejaVuSans-73" transform="translate(2526.291016 0)"/>
    <use xlink:href="#DejaVuSans-29" transform="translate(2578.390625 0)"/>
   </g>
  </g>
 </g>
 <defs>
  <clipPath id="pd58ea1cc0e">
   <rect x="46.55" y="50.64" width="731.5" height="331.573333"/>
  </clipPath>
  <clipPath id="pa9af3791f6">
   <rect x="46.55" y="440.253333" width="731.5" height="165.786667"/>
  </clipPath>
 </defs>
</svg>
