<?xml version="1.0" encoding="utf-8" standalone="no"?>
<!DOCTYPE svg PUBLIC "-//W3C//DTD SVG 1.1//EN"
  "http://www.w3.org/Graphics/SVG/1.1/DTD/svg11.dtd">
<svg xmlns:xlink="http://www.w3.org/1999/xlink" width="792pt" height="648pt" viewBox="0 0 792 648" xmlns="http://www.w3.org/2000/svg" version="1.1">
 <metadata>
  <rdf:RDF xmlns:dc="http://purl.org/dc/elements/1.1/" xmlns:cc="http://creativecommons.org/ns#" xmlns:rdf="http://www.w3.org/1999/02/22-rdf-syntax-ns#">
   <cc:Work>
    <dc:type rdf:resource="http://purl.org/dc/dcmitype/StillImage"/>
    <dc:date>2026-03-08T22:55:01.748364</dc:date>
    <dc:format>image/svg+xml</dc:format>
    <dc:creator>
     <cc:Agent>
      <dc:title>Matplotlib v3.10.8, https://matplotlib.org/</dc:title>
     </cc:Agent>
    </dc:creator>
   </cc:Work>
  </rdf:RDF>
 </metadata>
 <defs>
  <style type="text/css">*{stroke-linejoin: round; stroke-linecap: butt}</style>
 </defs>
 <g id="figure_1">
  <g id="patch_1">
   <path d="M 0 648 
L 792 648 
L 792 0 
L 0 0 
z
" style="fill: #ffffff"/>
  </g>
  <g id="axes_1">
   <g id="patch_2">
    <path d="M 56.09 382.213333 
L 778.05 382.213333 
L 778.05 50.64 
L 56.09 50.64 
z
" style="fill: #ffffff"/>
   </g>
   <g id="matplotlib.axis_1">
    <g id="xtick_1">
     <g id="line2d_1">
      <path d="M 76.284685 382.213333 
L 76.284685 50.64 
" clip-path="url(#p7ba8f6912b)" style="fill: none; stroke-dasharray: 0.8,1.32; stroke-dashoffset: 0; stroke: #b0b0b0; stroke-opacity: 0.5; stroke-width: 0.8"/>
     </g>
     <g id="line2d_2">
      <defs>
       <path id="m78c62ad76e" d="M 0 0 
L 0 3.5 
" style="stroke: #000000; stroke-width: 0.8"/>
      </defs>
      <g>
       <use xlink:href="#m78c62ad76e" x="76.284685" y="382.213333" style="stroke: #000000; stroke-width: 0.8"/>
      </g>
     </g>
     <g id="text_1">
      <!-- 0 -->
      <g transform="translate(73.103435 396.811771) scale(0.1 -0.1)">
       <defs>
        <path id="DejaVuSans-30" d="M 2034 4250 
Q 1547 4250 1301 3770 
Q 1056 3291 1056 2328 
Q 1056 1369 1301 889 
Q 1547 409 2034 409 
Q 2525 409 2770 889 
Q 3016 1369 3016 2328 
Q 3016 3291 2770 3770 
Q 2525 4250 2034 4250 
z
M 2034 4750 
Q 2819 4750 3233 4129 
Q 3647 3509 3647 2328 
Q 3647 1150 3233 529 
Q 2819 -91 2034 -91 
Q 1250 -91 836 529 
Q 422 1150 422 2328 
Q 422 3509 836 4129 
Q 1250 4750 2034 4750 
z
" transform="scale(0.015625)"/>
       </defs>
       <use xlink:href="#DejaVuSans-30"/>
      </g>
     </g>
    </g>
    <g id="xtick_2">
     <g id="line2d_3">
      <path d="M 202.501469 382.213333 
L 202.501469 50.64 
" clip-path="url(#p7ba8f6912b)" style="fill: none; stroke-dasharray: 0.8,1.32; stroke-dashoffset: 0; stroke: #b0b0b0; stroke-opacity: 0.5; stroke-width: 0.8"/>
     </g>
     <g id="line2d_4">
      <g>
       <use xlink:href="#m78c62ad76e" x="202.501469" y="382.213333" style="stroke: #000000; stroke-width: 0.8"/>
      </g>
     </g>
     <g id="text_2">
      <!-- 20 -->
      <g transform="translate(196.138969 396.811771) scale(0.1 -0.1)">
       <defs>
        <path id="DejaVuSans-32" d="M 1228 531 
L 3431 531 
L 3431 0 
L 469 0 
L 469 531 
Q 828 903 1448 1529 
Q 2069 2156 2228 2338 
Q 2531 2678 2651 2914 
Q 2772 3150 2772 3378 
Q 2772 3750 2511 3984 
Q 2250 4219 1831 4219 
Q 1534 4219 1204 4116 
Q 875 4013 500 3803 
L 500 4441 
Q 881 4594 1212 4672 
Q 1544 4750 1819 4750 
Q 2544 4750 2975 4387 
Q 3406 4025 3406 3419 
Q 3406 3131 3298 2873 
Q 3191 2616 2906 2266 
Q 2828 2175 2409 1742 
Q 1991 1309 1228 531 
z
" transform="scale(0.015625)"/>
       </defs>
       <use xlink:href="#DejaVuSans-32"/>
       <use xlink:href="#DejaVuSans-30" transform="translate(63.623047 0)"/>
      </g>
     </g>
    </g>
    <g id="xtick_3">
     <g id="line2d_5">
      <path d="M 328.718252 382.213333 
L 328.718252 50.64 
" clip-path="url(#p7ba8f6912b)" style="fill: none; stroke-dasharray: 0.8,1.32; stroke-dashoffset: 0; stroke: #b0b0b0; stroke-opacity: 0.5; stroke-width: 0.8"/>
     </g>
     <g id="line2d_6">
      <g>
       <use xlink:href="#m78c62ad76e" x="328.718252" y="382.213333" style="stroke: #000000; stroke-width: 0.8"/>
      </g>
     </g>
     <g id="text_3">
      <!-- 40 -->
      <g transform="translate(322.355752 396.811771) scale(0.1 -0.1)">
       <defs>
        <path id="DejaVuSans-34" d="M 2419 4116 
L 825 1625 
L 2419 1625 
L 2419 4116 
z
M 2253 4666 
L 3047 4666 
L 3047 1625 
L 3713 1625 
L 3713 1100 
L 3047 1100 
L 3047 0 
L 2419 0 
L 2419 1100 
L 313 1100 
L 313 1709 
L 2253 4666 
z
" transform="scale(0.015625)"/>
       </defs>
       <use xlink:href="#DejaVuSans-34"/>
       <use xlink:href="#DejaVuSans-30" transform="translate(63.623047 0)"/>
      </g>
     </g>
    </g>
    <g id="xtick_4">
     <g id="line2d_7">
      <path d="M 454.935035 382.213333 
L 454.935035 50.64 
" clip-path="url(#p7ba8f6912b)" style="fill: none; stroke-dasharray: 0.8,1.32; stroke-dashoffset: 0; stroke: #b0b0b0; stroke-opacity: 0.5; stroke-width: 0.8"/>
     </g>
     <g id="line2d_8">
      <g>
       <use xlink:href="#m78c62ad76e" x="454.935035" y="382.213333" style="stroke: #000000; stroke-width: 0.8"/>
      </g>
     </g>
     <g id="text_4">
      <!-- 60 -->
      <g transform="translate(448.572535 396.811771) scale(0.1 -0.1)">
       <defs>
        <path id="DejaVuSans-36" d="M 2113 2584 
Q 1688 2584 1439 2293 
Q 1191 2003 1191 1497 
Q 1191 994 1439 701 
Q 1688 409 2113 409 
Q 2538 409 2786 701 
Q 3034 994 3034 1497 
Q 3034 2003 2786 2293 
Q 2538 2584 2113 2584 
z
M 3366 4563 
L 3366 3988 
Q 3128 4100 2886 4159 
Q 2644 4219 2406 4219 
Q 1781 4219 1451 3797 
Q 1122 3375 1075 2522 
Q 1259 2794 1537 2939 
Q 1816 3084 2150 3084 
Q 2853 3084 3261 2657 
Q 3669 2231 3669 1497 
Q 3669 778 3244 343 
Q 2819 -91 2113 -91 
Q 1303 -91 875 529 
Q 447 1150 447 2328 
Q 447 3434 972 4092 
Q 1497 4750 2381 4750 
Q 2619 4750 2861 4703 
Q 3103 4656 3366 4563 
z
" transform="scale(0.015625)"/>
       </defs>
       <use xlink:href="#DejaVuSans-36"/>
       <use xlink:href="#DejaVuSans-30" transform="translate(63.623047 0)"/>
      </g>
     </g>
    </g>
    <g id="xtick_5">
     <g id="line2d_9">
      <path d="M 581.151818 382.213333 
L 581.151818 50.64 
" clip-path="url(#p7ba8f6912b)" style="fill: none; stroke-dasharray: 0.8,1.32; stroke-dashoffset: 0; stroke: #b0b0b0; stroke-opacity: 0.5; stroke-width: 0.8"/>
     </g>
     <g id="line2d_10">
      <g>
       <use xlink:href="#m78c62ad76e" x="581.151818" y="382.213333" style="stroke: #000000; stroke-width: 0.8"/>
      </g>
     </g>
     <g id="text_5">
      <!-- 80 -->
      <g transform="translate(574.789318 396.811771) scale(0.1 -0.1)">
       <defs>
        <path id="DejaVuSans-38" d="M 2034 2216 
Q 1584 2216 1326 1975 
Q 1069 1734 1069 1313 
Q 1069 891 1326 650 
Q 1584 409 2034 409 
Q 2484 409 2743 651 
Q 3003 894 3003 1313 
Q 3003 1734 2745 1975 
Q 2488 2216 2034 2216 
z
M 1403 2484 
Q 997 2584 770 2862 
Q 544 3141 544 3541 
Q 544 4100 942 4425 
Q 1341 4750 2034 4750 
Q 2731 4750 3128 4425 
Q 3525 4100 3525 3541 
Q 3525 3141 3298 2862 
Q 3072 2584 2669 2484 
Q 3125 2378 3379 2068 
Q 3634 1759 3634 1313 
Q 3634 634 3220 271 
Q 2806 -91 2034 -91 
Q 1263 -91 848 271 
Q 434 634 434 1313 
Q 434 1759 690 2068 
Q 947 2378 1403 2484 
z
M 1172 3481 
Q 1172 3119 1398 2916 
Q 1625 2713 2034 2713 
Q 2441 2713 2670 2916 
Q 2900 3119 2900 3481 
Q 2900 3844 2670 4047 
Q 2441 4250 2034 4250 
Q 1625 4250 1398 4047 
Q 1172 3844 1172 3481 
z
" transform="scale(0.015625)"/>
       </defs>
       <use xlink:href="#DejaVuSans-38"/>
       <use xlink:href="#DejaVuSans-30" transform="translate(63.623047 0)"/>
      </g>
     </g>
    </g>
    <g id="xtick_6">
     <g id="line2d_11">
      <path d="M 707.368601 382.213333 
L 707.368601 50.64 
" clip-path="url(#p7ba8f6912b)" style="fill: none; stroke-dasharray: 0.8,1.32; stroke-dashoffset: 0; stroke: #b0b0b0; stroke-opacity: 0.5; stroke-width: 0.8"/>
     </g>
     <g id="line2d_12">
      <g>
       <use xlink:href="#m78c62ad76e" x="707.368601" y="382.213333" style="stroke: #000000; stroke-width: 0.8"/>
      </g>
     </g>
     <g id="text_6">
      <!-- 100 -->
      <g transform="translate(697.824851 396.811771) scale(0.1 -0.1)">
       <defs>
        <path id="DejaVuSans-31" d="M 794 531 
L 1825 531 
L 1825 4091 
L 703 3866 
L 703 4441 
L 1819 4666 
L 2450 4666 
L 2450 531 
L 3481 531 
L 3481 0 
L 794 0 
L 794 531 
z
" transform="scale(0.015625)"/>
       </defs>
       <use xlink:href="#DejaVuSans-31"/>
       <use xlink:href="#DejaVuSans-30" transform="translate(63.623047 0)"/>
       <use xlink:href="#DejaVuSans-30" transform="translate(127.246094 0)"/>
      </g>
     </g>
    </g>
    <g id="text_7">
     <!-- Message # -->
     <g transform="translate(389.37625 410.489896) scale(0.1 -0.1)">
      <defs>
       <path id="DejaVuSans-4d" d="M 628 4666 
L 1569 4666 
L 2759 1491 
L 3956 4666 
L 4897 4666 
L 4897 0 
L 4281 0 
L 4281 4097 
L 3078 897 
L 2444 897 
L 1241 4097 
L 1241 0 
L 628 0 
L 628 4666 
z
" transform="scale(0.015625)"/>
       <path id="DejaVuSans-65" d="M 3597 1894 
L 3597 1613 
L 953 1613 
Q 991 1019 1311 708 
Q 1631 397 2203 397 
Q 2534 397 2845 478 
Q 3156 559 3463 722 
L 3463 178 
Q 3153 47 2828 -22 
Q 2503 -91 2169 -91 
Q 1331 -91 842 396 
Q 353 884 353 1716 
Q 353 2575 817 3079 
Q 1281 3584 2069 3584 
Q 2775 3584 3186 3129 
Q 3597 2675 3597 1894 
z
M 3022 2063 
Q 3016 2534 2758 2815 
Q 2500 3097 2075 3097 
Q 1594 3097 1305 2825 
Q 1016 2553 972 2059 
L 3022 2063 
z
" transform="scale(0.015625)"/>
       <path id="DejaVuSans-73" d="M 2834 3397 
L 2834 2853 
Q 2591 2978 2328 3040 
Q 2066 3103 1784 3103 
Q 1356 3103 1142 2972 
Q 928 2841 928 2578 
Q 928 2378 1081 2264 
Q 1234 2150 1697 2047 
L 1894 2003 
Q 2506 1872 2764 1633 
Q 3022 1394 3022 966 
Q 3022 478 2636 193 
Q 2250 -91 1575 -91 
Q 1294 -91 989 -36 
Q 684 19 347 128 
L 347 722 
Q 666 556 975 473 
Q 1284 391 1588 391 
Q 1994 391 2212 530 
Q 2431 669 2431 922 
Q 2431 1156 2273 1281 
Q 2116 1406 1581 1522 
L 1381 1569 
Q 847 1681 609 1914 
Q 372 2147 372 2553 
Q 372 3047 722 3315 
Q 1072 3584 1716 3584 
Q 2034 3584 2315 3537 
Q 2597 3491 2834 3397 
z
" transform="scale(0.015625)"/>
       <path id="DejaVuSans-61" d="M 2194 1759 
Q 1497 1759 1228 1600 
Q 959 1441 959 1056 
Q 959 750 1161 570 
Q 1363 391 1709 391 
Q 2188 391 2477 730 
Q 2766 1069 2766 1631 
L 2766 1759 
L 2194 1759 
z
M 3341 1997 
L 3341 0 
L 2766 0 
L 2766 531 
Q 2569 213 2275 61 
Q 1981 -91 1556 -91 
Q 1019 -91 701 211 
Q 384 513 384 1019 
Q 384 1609 779 1909 
Q 1175 2209 1959 2209 
L 2766 2209 
L 2766 2266 
Q 2766 2663 2505 2880 
Q 2244 3097 1772 3097 
Q 1472 3097 1187 3025 
Q 903 2953 641 2809 
L 641 3341 
Q 956 3463 1253 3523 
Q 1550 3584 1831 3584 
Q 2591 3584 2966 3190 
Q 3341 2797 3341 1997 
z
" transform="scale(0.015625)"/>
       <path id="DejaVuSans-67" d="M 2906 1791 
Q 2906 2416 2648 2759 
Q 2391 3103 1925 3103 
Q 1463 3103 1205 2759 
Q 947 2416 947 1791 
Q 947 1169 1205 825 
Q 1463 481 1925 481 
Q 2391 481 2648 825 
Q 2906 1169 2906 1791 
z
M 3481 434 
Q 3481 -459 3084 -895 
Q 2688 -1331 1869 -1331 
Q 1566 -1331 1297 -1286 
Q 1028 -1241 775 -1147 
L 775 -588 
Q 1028 -725 1275 -790 
Q 1522 -856 1778 -856 
Q 2344 -856 2625 -561 
Q 2906 -266 2906 331 
L 2906 616 
Q 2728 306 2450 153 
Q 2172 0 1784 0 
Q 1141 0 747 490 
Q 353 981 353 1791 
Q 353 2603 747 3093 
Q 1141 3584 1784 3584 
Q 2172 3584 2450 3431 
Q 2728 3278 2906 2969 
L 2906 3500 
L 3481 3500 
L 3481 434 
z
" transform="scale(0.015625)"/>
       <path id="DejaVuSans-20" transform="scale(0.015625)"/>
       <path id="DejaVuSans-23" d="M 3272 2816 
L 2363 2816 
L 2100 1772 
L 3016 1772 
L 3272 2816 
z
M 2803 4594 
L 2478 3297 
L 3391 3297 
L 3719 4594 
L 4219 4594 
L 3897 3297 
L 4872 3297 
L 4872 2816 
L 3775 2816 
L 3519 1772 
L 4513 1772 
L 4513 1294 
L 3397 1294 
L 3072 0 
L 2572 0 
L 2894 1294 
L 1978 1294 
L 1656 0 
L 1153 0 
L 1478 1294 
L 494 1294 
L 494 1772 
L 1594 1772 
L 1856 2816 
L 850 2816 
L 850 3297 
L 1978 3297 
L 2297 4594 
L 2803 4594 
z
" transform="scale(0.015625)"/>
      </defs>
      <use xlink:href="#DejaVuSans-4d"/>
      <use xlink:href="#DejaVuSans-65" transform="translate(86.279297 0)"/>
      <use xlink:href="#DejaVuSans-73" transform="translate(147.802734 0)"/>
      <use xlink:href="#DejaVuSans-73" transform="translate(199.902344 0)"/>
      <use xlink:href="#DejaVuSans-61" transform="translate(252.001953 0)"/>
      <use xlink:href="#DejaVuSans-67" transform="translate(313.28125 0)"/>
      <use xlink:href="#DejaVuSans-65" transform="translate(376.757812 0)"/>
      <use xlink:href="#DejaVuSans-20" transform="translate(438.28125 0)"/>
      <use xlink:href="#DejaVuSans-23" transform="translate(470.068359 0)"/>
     </g>
    </g>
   </g>
   <g id="matplotlib.axis_2">
    <g id="ytick_1">
     <g id="line2d_13">
      <path d="M 56.09 355.548345 
L 778.05 355.548345 
" clip-path="url(#p7ba8f6912b)" style="fill: none; stroke-dasharray: 0.8,1.32; stroke-dashoffset: 0; stroke: #b0b0b0; stroke-opacity: 0.5; stroke-width: 0.8"/>
     </g>
     <g id="line2d_14">
      <defs>
       <path id="m78970e4ec0" d="M 0 0 
L -3.5 0 
" style="stroke: #000000; stroke-width: 0.8"/>
      </defs>
      <g>
       <use xlink:href="#m78970e4ec0" x="56.09" y="355.548345" style="stroke: #000000; stroke-width: 0.8"/>
      </g>
     </g>
     <g id="text_8">
      <!-- −1.5 -->
      <g transform="translate(24.807188 359.347564) scale(0.1 -0.1)">
       <defs>
        <path id="DejaVuSans-2212" d="M 678 2272 
L 4684 2272 
L 4684 1741 
L 678 1741 
L 678 2272 
z
" transform="scale(0.015625)"/>
        <path id="DejaVuSans-2e" d="M 684 794 
L 1344 794 
L 1344 0 
L 684 0 
L 684 794 
z
" transform="scale(0.015625)"/>
        <path id="DejaVuSans-35" d="M 691 4666 
L 3169 4666 
L 3169 4134 
L 1269 4134 
L 1269 2991 
Q 1406 3038 1543 3061 
Q 1681 3084 1819 3084 
Q 2600 3084 3056 2656 
Q 3513 2228 3513 1497 
Q 3513 744 3044 326 
Q 2575 -91 1722 -91 
Q 1428 -91 1123 -41 
Q 819 9 494 109 
L 494 744 
Q 775 591 1075 516 
Q 1375 441 1709 441 
Q 2250 441 2565 725 
Q 2881 1009 2881 1497 
Q 2881 1984 2565 2268 
Q 2250 2553 1709 2553 
Q 1456 2553 1204 2497 
Q 953 2441 691 2322 
L 691 4666 
z
" transform="scale(0.015625)"/>
       </defs>
       <use xlink:href="#DejaVuSans-2212"/>
       <use xlink:href="#DejaVuSans-31" transform="translate(83.789062 0)"/>
       <use xlink:href="#DejaVuSans-2e" transform="translate(147.412109 0)"/>
       <use xlink:href="#DejaVuSans-35" transform="translate(179.199219 0)"/>
      </g>
     </g>
    </g>
    <g id="ytick_2">
     <g id="line2d_15">
      <path d="M 56.09 297.580979 
L 778.05 297.580979 
" clip-path="url(#p7ba8f6912b)" style="fill: none; stroke-dasharray: 0.8,1.32; stroke-dashoffset: 0; stroke: #b0b0b0; stroke-opacity: 0.5; stroke-width: 0.8"/>
     </g>
     <g id="line2d_16">
      <g>
       <use xlink:href="#m78970e4ec0" x="56.09" y="297.580979" style="stroke: #000000; stroke-width: 0.8"/>
      </g>
     </g>
     <g id="text_9">
      <!-- −1.0 -->
      <g transform="translate(24.807188 301.380198) scale(0.1 -0.1)">
       <use xlink:href="#DejaVuSans-2212"/>
       <use xlink:href="#DejaVuSans-31" transform="translate(83.789062 0)"/>
       <use xlink:href="#DejaVuSans-2e" transform="translate(147.412109 0)"/>
       <use xlink:href="#DejaVuSans-30" transform="translate(179.199219 0)"/>
      </g>
     </g>
    </g>
    <g id="ytick_3">
     <g id="line2d_17">
      <path d="M 56.09 239.613613 
L 778.05 239.613613 
" clip-path="url(#p7ba8f6912b)" style="fill: none; stroke-dasharray: 0.8,1.32; stroke-dashoffset: 0; stroke: #b0b0b0; stroke-opacity: 0.5; stroke-width: 0.8"/>
     </g>
     <g id="line2d_18">
      <g>
       <use xlink:href="#m78970e4ec0" x="56.09" y="239.613613" style="stroke: #000000; stroke-width: 0.8"/>
      </g>
     </g>
     <g id="text_10">
      <!-- −0.5 -->
      <g transform="translate(24.807188 243.412832) scale(0.1 -0.1)">
       <use xlink:href="#DejaVuSans-2212"/>
       <use xlink:href="#DejaVuSans-30" transform="translate(83.789062 0)"/>
       <use xlink:href="#DejaVuSans-2e" transform="translate(147.412109 0)"/>
       <use xlink:href="#DejaVuSans-35" transform="translate(179.199219 0)"/>
      </g>
     </g>
    </g>
    <g id="ytick_4">
     <g id="line2d_19">
      <path d="M 56.09 181.646247 
L 778.05 181.646247 
" clip-path="url(#p7ba8f6912b)" style="fill: none; stroke-dasharray: 0.8,1.32; stroke-dashoffset: 0; stroke: #b0b0b0; stroke-opacity: 0.5; stroke-width: 0.8"/>
     </g>
     <g id="line2d_20">
      <g>
       <use xlink:href="#m78970e4ec0" x="56.09" y="181.646247" style="stroke: #000000; stroke-width: 0.8"/>
      </g>
     </g>
     <g id="text_11">
      <!-- 0.0 -->
      <g transform="translate(33.186875 185.445466) scale(0.1 -0.1)">
       <use xlink:href="#DejaVuSans-30"/>
       <use xlink:href="#DejaVuSans-2e" transform="translate(63.623047 0)"/>
       <use xlink:href="#DejaVuSans-30" transform="translate(95.410156 0)"/>
      </g>
     </g>
    </g>
    <g id="ytick_5">
     <g id="line2d_21">
      <path d="M 56.09 123.678881 
L 778.05 123.678881 
" clip-path="url(#p7ba8f6912b)" style="fill: none; stroke-dasharray: 0.8,1.32; stroke-dashoffset: 0; stroke: #b0b0b0; stroke-opacity: 0.5; stroke-width: 0.8"/>
     </g>
     <g id="line2d_22">
      <g>
       <use xlink:href="#m78970e4ec0" x="56.09" y="123.678881" style="stroke: #000000; stroke-width: 0.8"/>
      </g>
     </g>
     <g id="text_12">
      <!-- 0.5 -->
      <g transform="translate(33.186875 127.4781) scale(0.1 -0.1)">
       <use xlink:href="#DejaVuSans-30"/>
       <use xlink:href="#DejaVuSans-2e" transform="translate(63.623047 0)"/>
       <use xlink:href="#DejaVuSans-35" transform="translate(95.410156 0)"/>
      </g>
     </g>
    </g>
    <g id="ytick_6">
     <g id="line2d_23">
      <path d="M 56.09 65.711515 
L 778.05 65.711515 
" clip-path="url(#p7ba8f6912b)" style="fill: none; stroke-dasharray: 0.8,1.32; stroke-dashoffset: 0; stroke: #b0b0b0; stroke-opacity: 0.5; stroke-width: 0.8"/>
     </g>
     <g id="line2d_24">
      <g>
       <use xlink:href="#m78970e4ec0" x="56.09" y="65.711515" style="stroke: #000000; stroke-width: 0.8"/>
      </g>
     </g>
     <g id="text_13">
      <!-- 1.0 -->
      <g transform="translate(33.186875 69.510734) scale(0.1 -0.1)">
       <use xlink:href="#DejaVuSans-31"/>
       <use xlink:href="#DejaVuSans-2e" transform="translate(63.623047 0)"/>
       <use xlink:href="#DejaVuSans-30" transform="translate(95.410156 0)"/>
      </g>
     </g>
    </g>
    <g id="text_14">
     <!-- Delta (ms) -->
     <g transform="translate(18.7275 242.732135) rotate(-90) scale(0.1 -0.1)">
      <defs>
       <path id="DejaVuSans-44" d="M 1259 4147 
L 1259 519 
L 2022 519 
Q 2988 519 3436 956 
Q 3884 1394 3884 2338 
Q 3884 3275 3436 3711 
Q 2988 4147 2022 4147 
L 1259 4147 
z
M 628 4666 
L 1925 4666 
Q 3281 4666 3915 4102 
Q 4550 3538 4550 2338 
Q 4550 1131 3912 565 
Q 3275 0 1925 0 
L 628 0 
L 628 4666 
z
" transform="scale(0.015625)"/>
       <path id="DejaVuSans-6c" d="M 603 4863 
L 1178 4863 
L 1178 0 
L 603 0 
L 603 4863 
z
" transform="scale(0.015625)"/>
       <path id="DejaVuSans-74" d="M 1172 4494 
L 1172 3500 
L 2356 3500 
L 2356 3053 
L 1172 3053 
L 1172 1153 
Q 1172 725 1289 603 
Q 1406 481 1766 481 
L 2356 481 
L 2356 0 
L 1766 0 
Q 1100 0 847 248 
Q 594 497 594 1153 
L 594 3053 
L 172 3053 
L 172 3500 
L 594 3500 
L 594 4494 
L 1172 4494 
z
" transform="scale(0.015625)"/>
       <path id="DejaVuSans-28" d="M 1984 4856 
Q 1566 4138 1362 3434 
Q 1159 2731 1159 2009 
Q 1159 1288 1364 580 
Q 1569 -128 1984 -844 
L 1484 -844 
Q 1016 -109 783 600 
Q 550 1309 550 2009 
Q 550 2706 781 3412 
Q 1013 4119 1484 4856 
L 1984 4856 
z
" transform="scale(0.015625)"/>
       <path id="DejaVuSans-6d" d="M 3328 2828 
Q 3544 3216 3844 3400 
Q 4144 3584 4550 3584 
Q 5097 3584 5394 3201 
Q 5691 2819 5691 2113 
L 5691 0 
L 5113 0 
L 5113 2094 
Q 5113 2597 4934 2840 
Q 4756 3084 4391 3084 
Q 3944 3084 3684 2787 
Q 3425 2491 3425 1978 
L 3425 0 
L 2847 0 
L 2847 2094 
Q 2847 2600 2669 2842 
Q 2491 3084 2119 3084 
Q 1678 3084 1418 2786 
Q 1159 2488 1159 1978 
L 1159 0 
L 581 0 
L 581 3500 
L 1159 3500 
L 1159 2956 
Q 1356 3278 1631 3431 
Q 1906 3584 2284 3584 
Q 2666 3584 2933 3390 
Q 3200 3197 3328 2828 
z
" transform="scale(0.015625)"/>
       <path id="DejaVuSans-29" d="M 513 4856 
L 1013 4856 
Q 1481 4119 1714 3412 
Q 1947 2706 1947 2009 
Q 1947 1309 1714 600 
Q 1481 -109 1013 -844 
L 513 -844 
Q 928 -128 1133 580 
Q 1338 1288 1338 2009 
Q 1338 2731 1133 3434 
Q 928 4138 513 4856 
z
" transform="scale(0.015625)"/>
      </defs>
      <use xlink:href="#DejaVuSans-44"/>
      <use xlink:href="#DejaVuSans-65" transform="translate(77.001953 0)"/>
      <use xlink:href="#DejaVuSans-6c" transform="translate(138.525391 0)"/>
      <use xlink:href="#DejaVuSans-74" transform="translate(166.308594 0)"/>
      <use xlink:href="#DejaVuSans-61" transform="translate(205.517578 0)"/>
      <use xlink:href="#DejaVuSans-20" transform="translate(266.796875 0)"/>
      <use xlink:href="#DejaVuSans-28" transform="translate(298.583984 0)"/>
      <use xlink:href="#DejaVuSans-6d" transform="translate(337.597656 0)"/>
      <use xlink:href="#DejaVuSans-73" transform="translate(435.009766 0)"/>
      <use xlink:href="#DejaVuSans-29" transform="translate(487.109375 0)"/>
     </g>
    </g>
   </g>
   <g id="line2d_25">
    <path d="M 88.906364 158.459301 
L 95.217203 158.459301 
L 101.528042 88.898462 
L 107.838881 112.085408 
L 114.14972 123.678881 
L 120.460559 181.646247 
L 126.771399 193.23972 
L 133.082238 216.426667 
L 139.393077 228.02014 
L 145.703916 170.052774 
L 152.014755 146.865828 
L 158.325594 251.207086 
L 164.636434 251.207086 
L 170.947273 251.207086 
L 177.258112 228.02014 
L 183.568951 181.646247 
L 189.87979 216.426667 
L 196.190629 216.426667 
L 202.501469 262.800559 
L 208.812308 216.426667 
L 215.123147 181.646247 
L 221.433986 170.052774 
L 227.744825 274.394033 
L 234.055664 146.865828 
L 240.366503 204.833193 
L 246.677343 170.052774 
L 252.988182 135.272354 
L 259.299021 216.426667 
L 265.60986 204.833193 
L 271.920699 228.02014 
L 278.231538 170.052774 
L 284.542378 123.678881 
L 290.853217 239.613613 
L 297.164056 239.613613 
L 303.474895 204.833193 
L 309.785734 146.865828 
L 316.096573 193.23972 
L 322.407413 262.800559 
L 328.718252 100.491935 
L 335.029091 112.085408 
L 341.33993 146.865828 
L 347.650769 216.426667 
L 353.961608 100.491935 
L 360.272448 251.207086 
L 366.583287 216.426667 
L 372.894126 193.23972 
L 379.204965 193.23972 
L 385.515804 181.646247 
L 391.826643 251.207086 
L 398.137483 146.865828 
L 404.448322 343.954872 
L 410.759161 158.459301 
L 417.07 88.898462 
L 423.380839 112.085408 
L 429.691678 100.491935 
L 436.002517 251.207086 
L 442.313357 123.678881 
L 448.624196 204.833193 
L 454.935035 320.767925 
L 461.245874 123.678881 
L 467.556713 181.646247 
L 473.867552 135.272354 
L 480.178392 181.646247 
L 486.489231 65.711515 
L 492.80007 170.052774 
L 499.110909 193.23972 
L 505.421748 170.052774 
L 511.732587 123.678881 
L 518.043427 123.678881 
L 524.354266 123.678881 
L 530.665105 181.646247 
L 536.975944 135.272354 
L 543.286783 193.23972 
L 549.597622 262.800559 
L 555.908462 193.23972 
L 562.219301 193.23972 
L 568.53014 228.02014 
L 574.840979 158.459301 
L 581.151818 181.646247 
L 587.462657 112.085408 
L 593.773497 204.833193 
L 600.084336 193.23972 
L 606.395175 193.23972 
L 612.706014 170.052774 
L 619.016853 216.426667 
L 625.327692 135.272354 
L 631.638531 135.272354 
L 637.949371 193.23972 
L 644.26021 146.865828 
L 650.571049 367.141818 
L 656.881888 181.646247 
L 663.192727 204.833193 
L 669.503566 216.426667 
L 675.814406 65.711515 
L 682.125245 100.491935 
L 688.436084 88.898462 
L 694.746923 158.459301 
L 701.057762 158.459301 
L 707.368601 146.865828 
L 713.679441 123.678881 
L 719.99028 181.646247 
L 726.301119 146.865828 
L 732.611958 88.898462 
L 738.922797 320.767925 
L 745.233636 262.800559 
" clip-path="url(#p7ba8f6912b)" style="fill: none; stroke: #000000; stroke-width: 3; stroke-linecap: square"/>
    <defs>
     <path id="m93c6acb230" d="M 0 3 
C 0.795609 3 1.55874 2.683901 2.12132 2.12132 
C 2.683901 1.55874 3 0.795609 3 0 
C 3 -0.795609 2.683901 -1.55874 2.12132 -2.12132 
C 1.55874 -2.683901 0.795609 -3 0 -3 
C -0.795609 -3 -1.55874 -2.683901 -2.12132 -2.12132 
C -2.683901 -1.55874 -3 -0.795609 -3 0 
C -3 0.795609 -2.683901 1.55874 -2.12132 2.12132 
C -1.55874 2.683901 -0.795609 3 0 3 
z
" style="stroke: #000000"/>
    </defs>
    <g clip-path="url(#p7ba8f6912b)">
     <use xlink:href="#m93c6acb230" x="88.906364" y="158.459301" style="stroke: #000000"/>
     <use xlink:href="#m93c6acb230" x="95.217203" y="158.459301" style="stroke: #000000"/>
     <use xlink:href="#m93c6acb230" x="101.528042" y="88.898462" style="stroke: #000000"/>
     <use xlink:href="#m93c6acb230" x="107.838881" y="112.085408" style="stroke: #000000"/>
     <use xlink:href="#m93c6acb230" x="114.14972" y="123.678881" style="stroke: #000000"/>
     <use xlink:href="#m93c6acb230" x="120.460559" y="181.646247" style="stroke: #000000"/>
     <use xlink:href="#m93c6acb230" x="126.771399" y="193.23972" style="stroke: #000000"/>
     <use xlink:href="#m93c6acb230" x="133.082238" y="216.426667" style="stroke: #000000"/>
     <use xlink:href="#m93c6acb230" x="139.393077" y="228.02014" style="stroke: #000000"/>
     <use xlink:href="#m93c6acb230" x="145.703916" y="170.052774" style="stroke: #000000"/>
     <use xlink:href="#m93c6acb230" x="152.014755" y="146.865828" style="stroke: #000000"/>
     <use xlink:href="#m93c6acb230" x="158.325594" y="251.207086" style="stroke: #000000"/>
     <use xlink:href="#m93c6acb230" x="164.636434" y="251.207086" style="stroke: #000000"/>
     <use xlink:href="#m93c6acb230" x="170.947273" y="251.207086" style="stroke: #000000"/>
     <use xlink:href="#m93c6acb230" x="177.258112" y="228.02014" style="stroke: #000000"/>
     <use xlink:href="#m93c6acb230" x="183.568951" y="181.646247" style="stroke: #000000"/>
     <use xlink:href="#m93c6acb230" x="189.87979" y="216.426667" style="stroke: #000000"/>
     <use xlink:href="#m93c6acb230" x="196.190629" y="216.426667" style="stroke: #000000"/>
     <use xlink:href="#m93c6acb230" x="202.501469" y="262.800559" style="stroke: #000000"/>
     <use xlink:href="#m93c6acb230" x="208.812308" y="216.426667" style="stroke: #000000"/>
     <use xlink:href="#m93c6acb230" x="215.123147" y="181.646247" style="stroke: #000000"/>
     <use xlink:href="#m93c6acb230" x="221.433986" y="170.052774" style="stroke: #000000"/>
     <use xlink:href="#m93c6acb230" x="227.744825" y="274.394033" style="stroke: #000000"/>
     <use xlink:href="#m93c6acb230" x="234.055664" y="146.865828" style="stroke: #000000"/>
     <use xlink:href="#m93c6acb230" x="240.366503" y="204.833193" style="stroke: #000000"/>
     <use xlink:href="#m93c6acb230" x="246.677343" y="170.052774" style="stroke: #000000"/>
     <use xlink:href="#m93c6acb230" x="252.988182" y="135.272354" style="stroke: #000000"/>
     <use xlink:href="#m93c6acb230" x="259.299021" y="216.426667" style="stroke: #000000"/>
     <use xlink:href="#m93c6acb230" x="265.60986" y="204.833193" style="stroke: #000000"/>
     <use xlink:href="#m93c6acb230" x="271.920699" y="228.02014" style="stroke: #000000"/>
     <use xlink:href="#m93c6acb230" x="278.231538" y="170.052774" style="stroke: #000000"/>
     <use xlink:href="#m93c6acb230" x="284.542378" y="123.678881" style="stroke: #000000"/>
     <use xlink:href="#m93c6acb230" x="290.853217" y="239.613613" style="stroke: #000000"/>
     <use xlink:href="#m93c6acb230" x="297.164056" y="239.613613" style="stroke: #000000"/>
     <use xlink:href="#m93c6acb230" x="303.474895" y="204.833193" style="stroke: #000000"/>
     <use xlink:href="#m93c6acb230" x="309.785734" y="146.865828" style="stroke: #000000"/>
     <use xlink:href="#m93c6acb230" x="316.096573" y="193.23972" style="stroke: #000000"/>
     <use xlink:href="#m93c6acb230" x="322.407413" y="262.800559" style="stroke: #000000"/>
     <use xlink:href="#m93c6acb230" x="328.718252" y="100.491935" style="stroke: #000000"/>
     <use xlink:href="#m93c6acb230" x="335.029091" y="112.085408" style="stroke: #000000"/>
     <use xlink:href="#m93c6acb230" x="341.33993" y="146.865828" style="stroke: #000000"/>
     <use xlink:href="#m93c6acb230" x="347.650769" y="216.426667" style="stroke: #000000"/>
     <use xlink:href="#m93c6acb230" x="353.961608" y="100.491935" style="stroke: #000000"/>
     <use xlink:href="#m93c6acb230" x="360.272448" y="251.207086" style="stroke: #000000"/>
     <use xlink:href="#m93c6acb230" x="366.583287" y="216.426667" style="stroke: #000000"/>
     <use xlink:href="#m93c6acb230" x="372.894126" y="193.23972" style="stroke: #000000"/>
     <use xlink:href="#m93c6acb230" x="379.204965" y="193.23972" style="stroke: #000000"/>
     <use xlink:href="#m93c6acb230" x="385.515804" y="181.646247" style="stroke: #000000"/>
     <use xlink:href="#m93c6acb230" x="391.826643" y="251.207086" style="stroke: #000000"/>
     <use xlink:href="#m93c6acb230" x="398.137483" y="146.865828" style="stroke: #000000"/>
     <use xlink:href="#m93c6acb230" x="404.448322" y="343.954872" style="stroke: #000000"/>
     <use xlink:href="#m93c6acb230" x="410.759161" y="158.459301" style="stroke: #000000"/>
     <use xlink:href="#m93c6acb230" x="417.07" y="88.898462" style="stroke: #000000"/>
     <use xlink:href="#m93c6acb230" x="423.380839" y="112.085408" style="stroke: #000000"/>
     <use xlink:href="#m93c6acb230" x="429.691678" y="100.491935" style="stroke: #000000"/>
     <use xlink:href="#m93c6acb230" x="436.002517" y="251.207086" style="stroke: #000000"/>
     <use xlink:href="#m93c6acb230" x="442.313357" y="123.678881" style="stroke: #000000"/>
     <use xlink:href="#m93c6acb230" x="448.624196" y="204.833193" style="stroke: #000000"/>
     <use xlink:href="#m93c6acb230" x="454.935035" y="320.767925" style="stroke: #000000"/>
     <use xlink:href="#m93c6acb230" x="461.245874" y="123.678881" style="stroke: #000000"/>
     <use xlink:href="#m93c6acb230" x="467.556713" y="181.646247" style="stroke: #000000"/>
     <use xlink:href="#m93c6acb230" x="473.867552" y="135.272354" style="stroke: #000000"/>
     <use xlink:href="#m93c6acb230" x="480.178392" y="181.646247" style="stroke: #000000"/>
     <use xlink:href="#m93c6acb230" x="486.489231" y="65.711515" style="stroke: #000000"/>
     <use xlink:href="#m93c6acb230" x="492.80007" y="170.052774" style="stroke: #000000"/>
     <use xlink:href="#m93c6acb230" x="499.110909" y="193.23972" style="stroke: #000000"/>
     <use xlink:href="#m93c6acb230" x="505.421748" y="170.052774" style="stroke: #000000"/>
     <use xlink:href="#m93c6acb230" x="511.732587" y="123.678881" style="stroke: #000000"/>
     <use xlink:href="#m93c6acb230" x="518.043427" y="123.678881" style="stroke: #000000"/>
     <use xlink:href="#m93c6acb230" x="524.354266" y="123.678881" style="stroke: #000000"/>
     <use xlink:href="#m93c6acb230" x="530.665105" y="181.646247" style="stroke: #000000"/>
     <use xlink:href="#m93c6acb230" x="536.975944" y="135.272354" style="stroke: #000000"/>
     <use xlink:href="#m93c6acb230" x="543.286783" y="193.23972" style="stroke: #000000"/>
     <use xlink:href="#m93c6acb230" x="549.597622" y="262.800559" style="stroke: #000000"/>
     <use xlink:href="#m93c6acb230" x="555.908462" y="193.23972" style="stroke: #000000"/>
     <use xlink:href="#m93c6acb230" x="562.219301" y="193.23972" style="stroke: #000000"/>
     <use xlink:href="#m93c6acb230" x="568.53014" y="228.02014" style="stroke: #000000"/>
     <use xlink:href="#m93c6acb230" x="574.840979" y="158.459301" style="stroke: #000000"/>
     <use xlink:href="#m93c6acb230" x="581.151818" y="181.646247" style="stroke: #000000"/>
     <use xlink:href="#m93c6acb230" x="587.462657" y="112.085408" style="stroke: #000000"/>
     <use xlink:href="#m93c6acb230" x="593.773497" y="204.833193" style="stroke: #000000"/>
     <use xlink:href="#m93c6acb230" x="600.084336" y="193.23972" style="stroke: #000000"/>
     <use xlink:href="#m93c6acb230" x="606.395175" y="193.23972" style="stroke: #000000"/>
     <use xlink:href="#m93c6acb230" x="612.706014" y="170.052774" style="stroke: #000000"/>
     <use xlink:href="#m93c6acb230" x="619.016853" y="216.426667" style="stroke: #000000"/>
     <use xlink:href="#m93c6acb230" x="625.327692" y="135.272354" style="stroke: #000000"/>
     <use xlink:href="#m93c6acb230" x="631.638531" y="135.272354" style="stroke: #000000"/>
     <use xlink:href="#m93c6acb230" x="637.949371" y="193.23972" style="stroke: #000000"/>
     <use xlink:href="#m93c6acb230" x="644.26021" y="146.865828" style="stroke: #000000"/>
     <use xlink:href="#m93c6acb230" x="650.571049" y="367.141818" style="stroke: #000000"/>
     <use xlink:href="#m93c6acb230" x="656.881888" y="181.646247" style="stroke: #000000"/>
     <use xlink:href="#m93c6acb230" x="663.192727" y="204.833193" style="stroke: #000000"/>
     <use xlink:href="#m93c6acb230" x="669.503566" y="216.426667" style="stroke: #000000"/>
     <use xlink:href="#m93c6acb230" x="675.814406" y="65.711515" style="stroke: #000000"/>
     <use xlink:href="#m93c6acb230" x="682.125245" y="100.491935" style="stroke: #000000"/>
     <use xlink:href="#m93c6acb230" x="688.436084" y="88.898462" style="stroke: #000000"/>
     <use xlink:href="#m93c6acb230" x="694.746923" y="158.459301" style="stroke: #000000"/>
     <use xlink:href="#m93c6acb230" x="701.057762" y="158.459301" style="stroke: #000000"/>
     <use xlink:href="#m93c6acb230" x="707.368601" y="146.865828" style="stroke: #000000"/>
     <use xlink:href="#m93c6acb230" x="713.679441" y="123.678881" style="stroke: #000000"/>
     <use xlink:href="#m93c6acb230" x="719.99028" y="181.646247" style="stroke: #000000"/>
     <use xlink:href="#m93c6acb230" x="726.301119" y="146.865828" style="stroke: #000000"/>
     <use xlink:href="#m93c6acb230" x="732.611958" y="88.898462" style="stroke: #000000"/>
     <use xlink:href="#m93c6acb230" x="738.922797" y="320.767925" style="stroke: #000000"/>
     <use xlink:href="#m93c6acb230" x="745.233636" y="262.800559" style="stroke: #000000"/>
    </g>
   </g>
   <g id="line2d_26">
    <path d="M 56.09 181.646247 
L 778.05 181.646247 
" clip-path="url(#p7ba8f6912b)" style="fill: none; stroke-dasharray: 3.7,1.6; stroke-dashoffset: 0; stroke: #000000"/>
   </g>
   <g id="patch_3">
    <path d="M 56.09 382.213333 
L 56.09 50.64 
" style="fill: none; stroke: #000000; stroke-width: 0.8; stroke-linejoin: miter; stroke-linecap: square"/>
   </g>
   <g id="patch_4">
    <path d="M 778.05 382.213333 
L 778.05 50.64 
" style="fill: none; stroke: #000000; stroke-width: 0.8; stroke-linejoin: miter; stroke-linecap: square"/>
   </g>
   <g id="patch_5">
    <path d="M 56.09 382.213333 
L 778.05 382.213333 
" style="fill: none; stroke: #000000; stroke-width: 0.8; stroke-linejoin: miter; stroke-linecap: square"/>
   </g>
   <g id="patch_6">
    <path d="M 56.09 50.64 
L 778.05 50.64 
" style="fill: none; stroke: #000000; stroke-width: 0.8; stroke-linejoin: miter; stroke-linecap: square"/>
   </g>
   <g id="text_15">
    <!-- Estimated total error -->
    <g transform="translate(354.70375 44.64) scale(0.12 -0.12)">
     <defs>
      <path id="DejaVuSans-45" d="M 628 4666 
L 3578 4666 
L 3578 4134 
L 1259 4134 
L 1259 2753 
L 3481 2753 
L 3481 2222 
L 1259 2222 
L 1259 531 
L 3634 531 
L 3634 0 
L 628 0 
L 628 4666 
z
" transform="scale(0.015625)"/>
      <path id="DejaVuSans-69" d="M 603 3500 
L 1178 3500 
L 1178 0 
L 603 0 
L 603 3500 
z
M 603 4863 
L 1178 4863 
L 1178 4134 
L 603 4134 
L 603 4863 
z
" transform="scale(0.015625)"/>
      <path id="DejaVuSans-64" d="M 2906 2969 
L 2906 4863 
L 3481 4863 
L 3481 0 
L 2906 0 
L 2906 525 
Q 2725 213 2448 61 
Q 2172 -91 1784 -91 
Q 1150 -91 751 415 
Q 353 922 353 1747 
Q 353 2572 751 3078 
Q 1150 3584 1784 3584 
Q 2172 3584 2448 3432 
Q 2725 3281 2906 2969 
z
M 947 1747 
Q 947 1113 1208 752 
Q 1469 391 1925 391 
Q 2381 391 2643 752 
Q 2906 1113 2906 1747 
Q 2906 2381 2643 2742 
Q 2381 3103 1925 3103 
Q 1469 3103 1208 2742 
Q 947 2381 947 1747 
z
" transform="scale(0.015625)"/>
      <path id="DejaVuSans-6f" d="M 1959 3097 
Q 1497 3097 1228 2736 
Q 959 2375 959 1747 
Q 959 1119 1226 758 
Q 1494 397 1959 397 
Q 2419 397 2687 759 
Q 2956 1122 2956 1747 
Q 2956 2369 2687 2733 
Q 2419 3097 1959 3097 
z
M 1959 3584 
Q 2709 3584 3137 3096 
Q 3566 2609 3566 1747 
Q 3566 888 3137 398 
Q 2709 -91 1959 -91 
Q 1206 -91 779 398 
Q 353 888 353 1747 
Q 353 2609 779 3096 
Q 1206 3584 1959 3584 
z
" transform="scale(0.015625)"/>
      <path id="DejaVuSans-72" d="M 2631 2963 
Q 2534 3019 2420 3045 
Q 2306 3072 2169 3072 
Q 1681 3072 1420 2755 
Q 1159 2438 1159 1844 
L 1159 0 
L 581 0 
L 581 3500 
L 1159 3500 
L 1159 2956 
Q 1341 3275 1631 3429 
Q 1922 3584 2338 3584 
Q 2397 3584 2469 3576 
Q 2541 3569 2628 3553 
L 2631 2963 
z
" transform="scale(0.015625)"/>
     </defs>
     <use xlink:href="#DejaVuSans-45"/>
     <use xlink:href="#DejaVuSans-73" transform="translate(63.183594 0)"/>
     <use xlink:href="#DejaVuSans-74" transform="translate(115.283203 0)"/>
     <use xlink:href="#DejaVuSans-69" transform="translate(154.492188 0)"/>
     <use xlink:href="#DejaVuSans-6d" transform="translate(182.275391 0)"/>
     <use xlink:href="#DejaVuSans-61" transform="translate(279.6875 0)"/>
     <use xlink:href="#DejaVuSans-74" transform="translate(340.966797 0)"/>
     <use xlink:href="#DejaVuSans-65" transform="translate(380.175781 0)"/>
     <use xlink:href="#DejaVuSans-64" transform="translate(441.699219 0)"/>
     <use xlink:href="#DejaVuSans-20" transform="translate(505.175781 0)"/>
     <use xlink:href="#DejaVuSans-74" transform="translate(536.962891 0)"/>
     <use xlink:href="#DejaVuSans-6f" transform="translate(576.171875 0)"/>
     <use xlink:href="#DejaVuSans-74" transform="translate(637.353516 0)"/>
     <use xlink:href="#DejaVuSans-61" transform="translate(676.5625 0)"/>
     <use xlink:href="#DejaVuSans-6c" transform="translate(737.841797 0)"/>
     <use xlink:href="#DejaVuSans-20" transform="translate(765.625 0)"/>
     <use xlink:href="#DejaVuSans-65" transform="translate(797.412109 0)"/>
     <use xlink:href="#DejaVuSans-72" transform="translate(858.935547 0)"/>
     <use xlink:href="#DejaVuSans-72" transform="translate(898.298828 0)"/>
     <use xlink:href="#DejaVuSans-6f" transform="translate(937.162109 0)"/>
     <use xlink:href="#DejaVuSans-72" transform="translate(998.34375 0)"/>
    </g>
   </g>
   <g id="legend_1">
    <g id="patch_7">
     <path d="M 63.09 87.99625 
L 153.649375 87.99625 
Q 155.649375 87.99625 155.649375 85.99625 
L 155.649375 57.64 
Q 155.649375 55.64 153.649375 55.64 
L 63.09 55.64 
Q 61.09 55.64 61.09 57.64 
L 61.09 85.99625 
Q 61.09 87.99625 63.09 87.99625 
z
" style="fill: #ffffff; opacity: 0.8; stroke: #cccccc; stroke-linejoin: miter"/>
    </g>
    <g id="text_16">
     <!-- Series -->
     <g transform="translate(92.993125 67.238437) scale(0.1 -0.1)">
      <defs>
       <path id="DejaVuSans-53" d="M 3425 4513 
L 3425 3897 
Q 3066 4069 2747 4153 
Q 2428 4238 2131 4238 
Q 1616 4238 1336 4038 
Q 1056 3838 1056 3469 
Q 1056 3159 1242 3001 
Q 1428 2844 1947 2747 
L 2328 2669 
Q 3034 2534 3370 2195 
Q 3706 1856 3706 1288 
Q 3706 609 3251 259 
Q 2797 -91 1919 -91 
Q 1588 -91 1214 -16 
Q 841 59 441 206 
L 441 856 
Q 825 641 1194 531 
Q 1563 422 1919 422 
Q 2459 422 2753 634 
Q 3047 847 3047 1241 
Q 3047 1584 2836 1778 
Q 2625 1972 2144 2069 
L 1759 2144 
Q 1053 2284 737 2584 
Q 422 2884 422 3419 
Q 422 4038 858 4394 
Q 1294 4750 2059 4750 
Q 2388 4750 2728 4690 
Q 3069 4631 3425 4513 
z
" transform="scale(0.015625)"/>
      </defs>
      <use xlink:href="#DejaVuSans-53"/>
      <use xlink:href="#DejaVuSans-65" transform="translate(63.476562 0)"/>
      <use xlink:href="#DejaVuSans-72" transform="translate(125 0)"/>
      <use xlink:href="#DejaVuSans-69" transform="translate(166.113281 0)"/>
      <use xlink:href="#DejaVuSans-65" transform="translate(193.896484 0)"/>
      <use xlink:href="#DejaVuSans-73" transform="translate(255.419922 0)"/>
     </g>
    </g>
    <g id="line2d_27">
     <path d="M 65.09 78.416562 
L 75.09 78.416562 
L 85.09 78.416562 
" style="fill: none; stroke: #000000; stroke-width: 3; stroke-linecap: square"/>
     <g>
      <use xlink:href="#m93c6acb230" x="75.09" y="78.416562" style="stroke: #000000"/>
     </g>
    </g>
    <g id="text_17">
     <!-- 0-&gt;2 (total) -->
     <g transform="translate(93.09 81.916562) scale(0.1 -0.1)">
      <defs>
       <path id="DejaVuSans-2d" d="M 313 2009 
L 1997 2009 
L 1997 1497 
L 313 1497 
L 313 2009 
z
" transform="scale(0.015625)"/>
       <path id="DejaVuSans-3e" d="M 678 3150 
L 678 3719 
L 4684 2266 
L 4684 1747 
L 678 294 
L 678 863 
L 3897 2003 
L 678 3150 
z
" transform="scale(0.015625)"/>
      </defs>
      <use xlink:href="#DejaVuSans-30"/>
      <use xlink:href="#DejaVuSans-2d" transform="translate(63.623047 0)"/>
      <use xlink:href="#DejaVuSans-3e" transform="translate(99.707031 0)"/>
      <use xlink:href="#DejaVuSans-32" transform="translate(183.496094 0)"/>
      <use xlink:href="#DejaVuSans-20" transform="translate(247.119141 0)"/>
      <use xlink:href="#DejaVuSans-28" transform="translate(278.90625 0)"/>
      <use xlink:href="#DejaVuSans-74" transform="translate(317.919922 0)"/>
      <use xlink:href="#DejaVuSans-6f" transform="translate(357.128906 0)"/>
      <use xlink:href="#DejaVuSans-74" transform="translate(418.310547 0)"/>
      <use xlink:href="#DejaVuSans-61" transform="translate(457.519531 0)"/>
      <use xlink:href="#DejaVuSans-6c" transform="translate(518.798828 0)"/>
      <use xlink:href="#DejaVuSans-29" transform="translate(546.582031 0)"/>
     </g>
    </g>
   </g>
  </g>
  <g id="axes_2">
   <g id="patch_8">
    <path d="M 56.09 606.04 
L 778.05 606.04 
L 778.05 440.253333 
L 56.09 440.253333 
z
" style="fill: #ffffff"/>
   </g>
   <g id="FillBetweenPolyCollection_1">
    <defs>
     <path id="m759a928b29" d="M 56.09 -142.243543 
L 56.09 -142.243543 
L 417.07 -49.495758 
L 778.05 -49.495758 
L 778.05 -200.210909 
L 778.05 -200.210909 
L 417.07 -200.210909 
L 56.09 -142.243543 
z
" style="stroke: #808080; stroke-opacity: 0.25"/>
    </defs>
    <g clip-path="url(#p90d0134cb6)">
     <use xlink:href="#m759a928b29" x="0" y="648" style="fill: #808080; fill-opacity: 0.25; stroke: #808080; stroke-opacity: 0.25"/>
    </g>
   </g>
   <g id="matplotlib.axis_3">
    <g id="xtick_7">
     <g id="line2d_28">
      <path d="M 56.09 606.04 
L 56.09 440.253333 
" clip-path="url(#p90d0134cb6)" style="fill: none; stroke-dasharray: 0.8,1.32; stroke-dashoffset: 0; stroke: #b0b0b0; stroke-opacity: 0.5; stroke-width: 0.8"/>
     </g>
     <g id="line2d_29">
      <g>
       <use xlink:href="#m78c62ad76e" x="56.09" y="606.04" style="stroke: #000000; stroke-width: 0.8"/>
      </g>
     </g>
     <g id="text_18">
      <!-- 0 -->
      <g transform="translate(52.90875 620.638438) scale(0.1 -0.1)">
       <use xlink:href="#DejaVuSans-30"/>
      </g>
     </g>
    </g>
    <g id="xtick_8">
     <g id="line2d_30">
      <path d="M 417.07 606.04 
L 417.07 440.253333 
" clip-path="url(#p90d0134cb6)" style="fill: none; stroke-dasharray: 0.8,1.32; stroke-dashoffset: 0; stroke: #b0b0b0; stroke-opacity: 0.5; stroke-width: 0.8"/>
     </g>
     <g id="line2d_31">
      <g>
       <use xlink:href="#m78c62ad76e" x="417.07" y="606.04" style="stroke: #000000; stroke-width: 0.8"/>
      </g>
     </g>
     <g id="text_19">
      <!-- 1 -->
      <g transform="translate(413.88875 620.638438) scale(0.1 -0.1)">
       <use xlink:href="#DejaVuSans-31"/>
      </g>
     </g>
    </g>
    <g id="xtick_9">
     <g id="line2d_32">
      <path d="M 778.05 606.04 
L 778.05 440.253333 
" clip-path="url(#p90d0134cb6)" style="fill: none; stroke-dasharray: 0.8,1.32; stroke-dashoffset: 0; stroke: #b0b0b0; stroke-opacity: 0.5; stroke-width: 0.8"/>
     </g>
     <g id="line2d_33">
      <g>
       <use xlink:href="#m78c62ad76e" x="778.05" y="606.04" style="stroke: #000000; stroke-width: 0.8"/>
      </g>
     </g>
     <g id="text_20">
      <!-- 2 -->
      <g transform="translate(774.86875 620.638438) scale(0.1 -0.1)">
       <use xlink:href="#DejaVuSans-32"/>
      </g>
     </g>
    </g>
    <g id="text_21">
     <!-- Node b -->
     <g transform="translate(399.255938 634.316563) scale(0.1 -0.1)">
      <defs>
       <path id="DejaVuSans-4e" d="M 628 4666 
L 1478 4666 
L 3547 763 
L 3547 4666 
L 4159 4666 
L 4159 0 
L 3309 0 
L 1241 3903 
L 1241 0 
L 628 0 
L 628 4666 
z
" transform="scale(0.015625)"/>
       <path id="DejaVuSans-62" d="M 3116 1747 
Q 3116 2381 2855 2742 
Q 2594 3103 2138 3103 
Q 1681 3103 1420 2742 
Q 1159 2381 1159 1747 
Q 1159 1113 1420 752 
Q 1681 391 2138 391 
Q 2594 391 2855 752 
Q 3116 1113 3116 1747 
z
M 1159 2969 
Q 1341 3281 1617 3432 
Q 1894 3584 2278 3584 
Q 2916 3584 3314 3078 
Q 3713 2572 3713 1747 
Q 3713 922 3314 415 
Q 2916 -91 2278 -91 
Q 1894 -91 1617 61 
Q 1341 213 1159 525 
L 1159 0 
L 581 0 
L 581 4863 
L 1159 4863 
L 1159 2969 
z
" transform="scale(0.015625)"/>
      </defs>
      <use xlink:href="#DejaVuSans-4e"/>
      <use xlink:href="#DejaVuSans-6f" transform="translate(74.804688 0)"/>
      <use xlink:href="#DejaVuSans-64" transform="translate(135.986328 0)"/>
      <use xlink:href="#DejaVuSans-65" transform="translate(199.462891 0)"/>
      <use xlink:href="#DejaVuSans-20" transform="translate(260.986328 0)"/>
      <use xlink:href="#DejaVuSans-62" transform="translate(292.773438 0)"/>
     </g>
    </g>
   </g>
   <g id="matplotlib.axis_4">
    <g id="ytick_7">
     <g id="line2d_34">
      <path d="M 56.09 592.707506 
L 778.05 592.707506 
" clip-path="url(#p90d0134cb6)" style="fill: none; stroke-dasharray: 0.8,1.32; stroke-dashoffset: 0; stroke: #b0b0b0; stroke-opacity: 0.5; stroke-width: 0.8"/>
     </g>
     <g id="line2d_35">
      <g>
       <use xlink:href="#m78970e4ec0" x="56.09" y="592.707506" style="stroke: #000000; stroke-width: 0.8"/>
      </g>
     </g>
     <g id="text_22">
      <!-- −1.5 -->
      <g transform="translate(24.807188 596.506725) scale(0.1 -0.1)">
       <use xlink:href="#DejaVuSans-2212"/>
       <use xlink:href="#DejaVuSans-31" transform="translate(83.789062 0)"/>
       <use xlink:href="#DejaVuSans-2e" transform="translate(147.412109 0)"/>
       <use xlink:href="#DejaVuSans-35" transform="translate(179.199219 0)"/>
      </g>
     </g>
    </g>
    <g id="ytick_8">
     <g id="line2d_36">
      <path d="M 56.09 563.723823 
L 778.05 563.723823 
" clip-path="url(#p90d0134cb6)" style="fill: none; stroke-dasharray: 0.8,1.32; stroke-dashoffset: 0; stroke: #b0b0b0; stroke-opacity: 0.5; stroke-width: 0.8"/>
     </g>
     <g id="line2d_37">
      <g>
       <use xlink:href="#m78970e4ec0" x="56.09" y="563.723823" style="stroke: #000000; stroke-width: 0.8"/>
      </g>
     </g>
     <g id="text_23">
      <!-- −1.0 -->
      <g transform="translate(24.807188 567.523042) scale(0.1 -0.1)">
       <use xlink:href="#DejaVuSans-2212"/>
       <use xlink:href="#DejaVuSans-31" transform="translate(83.789062 0)"/>
       <use xlink:href="#DejaVuSans-2e" transform="translate(147.412109 0)"/>
       <use xlink:href="#DejaVuSans-30" transform="translate(179.199219 0)"/>
      </g>
     </g>
    </g>
    <g id="ytick_9">
     <g id="line2d_38">
      <path d="M 56.09 534.74014 
L 778.05 534.74014 
" clip-path="url(#p90d0134cb6)" style="fill: none; stroke-dasharray: 0.8,1.32; stroke-dashoffset: 0; stroke: #b0b0b0; stroke-opacity: 0.5; stroke-width: 0.8"/>
     </g>
     <g id="line2d_39">
      <g>
       <use xlink:href="#m78970e4ec0" x="56.09" y="534.74014" style="stroke: #000000; stroke-width: 0.8"/>
      </g>
     </g>
     <g id="text_24">
      <!-- −0.5 -->
      <g transform="translate(24.807188 538.539359) scale(0.1 -0.1)">
       <use xlink:href="#DejaVuSans-2212"/>
       <use xlink:href="#DejaVuSans-30" transform="translate(83.789062 0)"/>
       <use xlink:href="#DejaVuSans-2e" transform="translate(147.412109 0)"/>
       <use xlink:href="#DejaVuSans-35" transform="translate(179.199219 0)"/>
      </g>
     </g>
    </g>
    <g id="ytick_10">
     <g id="line2d_40">
      <path d="M 56.09 505.756457 
L 778.05 505.756457 
" clip-path="url(#p90d0134cb6)" style="fill: none; stroke-dasharray: 0.8,1.32; stroke-dashoffset: 0; stroke: #b0b0b0; stroke-opacity: 0.5; stroke-width: 0.8"/>
     </g>
     <g id="line2d_41">
      <g>
       <use xlink:href="#m78970e4ec0" x="56.09" y="505.756457" style="stroke: #000000; stroke-width: 0.8"/>
      </g>
     </g>
     <g id="text_25">
      <!-- 0.0 -->
      <g transform="translate(33.186875 509.555676) scale(0.1 -0.1)">
       <use xlink:href="#DejaVuSans-30"/>
       <use xlink:href="#DejaVuSans-2e" transform="translate(63.623047 0)"/>
       <use xlink:href="#DejaVuSans-30" transform="translate(95.410156 0)"/>
      </g>
     </g>
    </g>
    <g id="ytick_11">
     <g id="line2d_42">
      <path d="M 56.09 476.772774 
L 778.05 476.772774 
" clip-path="url(#p90d0134cb6)" style="fill: none; stroke-dasharray: 0.8,1.32; stroke-dashoffset: 0; stroke: #b0b0b0; stroke-opacity: 0.5; stroke-width: 0.8"/>
     </g>
     <g id="line2d_43">
      <g>
       <use xlink:href="#m78970e4ec0" x="56.09" y="476.772774" style="stroke: #000000; stroke-width: 0.8"/>
      </g>
     </g>
     <g id="text_26">
      <!-- 0.5 -->
      <g transform="translate(33.186875 480.571993) scale(0.1 -0.1)">
       <use xlink:href="#DejaVuSans-30"/>
       <use xlink:href="#DejaVuSans-2e" transform="translate(63.623047 0)"/>
       <use xlink:href="#DejaVuSans-35" transform="translate(95.410156 0)"/>
      </g>
     </g>
    </g>
    <g id="ytick_12">
     <g id="line2d_44">
      <path d="M 56.09 447.789091 
L 778.05 447.789091 
" clip-path="url(#p90d0134cb6)" style="fill: none; stroke-dasharray: 0.8,1.32; stroke-dashoffset: 0; stroke: #b0b0b0; stroke-opacity: 0.5; stroke-width: 0.8"/>
     </g>
     <g id="line2d_45">
      <g>
       <use xlink:href="#m78970e4ec0" x="56.09" y="447.789091" style="stroke: #000000; stroke-width: 0.8"/>
      </g>
     </g>
     <g id="text_27">
      <!-- 1.0 -->
      <g transform="translate(33.186875 451.58831) scale(0.1 -0.1)">
       <use xlink:href="#DejaVuSans-31"/>
       <use xlink:href="#DejaVuSans-2e" transform="translate(63.623047 0)"/>
       <use xlink:href="#DejaVuSans-30" transform="translate(95.410156 0)"/>
      </g>
     </g>
    </g>
    <g id="text_28">
     <!-- Delta (ms) -->
     <g transform="translate(18.7275 549.452135) rotate(-90) scale(0.1 -0.1)">
      <use xlink:href="#DejaVuSans-44"/>
      <use xlink:href="#DejaVuSans-65" transform="translate(77.001953 0)"/>
      <use xlink:href="#DejaVuSans-6c" transform="translate(138.525391 0)"/>
      <use xlink:href="#DejaVuSans-74" transform="translate(166.308594 0)"/>
      <use xlink:href="#DejaVuSans-61" transform="translate(205.517578 0)"/>
      <use xlink:href="#DejaVuSans-20" transform="translate(266.796875 0)"/>
      <use xlink:href="#DejaVuSans-28" transform="translate(298.583984 0)"/>
      <use xlink:href="#DejaVuSans-6d" transform="translate(337.597656 0)"/>
      <use xlink:href="#DejaVuSans-73" transform="translate(435.009766 0)"/>
      <use xlink:href="#DejaVuSans-29" transform="translate(487.109375 0)"/>
     </g>
    </g>
   </g>
   <g id="line2d_46">
    <path d="M 56.09 505.756457 
L 417.07 506.584562 
L 778.05 505.480422 
" clip-path="url(#p90d0134cb6)" style="fill: none; stroke: #1f77b4; stroke-width: 1.8; stroke-linecap: square"/>
    <defs>
     <path id="m74fb9ff1c0" d="M 0 3 
C 0.795609 3 1.55874 2.683901 2.12132 2.12132 
C 2.683901 1.55874 3 0.795609 3 0 
C 3 -0.795609 2.683901 -1.55874 2.12132 -2.12132 
C 1.55874 -2.683901 0.795609 -3 0 -3 
C -0.795609 -3 -1.55874 -2.683901 -2.12132 -2.12132 
C -2.683901 -1.55874 -3 -0.795609 -3 0 
C -3 0.795609 -2.683901 1.55874 -2.12132 2.12132 
C -1.55874 2.683901 -0.795609 3 0 3 
z
" style="stroke: #1f77b4"/>
    </defs>
    <g clip-path="url(#p90d0134cb6)">
     <use xlink:href="#m74fb9ff1c0" x="56.09" y="505.756457" style="fill: #1f77b4; stroke: #1f77b4"/>
     <use xlink:href="#m74fb9ff1c0" x="417.07" y="506.584562" style="fill: #1f77b4; stroke: #1f77b4"/>
     <use xlink:href="#m74fb9ff1c0" x="778.05" y="505.480422" style="fill: #1f77b4; stroke: #1f77b4"/>
    </g>
   </g>
   <g id="line2d_47">
    <path d="M 56.09 505.756457 
L 778.05 505.756457 
" clip-path="url(#p90d0134cb6)" style="fill: none; stroke-dasharray: 3.7,1.6; stroke-dashoffset: 0; stroke: #000000"/>
   </g>
   <g id="patch_9">
    <path d="M 56.09 606.04 
L 56.09 440.253333 
" style="fill: none; stroke: #000000; stroke-width: 0.8; stroke-linejoin: miter; stroke-linecap: square"/>
   </g>
   <g id="patch_10">
    <path d="M 778.05 606.04 
L 778.05 440.253333 
" style="fill: none; stroke: #000000; stroke-width: 0.8; stroke-linejoin: miter; stroke-linecap: square"/>
   </g>
   <g id="patch_11">
    <path d="M 56.09 606.04 
L 778.05 606.04 
" style="fill: none; stroke: #000000; stroke-width: 0.8; stroke-linejoin: miter; stroke-linecap: square"/>
   </g>
   <g id="patch_12">
    <path d="M 56.09 440.253333 
L 778.05 440.253333 
" style="fill: none; stroke: #000000; stroke-width: 0.8; stroke-linejoin: miter; stroke-linecap: square"/>
   </g>
   <g id="text_29">
    <!-- Approximate reaction timing error (delta) between node 0 and node b -->
    <g transform="translate(206.83375 434.253333) scale(0.12 -0.12)">
     <defs>
      <path id="DejaVuSans-41" d="M 2188 4044 
L 1331 1722 
L 3047 1722 
L 2188 4044 
z
M 1831 4666 
L 2547 4666 
L 4325 0 
L 3669 0 
L 3244 1197 
L 1141 1197 
L 716 0 
L 50 0 
L 1831 4666 
z
" transform="scale(0.015625)"/>
      <path id="DejaVuSans-70" d="M 1159 525 
L 1159 -1331 
L 581 -1331 
L 581 3500 
L 1159 3500 
L 1159 2969 
Q 1341 3281 1617 3432 
Q 1894 3584 2278 3584 
Q 2916 3584 3314 3078 
Q 3713 2572 3713 1747 
Q 3713 922 3314 415 
Q 2916 -91 2278 -91 
Q 1894 -91 1617 61 
Q 1341 213 1159 525 
z
M 3116 1747 
Q 3116 2381 2855 2742 
Q 2594 3103 2138 3103 
Q 1681 3103 1420 2742 
Q 1159 2381 1159 1747 
Q 1159 1113 1420 752 
Q 1681 391 2138 391 
Q 2594 391 2855 752 
Q 3116 1113 3116 1747 
z
" transform="scale(0.015625)"/>
      <path id="DejaVuSans-78" d="M 3513 3500 
L 2247 1797 
L 3578 0 
L 2900 0 
L 1881 1375 
L 863 0 
L 184 0 
L 1544 1831 
L 300 3500 
L 978 3500 
L 1906 2253 
L 2834 3500 
L 3513 3500 
z
" transform="scale(0.015625)"/>
      <path id="DejaVuSans-63" d="M 3122 3366 
L 3122 2828 
Q 2878 2963 2633 3030 
Q 2388 3097 2138 3097 
Q 1578 3097 1268 2742 
Q 959 2388 959 1747 
Q 959 1106 1268 751 
Q 1578 397 2138 397 
Q 2388 397 2633 464 
Q 2878 531 3122 666 
L 3122 134 
Q 2881 22 2623 -34 
Q 2366 -91 2075 -91 
Q 1284 -91 818 406 
Q 353 903 353 1747 
Q 353 2603 823 3093 
Q 1294 3584 2113 3584 
Q 2378 3584 2631 3529 
Q 2884 3475 3122 3366 
z
" transform="scale(0.015625)"/>
      <path id="DejaVuSans-6e" d="M 3513 2113 
L 3513 0 
L 2938 0 
L 2938 2094 
Q 2938 2591 2744 2837 
Q 2550 3084 2163 3084 
Q 1697 3084 1428 2787 
Q 1159 2491 1159 1978 
L 1159 0 
L 581 0 
L 581 3500 
L 1159 3500 
L 1159 2956 
Q 1366 3272 1645 3428 
Q 1925 3584 2291 3584 
Q 2894 3584 3203 3211 
Q 3513 2838 3513 2113 
z
" transform="scale(0.015625)"/>
      <path id="DejaVuSans-77" d="M 269 3500 
L 844 3500 
L 1563 769 
L 2278 3500 
L 2956 3500 
L 3675 769 
L 4391 3500 
L 4966 3500 
L 4050 0 
L 3372 0 
L 2619 2869 
L 1863 0 
L 1184 0 
L 269 3500 
z
" transform="scale(0.015625)"/>
     </defs>
     <use xlink:href="#DejaVuSans-41"/>
     <use xlink:href="#DejaVuSans-70" transform="translate(68.408203 0)"/>
     <use xlink:href="#DejaVuSans-70" transform="translate(131.884766 0)"/>
     <use xlink:href="#DejaVuSans-72" transform="translate(195.361328 0)"/>
     <use xlink:href="#DejaVuSans-6f" transform="translate(234.224609 0)"/>
     <use xlink:href="#DejaVuSans-78" transform="translate(292.28125 0)"/>
     <use xlink:href="#DejaVuSans-69" transform="translate(351.460938 0)"/>
     <use xlink:href="#DejaVuSans-6d" transform="translate(379.244141 0)"/>
     <use xlink:href="#DejaVuSans-61" transform="translate(476.65625 0)"/>
     <use xlink:href="#DejaVuSans-74" transform="translate(537.935547 0)"/>
     <use xlink:href="#DejaVuSans-65" transform="translate(577.144531 0)"/>
     <use xlink:href="#DejaVuSans-20" transform="translate(638.667969 0)"/>
     <use xlink:href="#DejaVuSans-72" transform="translate(670.455078 0)"/>
     <use xlink:href="#DejaVuSans-65" transform="translate(709.318359 0)"/>
     <use xlink:href="#DejaVuSans-61" transform="translate(770.841797 0)"/>
     <use xlink:href="#DejaVuSans-63" transform="translate(832.121094 0)"/>
     <use xlink:href="#DejaVuSans-74" transform="translate(887.101562 0)"/>
     <use xlink:href="#DejaVuSans-69" transform="translate(926.310547 0)"/>
     <use xlink:href="#DejaVuSans-6f" transform="translate(954.09375 0)"/>
     <use xlink:href="#DejaVuSans-6e" transform="translate(1015.275391 0)"/>
     <use xlink:href="#DejaVuSans-20" transform="translate(1078.654297 0)"/>
     <use xlink:href="#DejaVuSans-74" transform="translate(1110.441406 0)"/>
     <use xlink:href="#DejaVuSans-69" transform="translate(1149.650391 0)"/>
     <use xlink:href="#DejaVuSans-6d" transform="translate(1177.433594 0)"/>
     <use xlink:href="#DejaVuSans-69" transform="translate(1274.845703 0)"/>
     <use xlink:href="#DejaVuSans-6e" transform="translate(1302.628906 0)"/>
     <use xlink:href="#DejaVuSans-67" transform="translate(1366.007812 0)"/>
     <use xlink:href="#DejaVuSans-20" transform="translate(1429.484375 0)"/>
     <use xlink:href="#DejaVuSans-65" transform="translate(1461.271484 0)"/>
     <use xlink:href="#DejaVuSans-72" transform="translate(1522.794922 0)"/>
     <use xlink:href="#DejaVuSans-72" transform="translate(1562.158203 0)"/>
     <use xlink:href="#DejaVuSans-6f" transform="translate(1601.021484 0)"/>
     <use xlink:href="#DejaVuSans-72" transform="translate(1662.203125 0)"/>
     <use xlink:href="#DejaVuSans-20" transform="translate(1703.316406 0)"/>
     <use xlink:href="#DejaVuSans-28" transform="translate(1735.103516 0)"/>
     <use xlink:href="#DejaVuSans-64" transform="translate(1774.117188 0)"/>
     <use xlink:href="#DejaVuSans-65" transform="translate(1837.59375 0)"/>
     <use xlink:href="#DejaVuSans-6c" transform="translate(1899.117188 0)"/>
     <use xlink:href="#DejaVuSans-74" transform="translate(1926.900391 0)"/>
     <use xlink:href="#DejaVuSans-61" transform="translate(1966.109375 0)"/>
     <use xlink:href="#DejaVuSans-29" transform="translate(2027.388672 0)"/>
     <use xlink:href="#DejaVuSans-20" transform="translate(2066.402344 0)"/>
     <use xlink:href="#DejaVuSans-62" transform="translate(2098.189453 0)"/>
     <use xlink:href="#DejaVuSans-65" transform="translate(2161.666016 0)"/>
     <use xlink:href="#DejaVuSans-74" transform="translate(2223.189453 0)"/>
     <use xlink:href="#DejaVuSans-77" transform="translate(2262.398438 0)"/>
     <use xlink:href="#DejaVuSans-65" transform="translate(2344.185547 0)"/>
     <use xlink:href="#DejaVuSans-65" transform="translate(2405.708984 0)"/>
     <use xlink:href="#DejaVuSans-6e" transform="translate(2467.232422 0)"/>
     <use xlink:href="#DejaVuSans-20" transform="translate(2530.611328 0)"/>
     <use xlink:href="#DejaVuSans-6e" transform="translate(2562.398438 0)"/>
     <use xlink:href="#DejaVuSans-6f" transform="translate(2625.777344 0)"/>
     <use xlink:href="#DejaVuSans-64" transform="translate(2686.958984 0)"/>
     <use xlink:href="#DejaVuSans-65" transform="translate(2750.435547 0)"/>
     <use xlink:href="#DejaVuSans-20" transform="translate(2811.958984 0)"/>
     <use xlink:href="#DejaVuSans-30" transform="translate(2843.746094 0)"/>
     <use xlink:href="#DejaVuSans-20" transform="translate(2907.369141 0)"/>
     <use xlink:href="#DejaVuSans-61" transform="translate(2939.15625 0)"/>
     <use xlink:href="#DejaVuSans-6e" transform="translate(3000.435547 0)"/>
     <use xlink:href="#DejaVuSans-64" transform="translate(3063.814453 0)"/>
     <use xlink:href="#DejaVuSans-20" transform="translate(3127.291016 0)"/>
     <use xlink:href="#DejaVuSans-6e" transform="translate(3159.078125 0)"/>
     <use xlink:href="#DejaVuSans-6f" transform="translate(3222.457031 0)"/>
     <use xlink:href="#DejaVuSans-64" transform="translate(3283.638672 0)"/>
     <use xlink:href="#DejaVuSans-65" transform="translate(3347.115234 0)"/>
     <use xlink:href="#DejaVuSans-20" transform="translate(3408.638672 0)"/>
     <use xlink:href="#DejaVuSans-62" transform="translate(3440.425781 0)"/>
    </g>
   </g>
   <g id="legend_2">
    <g id="patch_13">
     <path d="M 63.09 477.609583 
L 218.544688 477.609583 
Q 220.544688 477.609583 220.544688 475.609583 
L 220.544688 447.253333 
Q 220.544688 445.253333 218.544688 445.253333 
L 63.09 445.253333 
Q 61.09 445.253333 61.09 447.253333 
L 61.09 475.609583 
Q 61.09 477.609583 63.09 477.609583 
z
" style="fill: #ffffff; opacity: 0.8; stroke: #cccccc; stroke-linejoin: miter"/>
    </g>
    <g id="line2d_48">
     <path d="M 65.09 453.351771 
L 75.09 453.351771 
L 85.09 453.351771 
" style="fill: none; stroke: #1f77b4; stroke-width: 1.8; stroke-linecap: square"/>
     <g>
      <use xlink:href="#m74fb9ff1c0" x="75.09" y="453.351771" style="fill: #1f77b4; stroke: #1f77b4"/>
     </g>
    </g>
    <g id="text_30">
     <!-- Average clock difference -->
     <g transform="translate(93.09 456.851771) scale(0.1 -0.1)">
      <defs>
       <path id="DejaVuSans-76" d="M 191 3500 
L 800 3500 
L 1894 563 
L 2988 3500 
L 3597 3500 
L 2284 0 
L 1503 0 
L 191 3500 
z
" transform="scale(0.015625)"/>
       <path id="DejaVuSans-6b" d="M 581 4863 
L 1159 4863 
L 1159 1991 
L 2875 3500 
L 3609 3500 
L 1753 1863 
L 3688 0 
L 2938 0 
L 1159 1709 
L 1159 0 
L 581 0 
L 581 4863 
z
" transform="scale(0.015625)"/>
       <path id="DejaVuSans-66" d="M 2375 4863 
L 2375 4384 
L 1825 4384 
Q 1516 4384 1395 4259 
Q 1275 4134 1275 3809 
L 1275 3500 
L 2222 3500 
L 2222 3053 
L 1275 3053 
L 1275 0 
L 697 0 
L 697 3053 
L 147 3053 
L 147 3500 
L 697 3500 
L 697 3744 
Q 697 4328 969 4595 
Q 1241 4863 1831 4863 
L 2375 4863 
z
" transform="scale(0.015625)"/>
      </defs>
      <use xlink:href="#DejaVuSans-41"/>
      <use xlink:href="#DejaVuSans-76" transform="translate(62.533203 0)"/>
      <use xlink:href="#DejaVuSans-65" transform="translate(121.712891 0)"/>
      <use xlink:href="#DejaVuSans-72" transform="translate(183.236328 0)"/>
      <use xlink:href="#DejaVuSans-61" transform="translate(224.349609 0)"/>
      <use xlink:href="#DejaVuSans-67" transform="translate(285.628906 0)"/>
      <use xlink:href="#DejaVuSans-65" transform="translate(349.105469 0)"/>
      <use xlink:href="#DejaVuSans-20" transform="translate(410.628906 0)"/>
      <use xlink:href="#DejaVuSans-63" transform="translate(442.416016 0)"/>
      <use xlink:href="#DejaVuSans-6c" transform="translate(497.396484 0)"/>
      <use xlink:href="#DejaVuSans-6f" transform="translate(525.179688 0)"/>
      <use xlink:href="#DejaVuSans-63" transform="translate(586.361328 0)"/>
      <use xlink:href="#DejaVuSans-6b" transform="translate(641.341797 0)"/>
      <use xlink:href="#DejaVuSans-20" transform="translate(699.251953 0)"/>
      <use xlink:href="#DejaVuSans-64" transform="translate(731.039062 0)"/>
      <use xlink:href="#DejaVuSans-69" transform="translate(794.515625 0)"/>
      <use xlink:href="#DejaVuSans-66" transform="translate(822.298828 0)"/>
      <use xlink:href="#DejaVuSans-66" transform="translate(857.503906 0)"/>
      <use xlink:href="#DejaVuSans-65" transform="translate(892.708984 0)"/>
      <use xlink:href="#DejaVuSans-72" transform="translate(954.232422 0)"/>
      <use xlink:href="#DejaVuSans-65" transform="translate(993.095703 0)"/>
      <use xlink:href="#DejaVuSans-6e" transform="translate(1054.619141 0)"/>
      <use xlink:href="#DejaVuSans-63" transform="translate(1117.998047 0)"/>
      <use xlink:href="#DejaVuSans-65" transform="translate(1172.978516 0)"/>
     </g>
    </g>
    <g id="patch_14">
     <path d="M 65.09 471.529896 
L 85.09 471.529896 
L 85.09 464.529896 
L 65.09 464.529896 
z
" style="fill: #808080; fill-opacity: 0.25; stroke: #808080; stroke-opacity: 0.25; stroke-linejoin: miter"/>
    </g>
    <g id="text_31">
     <!-- Min-max range -->
     <g transform="translate(93.09 471.529896) scale(0.1 -0.1)">
      <use xlink:href="#DejaVuSans-4d"/>
      <use xlink:href="#DejaVuSans-69" transform="translate(86.279297 0)"/>
      <use xlink:href="#DejaVuSans-6e" transform="translate(114.0625 0)"/>
      <use xlink:href="#DejaVuSans-2d" transform="translate(177.441406 0)"/>
      <use xlink:href="#DejaVuSans-6d" transform="translate(213.525391 0)"/>
      <use xlink:href="#DejaVuSans-61" transform="translate(310.9375 0)"/>
      <use xlink:href="#DejaVuSans-78" transform="translate(372.216797 0)"/>
      <use xlink:href="#DejaVuSans-20" transform="translate(431.396484 0)"/>
      <use xlink:href="#DejaVuSans-72" transform="translate(463.183594 0)"/>
      <use xlink:href="#DejaVuSans-61" transform="translate(504.296875 0)"/>
      <use xlink:href="#DejaVuSans-6e" transform="translate(565.576172 0)"/>
      <use xlink:href="#DejaVuSans-67" transform="translate(628.955078 0)"/>
      <use xlink:href="#DejaVuSans-65" transform="translate(692.431641 0)"/>
     </g>
    </g>
   </g>
  </g>
  <g id="text_32">
   <!-- Approx. reaction timing error (logical delay: 200 ms) -->
   <g transform="translate(238.955625 22.078125) scale(0.12 -0.12)">
    <defs>
     <path id="DejaVuSans-79" d="M 2059 -325 
Q 1816 -950 1584 -1140 
Q 1353 -1331 966 -1331 
L 506 -1331 
L 506 -850 
L 844 -850 
Q 1081 -850 1212 -737 
Q 1344 -625 1503 -206 
L 1606 56 
L 191 3500 
L 800 3500 
L 1894 763 
L 2988 3500 
L 3597 3500 
L 2059 -325 
z
" transform="scale(0.015625)"/>
     <path id="DejaVuSans-3a" d="M 750 794 
L 1409 794 
L 1409 0 
L 750 0 
L 750 794 
z
M 750 3309 
L 1409 3309 
L 1409 2516 
L 750 2516 
L 750 3309 
z
" transform="scale(0.015625)"/>
    </defs>
    <use xlink:href="#DejaVuSans-41"/>
    <use xlink:href="#DejaVuSans-70" transform="translate(68.408203 0)"/>
    <use xlink:href="#DejaVuSans-70" transform="translate(131.884766 0)"/>
    <use xlink:href="#DejaVuSans-72" transform="translate(195.361328 0)"/>
    <use xlink:href="#DejaVuSans-6f" transform="translate(234.224609 0)"/>
    <use xlink:href="#DejaVuSans-78" transform="translate(292.28125 0)"/>
    <use xlink:href="#DejaVuSans-2e" transform="translate(351.460938 0)"/>
    <use xlink:href="#DejaVuSans-20" transform="translate(383.248047 0)"/>
    <use xlink:href="#DejaVuSans-72" transform="translate(415.035156 0)"/>
    <use xlink:href="#DejaVuSans-65" transform="translate(453.898438 0)"/>
    <use xlink:href="#DejaVuSans-61" transform="translate(515.421875 0)"/>
    <use xlink:href="#DejaVuSans-63" transform="translate(576.701172 0)"/>
    <use xlink:href="#DejaVuSans-74" transform="translate(631.681641 0)"/>
    <use xlink:href="#DejaVuSans-69" transform="translate(670.890625 0)"/>
    <use xlink:href="#DejaVuSans-6f" transform="translate(698.673828 0)"/>
    <use xlink:href="#DejaVuSans-6e" transform="translate(759.855469 0)"/>
    <use xlink:href="#DejaVuSans-20" transform="translate(823.234375 0)"/>
    <use xlink:href="#DejaVuSans-74" transform="translate(855.021484 0)"/>
    <use xlink:href="#DejaVuSans-69" transform="translate(894.230469 0)"/>
    <use xlink:href="#DejaVuSans-6d" transform="translate(922.013672 0)"/>
    <use xlink:href="#DejaVuSans-69" transform="translate(1019.425781 0)"/>
    <use xlink:href="#DejaVuSans-6e" transform="translate(1047.208984 0)"/>
    <use xlink:href="#DejaVuSans-67" transform="translate(1110.587891 0)"/>
    <use xlink:href="#DejaVuSans-20" transform="translate(1174.064453 0)"/>
    <use xlink:href="#DejaVuSans-65" transform="translate(1205.851562 0)"/>
    <use xlink:href="#DejaVuSans-72" transform="translate(1267.375 0)"/>
    <use xlink:href="#DejaVuSans-72" transform="translate(1306.738281 0)"/>
    <use xlink:href="#DejaVuSans-6f" transform="translate(1345.601562 0)"/>
    <use xlink:href="#DejaVuSans-72" transform="translate(1406.783203 0)"/>
    <use xlink:href="#DejaVuSans-20" transform="translate(1447.896484 0)"/>
    <use xlink:href="#DejaVuSans-28" transform="translate(1479.683594 0)"/>
    <use xlink:href="#DejaVuSans-6c" transform="translate(1518.697266 0)"/>
    <use xlink:href="#DejaVuSans-6f" transform="translate(1546.480469 0)"/>
    <use xlink:href="#DejaVuSans-67" transform="translate(1607.662109 0)"/>
    <use xlink:href="#DejaVuSans-69" transform="translate(1671.138672 0)"/>
    <use xlink:href="#DejaVuSans-63" transform="translate(1698.921875 0)"/>
    <use xlink:href="#DejaVuSans-61" transform="translate(1753.902344 0)"/>
    <use xlink:href="#DejaVuSans-6c" transform="translate(1815.181641 0)"/>
    <use xlink:href="#DejaVuSans-20" transform="translate(1842.964844 0)"/>
    <use xlink:href="#DejaVuSans-64" transform="translate(1874.751953 0)"/>
    <use xlink:href="#DejaVuSans-65" transform="translate(1938.228516 0)"/>
    <use xlink:href="#DejaVuSans-6c" transform="translate(1999.751953 0)"/>
    <use xlink:href="#DejaVuSans-61" transform="translate(2027.535156 0)"/>
    <use xlink:href="#DejaVuSans-79" transform="translate(2088.814453 0)"/>
    <use xlink:href="#DejaVuSans-3a" transform="translate(2140.744141 0)"/>
    <use xlink:href="#DejaVuSans-20" transform="translate(2174.435547 0)"/>
    <use xlink:href="#DejaVuSans-32" transform="translate(2206.222656 0)"/>
    <use xlink:href="#DejaVuSans-30" transform="translate(2269.845703 0)"/>
    <use xlink:href="#DejaVuSans-30" transform="translate(2333.46875 0)"/>
    <use xlink:href="#DejaVuSans-20" transform="translate(2397.091797 0)"/>
    <use xlink:href="#DejaVuSans-6d" transform="translate(2428.878906 0)"/>
    <use xlink:href="#DejaVuSans-73" transform="translate(2526.291016 0)"/>
    <use xlink:href="#DejaVuSans-29" transform="translate(2578.390625 0)"/>
   </g>
  </g>
 </g>
 <defs>
  <clipPath id="p7ba8f6912b">
   <rect x="56.09" y="50.64" width="721.96" height="331.573333"/>
  </clipPath>
  <clipPath id="p90d0134cb6">
   <rect x="56.09" y="440.253333" width="721.96" height="165.786667"/>
  </clipPath>
 </defs>
</svg>
